<svg viewBox="0 0 330 200" xmlns="http://www.w3.org/2000/svg"><g><g><g><g><g><line x1="51.53200149536133" y1="176.89999961853027" x2="46.53200149536133" y2="176.89999961853027" style="visibility: inherit;" fill="rgb(0, 0, 0)" stroke="rgb(204, 204, 204)" stroke-width="1px"></line><line x1="51.53200149536133" y1="163.2923073401818" x2="46.53200149536133" y2="163.2923073401818" style="visibility: inherit;" fill="rgb(0, 0, 0)" stroke="rgb(204, 204, 204)" stroke-width="1px"></line><line x1="51.53200149536133" y1="149.6846150618333" x2="46.53200149536133" y2="149.6846150618333" style="visibility: inherit;" fill="rgb(0, 0, 0)" stroke="rgb(204, 204, 204)" stroke-width="1px"></line><line x1="51.53200149536133" y1="136.07692278348483" x2="46.53200149536133" y2="136.07692278348483" style="visibility: inherit;" fill="rgb(0, 0, 0)" stroke="rgb(204, 204, 204)" stroke-width="1px"></line><line x1="51.53200149536133" y1="122.46923050513634" x2="46.53200149536133" y2="122.46923050513634" style="visibility: inherit;" fill="rgb(0, 0, 0)" stroke="rgb(204, 204, 204)" stroke-width="1px"></line><line x1="51.53200149536133" y1="108.86153822678787" x2="46.53200149536133" y2="108.86153822678787" style="visibility: inherit;" fill="rgb(0, 0, 0)" stroke="rgb(204, 204, 204)" stroke-width="1px"></line><line x1="51.53200149536133" y1="95.25384594843939" x2="46.53200149536133" y2="95.25384594843939" style="visibility: inherit;" fill="rgb(0, 0, 0)" stroke="rgb(204, 204, 204)" stroke-width="1px"></line><line x1="51.53200149536133" y1="81.6461536700909" x2="46.53200149536133" y2="81.6461536700909" style="visibility: inherit;" fill="rgb(0, 0, 0)" stroke="rgb(204, 204, 204)" stroke-width="1px"></line><line x1="51.53200149536133" y1="68.0384613917424" x2="46.53200149536133" y2="68.0384613917424" style="visibility: inherit;" fill="rgb(0, 0, 0)" stroke="rgb(204, 204, 204)" stroke-width="1px"></line><line x1="51.53200149536133" y1="54.430769113393936" x2="46.53200149536133" y2="54.430769113393936" style="visibility: inherit;" fill="rgb(0, 0, 0)" stroke="rgb(204, 204, 204)" stroke-width="1px"></line><line x1="51.53200149536133" y1="40.82307683504546" x2="46.53200149536133" y2="40.82307683504546" style="visibility: inherit;" fill="rgb(0, 0, 0)" stroke="rgb(204, 204, 204)" stroke-width="1px"></line><line x1="51.53200149536133" y1="27.215384556696968" x2="46.53200149536133" y2="27.215384556696968" style="visibility: inherit;" fill="rgb(0, 0, 0)" stroke="rgb(204, 204, 204)" stroke-width="1px"></line><line x1="51.53200149536133" y1="13.607692278348493" x2="46.53200149536133" y2="13.607692278348493" style="visibility: inherit;" fill="rgb(0, 0, 0)" stroke="rgb(204, 204, 204)" stroke-width="1px"></line><line x1="51.53200149536133" y1="0" x2="46.53200149536133" y2="0" style="visibility: inherit;" fill="rgb(0, 0, 0)" stroke="rgb(204, 204, 204)" stroke-width="1px"></line></g><g transform="translate(41.53200149536133, 0)"><text style="text-anchor: end; visibility: hidden; font-family: Roboto, sans-serif; font-size: 12px; font-weight: 200;" x="0" y="176.89999961853027" dx="0em" dy="0.3em" fill="rgb(33, 33, 33)" stroke="none" stroke-width="1px">0</text><text style="text-anchor: end; visibility: inherit; font-family: Roboto, sans-serif; font-size: 12px; font-weight: 200;" x="0" y="163.2923073401818" dx="0em" dy="0.3em" fill="rgb(33, 33, 33)" stroke="none" stroke-width="1px">0.05</text><text style="text-anchor: end; visibility: hidden; font-family: Roboto, sans-serif; font-size: 12px; font-weight: 200;" x="0" y="149.6846150618333" dx="0em" dy="0.3em" fill="rgb(33, 33, 33)" stroke="none" stroke-width="1px">0.1</text><text style="text-anchor: end; visibility: inherit; font-family: Roboto, sans-serif; font-size: 12px; font-weight: 200;" x="0" y="136.07692278348483" dx="0em" dy="0.3em" fill="rgb(33, 33, 33)" stroke="none" stroke-width="1px">0.15</text><text style="text-anchor: end; visibility: hidden; font-family: Roboto, sans-serif; font-size: 12px; font-weight: 200;" x="0" y="122.46923050513634" dx="0em" dy="0.3em" fill="rgb(33, 33, 33)" stroke="none" stroke-width="1px">0.2</text><text style="text-anchor: end; visibility: inherit; font-family: Roboto, sans-serif; font-size: 12px; font-weight: 200;" x="0" y="108.86153822678787" dx="0em" dy="0.3em" fill="rgb(33, 33, 33)" stroke="none" stroke-width="1px">0.25</text><text style="text-anchor: end; visibility: hidden; font-family: Roboto, sans-serif; font-size: 12px; font-weight: 200;" x="0" y="95.25384594843939" dx="0em" dy="0.3em" fill="rgb(33, 33, 33)" stroke="none" stroke-width="1px">0.3</text><text style="text-anchor: end; visibility: inherit; font-family: Roboto, sans-serif; font-size: 12px; font-weight: 200;" x="0" y="81.6461536700909" dx="0em" dy="0.3em" fill="rgb(33, 33, 33)" stroke="none" stroke-width="1px">0.35</text><text style="text-anchor: end; visibility: hidden; font-family: Roboto, sans-serif; font-size: 12px; font-weight: 200;" x="0" y="68.0384613917424" dx="0em" dy="0.3em" fill="rgb(33, 33, 33)" stroke="none" stroke-width="1px">0.4</text><text style="text-anchor: end; visibility: inherit; font-family: Roboto, sans-serif; font-size: 12px; font-weight: 200;" x="0" y="54.430769113393936" dx="0em" dy="0.3em" fill="rgb(33, 33, 33)" stroke="none" stroke-width="1px">0.45</text><text style="text-anchor: end; visibility: hidden; font-family: Roboto, sans-serif; font-size: 12px; font-weight: 200;" x="0" y="40.82307683504546" dx="0em" dy="0.3em" fill="rgb(33, 33, 33)" stroke="none" stroke-width="1px">0.5</text><text style="text-anchor: end; visibility: inherit; font-family: Roboto, sans-serif; font-size: 12px; font-weight: 200;" x="0" y="27.215384556696968" dx="0em" dy="0.3em" fill="rgb(33, 33, 33)" stroke="none" stroke-width="1px">0.55</text><text style="text-anchor: end; visibility: hidden; font-family: Roboto, sans-serif; font-size: 12px; font-weight: 200;" x="0" y="13.607692278348493" dx="0em" dy="0.3em" fill="rgb(33, 33, 33)" stroke="none" stroke-width="1px">0.6</text><text style="text-anchor: end; visibility: hidden; font-family: Roboto, sans-serif; font-size: 12px; font-weight: 200;" x="0" y="0" dx="0em" dy="0.3em" fill="rgb(33, 33, 33)" stroke="none" stroke-width="1px">0.65</text></g><line x1="51.53200149536133" y1="0" x2="51.53200149536133" y2="176.89999961853027" fill="rgb(0, 0, 0)" stroke="rgb(204, 204, 204)" stroke-width="1px"></line></g></g><g transform="translate(51, 0)" clip-path="url(#clip_0)"><clipPath id="clip_0"><rect width="278" height="176"></rect></clipPath><g><g><g><line x1="0" y1="0" x2="0" y2="176.89999961853027" fill="rgb(0, 0, 0)" stroke="rgb(66, 66, 66)" stroke-width="1px" opacity="0.25"></line><line x1="30.94088872273763" y1="0" x2="30.94088872273763" y2="176.89999961853027" fill="rgb(0, 0, 0)" stroke="rgb(66, 66, 66)" stroke-width="1px" opacity="0.25"></line><line x1="61.88177744547526" y1="0" x2="61.88177744547526" y2="176.89999961853027" fill="rgb(0, 0, 0)" stroke="rgb(66, 66, 66)" stroke-width="1px" opacity="0.25"></line><line x1="92.82266616821289" y1="0" x2="92.82266616821289" y2="176.89999961853027" fill="rgb(0, 0, 0)" stroke="rgb(66, 66, 66)" stroke-width="1px" opacity="0.25"></line><line x1="123.76355489095052" y1="0" x2="123.76355489095052" y2="176.89999961853027" fill="rgb(0, 0, 0)" stroke="rgb(66, 66, 66)" stroke-width="1px" opacity="0.25"></line><line x1="154.70444361368817" y1="0" x2="154.70444361368817" y2="176.89999961853027" fill="rgb(0, 0, 0)" stroke="rgb(66, 66, 66)" stroke-width="1px" opacity="0.25"></line><line x1="185.64533233642578" y1="0" x2="185.64533233642578" y2="176.89999961853027" fill="rgb(0, 0, 0)" stroke="rgb(66, 66, 66)" stroke-width="1px" opacity="0.25"></line><line x1="216.58622105916342" y1="0" x2="216.58622105916342" y2="176.89999961853027" fill="rgb(0, 0, 0)" stroke="rgb(66, 66, 66)" stroke-width="1px" opacity="0.25"></line><line x1="247.52710978190103" y1="0" x2="247.52710978190103" y2="176.89999961853027" fill="rgb(0, 0, 0)" stroke="rgb(66, 66, 66)" stroke-width="1px" opacity="0.25"></line><line x1="278.4679985046387" y1="0" x2="278.4679985046387" y2="176.89999961853027" fill="rgb(0, 0, 0)" stroke="rgb(66, 66, 66)" stroke-width="1px" opacity="0.25"></line></g><g><line x1="0" y1="176.89999961853027" x2="278.4679985046387" y2="176.89999961853027" fill="rgb(0, 0, 0)" stroke="rgb(66, 66, 66)" stroke-width="1px" opacity="0.25"></line><line x1="0" y1="163.2923073401818" x2="278.4679985046387" y2="163.2923073401818" fill="rgb(0, 0, 0)" stroke="rgb(66, 66, 66)" stroke-width="1px" opacity="0.25"></line><line x1="0" y1="149.6846150618333" x2="278.4679985046387" y2="149.6846150618333" fill="rgb(0, 0, 0)" stroke="rgb(66, 66, 66)" stroke-width="1px" opacity="0.25"></line><line x1="0" y1="136.07692278348483" x2="278.4679985046387" y2="136.07692278348483" fill="rgb(0, 0, 0)" stroke="rgb(66, 66, 66)" stroke-width="1px" opacity="0.25"></line><line x1="0" y1="122.46923050513634" x2="278.4679985046387" y2="122.46923050513634" fill="rgb(0, 0, 0)" stroke="rgb(66, 66, 66)" stroke-width="1px" opacity="0.25"></line><line x1="0" y1="108.86153822678787" x2="278.4679985046387" y2="108.86153822678787" fill="rgb(0, 0, 0)" stroke="rgb(66, 66, 66)" stroke-width="1px" opacity="0.25"></line><line x1="0" y1="95.25384594843939" x2="278.4679985046387" y2="95.25384594843939" fill="rgb(0, 0, 0)" stroke="rgb(66, 66, 66)" stroke-width="1px" opacity="0.25"></line><line x1="0" y1="81.6461536700909" x2="278.4679985046387" y2="81.6461536700909" fill="rgb(0, 0, 0)" stroke="rgb(66, 66, 66)" stroke-width="1px" opacity="0.25"></line><line x1="0" y1="68.0384613917424" x2="278.4679985046387" y2="68.0384613917424" fill="rgb(0, 0, 0)" stroke="rgb(66, 66, 66)" stroke-width="1px" opacity="0.25"></line><line x1="0" y1="54.430769113393936" x2="278.4679985046387" y2="54.430769113393936" fill="rgb(0, 0, 0)" stroke="rgb(66, 66, 66)" stroke-width="1px" opacity="0.25"></line><line x1="0" y1="40.82307683504546" x2="278.4679985046387" y2="40.82307683504546" fill="rgb(0, 0, 0)" stroke="rgb(66, 66, 66)" stroke-width="1px" opacity="0.25"></line><line x1="0" y1="27.215384556696968" x2="278.4679985046387" y2="27.215384556696968" fill="rgb(0, 0, 0)" stroke="rgb(66, 66, 66)" stroke-width="1px" opacity="0.25"></line><line x1="0" y1="13.607692278348493" x2="278.4679985046387" y2="13.607692278348493" fill="rgb(0, 0, 0)" stroke="rgb(66, 66, 66)" stroke-width="1px" opacity="0.25"></line><line x1="0" y1="0" x2="278.4679985046387" y2="0" fill="rgb(0, 0, 0)" stroke="rgb(66, 66, 66)" stroke-width="1px" opacity="0.25"></line></g></g></g><g><g><line x1="0" y1="176.89999961853027" x2="278.4679985046387" y2="176.89999961853027" fill="rgb(0, 0, 0)" stroke="rgb(153, 153, 153)" stroke-width="1.5px"></line></g></g><g><g><line x1="30.94088872273763" y1="0" x2="30.94088872273763" y2="176.89999961853027" fill="rgb(0, 0, 0)" stroke="rgb(153, 153, 153)" stroke-width="1.5px"></line></g></g><g><g><g><g><g><path style="fill: none;" stroke="rgb(255, 112, 67)" stroke-width="2px" d="M31.095593166351318,123.11086828799533L31.528765608469644,144.63728453525852L31.776292718251547,140.16011772693875L31.807233606974286,149.3588771425L32.209465160369874,146.22474785884103L32.42605138142904,151.35008609272143L32.45699227015177,148.85269948110877L32.8901647122701,147.2623016438774L32.92110560099284,149.36847032631164L33.04486915588379,152.13403516855254L33.16863271077474,154.39676626448727L33.354278043111165,149.34747816016377L33.508982486724854,151.47964912280358L33.72556870778402,148.68855495278817L34.03497759501139,150.58251839635707L34.15874114990234,152.23973226230876L34.2825047047933,153.70197588788176L34.71567714691162,141.85012088001324L34.83944070180257,143.71150928334328L34.87038159052531,143.20714804881763L34.93226336797078,141.79594978594892L34.99414514541626,140.35395570798747L35.42731758753458,132.38618971011692L35.5201402537028,129.38824275276002L35.829549140930176,129.56962092975488L35.922371807098386,129.17843606875493L35.98425358454386,130.96898571310146L36.04613536198934,129.60386652522686L36.29366247177124,131.2577145009465L36.44836691538493,131.83111000517277L36.88153935750326,132.36750956641342L37.252830022176106,131.04946672721755L37.314711799621584,132.1299932191615L37.56223890940348,132.97010655767042L38.05729312896728,133.93158779833036L38.521406459808354,134.82261903605323L38.55234734853109,133.61229546495014L38.95457890192668,133.0291249372709L38.98551979064942,134.17553470436926L39.35681045532227,133.97190342694296L39.44963312149048,128.7969231244815L39.69716023127238,127.34435779132922L39.789982897440595,123.18592434587654L39.94468734105428,123.43023200123822L40.099391784667965,124.64479034078649L40.50162333806355,123.38710106906221L40.74915044784546,122.42272712494606L40.81103222529093,117.77230100210853L40.84197311401367,117.082996041393L40.93479578018188,116.4560812370458L41.64643622080485,110.61902268106513L41.67737710952759,110.83063376170375L42.04866777420044,110.54342051767472L42.23431310653687,107.97203405736954L42.265253995259606,108.2224204020493L42.29619488398234,108.29822921138319L42.66748554865519,108.37137737912806L42.91501265843709,109.20527432165876L43.03877621332804,109.74827116051586L43.10065799077351,108.97803798906885L43.41006687800089,109.04018233356364L43.471948655446376,109.27611312922502L43.812298431396485,109.0246317345682L44.02888465245565,108.84703638361098L44.46205709457398,108.99217685551355L44.49299798329671,109.07814367693005L44.55487976074219,106.89166013047907L44.77146598180135,106.55965237911734L45.235579312642415,106.72048246564043L45.359342867533364,107.41171735810757L45.51404731114705,107.065417377415L45.637810866038,106.8844866659918L45.66875175476074,106.83436143090199L45.82345619837443,106.45306830388755L45.85439708709716,106.40014032617441L46.0400424194336,104.2731166607672L46.75168286005656,105.25263090220119L46.81356463750203,104.98007581339091L46.84450552622477,104.76687290521295L46.87544641494751,105.07744263557062L46.96826908111572,105.11519597943808L47.0301508585612,105.45793857549776L47.46332330067953,105.21515467503879L47.49426418940226,104.91408524518653L47.55614596684774,102.12096753061265L47.618027744293215,101.85362162486267L47.679909521738686,102.24289630327091L47.803673076629636,101.79947513849451L47.865554854075114,101.71289581616725L48.051200186411535,101.4192795741549L48.174963741302484,98.80865785066804L48.36060907363891,98.9392677943535L48.4224908510844,96.72608246435661L48.54625440597535,93.85461767409434L49.041308625539145,93.40031824939108L49.22695395787557,93.84221111959481L49.35071751276652,93.71151318723331L49.41259929021199,93.4070291431477L49.96953528722127,90.75454958198252L50.24800328572591,91.31416467921345L50.402707729339596,91.27264085123629L50.433648618062335,89.9971494433376L50.681175727844234,89.85924524754176L50.86682106018066,90.0142914435595L50.89776194890341,89.15952686164623L51.33093439102173,89.11873648579248L51.609402389526366,88.83556705792219L51.85692949930827,89.275253964587L51.887870388031004,86.55673458180654L52.38292460759481,86.36642345531777L52.44480638504028,85.41735021567644L53.280210380554195,85.65630651967994L53.34209215799967,85.73033774057501L53.403973935445144,86.11877800810355L53.49679660161337,85.369997272524L53.58961926778158,83.88202588655378L53.99185082117717,83.9449892984443L54.61066859563192,84.39331290701963L54.95101837158203,84.09202337741661L54.98195926030477,84.46298982222058L55.16760459264119,84.55308618350657L55.35324992497762,84.57719390421234L55.848304144541416,83.49456061592163L55.879245033264155,83.77263589890649L55.94112681070964,83.58870366363695L56.31241747538249,82.57490673148583L56.71464902877808,82.57943680897367L56.962176138559975,81.6804993172433L57.05499880472819,81.58040728230654L57.48817124684652,82.09734106642811L57.6428756904602,80.52717815445543L57.76663924535115,80.89522272890886L57.92134368896484,79.9955001686271L58.385457019805905,80.23775355947495L58.72580679575602,80.56313000187129L58.84957035064698,80.88371427833255L59.746856123606364,81.38135683158727L59.80873790105184,79.38851580765937L60.11814678827921,79.2767030840041L60.33473300933838,78.61259931495916L60.767905451456706,79.22335021215787L61.88177744547526,79.43584324574384L61.974600111643475,79.78559477774135L62.03648188908895,79.89523787207251L62.37683166503906,79.88842726997544L62.59341788609822,80.14447154461264L62.71718144098917,79.38060975996267L62.77906321843465,79.73096853897299L63.05753121693929,80.43257475001593L63.64540810267131,80.48408433918046L64.07858054478963,79.87370235550748L64.10952143351237,80.4089463816803L64.17140321095785,80.27845830464564L64.29516676584879,79.20368946236675L64.57363476435343,79.52033399880878L64.94492542902628,80.04531692638324L65.06868898391724,78.90286104578789L65.13057076136272,79.21263726998926L65.22339342753092,77.80856605061781L65.2852752049764,75.86202366327954L65.34715698242188,76.15175571195883L65.65656586964926,76.23365654639828L65.7803294245402,75.1736615752139L65.99691564559936,75.46674275377127L66.05879742304484,76.13329374045796L66.21350186665853,76.5105898614519L66.43008808771769,76.4989101410327L66.58479253133137,76.31571326133167L66.61573342005411,75.23359217639732L66.98702408472697,74.70559374891506L67.29643297195435,75.35547648109147L67.35831474939982,74.90902689195023L67.38925563812256,75.00924617512946L67.60584185918172,73.85147329400256L67.88430985768636,73.98620135083864L67.9152507464091,74.31827507438321L68.28654141108196,74.6852034566226L68.53406852086385,73.9522794985348L68.6578320757548,73.07307393669134L68.87441829681396,72.61727301838219L69.46229518254597,72.0832265088088L69.52417695999145,72.19840932359082L69.67888140360515,72.58077646700278L69.70982229232789,73.20120431342568L69.77170406977335,73.27955386270534L69.86452673594157,73.34520402413492L69.98829029083252,73.6981971417097L70.17393562316894,73.99815463263715L70.2976991780599,74.21389590148188L70.45240362167358,73.49688255722194L70.63804895401,73.76149312223275L70.8855760637919,74.32503243674668L71.1331031735738,73.60221342846279L71.38063028335571,73.68120906767336L71.65909828186035,73.5854132792349L71.87568450291951,72.79596070647169L71.96850716908772,73.37790414677293L71.99944805781045,73.68239469554082L72.2779160563151,73.77741957313108L72.58732494354248,73.98949532174792L73.05143827438354,74.2573939221225L73.1752018292745,74.20610201081683L73.51555160522462,74.4526617873246L73.54649249394735,74.80124176798657L73.6702560488383,74.05518156447468L74.81506893157959,73.83571763322315L75.46482759475708,74.06079109919511L75.49576848347982,74.60816487653399L76.0527044804891,74.74181438026197L76.08364536921182,75.09207982098197L76.17646803538004,74.66932206964462L76.57869958877563,74.86029669334752L76.6405813662211,75.0960239541278L76.98093114217122,74.7311700665998L77.07375380833945,74.04818071981411L77.19751736323038,74.30621516737905L77.44504447301229,73.78824564759051L77.66163069407146,73.79351768183723L77.6925715827942,74.31752246431675L77.7853942489624,74.4011379634966L77.87821691513062,73.49618801238515L78.24950757980348,74.01535227885937L78.4351529121399,74.17521089027514L78.55891646703084,74.50081815955826L78.86832535425822,74.61154385872692L78.96114802042644,74.26645305904519L79.39432046254475,73.92441559251087L79.48714312871297,73.41261663640252L79.64184757232665,73.63725221180117L79.73467023849487,74.13960597832713L80.01313823699951,74.63759126952739L80.35348801294963,75.13126457518327L80.50819245656331,75.17898925031763L80.57007423400879,75.4601633797904L81.31265556335448,75.79584216231243L81.56018267313638,75.8770681811426L81.62206445058186,75.45419902481602L81.93147333780924,75.46893221944188L82.1480595588684,75.09009446394387L82.39558666865031,75.56703047720717L82.64311377843221,75.88935711933065L82.85969999949138,76.2310191141913L82.92158177693685,76.49807803301202L83.10722710927328,76.746862966754L83.38569510777792,77.20756719019973L83.63322221755982,76.54661444110303L83.6951039950053,75.50549013987656L83.7879266611735,75.59191817521881L83.88074932734172,76.05132953912963L83.91169021606446,76.2302517358195L84.12827643712362,76.39461425147772L84.2829808807373,76.84560782503162L84.49956710179647,77.29301744148793L84.77803510030111,77.73688543199353L84.96368043263753,77.88535049487928L85.24214843114217,77.15994335462842L85.58249820709229,77.59984772475708L85.89190709431966,77.4381626952327L85.95378887176513,77.68536472969502L86.1703750928243,77.55781127948384L86.32507953643798,77.99007276329323L86.4179022026062,77.20005811623872L86.6654293123881,77.63098940683406L87.25330619812013,78.05863732365096L88.11965108235677,78.4830390379423L88.24341463724772,78.86261104070387L88.52188263575236,78.95635891693051L88.67658707936604,79.15663607471255L88.73846885681152,79.35697910529505L89.38822751998902,79.04191894204754L89.72857729593913,78.39937284514951L89.82139996210734,78.81280776390237L90.00704529444377,79.22319525508196L90.0379861831665,79.63056868569313L90.50209951400757,79.08082642711794L90.53304040273031,79.48622418083924L90.87339017868041,79.64860038141586L90.99715373357137,80.04912753336964L91.15185817718505,80.4467651039377L91.21373995463053,80.06591135330065L91.49220795313516,80.40132909935926L91.61597150802612,80.6905916312696L91.64691239674886,81.08075594440317L91.70879417419432,81.46815435491015L91.73973506291706,81.85281597858653L91.80161684036254,82.06184532620912L92.14196661631267,82.33595600375774L92.20384839375815,82.71368873481606L92.45137550354005,81.9693801779391L92.48231639226279,81.99733024715027L92.57513905843099,82.37304379802687L93.6580701637268,82.0667436574834L95.01946926752726,82.37392578487149L95.2979372660319,82.48692001561511L95.60734615325927,82.71862733586201L95.94769592920939,82.91818074147385L96.0405185953776,83.18534677273819L96.22616392771403,82.88120513601729L96.38086837132771,83.24484173236782L96.41180926005045,83.39077739297268L96.5355728149414,83.58489810153321L96.56651370366414,83.94273757137826L96.7830999247233,84.2981971818918L97.15439058939617,84.65130041960528L97.77320836385091,84.87935253142066L98.08261725107829,85.22827757949281L98.63955324808757,85.24043309694574L98.85613946914673,85.5860601084262L99.3202527999878,84.9484022440192L99.50589813232422,84.2297680709854L99.8153070195516,84.44282276793066L100.15565679550171,83.78853616741316L100.24847946166992,84.13484975810084L100.40318390528361,84.21829073004433L100.80541545867919,83.55298383649897L101.54799678802489,83.010875831732L102.29057811737061,83.35632980844083L102.63092789332073,83.6995929946228L102.72375055948893,83.20076554913673L102.87845500310263,83.54277447920653L103.12598211288453,83.24412978518599L103.4353910001119,83.23312108853416L103.74479988733927,82.9370968131159L103.96138610839844,83.27647602855137L104.88961277008056,83.32630565801259L105.01337632497152,82.64839286045965L105.04431721369426,82.16369005533515L105.1680807685852,82.37989119264168L106.18913009643555,82.56346808109366L106.34383454004923,82.2868319957183L106.49853898366291,82.62244231318748L106.90077053705852,82.63047566468664L107.14829764684042,82.4002928302372L107.24112031300864,82.7329611204297L107.85993808746338,82.85840949048834L108.10746519724529,82.99711893030302L108.26216964085897,83.13959526879133L108.32405141830445,83.46637161205368L108.41687408447265,83.54690261557971L108.47875586191813,83.21072013194622L108.50969675064087,83.53483451062671L108.85004652659099,83.74328429570124L108.91192830403646,84.06397960333436L108.97381008148193,84.34614377764872L109.1903963025411,83.70146788121698L109.25227807998657,83.93703358165753L109.49980518976847,83.31459576788602L110.33520918528238,83.6328874241613L110.36615007400512,83.94933672353575L110.70649984995524,84.06975426764814L110.73744073867798,84.38322184070184L111.04684962590535,84.54992732331081L111.1706131807963,84.78567477301296L111.38719940185547,84.85840145003584L111.60378562291463,84.24461143354463L112.00601717631021,84.55382127076646L112.25354428609212,84.86128061709985L112.28448517481486,84.29364847403409L112.50107139587404,84.60054497755507L112.59389406204224,84.90571826132515L112.62483495076498,85.11975496958419L112.65577583948772,85.42181894196428L112.74859850565593,85.72220054786305L113.33647539138794,86.02091365424519L113.58400250116985,86.31797197611202L113.61494338989257,86.42627053877041L113.70776605606079,86.72066871593009L113.92435227711995,86.62571059910067L114.01717494328817,86.91814220468635L114.07905672073365,87.10466316674548L114.17187938690185,86.83915500859169L114.2956429417928,86.99048535118054L114.57411094029744,87.27915345727932L114.75975627263387,86.831040094685L114.91446071624756,86.58920240563249L115.0382242711385,86.87725047944316L115.40951493581136,86.93178548986273L115.4404558245341,87.21749040060241L115.56421937942504,87.50166975450705L115.71892382303874,87.78433559679394L115.74986471176148,87.50748186196321L115.78080560048421,87.78891310038627L115.87362826665242,88.06885692577539L116.15209626515706,88.34732495990049L116.1830371538798,88.62432870378913L116.21397804260253,88.89987953929075L116.36868248621622,88.94768928405192L116.52338692982991,89.22107138569336L116.61620959599813,89.49303036303674L116.77091403961181,89.76357716455037L116.92561848322549,90.03272262670114L117.14220470428468,89.76992834851939L117.51349536895752,89.8217894536595L117.9776086997986,89.95699438440379L118.34889936447144,90.09150591398101L118.65830825169881,90.35687254694422L118.78207180658977,89.92076109998885L118.96771713892619,90.18556088685445L119.18430335998535,90.307711626182L119.49371224721273,90.44291534119311L119.52465313593547,90.44039239068799L120.11253002166748,90.60402067804662L120.14347091039022,90.75930448861054L120.42193890889486,90.84582003763191L120.48382068634032,91.02265381387153L121.25734290440877,91.27990627268349L121.35016557057698,91.53587730051551L121.4429882367452,91.2721485078308L121.75239712397259,91.52712861173957L122.30933312098186,91.52264736212646L122.40215578715006,91.26534939693452L122.61874200820924,91.51884716923645L122.71156467437744,91.09305687812001L122.77344645182292,91.34607323327707L122.95909178415934,91.59785289124791L123.36132333755494,91.84840477195272L123.67073222478231,91.97158933220244L123.76355489095052,92.22008117417124L123.85637755711873,92.46736970201455L124.10390466690063,92.62382460729417L124.38237266540527,92.74381034232341L124.84648599624633,92.98816317207903L125.24871754964192,93.23134359854967L126.36258954366048,92.97547803021507L126.39353043238322,93.15292502967885L126.76482109705606,93.39425517458488L126.98140731811525,93.63443794833519L127.01234820683798,93.87348139469557L127.04328909556071,93.30596215999246L127.22893442789714,93.42197805865541L127.35269798278809,93.66029521260361L127.47646153767904,93.24351641040263L127.50740242640178,92.98220889957136L127.53834331512452,93.2204571099757L127.6930477587382,93.33564833701011L127.75492953618368,93.57202412226572L128.28092464447022,93.80730103565841L129.14726952870686,93.69053401437054L129.30197397232055,93.92462301671631L129.5804419708252,93.99651270745153L129.67326463699342,94.17268939073394L129.7351464144389,94.40416406423485L129.95173263549805,94.15382724310147L130.10643707911174,94.26455322864187L130.47772774378458,94.44806540998785L130.50866863250732,94.55757962057208L130.60149129867554,94.64868199054608L130.66337307612102,94.87637454086881L130.87995929718016,95.10303598531016L131.25124996185303,95.07005677562317L131.3131317392985,95.29538871598028L131.99383129119872,95.51970679060257L132.08665395736693,95.74301771534385L133.01488061904908,95.49383170269083L133.26240772883096,95.6415443487659L134.31439794540407,95.2368778314675L134.46910238901773,95.38507976116351L134.80945216496787,95.5696048770656L135.0879201634725,95.55910464423626L135.30450638453166,95.53624976302184L135.36638816197714,95.75645366644403L135.45921082814536,95.89965208653214L135.52109260559084,95.65386899349258L135.6757970492045,95.10018298954242L135.70673793792724,95.03534021794712L135.95426504770916,95.25502913446235L136.29461482365926,95.35847716226917L136.41837837855022,95.57656495901549L136.72778726577758,95.33411606016443L136.85155082066854,95.37632506281919L136.9753143755595,95.59327631928758L137.22284148534138,95.06252217074487L137.37754592895507,95.10524190180011L137.84165925979613,95.2078883891704L138.0582454808553,94.78819796360742L138.27483170191445,94.94926676153665L138.7080041440328,94.92319549233744L138.73894503275554,95.13885237754734L138.76988592147828,95.22006571349685L138.80082681020102,94.98290387823454L138.98647214253742,95.1973556136875L139.0483539199829,94.96101969318438L139.26494014104205,94.72568124158296L139.3577628072103,94.46560225074263L139.69811258316042,94.23230716568452L140.06940324783326,94.40005567751801L140.3478712463379,94.46519957012032L140.62633924484254,94.61176043473264L140.81198457717898,94.14488952580729L141.05951168696086,94.35843799469612L141.30703879674277,94.57109929620171L141.39986146291096,94.78287884157034L141.5855067952474,94.53567381206811L141.61644768397014,94.74688063043826L141.95679745992024,94.36962857035618L141.98773834864298,94.5806014588548L142.35902901331585,94.70233570319455L142.76126056671143,94.91180641534864L142.79220145543417,94.68245836423552L142.82314234415688,94.17724723200148L142.85408323287965,94.38708233030914L143.28725567499797,94.59606403675777L144.02983700434368,94.80419744289432L144.12265967051187,94.94212908608462L144.18454144795737,95.1487558671276L144.24642322540285,95.27928160977703L144.33924589157104,95.48443456585662L144.463009446462,95.68876262307177L144.5558321126302,95.84482433142827L144.58677300135295,95.61695421992931L145.14370899836223,95.16314050783622L145.4531178855896,95.21496898174999L145.82440855026243,95.28534094500912L145.97911299387616,94.89880118834637L146.01005388259887,95.10245328643543L146.4432263247172,95.30529868287516L146.8454578781128,95.5073420604978L146.87639876683554,95.64625243448947L146.93828054428099,95.84685957895545L146.96922143300375,95.62234181364424L147.06204409917194,95.41308932587827L147.0929849878947,95.61339034366834L147.12392587661742,95.39042727191038L147.3405120976766,95.59020171340394L147.40239387512207,95.64877914005231L147.9283889834086,95.64795770318261L147.9902707608541,95.84623874074994L148.02121164957683,95.98859551756544L148.14497520446778,96.1239096979134L148.23779787063597,96.32018202253168L148.94943831125894,96.41483825925324L149.25884719848634,96.60984629773439L149.75390141805013,96.80410543729278L150.0323694165548,96.99761988704186L150.09425119400026,97.19039382462842L150.15613297144574,96.69128698067261L150.40366008122763,96.81799858686729L150.68212807973225,97.01039136450478L150.77495074590047,97.20205313314882L151.70317740758261,96.84316704067098L151.88882273991902,97.03469433722825L151.98164540608724,97.22549775240424L152.1054089609782,97.41558128738781L152.2910542933146,97.60494891395038L152.600463180542,97.71682078538987L152.66234495798747,97.90495082346911L152.7551676241557,98.09237601112952L153.2811627324422,98.27910020888602L153.40492628733315,98.46512724912918L153.6833942858378,98.65046093638063L153.96186228434243,98.42894411875749L154.1475076166789,98.61385951307601L154.30221206029256,98.6968242610833L154.487857392629,98.88061004765407L154.9829116121928,98.65974955157401L155.10667516708375,98.80339030883017L155.1685569445292,98.89775331293269L155.44702494303385,98.43602069773893L155.60172938664755,98.61918541158722L155.78737471898395,98.80167903368775L155.9730200513204,98.44918962908285L156.18960627237956,98.63159414099957L157.33441915512083,98.4136582358214L157.45818271001178,98.5353919359497L157.58194626490274,98.31825324230711L158.1079413731893,98.50000031737616L158.2935867055257,98.03184999883506L158.47923203786215,98.2137820222864L158.57205470403034,98.39505747889555L159.2527542559306,98.57567982620682L159.46934047698974,98.75565249754663L159.56216314315796,98.93497890223531L159.90251291910806,99.11366242579649L160.21192180633545,98.64834819533384L160.2428626950582,98.63049283878209L160.3356853612264,98.80918237259961L160.6760351371765,98.98723551489115L161.14014846801757,98.77269844204235L161.5733209101359,98.95038010526092L161.75896624247233,99.12743206455326L161.8208480199178,98.89098967729241L162.03743424097698,99.06772736270244L162.34684312820434,98.64890889035253L162.43966579437256,98.72299517837541L162.53248846054078,98.89944419801725L162.5634293492635,99.07527393837367L162.68719290415444,99.25048756639912L162.99660179138183,99.42508822750743L163.39883334477742,99.59907904575437L163.42977423350015,99.72150153756414L163.9557693417867,99.8943961214191L164.2961191177368,99.99640608937675L164.57458711624145,100.16825878726398L164.72929155985514,100.2418422353952L164.88399600346884,100.41272471962989L165.06964133580524,100.45527637846153L165.3481093343099,100.62526541122035L165.87410444259643,100.4123845977748L166.36915866216023,100.58205397204088L166.46198132832845,100.65580254093189L166.95703554789225,100.82452107070593L167.20456265767416,100.47755853283293L167.32832621256512,100.64626246609241L167.4211488787333,100.7172275706964L167.51397154490152,100.88499746235516L167.54491243362426,100.95754703246449L167.79243954340615,101.02985029360318L167.85432132085162,101.19633189316168L168.19467109680176,101.26793923117141L168.44219820658367,101.43350312600636L168.7825479825338,101.22216172278829L168.9063115374247,101.32878176553255L169.15383864720664,100.99301685539687L169.86547908782958,101.15839715853089L170.05112442016602,101.22957994583909L170.17488797505698,101.39405729083745L170.63900130589803,101.05972732835015L170.82464663823447,101.22418803558331L170.91746930440266,100.78950175376L170.97935108184814,100.58177771447106L171.1959373029073,100.67156272251925L171.28875996907553,100.83609727914632L171.41252352396646,100.9223429068605L171.5362870788574,101.08595728379265L171.56722796758018,101.14295842348831L172.12416396458943,101.30572242131078L172.1860457420349,101.46795040187051L172.30980929692586,101.5374039521489L172.4954546292623,101.69876506986645L172.74298173904418,101.47828342385411L173.05239062627157,101.12575052439227L173.4855630683899,101.28744007256999L173.57838573455808,101.44860187187976L173.67120840072633,101.60923842167398L174.66131683985392,101.27052922664677L174.81602128346762,101.43118231880437L174.84696217219036,101.59131412736522L174.9707257270813,101.75092710563698L175.09448928197224,101.91002369157312L175.125430170695,102.06860630789294L175.2182528368632,102.13577964109977L175.3729572804769,102.29353332162269L175.713307056427,102.30090194698136L175.9608341662089,102.40450724904542L176.08459772109984,102.42219896140165L176.14647949854532,102.57865466081496L176.33212483088175,102.73461003289246L176.57965194066364,102.28875068505621L176.6105928293864,102.08457641062049L176.7962381617228,102.08373292075972L176.88906082789103,102.1209923456153L177.32223327000935,102.27705270756594L177.53881949106852,101.95418176082225L178.21951904296876,102.01694456239929L178.4361052640279,101.69531331805132L178.62175059636434,101.85158363639732L178.74551415125526,101.94037139343446L178.77645503997803,101.62919776815626L179.17868659337364,101.78510181173827L179.61185903549196,101.58438501063438L179.70468170166015,101.7400485324395L179.7975043678284,101.89522478186296L179.85938614527385,101.9201276584468L179.92126792271932,101.96015109831724L180.41632214228312,101.9677664880321L180.4782039197286,102.03335071428943L180.54008569717408,102.18710460100337L180.57102658589682,102.34038121476752L180.60196747461956,102.0228479698985L180.8185536956787,102.17613933965924L180.84949458440147,101.97694418679197L181.40643058141075,102.13000910195801L182.02524835586547,102.28260216271818L182.42747990926105,101.87676057615047L182.82971146265666,102.02955257198973L182.89159324010214,102.1818754950617L183.47947012583413,102.27566055114917L183.60323368072508,102.42716945968468L183.81981990178426,102.530562436569L183.9435834566752,102.59405711171856L184.09828790028888,102.6482204489844L185.05745545069377,102.79835515305773L185.36686433792113,102.85294385716693L185.3978052266439,103.0023593741215L186.3879136657715,103.07151892945558L187.1304949951172,102.85063555724716L187.50178565979004,102.96670606122161L187.56366743723552,103.07118372885789L187.7183718808492,103.21940604158252L188.02778076807655,103.36718186990653L188.1206034342448,102.92365964756203L188.1515443229675,103.07173097269846L188.39907143274942,102.86512328221512L188.4609532101949,102.89860623939538L188.6156576538086,102.65983751002925L189.7604705365499,102.7220563848288L189.88423409144085,102.7298399965572L190.0079976463318,102.8009202651937L190.22458386739095,102.89175544739221L190.3483474222819,102.99166996896298L190.37928831100464,103.13828875338505L190.44117008845012,103.21493752328468L190.47211097717286,103.28040258130542L190.8434016418457,103.08556237652597L191.12186964035035,102.71820158655864L191.46221941630046,102.41158717502785L191.8025691922506,102.44826494982763L191.86445096969604,102.59495457750828L192.01915541330973,102.1854735846863L192.0810371907552,102.33239601617174L192.2357416343689,102.47888795470448L192.4213869667053,102.62495121658036L192.6379731877645,102.77058760790858L193.04020474116007,102.85257875031385L193.50431807200113,102.90392127545311L193.53525896072387,102.699377518634L193.65902251561482,102.33074556675098L193.78278607050578,102.47626118853589L193.87560873667397,102.62135480447378L194.5253673998515,102.76602817537368L194.74195362091066,102.9102830522788L194.80383539835614,102.69440249299718L194.86571717580162,102.46341446471102L195.51547583897909,102.60784875043642L195.54641672770182,102.75186735033122L195.63923939387004,102.38625706960616L195.7011211713155,102.53043473587724L195.82488472620645,102.56180502127954L195.85582561492922,102.32161477483989L196.01053005854288,102.35458701110738L196.07241183598836,102.49828936453508L196.13429361343384,102.13520579100553L196.87687494277952,102.27906426299722L197.06252027511596,102.422513362017L197.12440205256144,102.56555476149883L197.49569271723428,102.64642785728338L197.8360424931844,102.45880096559921L198.11451049168903,102.60137929230586L198.1454513804118,102.74355440166212L198.26921493530273,102.77319166295432L198.57862382253012,102.86973766084752L198.7952100435893,103.01101244619731L198.91897359848025,103.04195096042515L199.1355598195394,103.18264164285698L199.44496870676676,103.32293737576077L199.50685048421224,103.46283974994702L199.66155492782593,103.60235034771082L199.7234367052714,103.7414707428888L199.8162593714396,103.55379855972619L199.87814114888508,103.69276164872248L200.2184909248352,103.83133748310043L201.0229540316264,103.92084063244008L201.27048114140828,104.05873858831448L201.3633038075765,104.19625365187957L201.42518558502198,104.3333873471125L201.45612647374472,104.47014118992988L201.67271269480386,104.60651668824121L201.79647624969482,104.74251534200157L201.8583580271403,104.79660415470106L201.95118069330852,104.93200670080954L202.53905757904053,105.06703643345055L202.7556438000997,105.08874253113132L202.91034824371337,104.90085788864046L203.21975713094074,105.03559223649668L203.59104779561363,104.6969382555071L204.36457001368206,104.81267903538526L205.57126467386882,104.84811691121082L205.8806735610962,104.91232265169812L206.31384600321454,105.04645235473878L206.4685504468282,104.85978418909653L206.93266377766926,104.99378055936302L207.52054066340128,104.70090411765023L207.73712688446045,104.67384770283033L207.82994955062864,104.80784454400909L208.04653577168781,104.90430792578938L208.263121992747,104.99445339230493L208.3559446589152,105.0849311403404L208.57253087997435,105.21771176683613L208.88193976720171,105.19042489754854L208.9438215446472,105.32278585756025L209.03664421081544,105.45479085799509L209.06758509953818,105.33458661116457L209.09852598826092,105.43112385963248L209.12946687698366,105.56259641243088L209.3460530980428,105.62428113804602L209.56263931910198,105.68139045260989L209.8411073176066,105.81207379313179L210.0886344273885,105.88474997477923L210.70745220184327,106.01484302208358L211.41909264246624,106.14458981480391L211.94508775075275,106.27399166880592L212.4710828590393,105.88942051087633L212.5639055252075,105.6000442489552L212.8733144124349,105.63805920198669L212.90425530115763,105.76795740541965L212.9661370786031,105.57581657462106L213.3683686319987,105.65580968428445L214.17283173878988,105.68674781607312L215.00823573430378,105.81613206340278L215.16294017791748,105.84340201454584L215.2557628440857,105.97229118112409L215.50328995386758,106.1008419296229L215.688935286204,106.07549158317701L216.02928506215414,106.20364716125722L216.30775306065877,106.33146737630341L216.52433928171794,106.45895347926066L216.70998461405438,106.24175059649068L216.8337481689453,106.10669288338612L216.89562994639078,106.15672559806445L216.92657083511352,106.28411700423447L217.85479749679564,106.28651994842872L217.9785610516866,106.41347440904275L218.00950194040934,106.06776818148884L218.25702905019125,106.19491314018802L218.96866949081422,106.013007067632L219.0305512682597,106.14004842466811L219.0614921569824,106.26676172418102L219.40184193293254,106.31615080588941L219.49466459910076,106.44234926749057L219.92783704121908,106.56822291730558L220.05160059611003,106.69377294497497L220.11348237355548,106.819000534353L220.48477303822835,106.88638539810202L220.73230014801024,107.01107408064946L220.88700459162396,106.82914146885183L220.9488863690694,106.95373759624123L221.0107681465149,106.95678618160842L221.81523125330608,107.04658350981283L222.71251702626546,107.17050399874255L222.96004413604734,107.21783016726037L223.14568946838378,107.16500647631527L223.45509835561114,107.28843057494424L223.5788619105021,107.41154144173004L223.70262546539308,107.5343402061817L223.82638902028404,107.65682799240015L223.91921168645223,107.77900591911079L223.9810934638977,107.90087509969526L224.1357979075114,107.99123522432954L224.38332501729332,108.11254515990203L224.9402610143026,108.11909628841344L225.24966990152996,108.23999734716904L225.31155167897543,108.3022483487476L225.52813790003458,108.42264509314714L225.7756650098165,108.04978642757216L225.80660589853923,107.67786202905738L225.89942856470742,107.4976634127411L226.33260100682577,107.61910603258575L226.7657734489441,107.61203421693367L226.88953700383504,107.7330952460124L226.92047789255778,107.8538545221052L226.9514187812805,107.97431311180341L227.3536503346761,108.01945510045192L227.53929566701254,108.13944617799149L227.6940001106262,107.85964244166598L227.72494099934897,107.97973378504942L227.78682277679442,108.09952765711456L227.87964544296264,108.21902510203309L227.94152722040812,108.22918746109232L228.03434988657634,108.04976496754325L228.37469966252644,108.16908533680372L229.17916276931763,108.28811166748093L229.7360987663269,108.28651062934154L230.20021209716796,108.36066190818335L230.29303476333618,108.47909672951582L230.32397565205892,108.30002780272044L230.50962098439533,108.41839514607028L230.81902987162272,108.53647258796148L231.25220231374104,108.5801193420313L231.68537475585936,108.5878007136132L231.8091383107503,108.60661789592088L231.90196097691853,108.56393888450553L231.93290186564127,108.38562782497164L232.7683058611552,108.42937665034015L232.95395119349163,108.54684144762687L233.04677385965982,108.3689425795373L233.32524185816447,108.48634312652636L233.5108871905009,108.2820520143396L233.6655916341146,107.91860261892019L233.69653252283732,107.98764354551786L233.72747341156008,108.00382438227724L233.78935518900556,107.73506232926893L234.06782318751016,107.74557847253587L234.1606458536784,107.84497557510619L234.22252763112388,107.82625851124331L234.71758185068768,107.88040376104678L234.77946362813316,107.99780777334891L234.87228629430135,108.11492997305639L235.02699073791504,108.10414769061855L235.150754292806,108.22092576175231L235.6458085123698,108.33742435413329L235.67674940109254,108.16187589147704L235.80051295598346,107.98674673143874L236.07898095448812,108.04308685289188L236.69779872894287,108.15956319699029L237.06908939361574,108.2757621532973L237.34755739212036,108.3916846535804L237.44038005828858,108.50733162545492L238.18296138763426,108.55955329030141L238.52331116358437,108.67475842821973L238.73989738464354,108.71720009334744L238.8327200508118,108.54221870249702L238.89460182825727,108.65721671792619L238.95648360570274,108.77194299539389L239.01836538314816,108.88639843971289L239.20401071548463,108.84556774430013L239.32777427037558,108.95974429520183L239.82282848993938,108.78506909210334L240.16317826588948,108.89919253200843L240.22506004333496,108.88646137250569L240.62729159673057,108.85791360320923L240.72011426289876,108.97168468451238L240.9057595952352,109.08518924975569L241.43175470352173,109.166668368319L241.5555182584127,109.27969553182595L241.7411635907491,109.10542388793404L242.01963158925372,108.93155892925917L242.0505724779765,108.85974438677057L242.3290404764811,108.9042304810918L242.42186314264933,108.9457503471166L242.51468580881755,109.0074854848945L242.66939025243124,108.60735662453644L242.73127202987672,108.7207128166465L242.91691736221313,108.54829097284902L243.19538536071775,108.6615957499406L243.41197158177692,108.48949859723258L243.53573513666788,108.60275194002193L243.69043958028155,108.71574372658537L244.2164346885681,108.79930537317206L244.89713424046835,108.8764177278622L244.95901601791383,108.90997222774129L245.05183868408204,108.91358186497796L245.39218846003214,109.02569330834609L245.60877468109132,109.06663352531534L245.82536090215046,109.17834764388327L246.28947423299155,109.2898056804108L246.75358756383258,109.40100845882094L246.78452845255535,109.51195679952227L246.97017378489176,109.62265151942735L247.27958267211915,109.73309343197158L247.43428711573281,109.84328334713157L247.4961688931783,109.9532220714435L247.5889915593465,110.0629104080215L247.9293413352966,110.17234915657559L248.11498666763305,110.28153911342994L248.4243955548604,110.27706083296688L248.45533644358318,110.29953918831166L248.51721822102866,110.40831356848607L248.9194497744242,110.51684157022838L249.1360359954834,110.62512397554345L249.19791777292886,110.35904307420358L249.22885866165163,110.18703394239579L250.0333217684428,110.22558989748383L250.24990798950193,110.33407390653402L250.96154843012494,110.44231353043558L251.17813465118408,110.55030954006877L251.2709573173523,110.65806270309089L251.45660264968873,110.7655737839533L252.63235642115276,110.82049609733134L253.03458797454832,110.85785694637345L253.06552886327108,110.9648439989917L253.12741064071656,111.0715915530447L253.31305597305297,111.06085416965037L253.4058786392212,111.09398115778792L253.900932858785,111.16124216820666L253.9628146362305,110.98942962650877L254.21034174601238,110.671448836569L254.51975063323977,110.77827564088L255.26233196258545,110.4224176499809L255.3860955174764,110.52951490609061L255.63362262725832,110.59480495097284L255.75738618214925,110.24835313075127L256.03585418065387,110.35553453354521L256.0667950693766,110.46247854883535L256.6237310663859,110.43736132808444L256.90219906489057,110.08649383462831L257.087844397227,110.19367521061204L257.73760306040447,110.30062003289488L257.89230750401816,110.10203549110847L258.0160710589091,110.13885245326104L258.0779528363546,110.14050038321285L258.48018438975015,110.19551849152919L258.5420661671956,110.3021394224827L258.63488883336385,110.40852626709297L258.78959327697754,110.47964306459679L258.9133568318685,110.58561978720117L259.1299430529277,110.69136444329975L259.2227657190959,110.79687774157169L259.4702928288778,110.90216038782954L259.71781993865966,111.00721308503378L260.4604012680054,110.98618256211155L260.6769874890645,111.04445564309327L261.01733726501465,111.14909625987376L261.0482781537374,111.18517513399254L261.1411008199056,111.2894693706961L261.2339234860738,111.39353698950194L261.79085948308307,111.36095113304242L261.914623037974,111.4058227934261L262.038386592865,111.50952369110874L262.10026837031046,111.61300002886188L262.16215014775594,111.71625248368716" fill="none"></path></g></g></g></g><g opacity="0.2"><g><g><g><path style="fill: none;" stroke="rgb(255, 112, 67)" stroke-width="2px" d="M31.095593166351318,123.11086828799533L31.528765608469644,166.14217436627536L31.776292718251547,131.2192111335566L31.807233606974286,176.89999961853027L32.209465160369874,133.71954069141574L32.42605138142904,176.89999961853027L32.45699227015177,133.92073760910264L32.8901647122701,136.17395897165795L32.92110560099284,166.14217436627536L33.04486915588379,176.89999961853027L33.16863271077474,176.89999961853027L33.354278043111165,94.13745367951148L33.508982486724854,176.89999961853027L33.72556870778402,112.65730714208696L34.03497759501139,176.89999961853027L34.15874114990234,176.89999961853027L34.2825047047933,176.89999961853027L34.71567714691162,-57.82771538588789L34.83944070180257,176.89999961853027L34.87038159052531,133.71954069141574L34.93226336797078,113.86646768746958L34.99414514541626,110.40297054224304L35.42731758753458,-40.90285807188876L35.5201402537028,61.256859978297754L35.829549140930176,133.86869860951063L35.922371807098386,119.52493836551797L35.98425358454386,176.89999961853027L36.04613536198934,93.25721919233551L36.29366247177124,176.89999961853027L36.44836691538493,148.21246493661582L36.88153935750326,148.21246493661582L37.252830022176106,90.83739760049102L37.314711799621584,166.14217436627536L37.56223890940348,160.22753165532274L38.05729312896728,166.0561115047112L38.521406459808354,165.45367248761406L38.55234734853109,90.83739760049102L38.95457890192668,111.85690742314416L38.98551979064942,176.89999961853027L39.35681045532227,126.1871226033403L39.44963312149048,-74.01345020069448L39.69716023127238,69.02332379147089L39.789982897440595,-47.76402497445397L39.94468734105428,133.70754884900666L40.099391784667965,176.89999961853027L40.50162333806355,68.07390403831616L40.74915044784546,79.08854714725064L40.81103222529093,-95.63158290121343L40.84197311401367,84.79442554858693L40.93479578018188,86.49308198929008L41.64643622080485,-173.9117671297396L41.67737710952759,121.3468224435031L42.04866777420044,95.99746670654307L42.23431310653687,-24.694769846409553L42.265253995259606,121.37794364696859L42.29619488398234,112.35304202188836L42.66748554865519,112.35304202188836L42.91501265843709,155.38434911402047L43.03877621332804,140.33042806936908L43.10065799077351,64.87160763231353L43.41006687800089,112.65732336372027L43.471948655446376,123.23053933217865L43.812298431396485,93.9140898999348L44.02888465245565,98.00927366707904L44.46205709457398,117.98551753259068L44.49299798329671,114.48546088133841L44.55487976074219,-32.685027312441534L44.77146598180135,85.05507475227901L45.235579312642415,117.28791024839369L45.359342867533364,153.47480535744424L45.51404731114705,83.66551342308637L45.637810866038,94.49025798191994L45.66875175476074,103.35400984649618L45.82345619837443,79.62425847581231L45.85439708709716,102.62683458022119L46.0400424194336,-49.338480479877795L46.75168286005656,176.89999961853027L46.81356463750203,84.79146510051163L46.84450552622477,88.77737994581932L46.87544641494751,128.65608357782634L46.96826908111572,108.01630191343351L47.0301508585612,132.1116037348829L47.46332330067953,86.1112004092106L47.49426418940226,80.94673524053717L47.55614596684774,-122.79980143695852L47.618027744293215,80.07956727897572L47.679909521738686,134.3046509487516L47.803673076629636,64.87160763231353L47.865554854075114,94.42333563378503L48.051200186411535,76.42961056990558L48.174963741302484,-125.76709504149939L48.36060907363891,110.29408282878877L48.4224908510844,-97.69980870232953L48.54625440597535,-161.01673662236217L49.041308625539145,52.66315775390472L49.22695395787557,133.86869860951063L49.35071751276652,81.75421570241075L49.41259929021199,65.27405824340381L49.96953528722127,-156.7275096778116L50.24800328572591,144.03430143208445L50.402707729339596,87.32319974041883L50.433648618062335,-32.47111263425586L50.681175727844234,76.49363735649835L50.86682106018066,105.18115784448369L50.89776194890341,4.774795582451765L51.33093439102173,85.05507475227901L51.609402389526366,60.37068837333792L51.85692949930827,133.86869860951063L51.887870388031004,-191.598051688704L52.38292460759481,66.72342873453401L52.44480638504028,-13.391568213708783L53.280210380554195,110.74811417833062L53.34209215799967,93.57023182828536L53.403973935445144,127.60145436656566L53.49679660161337,4.7374371609865715L53.58961926778158,-77.67663565171202L53.99185082117717,90.83739760049102L54.61066859563192,133.86869860951063L54.95101837158203,50.57505234119263L54.98195926030477,126.06050058929253L55.16760459264119,94.73574806930318L55.35324992497762,87.32319974041883L55.848304144541416,-40.78173113611774L55.879245033264155,115.93898411059067L55.94112681070964,62.149877112505685L56.31241747538249,-36.48614531131777L56.71464902877808,83.11544594906367L56.962176138559975,-25.475517056622415L57.05499880472819,69.56107904582703L57.48817124684652,144.62652082020932L57.6428756904602,-110.7810311166012L57.76663924535115,126.06050464470087L57.92134368896484,-31.204057079663823L58.385457019805905,110.39068671043474L58.72580679575602,121.3468224435031L58.84957035064698,121.3468224435031L59.746856123606364,144.62652082020932L59.80873790105184,-175.61831539503794L60.11814678827921,64.87159141068024L60.33473300933838,-7.523424814579867L60.767905451456706,158.97028917501862L61.88177744547526,107.36600907813302L61.974600111643475,126.06050058929253L62.03648188908895,94.49691696238519L62.37683166503906,78.97553102812425L62.59341788609822,114.68623198115147L62.71718144098917,-24.328534031637595L62.77906321843465,127.60145031115735L63.05753121693929,176.89999961853027L63.64540810267131,87.61077685537111L64.07858054478963,-5.10200539185639L64.10952143351237,155.3843470863163L64.17140321095785,61.88799506468361L64.29516676584879,-73.19211646399188L64.57363476435343,124.69006862115627L64.94492542902628,155.38434911402047L65.06868898391724,-86.02558587303646L65.13057076136272,124.19763255480206L65.22339342753092,-127.2862185557735L65.2852752049764,-210.13259789563128L65.34715698242188,118.96734405364904L65.65656586964926,88.40639119249357L65.7803294245402,-83.27236916301413L65.99691564559936,119.52493836551797L66.05879742304484,176.89999961853027L66.21350186665853,133.86869860951063L66.43008808771769,74.71341854361673L66.58479253133137,48.15519830608157L66.61573342005411,-92.02175040208432L66.98702408472697,-7.3490260350868635L67.29643297195435,176.89999961853027L67.35831474939982,4.774795582451765L67.38925563812256,90.83739760049102L67.60584185918172,-109.97536747765606L67.88430985768636,95.49101920443522L67.9152507464091,127.60145031115735L68.28654141108196,133.86869860951063L68.53406852086385,-44.87822885555842L69.46229518254597,-15.84230012778598L69.52417695999145,91.25823543291469L69.67888140360515,136.17152572666456L69.70982229232789,176.89999961853027L69.77170406977335,86.44013457823388L69.86452673594157,84.42719210336766L69.98829029083252,133.5777838935091L70.17393562316894,125.12987765371174L70.2976991780599,111.16859919023028L70.45240362167358,-49.915078435145105L70.63804895401,119.52492619929302L70.8855760637919,172.25261726028995L71.1331031735738,-52.60027783678551L71.38063028335571,87.53878524683331L71.65909828186035,56.701825350669125L71.87568450291951,-66.99112137140027L71.96850716908772,176.89999961853027L71.99944805781045,128.09833110503286L72.2779160563151,90.83739760049102L72.58732494354248,112.23760482399354L73.05143827438354,122.79253495632659L73.1752018292745,64.87160763231353L73.51555160522462,119.52493836551797L73.54649249394735,138.80779662689616L73.6702560488383,-63.54535447135893L74.81506893157959,33.17984876997095L75.46482759475708,115.93898411059067L75.49576848347982,176.89999961853027L76.0527044804891,99.826437249777L76.08364536921182,141.11743683003158L76.17646803538004,-5.3635467853793894L76.57869958877563,111.1686032456386L76.6405813662211,120.1034261410635L76.98093114217122,4.774795582451765L77.07375380833945,-57.45821902282478L77.19751736323038,124.19763255480206L77.44504447301229,-26.779379497147804L77.66163069407146,74.8213654023402L77.6925715827942,176.89999961853027L77.7853942489624,90.83739760049102L77.87821691513062,-105.11556080378851L78.24950757980348,176.89999961853027L78.4351529121399,105.98298506715595L78.55891646703084,139.54882922340855L78.86832535425822,96.82020361452518L78.96114802042644,4.774795582451765L79.39432046254475,4.774795582451765L79.48714312871297,-30.46545367273651L79.64184757232665,119.40957822038129L79.73467023849487,176.89999961853027L80.01313823699951,176.89999961853027L80.35348801294963,176.89999961853027L80.50819245656331,85.05507475227901L80.57007423400879,133.86869860951063L81.31265556335448,145.79228646883897L81.56018267313638,92.8786954903469L81.62206445058186,-13.391568213708783L81.93147333780924,78.57603275429261L82.1480595588684,-5.10200539185639L82.39558666865031,176.89999961853027L82.64311377843221,144.62652082020932L82.85969999949138,149.3599670538659L82.92158177693685,133.86869860951063L83.10722710927328,130.3868872403005L83.38569510777792,176.89999961853027L83.63322221755982,-66.99514433645604L83.6951039950053,-151.41362704491067L83.7879266611735,94.49691696238519L83.88074932734172,176.89999961853027L83.91169021606446,115.64620796216919L84.12827643712362,112.73111151814484L84.2829808807373,176.89999961853027L84.49956710179647,176.89999961853027L84.77803510030111,176.89999961853027L84.96368043263753,111.16859919023028L85.24214843114217,-86.02560209466972L85.58249820709229,176.89999961853027L85.89190709431966,40.81577710006528L85.95378887176513,133.86869860951063L86.1703750928243,48.469411342894844L86.32507953643798,176.89999961853027L86.4179022026062,-104.17928057359809L86.6654293123881,176.89999961853027L87.25330619812013,176.89999961853027L88.11965108235677,176.89999961853027L88.24341463724772,167.17492262193295L88.52188263575236,100.83985134625792L88.67658707936604,126.06050058929253L88.73846885681152,126.4294940817237L89.38822751998902,4.774795582451765L89.72857729593913,-73.55436175697469L89.82139996210734,176.89999961853027L90.00704529444377,176.89999961853027L90.0379861831665,176.89999961853027L90.50209951400757,-52.6002453935189L90.53304040273031,176.89999961853027L90.87339017868041,118.78947384463214L90.99715373357137,176.89999961853027L91.15185817718505,176.89999961853027L91.21373995463053,-12.604235020380507L91.49220795313516,162.2693577621126L91.61597150802612,151.5115274405973L91.64691239674886,176.89999961853027L91.70879417419432,176.89999961853027L91.73973506291706,176.89999961853027L91.80161684036254,133.86869860951063L92.14196661631267,150.47878324034804L92.20384839375815,176.89999961853027L92.45137550354005,-104.17928057359809L92.48231639226279,89.00846522284169L92.57513905843099,176.89999961853027L93.6580701637268,4.774795582451765L95.01946926752726,160.11779534767703L95.2979372660319,111.16859919023028L95.60734615325927,141.70628211843228L95.94769592920939,133.86869860951063L96.0405185953776,151.59758928830936L96.22616392771403,4.774795582451765L96.38086837132771,176.89999961853027L96.41180926005045,121.0849322848644L96.5355728149414,133.86869860951063L96.56651370366414,176.89999961853027L96.7830999247233,176.89999961853027L97.15439058939617,176.89999961853027L97.77320836385091,144.62652082020932L98.08261725107829,176.89999961853027L98.63955324808757,88.44295475392761L98.85613946914673,176.89999961853027L99.3202527999878,-83.98803518047039L99.50589813232422,-106.68746951278591L99.8153070195516,141.20062136553898L100.15565679550171,-90.99282842417885L100.24847946166992,176.89999961853027L100.40318390528361,106.63017957049819L100.80541545867919,-95.63155045794687L101.54799678802489,-63.3885399423515L102.29057811737061,176.89999961853027L102.63092789332073,176.89999961853027L102.72375055948893,-52.6002453935189L102.87845500310263,176.89999961853027L103.12598211288453,1.5070935510267771L103.4353910001119,80.21213046621567L103.74479988733927,1.4880493535451658L103.96138610839844,176.89999961853027L104.88961277008056,97.10868914094166L105.01337632497152,-105.3453240176978L105.04431721369426,-52.60027783678551L105.1680807685852,142.64708007349378L106.18913009643555,133.86869860951063L106.34383454004923,4.774795582451765L106.49853898366291,176.89999961853027L106.90077053705852,84.89292330591941L107.14829764684042,17.408349582839314L107.24112031300864,176.89999961853027L107.85993808746338,118.45837408756475L108.10746519724529,122.45954132357265L108.26216964085897,123.77548888089856L108.32405141830445,176.89999961853027L108.41687408447265,106.63017957049819L108.47875586191813,-13.391568213708783L108.50969675064087,176.89999961853027L108.85004652659099,143.93802401080842L108.91192830403646,176.89999961853027L108.97381008148193,166.2282341862833L109.1903963025411,-103.83596592666386L109.25227807998657,152.63034362707944L109.49980518976847,-98.6347912018568L110.33520918528238,176.89999961853027L110.36615007400512,176.89999961853027L110.70649984995524,119.52493025470133L110.73744073867798,176.89999961853027L111.04684962590535,133.86869860951063L111.1706131807963,154.69584622150708L111.38719940185547,106.47635793283263L111.60378562291463,-98.6347912018568L112.00601717631021,176.89999961853027L112.25354428609212,176.89999961853027L112.28448517481486,-86.02558587303646L112.50107139587404,176.89999961853027L112.59389406204224,176.89999961853027L112.62483495076498,149.7902783201305L112.65577583948772,176.89999961853027L112.74859850565593,176.89999961853027L113.33647539138794,176.89999961853027L113.58400250116985,176.89999961853027L113.61494338989257,119.52493025470133L113.70776605606079,176.89999961853027L113.92435227711995,57.47259625640906L114.01717494328817,176.89999961853027L114.07905672073365,144.62652082020932L114.17187938690185,4.774795582451765L114.2956429417928,133.86869860951063L114.57411094029744,176.89999961853027L114.75975627263387,-52.6002453935189L114.91446071624756,11.174619234269988L115.0382242711385,176.89999961853027L115.40951493581136,104.01287581499005L115.4404558245341,176.89999961853027L115.56421937942504,176.89999961853027L115.71892382303874,176.89999961853027L115.74986471176148,0.034899221858546325L115.78080560048421,176.89999961853027L115.87362826665242,176.89999961853027L116.15209626515706,176.89999961853027L116.1830371538798,176.89999961853027L116.21397804260253,176.89999961853027L116.36868248621622,104.24873836301612L116.52338692982991,176.89999961853027L116.61620959599813,176.89999961853027L116.77091403961181,176.89999961853027L116.92561848322549,176.89999961853027L117.14220470428468,4.774795582451765L117.51349536895752,106.63017957049819L117.9776086997986,133.86869860951063L118.34889936447144,133.86869860951063L118.65830825169881,176.89999961853027L118.78207180658977,-52.6002453935189L118.96771713892619,176.89999961853027L119.18430335998535,130.3906506592236L119.49371224721273,134.8998023970935L119.52465313593547,89.60911986027699L120.11253002166748,144.62652082020932L120.14347091039022,142.1307049318129L120.42193890889486,119.52493025470133L120.48382068634032,149.7594653276975L121.25734290440877,176.89999961853027L121.35016557057698,176.89999961853027L121.4429882367452,3.1453649618106008L121.75239712397259,176.89999961853027L122.30933312098186,90.01925141472975L122.40215578715006,4.774795582451765L122.61874200820924,176.89999961853027L122.71156467437744,-52.60027783678551L122.77344645182292,176.89999961853027L122.95909178415934,176.89999961853027L123.36132333755494,176.89999961853027L123.67073222478231,133.86869860951063L123.76355489095052,176.89999961853027L123.85637755711873,176.89999961853027L124.10390466690063,146.14567677774997L124.38237266540527,133.86869860951063L124.84648599624633,176.89999961853027L125.24871754964192,176.89999961853027L126.36258954366048,4.774795582451765L126.39353043238322,154.4376566229625L126.76482109705606,176.89999961853027L126.98140731811525,176.89999961853027L127.01234820683798,176.89999961853027L127.04328909556071,-104.17928057359809L127.22893442789714,133.86869860951063L127.35269798278809,176.89999961853027L127.47646153767904,-52.60027783678551L127.50740242640178,1.3730217518909191L127.53834331512452,176.89999961853027L127.6930477587382,133.86869860951063L127.75492953618368,176.89999961853027L128.28092464447022,176.89999961853027L129.14726952870686,52.376537715316516L129.30197397232055,176.89999961853027L129.5804419708252,119.52492619929302L129.67326463699342,156.84741066364683L129.7351464144389,176.89999961853027L129.95173263549805,4.774795582451765L130.10643707911174,133.86869860951063L130.47772774378458,160.20385415383288L130.50866863250732,133.86869860951063L130.60149129867554,127.40901307544668L130.66337307612102,176.89999961853027L130.87995929718016,176.89999961853027L131.25124996185303,83.14756478297643L131.3131317392985,176.89999961853027L131.99383129119872,176.89999961853027L132.08665395736693,176.89999961853027L133.01488061904908,4.774795582451765L133.26240772883096,149.51182181849512L134.31439794540407,-52.6002453935189L134.46910238901773,149.62171324550917L134.80945216496787,163.216043156206L135.0879201634725,91.70310561505644L135.30450638453166,87.12881590871345L135.36638816197714,176.89999961853027L135.45921082814536,148.7575219536563L135.52109260559084,4.774795582451765L135.6757970492045,-109.97536747765606L135.70673793792724,70.9779576054788L135.95426504770916,176.89999961853027L136.29461482365926,133.86869860951063L136.41837837855022,176.89999961853027L136.72778726577758,4.774795582451765L136.85155082066854,111.16859919023028L136.9753143755595,176.89999961853027L137.22284148534138,-104.17928057359809L137.37754592895507,111.1686032456386L137.84165925979613,133.86869860951063L138.0582454808553,-63.54535447135893L138.27483170191445,155.81466240798923L138.7080041440328,85.05507475227901L138.73894503275554,176.89999961853027L138.76988592147828,126.06050058929253L138.80082681020102,4.774795582451765L138.98647214253742,176.89999961853027L139.0483539199829,4.774795582451765L139.26494014104205,4.774795582451765L139.3577628072103,-5.10200539185639L139.69811258316042,4.774795582451765L140.06940324783326,158.82684735495405L140.3478712463379,119.52492619929302L140.62633924484254,151.08122022974098L140.81198457717898,-86.02558587303646L141.05951168696086,176.89999961853027L141.30703879674277,176.89999961853027L141.39986146291096,176.89999961853027L141.5855067952474,-1.4687164109910116L141.61644768397014,176.89999961853027L141.95679745992024,-52.6002453935189L141.98773834864298,176.89999961853027L142.35902901331585,142.2758682727103L142.76126056671143,176.89999961853027L142.79220145543417,4.774795582451765L142.82314234415688,-104.17928057359809L142.85408323287965,176.89999961853027L143.28725567499797,176.89999961853027L144.02983700434368,176.89999961853027L144.12265967051187,149.4310502509395L144.18454144795737,176.89999961853027L144.24642322540285,147.00013914503762L144.33924589157104,176.89999961853027L144.463009446462,176.89999961853027L144.5558321126302,157.9662309055373L144.58677300135295,4.774795582451765L145.14370899836223,-86.02560209466972L145.4531178855896,115.93898411059067L145.82440855026243,123.46627616254673L145.97911299387616,-60.1250555355817L146.01005388259887,176.89999961853027L146.4432263247172,176.89999961853027L146.8454578781128,176.89999961853027L146.87639876683554,151.68875283969095L146.93828054428099,176.89999961853027L146.96922143300375,4.774795582451765L147.06204409917194,10.618022552848362L147.0929849878947,176.89999961853027L147.12392587661742,4.774795582451765L147.3405120976766,176.89999961853027L147.40239387512207,119.52493836551797L147.9283889834086,95.31265423560299L147.9902707608541,176.89999961853027L148.02121164957683,154.26553495524246L148.14497520446778,151.59758928830936L148.23779787063597,176.89999961853027L148.94943831125894,135.33176015913702L149.25884719848634,176.89999961853027L149.75390141805013,176.89999961853027L150.0323694165548,176.89999961853027L150.09425119400026,176.89999961853027L150.15613297144574,-109.97536747765606L150.40366008122763,149.3599670538659L150.68212807973225,176.89999961853027L150.77495074590047,176.89999961853027L151.70317740758261,-52.60029405841877L151.88882273991902,176.89999961853027L151.98164540608724,176.89999961853027L152.1054089609782,176.89999961853027L152.2910542933146,176.89999961853027L152.600463180542,144.62652082020932L152.66234495798747,176.89999961853027L152.7551676241557,176.89999961853027L153.2811627324422,176.89999961853027L153.40492628733315,176.89999961853027L153.6833942858378,176.89999961853027L153.96186228434243,4.774795582451765L154.1475076166789,176.89999961853027L154.30221206029256,133.86869860951063L154.487857392629,176.89999961853027L154.9829116121928,4.774795582451765L155.10667516708375,159.9456645552883L155.1685569445292,139.1185098463273L155.44702494303385,-98.63475875859022L155.60172938664755,176.89999961853027L155.78737471898395,176.89999961853027L155.9730200513204,-52.60027783678551L156.18960627237956,176.89999961853027L157.33441915512083,4.774795582451765L157.45818271001178,150.9090924789085L157.58194626490274,4.774795582451765L158.1079413731893,176.89999961853027L158.2935867055257,-104.17928057359809L158.47923203786215,176.89999961853027L158.57205470403034,176.89999961853027L159.2527542559306,176.89999961853027L159.46934047698974,176.89999961853027L159.56216314315796,176.89999961853027L159.90251291910806,176.89999961853027L160.21192180633545,-104.17928057359809L160.2428626950582,90.83739760049102L160.3356853612264,176.89999961853027L160.6760351371765,176.89999961853027L161.14014846801757,4.774795582451765L161.5733209101359,176.89999961853027L161.75896624247233,176.89999961853027L161.8208480199178,-5.10200539185639L162.03743424097698,176.89999961853027L162.34684312820434,-86.02558587303646L162.43966579437256,131.43206735017014L162.53248846054078,176.89999961853027L162.5634293492635,176.89999961853027L162.68719290415444,176.89999961853027L162.99660179138183,176.89999961853027L163.39883334477742,176.89999961853027L163.42977423350015,154.17947310753038L163.9557693417867,176.89999961853027L164.2961191177368,145.48714943585105L164.57458711624145,176.89999961853027L164.72929155985514,133.13729760776377L164.88399600346884,176.89999961853027L165.06964133580524,119.52493025470133L165.3481093343099,176.89999961853027L165.87410444259643,4.774795582451765L166.36915866216023,176.89999961853027L166.46198132832845,133.86869860951063L166.95703554789225,176.89999961853027L167.20456265767416,-56.15862287185443L167.32832621256512,176.89999961853027L167.4211488787333,132.83208757742608L167.51397154490152,176.89999961853027L167.54491243362426,133.86869860951063L167.79243954340615,133.86869860951063L167.85432132085162,176.89999961853027L168.19467109680176,133.86869860951063L168.44219820658367,176.89999961853027L168.7825479825338,4.774795582451765L168.9063115374247,150.04356087460508L169.15383864720664,-52.6002453935189L169.86547908782958,176.89999961853027L170.05112442016602,133.86869860951063L170.17488797505698,176.89999961853027L170.63900130589803,-52.60027783678551L170.82464663823447,176.89999961853027L170.91746930440266,-99.4635544466059L170.97935108184814,4.774795582451765L171.1959373029073,142.1307049318129L171.28875996907553,176.89999961853027L171.41252352396646,140.8397630222024L171.5362870788574,176.89999961853027L171.56722796758018,127.58612492310732L172.12416396458943,176.89999961853027L172.1860457420349,176.89999961853027L172.30980929692586,133.86869860951063L172.4954546292623,176.89999961853027L172.74298173904418,-1.3931722647628484L173.05239062627157,-63.54535447135893L173.4855630683899,176.89999961853027L173.57838573455808,176.89999961853027L173.67120840072633,176.89999961853027L174.66131683985392,-57.66295225656874L174.81602128346762,176.89999961853027L174.84696217219036,176.89999961853027L174.9707257270813,176.89999961853027L175.09448928197224,176.89999961853027L175.125430170695,176.89999961853027L175.2182528368632,133.86869860951063L175.3729572804769,176.89999961853027L175.713307056427,105.78962319834778L175.9608341662089,151.5115274405973L176.08459772109984,110.81703584276845L176.14647949854532,176.89999961853027L176.33212483088175,176.89999961853027L176.57965194066364,-109.97536747765606L176.6105928293864,4.774795582451765L176.7962381617228,101.68128368660594L176.88906082789103,119.9178019913343L177.32223327000935,176.89999961853027L177.53881949106852,-52.60027783678551L178.21951904296876,132.0934030623323L178.4361052640279,-52.6002453935189L178.62175059636434,176.89999961853027L178.74551415125526,144.62652082020932L178.77645503997803,-48.133813326916325L179.17868659337364,176.89999961853027L179.61185903549196,4.774795582451765L179.70468170166015,176.89999961853027L179.7975043678284,176.89999961853027L179.85938614527385,113.96982787938052L179.92126792271932,121.3468224435031L180.41632214228312,105.66045033246527L180.4782039197286,133.86869860951063L180.54008569717408,176.89999961853027L180.57102658589682,176.89999961853027L180.60196747461956,-52.6002453935189L180.8185536956787,176.89999961853027L180.84949458440147,4.774795582451765L181.40643058141075,176.89999961853027L182.02524835586547,176.89999961853027L182.42747990926105,-96.78513568768041L182.82971146265666,176.89999961853027L182.89159324010214,176.89999961853027L183.47947012583413,148.32721474279998L183.60323368072508,176.89999961853027L183.81981990178426,153.40491039500907L183.9435834566752,133.86869860951063L184.09828790028888,129.3540923474472L185.05745545069377,176.89999961853027L185.36686433792113,129.82375729607162L185.3978052266439,176.89999961853027L186.3879136657715,137.3112049612609L187.1304949951172,-6.616165086343957L187.50178565979004,160.5481035723854L187.56366743723552,154.95403582005167L187.7183718808492,176.89999961853027L188.02778076807655,176.89999961853027L188.1206034342448,-117.99407768847742L188.1515443229675,176.89999961853027L188.39907143274942,-0.25272655799360644L188.4609532101949,119.62668044950831L188.6156576538086,-16.748181017192312L189.7604705365499,133.86869860951063L189.88423409144085,106.63017957049819L190.0079976463318,138.45437590242273L190.22458386739095,148.49934452133664L190.3483474222819,153.20756814293256L190.37928831100464,176.89999961853027L190.44117008845012,141.81379504846527L190.47211097717286,136.2797889072372L190.8434016418457,4.774795582451765L191.12186964035035,-82.82312725070092L191.46221941630046,-52.60027783678551L191.8025691922506,121.00916509117852L191.86445096969604,176.89999961853027L192.01915541330973,-105.4371384621151L192.0810371907552,176.89999961853027L192.2357416343689,176.89999961853027L192.4213869667053,176.89999961853027L192.6379731877645,176.89999961853027L193.04020474116007,144.62652082020932L193.50431807200113,129.087729073429L193.53525896072387,-1.7144579336902317L193.65902251561482,-86.02558587303646L193.78278607050578,176.89999961853027L193.87560873667397,176.89999961853027L194.5253673998515,176.89999961853027L194.74195362091066,176.89999961853027L194.80383539835614,-8.13775428887802L194.86571717580162,-16.23702113061396L195.51547583897909,176.89999961853027L195.54641672770182,176.89999961853027L195.63923939387004,-86.02560209466972L195.7011211713155,176.89999961853027L195.82488472620645,118.75834858575836L195.85582561492922,-21.805048092257994L196.01053005854288,119.4100364815217L196.07241183598836,176.89999961853027L196.13429361343384,-86.02558587303646L196.87687494277952,176.89999961853027L197.06252027511596,176.89999961853027L197.12440205256144,176.89999961853027L197.49569271723428,144.71258266792142L197.8360424931844,4.774795582451765L198.11451049168903,176.89999961853027L198.1454513804118,176.89999961853027L198.26921493530273,118.2457003643257L198.57862382253012,153.318848547297L198.7952100435893,176.89999961853027L198.91897359848025,119.2380182267139L199.1355598195394,176.89999961853027L199.44496870676676,176.89999961853027L199.50685048421224,176.89999961853027L199.66155492782593,176.89999961853027L199.7234367052714,176.89999961853027L199.8162593714396,4.774795582451765L199.87814114888508,176.89999961853027L200.2184909248352,176.89999961853027L201.0229540316264,151.1565372731031L201.27048114140828,176.89999961853027L201.3633038075765,176.89999961853027L201.42518558502198,176.89999961853027L201.45612647374472,176.89999961853027L201.67271269480386,176.89999961853027L201.79647624969482,176.89999961853027L201.8583580271403,133.52011193175738L201.95118069330852,176.89999961853027L202.53905757904053,176.89999961853027L202.7556438000997,116.6460648286286L202.91034824371337,4.774795582451765L203.21975713094074,176.89999961853027L203.59104779561363,-76.09150631158386L204.36457001368206,166.65405408783096L205.57126467386882,123.7993711805087L205.8806735610962,139.27768867838662L206.31384600321454,176.89999961853027L206.4685504468282,4.774795582451765L206.93266377766926,176.89999961853027L207.52054066340128,-52.6002453935189L207.73712688446045,90.12960718599669L207.82994955062864,176.89999961853027L208.04653577168781,156.84741066364683L208.263121992747,153.5770320627291L208.3559446589152,153.88821368182144L208.57253087997435,176.89999961853027L208.88193976720171,90.44694288721816L208.9438215446472,176.89999961853027L209.03664421081544,176.89999961853027L209.06758509953818,40.22128668327991L209.09852598826092,157.7684222815037L209.12946687698366,176.89999961853027L209.3460530980428,139.1227518034324L209.56263931910198,136.72117954903837L209.8411073176066,176.89999961853027L210.0886344273885,145.45154295078106L210.70745220184327,176.89999961853027L211.41909264246624,176.89999961853027L211.94508775075275,176.89999961853027L212.4710828590393,-104.17928057359809L212.5639055252075,-52.60027783678551L212.8733144124349,126.43780766878444L212.90425530115763,176.89999961853027L212.9661370786031,0.2730814634449942L213.3683686319987,149.53208669388172L214.17283173878988,122.67027250622533L215.00823573430378,176.89999961853027L215.16294017791748,120.83780786792724L215.2557628440857,176.89999961853027L215.50328995386758,176.89999961853027L215.688935286204,92.10245789418849L216.02928506215414,176.89999961853027L216.30775306065877,176.89999961853027L216.52433928171794,176.89999961853027L216.70998461405438,-13.868289572814021L216.8337481689453,31.361501008042875L216.89562994639078,133.86869860951063L216.92657083511352,176.89999961853027L217.85479749679564,107.61959376052762L217.9785610516866,176.89999961853027L218.00950194040934,-86.02558587303646L218.25702905019125,176.89999961853027L218.96866949081422,4.774795582451765L219.0305512682597,176.89999961853027L219.0614921569824,176.89999961853027L219.40184193293254,133.86869860951063L219.49466459910076,176.89999961853027L219.92783704121908,176.89999961853027L220.05160059611003,176.89999961853027L220.11348237355548,176.89999961853027L220.48477303822835,144.62652082020932L220.73230014801024,176.89999961853027L220.88700459162396,4.774795582451765L220.9488863690694,176.89999961853027L221.0107681465149,108.66954708599263L221.81523125330608,157.53591355616018L222.71251702626546,176.89999961853027L222.96004413604734,133.86869860951063L223.14568946838378,77.39528439961616L223.45509835561114,176.89999961853027L223.5788619105021,176.89999961853027L223.70262546539308,176.89999961853027L223.82638902028404,176.89999961853027L223.91921168645223,176.89999961853027L223.9810934638977,176.89999961853027L224.1357979075114,159.18987128633475L224.38332501729332,176.89999961853027L224.9402610143026,111.83667093561581L225.24966990152996,176.89999961853027L225.31155167897543,143.68157823784242L225.52813790003458,176.89999961853027L225.7756650098165,-104.17928057359809L225.80660589853923,-104.17928057359809L225.89942856470742,4.774795582451765L226.33260100682577,176.89999961853027L226.7657734489441,103.57465650249691L226.88953700383504,176.89999961853027L226.92047789255778,176.89999961853027L226.9514187812805,176.89999961853027L227.3536503346761,133.86869860951063L227.53929566701254,176.89999961853027L227.6940001106262,-52.60029405841877L227.72494099934897,176.89999961853027L227.78682277679442,176.89999961853027L227.87964544296264,176.89999961853027L227.94152722040812,114.07429925317179L228.03434988657634,4.774795582451765L228.37469966252644,176.89999961853027L229.17916276931763,176.89999961853027L229.7360987663269,107.36292696780805L230.20021209716796,151.16727802204477L230.29303476333618,176.89999961853027L230.32397565205892,4.774795582451765L230.50962098439533,176.89999961853027L230.81902987162272,176.89999961853027L231.25220231374104,133.86869860951063L231.68537475585936,113.04154896981005L231.8091383107503,119.52492619929302L231.90196097691853,83.78239029093558L231.93290186564127,4.774795582451765L232.7683058611552,133.86869860951063L232.95395119349163,176.89999961853027L233.04677385965982,4.774795582451765L233.32524185816447,176.89999961853027L233.5108871905009,-10.851000894475575L233.6655916341146,-104.17928057359809L233.69653252283732,148.30648552316043L233.72747341156008,117.45990011534325L233.78935518900556,-49.44082276429982L234.06782318751016,113.89992480612871L234.1606458536784,166.0561165739716L234.22252763112388,96.85701861127521L234.71758185068768,139.63488904341648L234.77946362813316,176.89999961853027L234.87228629430135,176.89999961853027L235.02699073791504,101.76734756202218L235.150754292806,176.89999961853027L235.6458085123698,176.89999961853027L235.67674940109254,4.774795582451765L235.80051295598346,4.774795582451765L236.07898095448812,141.27008239928367L236.69779872894287,176.89999961853027L237.06908939361574,176.89999961853027L237.34755739212036,176.89999961853027L237.44038005828858,176.89999961853027L238.18296138763426,139.46430234774647L238.52331116358437,176.89999961853027L238.73989738464354,133.86869860951063L238.8327200508118,4.774795582451765L238.89460182825727,176.89999961853027L238.95648360570274,176.89999961853027L239.01836538314816,176.89999961853027L239.20401071548463,84.56595195452412L239.32777427037558,176.89999961853027L239.82282848993938,4.774795582451765L240.16317826588948,176.89999961853027L240.22506004333496,101.29542780637058L240.62729159673057,91.82462998084306L240.72011426289876,176.89999961853027L240.9057595952352,176.89999961853027L241.43175470352173,157.88016703012104L241.5555182584127,176.89999961853027L241.7411635907491,4.774795582451765L242.01963158925372,4.774795582451765L242.0505724779765,65.80929914460012L242.3290404764811,135.58994772997744L242.42186314264933,133.86869860951063L242.51468580881755,146.08958236983565L242.66939025243124,-131.89517389245566L242.73127202987672,176.89999961853027L242.91691736221313,4.774795582451765L243.19538536071775,176.89999961853027L243.41197158177692,4.774795582451765L243.53573513666788,176.89999961853027L243.69043958028155,176.89999961853027L244.2164346885681,159.257162676627L244.89713424046835,155.47040690632423L244.95901601791383,129.1980240135711L245.05183868408204,111.09749977152337L245.39218846003214,176.89999961853027L245.60877468109132,133.86869860951063L245.82536090215046,176.89999961853027L246.28947423299155,176.89999961853027L246.75358756383258,176.89999961853027L246.78452845255535,176.89999961853027L246.97017378489176,176.89999961853027L247.27958267211915,176.89999961853027L247.43428711573281,176.89999961853027L247.4961688931783,176.89999961853027L247.5889915593465,176.89999961853027L247.9293413352966,176.89999961853027L248.11498666763305,176.89999961853027L248.4243955548604,107.54305198385218L248.45533644358318,124.03140136767018L248.51721822102866,176.89999961853027L248.9194497744242,176.89999961853027L249.1360359954834,176.89999961853027L249.19791777292886,-52.60027783678551L249.22885866165163,4.774795582451765L250.0333217684428,133.86869860951063L250.24990798950193,176.89999961853027L250.96154843012494,176.89999961853027L251.17813465118408,176.89999961853027L251.2709573173523,176.89999961853027L251.45660264968873,176.89999961853027L252.63235642115276,144.62652082020932L253.03458797454832,133.86869860951063L253.06552886327108,176.89999961853027L253.12741064071656,176.89999961853027L253.31305597305297,104.43528714584279L253.4058786392212,131.5478411469557L253.900932858785,152.71640750249568L253.9628146362305,4.774795582451765L254.21034174601238,-86.02558587303646L254.51975063323977,176.89999961853027L255.26233196258545,-109.97536747765606L255.3860955174764,176.89999961853027L255.63362262725832,151.08122022974098L255.75738618214925,-104.71800101513494L256.03585418065387,176.89999961853027L256.0667950693766,176.89999961853027L256.6237310663859,94.82413974909645L256.90219906489057,-108.15014174321333L257.087844397227,176.89999961853027L257.73760306040447,176.89999961853027L257.89230750401816,-13.64026207366669L258.0160710589091,133.094131841581L258.0779528363546,111.16859919023028L258.48018438975015,144.54046302790553L258.5420661671956,176.89999961853027L258.63488883336385,176.89999961853027L258.78959327697754,154.95403582005167L258.9133568318685,176.89999961853027L259.1299430529277,176.89999961853027L259.2227657190959,176.89999961853027L259.4702928288778,176.89999961853027L259.71781993865966,176.89999961853027L260.4604012680054,97.78727250469865L260.6769874890645,147.63870982258246L261.01733726501465,176.89999961853027L261.0482781537374,133.86869860951063L261.1411008199056,176.89999961853027L261.2339234860738,176.89999961853027L261.79085948308307,90.83739760049102L261.914623037974,139.68391081921666L262.038386592865,176.89999961853027L262.10026837031046,176.89999961853027L262.16215014775594,176.89999961853027" fill="none"></path></g></g></g></g></g></g><g transform="translate(51, 176)" clip-path="url(#clip_1)"><clipPath id="clip_1"><rect width="278" height="23"></rect></clipPath><g><g><line x1="0" y1="0" x2="0" y2="5" style="visibility: inherit;" fill="rgb(0, 0, 0)" stroke="rgb(204, 204, 204)" stroke-width="1px"></line><line x1="30.94088872273763" y1="0" x2="30.94088872273763" y2="5" style="visibility: inherit;" fill="rgb(0, 0, 0)" stroke="rgb(204, 204, 204)" stroke-width="1px"></line><line x1="61.88177744547526" y1="0" x2="61.88177744547526" y2="5" style="visibility: inherit;" fill="rgb(0, 0, 0)" stroke="rgb(204, 204, 204)" stroke-width="1px"></line><line x1="92.82266616821289" y1="0" x2="92.82266616821289" y2="5" style="visibility: inherit;" fill="rgb(0, 0, 0)" stroke="rgb(204, 204, 204)" stroke-width="1px"></line><line x1="123.76355489095052" y1="0" x2="123.76355489095052" y2="5" style="visibility: inherit;" fill="rgb(0, 0, 0)" stroke="rgb(204, 204, 204)" stroke-width="1px"></line><line x1="154.70444361368817" y1="0" x2="154.70444361368817" y2="5" style="visibility: inherit;" fill="rgb(0, 0, 0)" stroke="rgb(204, 204, 204)" stroke-width="1px"></line><line x1="185.64533233642578" y1="0" x2="185.64533233642578" y2="5" style="visibility: inherit;" fill="rgb(0, 0, 0)" stroke="rgb(204, 204, 204)" stroke-width="1px"></line><line x1="216.58622105916342" y1="0" x2="216.58622105916342" y2="5" style="visibility: inherit;" fill="rgb(0, 0, 0)" stroke="rgb(204, 204, 204)" stroke-width="1px"></line><line x1="247.52710978190103" y1="0" x2="247.52710978190103" y2="5" style="visibility: inherit;" fill="rgb(0, 0, 0)" stroke="rgb(204, 204, 204)" stroke-width="1px"></line><line x1="278.4679985046387" y1="0" x2="278.4679985046387" y2="5" style="visibility: inherit;" fill="rgb(0, 0, 0)" stroke="rgb(204, 204, 204)" stroke-width="1px"></line></g><g transform="translate(0, 8)"><text style="text-anchor: middle; visibility: hidden; font-family: Roboto, sans-serif; font-size: 12px; font-weight: 200;" x="0" y="0" dx="0em" dy="0.95em" fill="rgb(33, 33, 33)" stroke="none" stroke-width="1px">-1k</text><text style="text-anchor: middle; visibility: inherit; font-family: Roboto, sans-serif; font-size: 12px; font-weight: 200;" x="30.94088872273763" y="0" dx="0em" dy="0.95em" fill="rgb(33, 33, 33)" stroke="none" stroke-width="1px">0</text><text style="text-anchor: middle; visibility: inherit; font-family: Roboto, sans-serif; font-size: 12px; font-weight: 200;" x="61.88177744547526" y="0" dx="0em" dy="0.95em" fill="rgb(33, 33, 33)" stroke="none" stroke-width="1px">1k</text><text style="text-anchor: middle; visibility: inherit; font-family: Roboto, sans-serif; font-size: 12px; font-weight: 200;" x="92.82266616821289" y="0" dx="0em" dy="0.95em" fill="rgb(33, 33, 33)" stroke="none" stroke-width="1px">2k</text><text style="text-anchor: middle; visibility: inherit; font-family: Roboto, sans-serif; font-size: 12px; font-weight: 200;" x="123.76355489095052" y="0" dx="0em" dy="0.95em" fill="rgb(33, 33, 33)" stroke="none" stroke-width="1px">3k</text><text style="text-anchor: middle; visibility: inherit; font-family: Roboto, sans-serif; font-size: 12px; font-weight: 200;" x="154.70444361368817" y="0" dx="0em" dy="0.95em" fill="rgb(33, 33, 33)" stroke="none" stroke-width="1px">4k</text><text style="text-anchor: middle; visibility: inherit; font-family: Roboto, sans-serif; font-size: 12px; font-weight: 200;" x="185.64533233642578" y="0" dx="0em" dy="0.95em" fill="rgb(33, 33, 33)" stroke="none" stroke-width="1px">5k</text><text style="text-anchor: middle; visibility: inherit; font-family: Roboto, sans-serif; font-size: 12px; font-weight: 200;" x="216.58622105916342" y="0" dx="0em" dy="0.95em" fill="rgb(33, 33, 33)" stroke="none" stroke-width="1px">6k</text><text style="text-anchor: middle; visibility: inherit; font-family: Roboto, sans-serif; font-size: 12px; font-weight: 200;" x="247.52710978190103" y="0" dx="0em" dy="0.95em" fill="rgb(33, 33, 33)" stroke="none" stroke-width="1px">7k</text><text style="text-anchor: middle; visibility: hidden; font-family: Roboto, sans-serif; font-size: 12px; font-weight: 200;" x="278.4679985046387" y="0" dx="0em" dy="0.95em" fill="rgb(33, 33, 33)" stroke="none" stroke-width="1px">8k</text></g><line x1="0" y1="0" x2="278.4679985046387" y2="0" fill="rgb(0, 0, 0)" stroke="rgb(204, 204, 204)" stroke-width="1px"></line></g></g></g></g></svg>