<svg viewBox="0 0 330 200" xmlns="http://www.w3.org/2000/svg"><g><g><g><g><g><line x1="61.91500186920166" y1="176.89999961853027" x2="56.91500186920166" y2="176.89999961853027" style="visibility: inherit;" fill="rgb(0, 0, 0)" stroke="rgb(204, 204, 204)" stroke-width="1px"></line><line x1="61.91500186920166" y1="159.20999965667724" x2="56.91500186920166" y2="159.20999965667724" style="visibility: inherit;" fill="rgb(0, 0, 0)" stroke="rgb(204, 204, 204)" stroke-width="1px"></line><line x1="61.91500186920166" y1="141.51999969482424" x2="56.91500186920166" y2="141.51999969482424" style="visibility: inherit;" fill="rgb(0, 0, 0)" stroke="rgb(204, 204, 204)" stroke-width="1px"></line><line x1="61.91500186920166" y1="123.82999973297119" x2="56.91500186920166" y2="123.82999973297119" style="visibility: inherit;" fill="rgb(0, 0, 0)" stroke="rgb(204, 204, 204)" stroke-width="1px"></line><line x1="61.91500186920166" y1="106.13999977111816" x2="56.91500186920166" y2="106.13999977111816" style="visibility: inherit;" fill="rgb(0, 0, 0)" stroke="rgb(204, 204, 204)" stroke-width="1px"></line><line x1="61.91500186920166" y1="88.44999980926514" x2="56.91500186920166" y2="88.44999980926514" style="visibility: inherit;" fill="rgb(0, 0, 0)" stroke="rgb(204, 204, 204)" stroke-width="1px"></line><line x1="61.91500186920166" y1="70.75999984741212" x2="56.91500186920166" y2="70.75999984741212" style="visibility: inherit;" fill="rgb(0, 0, 0)" stroke="rgb(204, 204, 204)" stroke-width="1px"></line><line x1="61.91500186920166" y1="53.06999988555909" x2="56.91500186920166" y2="53.06999988555909" style="visibility: inherit;" fill="rgb(0, 0, 0)" stroke="rgb(204, 204, 204)" stroke-width="1px"></line><line x1="61.91500186920166" y1="35.379999923706066" x2="56.91500186920166" y2="35.379999923706066" style="visibility: inherit;" fill="rgb(0, 0, 0)" stroke="rgb(204, 204, 204)" stroke-width="1px"></line><line x1="61.91500186920166" y1="17.689999961853022" x2="56.91500186920166" y2="17.689999961853022" style="visibility: inherit;" fill="rgb(0, 0, 0)" stroke="rgb(204, 204, 204)" stroke-width="1px"></line><line x1="61.91500186920166" y1="0" x2="56.91500186920166" y2="0" style="visibility: inherit;" fill="rgb(0, 0, 0)" stroke="rgb(204, 204, 204)" stroke-width="1px"></line></g><g transform="translate(51.91500186920166, 0)"><text style="text-anchor: end; visibility: hidden; font-family: Roboto, sans-serif; font-size: 12px; font-weight: 200;" x="0" y="176.89999961853027" dx="0em" dy="0.3em" fill="rgb(33, 33, 33)" stroke="none" stroke-width="1px">-0.05</text><text style="text-anchor: end; visibility: inherit; font-family: Roboto, sans-serif; font-size: 12px; font-weight: 200;" x="0" y="159.20999965667724" dx="0em" dy="0.3em" fill="rgb(33, 33, 33)" stroke="none" stroke-width="1px">0</text><text style="text-anchor: end; visibility: hidden; font-family: Roboto, sans-serif; font-size: 12px; font-weight: 200;" x="0" y="141.51999969482424" dx="0em" dy="0.3em" fill="rgb(33, 33, 33)" stroke="none" stroke-width="1px">0.05</text><text style="text-anchor: end; visibility: inherit; font-family: Roboto, sans-serif; font-size: 12px; font-weight: 200;" x="0" y="123.82999973297119" dx="0em" dy="0.3em" fill="rgb(33, 33, 33)" stroke="none" stroke-width="1px">0.1</text><text style="text-anchor: end; visibility: hidden; font-family: Roboto, sans-serif; font-size: 12px; font-weight: 200;" x="0" y="106.13999977111816" dx="0em" dy="0.3em" fill="rgb(33, 33, 33)" stroke="none" stroke-width="1px">0.15</text><text style="text-anchor: end; visibility: inherit; font-family: Roboto, sans-serif; font-size: 12px; font-weight: 200;" x="0" y="88.44999980926514" dx="0em" dy="0.3em" fill="rgb(33, 33, 33)" stroke="none" stroke-width="1px">0.2</text><text style="text-anchor: end; visibility: hidden; font-family: Roboto, sans-serif; font-size: 12px; font-weight: 200;" x="0" y="70.75999984741212" dx="0em" dy="0.3em" fill="rgb(33, 33, 33)" stroke="none" stroke-width="1px">0.25</text><text style="text-anchor: end; visibility: inherit; font-family: Roboto, sans-serif; font-size: 12px; font-weight: 200;" x="0" y="53.06999988555909" dx="0em" dy="0.3em" fill="rgb(33, 33, 33)" stroke="none" stroke-width="1px">0.3</text><text style="text-anchor: end; visibility: hidden; font-family: Roboto, sans-serif; font-size: 12px; font-weight: 200;" x="0" y="35.379999923706066" dx="0em" dy="0.3em" fill="rgb(33, 33, 33)" stroke="none" stroke-width="1px">0.35</text><text style="text-anchor: end; visibility: inherit; font-family: Roboto, sans-serif; font-size: 12px; font-weight: 200;" x="0" y="17.689999961853022" dx="0em" dy="0.3em" fill="rgb(33, 33, 33)" stroke="none" stroke-width="1px">0.4</text><text style="text-anchor: end; visibility: hidden; font-family: Roboto, sans-serif; font-size: 12px; font-weight: 200;" x="0" y="0" dx="0em" dy="0.3em" fill="rgb(33, 33, 33)" stroke="none" stroke-width="1px">0.45</text></g><line x1="61.91500186920166" y1="0" x2="61.91500186920166" y2="176.89999961853027" fill="rgb(0, 0, 0)" stroke="rgb(204, 204, 204)" stroke-width="1px"></line></g></g><g transform="translate(61, 0)" clip-path="url(#clip_0)"><clipPath id="clip_0"><rect width="268" height="176"></rect></clipPath><g><g><g><line x1="0" y1="0" x2="0" y2="176.89999961853027" fill="rgb(0, 0, 0)" stroke="rgb(66, 66, 66)" stroke-width="1px" opacity="0.25"></line><line x1="29.787222014533146" y1="0" x2="29.787222014533146" y2="176.89999961853027" fill="rgb(0, 0, 0)" stroke="rgb(66, 66, 66)" stroke-width="1px" opacity="0.25"></line><line x1="59.57444402906629" y1="0" x2="59.57444402906629" y2="176.89999961853027" fill="rgb(0, 0, 0)" stroke="rgb(66, 66, 66)" stroke-width="1px" opacity="0.25"></line><line x1="89.36166604359944" y1="0" x2="89.36166604359944" y2="176.89999961853027" fill="rgb(0, 0, 0)" stroke="rgb(66, 66, 66)" stroke-width="1px" opacity="0.25"></line><line x1="119.14888805813258" y1="0" x2="119.14888805813258" y2="176.89999961853027" fill="rgb(0, 0, 0)" stroke="rgb(66, 66, 66)" stroke-width="1px" opacity="0.25"></line><line x1="148.93611007266574" y1="0" x2="148.93611007266574" y2="176.89999961853027" fill="rgb(0, 0, 0)" stroke="rgb(66, 66, 66)" stroke-width="1px" opacity="0.25"></line><line x1="178.72333208719888" y1="0" x2="178.72333208719888" y2="176.89999961853027" fill="rgb(0, 0, 0)" stroke="rgb(66, 66, 66)" stroke-width="1px" opacity="0.25"></line><line x1="208.51055410173205" y1="0" x2="208.51055410173205" y2="176.89999961853027" fill="rgb(0, 0, 0)" stroke="rgb(66, 66, 66)" stroke-width="1px" opacity="0.25"></line><line x1="238.29777611626517" y1="0" x2="238.29777611626517" y2="176.89999961853027" fill="rgb(0, 0, 0)" stroke="rgb(66, 66, 66)" stroke-width="1px" opacity="0.25"></line><line x1="268.08499813079834" y1="0" x2="268.08499813079834" y2="176.89999961853027" fill="rgb(0, 0, 0)" stroke="rgb(66, 66, 66)" stroke-width="1px" opacity="0.25"></line></g><g><line x1="0" y1="176.89999961853027" x2="268.08499813079834" y2="176.89999961853027" fill="rgb(0, 0, 0)" stroke="rgb(66, 66, 66)" stroke-width="1px" opacity="0.25"></line><line x1="0" y1="159.20999965667724" x2="268.08499813079834" y2="159.20999965667724" fill="rgb(0, 0, 0)" stroke="rgb(66, 66, 66)" stroke-width="1px" opacity="0.25"></line><line x1="0" y1="141.51999969482424" x2="268.08499813079834" y2="141.51999969482424" fill="rgb(0, 0, 0)" stroke="rgb(66, 66, 66)" stroke-width="1px" opacity="0.25"></line><line x1="0" y1="123.82999973297119" x2="268.08499813079834" y2="123.82999973297119" fill="rgb(0, 0, 0)" stroke="rgb(66, 66, 66)" stroke-width="1px" opacity="0.25"></line><line x1="0" y1="106.13999977111816" x2="268.08499813079834" y2="106.13999977111816" fill="rgb(0, 0, 0)" stroke="rgb(66, 66, 66)" stroke-width="1px" opacity="0.25"></line><line x1="0" y1="88.44999980926514" x2="268.08499813079834" y2="88.44999980926514" fill="rgb(0, 0, 0)" stroke="rgb(66, 66, 66)" stroke-width="1px" opacity="0.25"></line><line x1="0" y1="70.75999984741212" x2="268.08499813079834" y2="70.75999984741212" fill="rgb(0, 0, 0)" stroke="rgb(66, 66, 66)" stroke-width="1px" opacity="0.25"></line><line x1="0" y1="53.06999988555909" x2="268.08499813079834" y2="53.06999988555909" fill="rgb(0, 0, 0)" stroke="rgb(66, 66, 66)" stroke-width="1px" opacity="0.25"></line><line x1="0" y1="35.379999923706066" x2="268.08499813079834" y2="35.379999923706066" fill="rgb(0, 0, 0)" stroke="rgb(66, 66, 66)" stroke-width="1px" opacity="0.25"></line><line x1="0" y1="17.689999961853022" x2="268.08499813079834" y2="17.689999961853022" fill="rgb(0, 0, 0)" stroke="rgb(66, 66, 66)" stroke-width="1px" opacity="0.25"></line><line x1="0" y1="0" x2="268.08499813079834" y2="0" fill="rgb(0, 0, 0)" stroke="rgb(66, 66, 66)" stroke-width="1px" opacity="0.25"></line></g></g></g><g><g><line x1="0" y1="159.20999965667724" x2="268.08499813079834" y2="159.20999965667724" fill="rgb(0, 0, 0)" stroke="rgb(153, 153, 153)" stroke-width="1.5px"></line></g></g><g><g><line x1="29.787222014533146" y1="0" x2="29.787222014533146" y2="176.89999961853027" fill="rgb(0, 0, 0)" stroke="rgb(153, 153, 153)" stroke-width="1.5px"></line></g></g><g><g><g><g><g><path style="fill: none;" stroke="rgb(255, 112, 67)" stroke-width="2px" d="M29.936158124605814,159.20999965667724L30.35317923280928,159.20999965667724L30.591477008925544,159.20999965667724L30.621264230940078,159.20999965667724L31.008498117129008,159.20999965667724L31.21700867123074,159.20999965667724L31.24679589324527,159.20999965667724L31.663817001448738,159.20999965667724L31.69360422346327,159.20999965667724L31.812753111521403,159.20999965667724L31.931901999579537,159.20999965667724L32.11062533166673,159.20999965667724L32.2595614417394,159.20999965667724L32.468071995841136,159.20999965667724L32.765944215986465,159.20999965667724L32.88509310404459,159.20999965667724L33.00424199210273,159.20999965667724L33.42126310030619,155.24536818581856L33.540411988364326,155.45591724644126L33.57019921037886,155.64541080034078L33.62977365440793,155.81685677705136L33.689348098436994,155.97271620982815L34.10636920664045,153.00452317475208L34.19573087268406,153.2660705477989L34.49360309282939,153.50669316755548L34.58296475887299,153.72880542863672L34.64253920290205,153.93446403756676L34.70211364693112,154.12543188565198L34.94041142304738,154.3032287067775L35.08934753312005,154.46917160364387L35.50636864132351,154.6244077302162L35.86381530549791,154.7699408462142L35.92338974952698,154.90665304351285L36.161687525643245,155.0353226384726L36.63828307787577,155.1566389970128L37.085091408093774,155.2712148888397L37.11487863010831,155.37959683828606L37.50211251629724,155.48227384080758L37.53189973831177,155.57968473848004L37.88934640248617,155.67222448917178L37.97870806852976,153.9996370305111L38.217005844646025,154.12625467121495L38.30636751068963,152.5665901088394L38.4553036207623,152.7208472589361L38.604239730834955,152.86824745370947L38.991473617023885,153.0092378859074L39.22977139314016,153.1442276893208L39.28934583716922,150.25540660248282L39.319133059183756,150.44257588881675L39.40849472522736,150.62225693488625L40.093600831561616,145.1051381263801L40.12338805357615,145.38336339687163L40.48083471775055,145.65108727805082L40.65955804983775,144.5634795235602L40.68934527185228,144.83703713737958L40.71913249386681,145.10082241607878L41.07657915804121,145.3553496931117L41.31487693415748,145.60109783065977L41.43402582221561,145.8385132256725L41.49360026624467,146.06801251530302L41.791472486390006,146.28998501623607L41.85104693041907,146.50479492795114L42.17870637257894,146.71278332615177L42.38721692668067,146.91426996931042L42.804238034884136,147.10955493845557L42.83402525689866,147.2989201278871L42.89359970092774,146.3912640885187L43.102110255029466,146.58616267259558L43.54891858524746,146.77540987555645L43.6680674733056,146.9592478994781L43.817003583378266,147.1379053012505L43.936152471436394,147.3115979401588L43.96593969345093,147.48052984758263L44.114875803523596,147.64489402617883L44.14466302553812,147.80487318512954L44.323386357625324,146.99422504970215L45.00849246395959,147.15897844004988L45.06806690798865,147.31950532252503L45.097854130003185,147.47596619745815L45.12764135201772,147.6285135401636L45.21700301806132,147.77729229631112L45.27657746209039,147.92244034105022L45.69359857029385,148.06408890494538L45.72338579230838,148.20236296948693L45.78296023633745,144.865638828273L45.84253468036652,145.0396253306863L45.90210912439558,145.209609704791L46.021258012453714,145.3757283868212L46.08083245648278,145.53811168104585L46.259555788569976,145.69688410043358L46.37870467662811,142.5997232332812L46.55742800871531,142.78861195724164L46.61700245274438,141.38061908791468L46.736151340802515,137.6376329380501L47.21274689303504,137.87555394907392L47.39147022512224,138.1085145806595L47.510619113180375,138.3366682466736L47.570193557209436,138.56016209919346L48.106363553471034,133.52665938940802L48.37444855160183,133.79642012330405L48.5233846616745,134.06083464986858L48.55317188368903,132.86133973975393L48.791469659805294,133.13042460691847L48.970192991892496,133.3943302309482L48.99998021390703,132.94363748205947L49.417001322110494,133.20467470624047L49.68508632024129,133.4608282008705L49.92338409635756,133.7122336251994L49.953171318372085,131.2195312193727L50.429766870604624,131.48811466281236L50.489341314633684,131.07866050871974L51.29359630902608,131.3440358775548L51.35317075305515,131.60470946740318L51.41274519708421,131.8608050093995L51.502106863127814,131.46138697203344L51.591468529171415,129.7773446150441L51.978702415360345,130.04378334163366L52.57444685565101,130.30570104621316L52.902106297810874,130.5632117042466L52.93189351982541,130.81642549201683L53.1106168519126,131.06544894361653L53.289340183999805,131.31038510021824L53.76593573623233,130.94023131187362L53.79572295824686,131.18252638096897L53.85529740227594,131.42093979803028L54.21274406645033,131.05813435981312L54.59997795263926,131.29406568001184L54.83827572875553,130.93763465413647L54.92763739479913,131.17113085133107L55.34465850300259,131.4010298528821L55.49359461307525,129.32327329196303L55.61274350113339,129.56484684554613L55.761679611206056,129.23485403512916L56.20848794142405,129.4737596479633L56.536147383583916,129.70912065824487L56.65529627164205,129.94101525587647L57.51912571006351,130.16951934784518L57.57870015409258,127.65125118577318L57.87657237423791,127.89432399687223L58.085082928339645,127.59253728647406L58.50210403654311,127.83284276991161L59.57444402906629,128.06975809777478L59.6638056951099,128.30335439236515L59.72338013913896,128.53370080036586L60.05103958129883,128.76086456096655L60.25955013540056,128.98491107118815L60.37869902345869,128.68853718693168L60.43827346748776,128.91029736784674L60.70635846561856,129.12907550201575L61.27231568389469,129.34493123053306L61.689336792098146,129.05327717687646L61.71912401411268,129.26703784087036L61.778698458141754,129.47799890011567L61.89784734619988,129.1906759635618L62.165932344330685,129.3996496170137L62.52337900850508,129.6059387886595L62.64252789656321,128.34925139489852L62.70210234059228,128.5603116509517L62.79146400663588,126.84420539570338L62.851038450664944,124.19289057105743L62.91061289469401,124.42825777543784L63.20848511483934,124.66071297068672L63.327634002897476,121.12843330736712L63.536144556999204,121.38008311667782L63.59571900102827,121.6286758265583L63.74465511110094,121.87426668601586L63.95316566520267,122.11690962072964L64.10210177527533,122.3566572724354L64.13188899728988,119.86436852630396L64.48933566146427,119.6635182965717L64.7872078816096,119.91500540230483L64.84678232563866,119.71597729558748L64.87656954765319,119.96446866255263L65.08508010175493,118.88148872711137L65.35316509988573,119.13257449088489L65.38295232190026,119.38079976378691L65.74039898607467,119.62621302896656L65.97869676219092,119.0013439293228L66.09784565024906,117.95192986537172L66.30635620435079,117.77291873477073L66.87231342262692,117.59589094107002L66.93188786665598,117.84586371529291L67.08082397672865,118.0930970437423L67.11061119874319,118.33763559156746L67.17018564277224,118.57952305818607L67.25954730881585,118.81880220324493L67.37869619687399,119.05551487174736L67.55741952896118,119.28970201837896L67.67656841701933,119.52140373106096L67.82550452709198,119.34192418479141L68.00422785917918,119.57112171616049L68.24252563529544,119.79792455040766L68.4808234114117,119.21643650713038L68.71912118752797,119.44312906298131L68.98720618565878,119.66748930983991L69.19571673976051,116.31317374090715L69.2850784058041,116.5529677653495L69.31486562781863,116.79033183159315L69.58295062594944,117.02530257248026L69.88082284609476,117.25791588819759L70.32763117631276,117.48820696450198L70.4467800643709,117.71621029040402L70.77443950653077,117.94195967532941L70.8042267285453,118.16548826577548L70.92337561660342,117.62365516786828L72.02550283114115,117.84693659517258L72.65103449344636,118.0680531199789L72.6808217154609,118.28703596715467L73.21699171172249,118.50391576396368L73.246778933737,118.71872255429481L73.3361405997806,118.5596741676368L73.72337448596954,118.77236823621959L73.78294892999861,118.98305773103456L74.11060837215847,118.82464034380266L74.19997003820208,118.66770220557095L74.3191189262602,118.87630487106432L74.55741670237647,118.7203983918053L74.76592725647821,118.92701777307558L74.79571447849274,119.13174277933176L74.88507614453633,119.33459924328405L74.97443781057994,117.03868715064861L75.33188447475435,117.25041859636008L75.51060780684153,117.46024334029124L75.62975669489965,117.66818691897068L75.92762891504499,117.87427441494567L76.01699058108859,117.7288775133399L76.43401168929205,117.58476707077506L76.52337335533566,117.4419261599137L76.67230946540832,117.64590909487582L76.76167113145192,117.84811054670922L77.02975612958272,118.0485536519112L77.35741557174259,118.24726114807538L77.50635168181525,118.44425538245197L77.56592612584431,118.63955832028839L78.28081945419311,118.83319155295699L78.51911723030938,119.02517630587614L78.57869167433844,118.88034044797924L78.87656389448378,119.07067240342738L79.0850744485855,118.92669657764236L79.32337222470177,119.11540668342649L79.56167000081804,119.30254324432762L79.77018055491978,119.48812576745908L79.82975499894883,119.67217343883087L80.00847833103605,119.8547051299297L80.27656332916683,120.03573940413784L80.5148611052831,119.89096624492761L80.57443554931217,118.77786062995301L80.66379721535576,118.96186314716373L80.75315888139937,119.14438018850215L80.7829461034139,119.32542958005212L80.99145665751563,119.50502886381788L81.1403927675883,119.68319530336066L81.34890332169003,119.85994588930158L81.61698831982083,120.03529734469421L81.79571165190802,120.20926613027125L82.06379665003882,119.44239838312888L82.3914560921987,119.61779372823959L82.68932831234403,119.7918219658914L82.74890275637308,119.96449893168814L82.95741331047482,120.13584021761035L83.10634942054749,120.30586117668255L83.19571108659109,119.24711608158863L83.43400886270736,119.41984694517221L83.99996608098348,119.59126172890595L84.8340082973904,119.76137533220134L84.95315718544855,119.93020243041997L85.22124218357934,120.09775747906932L85.370178293652,120.26405471790447L85.42975273768107,120.42910817493843L86.05528439998626,120.29401768873251L86.38294384214613,120.15993021306288L86.47230550818972,120.32383437100145L86.65102884027694,120.48653039187272L86.68081606229146,120.64803150385497L87.12762439250946,120.21998920258203L87.157411614524,120.38157779651475L87.48507105668385,120.54199230854545L87.60421994474198,120.70124540902901L87.75315605481465,120.85934958666793L87.81273049884372,120.72669950441718L88.08081549697452,120.88372432955376L88.19996438503266,121.03962820408123L88.22975160704719,121.19442301127751L88.28932605107624,121.34812046705183L88.31911327309078,121.50073212288106L88.37868771711985,121.65226936868433L88.70634715927972,121.80274343563761L88.76592160330878,121.95216539892984L89.00421937942505,120.97332830060785L89.03400660143959,121.12515451154151L89.12336826748317,121.27592995862688L90.16592103799184,121.14635760909067L91.47655880663129,121.29616302858365L91.74464380476209,121.44494210115803L92.04251602490743,121.5927052646647L92.3701754670673,121.73946281590388L92.4595371331109,121.88522491299979L92.6382604651981,121.7555351677614L92.78719657527076,121.90039784186658L92.81698379728529,122.04428759763222L92.93613268534342,122.18721413234647L92.96591990735796,122.32918701485788L93.17443046145969,122.47021568769503L93.5318771256341,122.61030946914401L94.12762156592474,122.74947755528532L94.42549378607008,122.88772902199064L94.96166378233168,123.0250728268805L95.1701743364334,123.16151781124422L95.61698266665141,122.23274336592007L95.79570599873861,121.84070825902906L96.09357821888393,121.98045872077168L96.4212376610438,121.32760866309316L96.5105993270874,121.46850631803885L96.65953543716007,121.60849923714862L97.046769323349,120.17704861032978L97.76166265169779,120.05999873054103L98.4765559800466,120.20404654952802L98.80421542220647,120.34718085001897L98.89357708825005,119.97147812754507L99.04251319832272,120.11470154766138L99.28081097443899,119.99942859118912L99.57868319458433,120.14179580074138L99.87655541472964,120.02702996766921L100.08506596883139,120.16855268689625L100.97868262926737,120.30919690776881L101.0978315173255,119.1777380042475L101.12761873934005,118.81402727730692L101.24676762739817,118.95842485767406L102.22974595387777,119.10193680187326L102.37868206395044,118.99293080038066L102.52761817402309,119.13558814486733L102.91485206021203,119.27737829190096L103.1531498363283,119.16858187530484L103.2425115023719,119.3095400903399L103.83825594266256,119.44964897086682L104.07655371877883,119.58891610074865L104.2254898288515,119.72734897383373L104.28506427288056,119.86495499528728L104.37442593892415,120.00174148289949L104.43400038295322,119.89232008247367L104.46378760496775,120.02833804905625L104.79144704712762,120.16355291119439L104.85102149115669,120.29797169364748L104.91059593518574,120.43160133949306L105.11910648928749,118.86757721063657L105.17868093331654,119.00544818122962L105.41697870943281,118.4187953881392L106.2212337038252,118.55752962909857L106.25102092583974,118.69546083931188L106.57868036799961,118.83259590245449L106.60846759001414,118.9689416237569L106.90633981015948,119.10450473111898L107.0254886982176,119.23929187620527L107.23399925231934,119.37330963552189L107.44250980642107,118.79648176827227L107.82974369261,118.9313498804525L108.06804146872626,119.06545448069653L108.0978286907408,118.49367489543931L108.30633924484253,118.6286083805731L108.39570091088612,118.76278421599768L108.42548813290065,118.89620869854518L108.4552753549152,119.02888805547096L108.5446370209588,119.16082844541206L109.11059423923491,119.29203595932974L109.3488920153512,119.42251662143649L109.37867923736572,119.55227639010792L109.46804090340932,119.68132115877984L109.67655145751105,119.80965675683034L109.76591312355465,119.93728895044806L109.82548756758372,120.06422344348589L109.91484923362731,119.96226974411981L110.03399812168546,120.08855998550303L110.30208311981625,120.21416528978878L110.48080645190345,119.8857220036815L110.62974256197612,119.78523690832898L110.74889145003425,119.91098296882862L111.10633811420864,120.03605411403541L111.13612533622319,120.16045570100671L111.25527422428131,120.28419303026261L111.40421033435398,120.4072713465297L111.43399755636851,120.30644459894576L111.46378477838304,120.42892325771643L111.55314644442664,120.55075459547733L111.82123144255743,120.6719436700138L111.85101866457197,120.79249548656423L111.8808058865865,120.91241499850071L112.02974199665917,121.03170710799921L112.17867810673184,121.15037666669923L112.26803977277544,121.26842847635344L112.4169758828481,121.38586728946723L112.56591199292076,121.50269780992843L112.77442254702251,121.40081801421597L113.1318692111969,121.51711675250911L113.5786775414149,121.63281757511574L113.9361242055893,121.74792502376043L114.23399642573463,121.86244359429327L114.35314531379277,121.5446504217699L114.53186864587995,121.65931889460892L114.74037919998169,121.77340503254092L115.03825142012703,121.8869132036772L115.06803864214156,121.99984773255821L115.63399586041768,122.11221290069561L115.66378308243222,122.22401294710623L115.93186808056302,122.33525206883768L115.99144252459207,122.4459344214868L116.73612307495542,122.55606411970999L116.825484740999,122.66564523772615L116.91484640704262,122.56355677937131L117.21271862718794,122.67268148227508L117.74888862344955,122.78126648061337L117.83825028949313,122.67943842208425L118.04676084359487,122.78757707705563L118.13612250963847,122.47707332641492L118.19569695366754,122.58538660314419L118.37442028575472,122.69317046459328L118.76165417194366,122.80042872927334L119.059526392089,122.90716517906857L119.14888805813258,123.01338355967427L119.2382497241762,123.11908758102872L119.47654750029245,123.22428091773892L119.74463249842326,123.32896720950005L120.19144082864125,123.43315006150925L120.57867471483019,123.53683304487333L121.65101470735338,123.43534239214019L121.68080192936792,123.53862713950488L122.0382485935423,123.6414197151361L122.24675914764404,123.74372357753028L122.27654636965858,123.8455421528629L122.30633359167311,122.52754179029623L122.48505692376031,122.63245947305244L122.60420581181843,122.73688283038769L122.72335469987658,122.43754505272825L122.75314192189111,122.34087417754279L122.78292914390565,122.44554808624942L122.9318652539783,122.54973321533288L122.99143969800737,122.65343292860605L123.49782247225444,122.75665055909319L124.33186468866137,122.8593894093813L124.48080079873402,122.96165275196698L124.74888579686483,123.06344382959828L124.83824746290843,123.1647658556119L124.8978219069375,123.26562201426604L125.10633246103923,123.16838120357899L125.25526857111188,123.26886607451995L125.61271523528629,123.36889194272247L125.64250245730082,123.46846189630216L125.73186412334441,123.56757899574188L125.79143856737349,123.6662462742002L125.99994912147521,123.76446673781557L126.35739578564962,123.86224336600655L126.41697022967868,123.9595791117682L127.07228911399841,124.05647690196417L127.16165078004201,124.15293963761529L128.05526744047802,124.05513984258835L128.2935652165943,124.15127110097848L129.3063307650884,123.86065593269637L129.45526687516107,123.9569850088717L129.78292631732091,124.05288614735174L130.05101131545172,124.1483621457782L130.25952186955345,124.24341577746675L130.31909631358252,124.33804979167105L130.40845797962612,124.43226691384304L130.4680324236552,124.33521509393373L130.61696853372786,123.47646353358961L130.6467557557424,123.57251858175495L130.88505353185866,123.66815398367326L131.21271297401853,123.76337243582951L131.33186186207664,123.8581766116631L131.62973408222197,123.76363358909155L131.74888297028014,123.85812077551613L131.86803185833824,123.95219939235454L132.1063296344545,122.91790434588593L132.25526574452718,123.01416541298842L132.70207407474518,123.11001277950601L132.91058462884692,122.83131755331641L133.11909518294863,122.9273327927701L133.5361162911521,123.02293788858678L133.56590351316663,123.11813541560662L133.59569073518117,123.21292792716946L133.6254779571957,123.12177401641597L133.8042012892829,123.2162498098756L133.86377573331197,123.1253818457006L134.0722862874137,123.03489739482409L134.1616479534573,122.94479407940194L134.48930739561717,122.85506954119967L134.84675405979158,122.94948131976196L135.11483905792235,123.04349777688947L135.38292405605316,123.13712134357164L135.56164738814036,122.68170066525091L135.79994516425663,122.77596145847555L136.0382429403729,122.86983065394394L136.1276046064165,122.96331064019284L136.3063279385037,122.87466936354235L136.3361151605182,122.96784404117736L136.66377460267807,122.69830173365368L136.6935618246926,122.79163680869306L137.051008488867,122.88458862923098L137.43824237505595,122.97715950478587L137.46802959707048,122.88930727898769L137.497816819085,122.2625132901789L137.52760404109955,122.35623453627223L137.94462514930302,122.44957462140115L138.65951847765183,122.5425358196663L138.7488801436954,122.63512038712129L138.80845458772447,122.72733056195145L138.86802903175354,122.81916856465041L138.95739069779714,122.91063659819456L139.07653958585527,123.0017368482154L139.16590125189887,123.09247148317007L139.1956884739134,123.00579110948799L139.731858470175,121.8587414229259L140.02973069032032,121.95191976745089L140.38717735449472,122.04472695022271L140.5361134645674,121.78517384113022L140.56590068658193,121.87811936441356L140.98292179478537,121.970696714191L141.37015568097434,122.06290802767748L141.39994290298887,122.15475542558579L141.4595173470179,122.2462410122856L141.48930456903247,122.16292395044933L141.57866623507604,120.68643231270367L141.6084534570906,120.78112616868852L141.6382406791051,120.70176950866383L141.84675123320685,120.79615057274316L141.9063256772359,120.89016390824385L142.41270845148298,120.98381161333015L142.47228289551205,121.07709577024245L142.50207011752659,121.1700184454482L142.62121900558472,121.26258168979085L142.71058067162832,121.35478753863723L143.39568677796257,121.44663801202341L143.69355899810793,121.53813511479873L144.17015455034044,121.62928083676823L144.43823954847124,121.72007715283351L144.4978139925003,121.81052602313207L144.55738843652938,121.04824915475761L144.79568621264562,121.14005963291233L145.06377121077642,121.23152065300809L145.15313287682002,121.32263416095155L146.04674953725603,121.07435826544663L146.2254728693432,121.16559365489371L146.31483453538684,121.2564842182981L146.43398342344497,121.34703186165461L146.61270675553214,121.43723847694476L146.9105789756775,121.52710594226552L146.97015341970658,121.61663612195645L147.05951508575015,121.70583086672532L147.56589785999722,121.79469201377266L147.68504674805536,121.88322138691467L147.95313174618616,121.97142079670488L148.22121674431693,121.89232086484377L148.39994007640416,121.98025919121004L148.5488761864768,122.06787144856982L148.72759951856403,122.155159403521L149.20419507079654,122.07605548689664L149.32334395885468,122.16308931612366L149.38291840288372,122.24980263342387L149.65100340101452,121.50918900511809L149.79993951108722,121.59719700942556L149.9786628431744,121.68488256382338L150.1573861752616,121.44276485443989L150.36589672936333,121.53057674613956L151.46802394390104,121.45376349639027L151.58717283195918,121.54131789796789L151.7063217200173,121.46468223129023L152.21270449426441,121.5519811442817L152.3914278263516,120.98519575812175L152.5701511584388,121.07337223941147L152.6595128244824,121.16123050429937L153.31483170880213,121.24877222854373L153.52334226290384,121.33599907616518L153.61270392894744,121.42291269954941L153.9403633711073,121.50951473954862L154.23823559125265,120.9479607197334L154.26802281326718,121.03542540656257L154.35738447931078,121.12257808143035L154.68504392147062,121.20942036753293L155.13185225168863,121.13482182804023L155.5488733598921,121.22141461727088L155.7275966919793,121.30770052160203L155.78717113600837,121.2331634845113L155.9956816901101,121.3192040345621L156.2935539102554,120.92460618423374L156.38291557629904,121.01112691076302L156.47227724234264,121.09734348679723L156.50206446435715,121.18325747039022L156.62121335241528,121.26887040898035L156.91908557256065,121.35418383948067L157.30631945874956,121.43919928836833L157.3361066807641,121.52391827177296L157.84248945501113,121.6083422955643L158.170148897171,121.69247285543875L158.4382338953018,121.77631143700525L158.58717000537447,121.85985951587006L158.73610611544717,121.94311855772096L158.91482944753434,122.02609001841036L159.18291444566515,122.10877534403777L159.68929721991222,122.0340202828191L160.16589277214473,122.11648625010518L160.25525443818833,122.19866916636686L160.73184999042087,122.28057044547602L160.97014776653714,121.26744031897779L161.08929665459527,121.35119921109461L161.17865832063887,121.43467240851953L161.26801998668245,121.5178613289203L161.297807208697,121.6007673806087L161.53610498481325,121.68339196261749L161.59567942884232,121.7657364647768L161.9233388710022,121.8478022677896L162.16163664711848,121.92959074330668L162.48929608927833,121.8563886063257L162.60844497733646,121.93796438407956L162.84674275345273,121.71056861760106L163.53184885978698,121.79226949737317L163.7105721918742,121.87369639377387L163.82972107993234,121.9548506421486L164.27652941015032,121.72848605352372L164.45525274223752,121.80976524793059L164.54461440828112,121.27771363072574L164.6041888523102,121.20669216113467L164.8126994064119,121.28881527472306L164.90206107245552,121.37066590046226L165.02120996051363,121.45224535153186L165.14035884857176,121.53355493269514L165.17014607058633,121.61459594036641L165.7063160668479,121.69536966267775L165.76589051087697,121.77587737954491L165.8850393989351,121.85612036273288L166.0637627310223,121.93609987592056L166.30206050713855,121.86448350237487L166.5999327272839,121.64194002954689L167.01695383548736,121.7221039725703L167.10631550153096,121.80200626336784L167.1956771675746,121.8816481410916L168.14886827203964,121.66007355329108L168.29780438211228,121.73983758849508L168.32759160412684,121.81934280712353L168.44674049218494,121.89859042724026L168.56588938024308,121.97758165928576L168.59567660225764,122.05631770613674L168.6850382683012,122.13479976316515L168.83397437837388,122.2130290182967L169.16163382053375,122.29100665206857L169.39993159665002,122.36873383768705L169.51908048470816,122.44621174108407L169.57865492873722,122.52344152097375L169.75737826082442,122.60042432890802L169.99567603694067,122.23220321651837L170.02546325895523,122.16147019089613L170.2041865910424,122.23895747767352L170.29354825708603,122.3161983901344L170.71056936528947,122.39319406297581L170.9190799193912,122.17492054309673L171.57439880371095,122.25204348195909L171.78290935781266,122.03453583706666L171.9616326898999,122.11178396948408L172.080781577958,122.18878857960874L172.11056879997253,121.97211395560083L172.49780268616146,122.04924262717766L172.91482379436493,121.97972493352539L173.00418546040854,122.056673063224L173.09354712645214,122.13338032275604L173.15312157048118,122.20984780313307L173.21269601451024,122.28607658879584L173.68929156674278,122.36206775766355L173.74886601077185,122.43782238118293L173.80844045480092,122.51334152437674L173.83822767681548,122.58862624589182L173.86801489882998,122.3736484018942L174.07652545293172,122.44906118959386L174.10631267494628,121.22184151735097L174.64248267120786,121.29944986059593L175.2382271114985,121.3768189599969L175.62546099768744,121.02117229459625L176.01269488387638,121.09894749100066L176.07226932790545,121.17648391686993L176.63822654618156,121.25378263143159L176.7573754342397,121.33084468766552L176.96588598834143,121.40767113235002L177.08503487639956,121.48426300610738L177.23397098647223,121.56062134344914L178.15737486892277,121.63674717282076L178.45524708906808,121.71264151664619L178.48503431108264,121.78830539137171L179.4382254155477,121.86373980750979L180.1531187438965,121.79645294784058L180.51056540807087,121.87171810888417L180.57013985209994,121.94675594190538L180.7190759621726,122.02156743788382L181.01694818231792,122.09615358205576L181.10630984836155,121.46163719596117L181.13609707037608,121.53719446269649L181.37439484649235,121.47103327246971L181.43396929052142,121.54642079063748L181.5829054005941,121.48037312803622L182.6850326151318,121.55559198660771L182.80418150318994,121.63058637016285L182.92333039124807,121.70535724468579L183.1318409453498,121.77990557063437L183.25098983340794,121.85423230297965L183.28077705542245,121.92833839124495L183.34035149945151,122.00222477954476L183.37013872146608,122.0758924066231L183.72758538564048,122.00938171545933L183.99567038377126,121.66341992550919L184.32332982593113,121.45816585824075L184.650989268091,121.53261927709886L184.71056371212003,121.60685369117202L184.85949982219273,121.12374684609927L184.9190742662218,121.19864158432681L185.06801037629447,121.2733168757573L185.24673370838164,121.3477736462603L185.4552442624834,121.4220128165126L185.8424781486723,121.4960353020347L186.28928647889032,121.5698420132268L186.31907370090482,121.50508802624536L186.438222588963,121.16409467083525L186.55737147702112,121.23833805157956L186.6467331430647,121.31236612114014L187.27226480536993,121.38617977789762L187.48077535947164,121.45977991525001L187.5403498035007,121.39560795697598L187.5999242475298,121.33162115619265L188.22545590983498,121.40511910793032L188.25524313184948,121.47840553054971L188.3446047978931,120.5921820710161L188.40417924192215,120.66690421790499L188.52332812998029,120.74141212541473L188.55311535199485,120.67904757777858L188.7020514620675,120.75339333523723L188.76162590609658,120.82752673446244L188.82120035012565,120.49261245171557L189.53609367847443,120.56711040560101L189.71481701056163,120.64139636329072L189.7743914545907,120.71547119138232L190.13183811876507,120.78933575176522L190.45949756092494,120.72733893880908L190.72758255905575,120.80104534697632L190.7573697810703,120.87454331040102L190.87651866912842,120.94783367543992L191.17439088927375,121.02091728388261L191.3829014433755,121.09379497298234L191.50205033143362,121.16646757548634L191.71056088553536,121.23893591966636L192.00843310568067,121.31120082934854L192.06800754970973,121.38326312394324L192.2169436597824,121.4551236184746L192.27651810381147,121.52678312360993L192.36587976985507,121.32987566811822L192.42545421388414,121.40164406191401L192.753113656044,121.47321245553599L193.52758142842188,121.54458164817439L193.76587920453812,121.61575243477549L193.85524087058175,121.68672560606994L193.91481531461082,121.75750194860059L193.94460253662533,121.82808224475019L194.15311309072706,121.89846727276883L194.2722619787852,121.96865780680136L194.33183642281426,122.03865461691416L194.42119808885786,122.1084584691223L194.987155307134,122.17807012541583L195.19566586123574,122.24749034378647L195.3446019713084,122.18418878086896L195.64247419145372,122.25347639128125L195.99992085562812,122.05797368319976L196.74460140599146,122.12737659846556L197.90630306455824,122.19658978110836L198.20417528470355,122.26561397359878L198.62119639290705,122.33444991454702L198.77013250297972,122.27136979255266L199.2169408331977,122.34007644889599L199.78289805147384,122.14559228327616L199.99140860557557,122.21441457038303L200.08077027161914,122.28305025714799L200.28928082572088,122.35150006723516L200.49779137982264,122.41976472057993L200.58715304586622,122.48784493341287L200.79566359996795,122.55574141828373L201.0935358201133,122.62345488408486L201.15311026414236,122.69098603607475L201.24247193018596,122.7583355759013L201.2722591522005,122.82550420162487L201.30204637421502,122.89249260774125L201.33183359622956,122.95930148520428L201.5403441503313,123.02593152144853L201.748854704433,123.09238340041163L202.0169397025638,123.15865780255645L202.2552374786801,123.22475540489324L202.85098191897075,123.2906768810014L203.53608802530502,123.35642290105129L204.04247079955206,123.42199413182574L204.54885357379914,122.71157276071246L204.63821523984274,122.51982054536539L204.93608745998807,122.58675553294212L204.9658746820026,122.6535133785432L205.02544912603167,122.5912175404056L205.4126830122206,122.65785764079672L206.18715078459846,122.72432197756012L206.99140577899084,122.79061121201215L207.1403418890635,122.8567260021641L207.22970355510714,122.92266700274273L207.46800133122338,122.98843486521083L207.64672466331058,123.05403023778749L207.97438410547045,123.11945376546825L208.24246910360125,123.18470609004521L208.450979657703,123.24978785012682L208.6297029897902,123.18697069983271L208.7488518778483,123.12431738314571L208.80842632187736,123.1893510360805L208.83821354389192,123.2542154510015L209.7318302043279,123.31891125532782L209.85097909238604,123.38343907338935L209.88076631440055,123.06645012349472L210.11906409051684,123.13132835787198L210.8041701968511,123.06912428425204L210.86374464088016,123.13389478285218L210.8935318628947,123.19849802529383L211.22119130505456,123.26293462638827L211.31055297109816,123.32720519794552L211.72757407930163,123.39131034879257L211.84672296735977,123.45525068479162L211.9062974113888,123.519026808858L212.26374407556324,123.58263932097825L212.50204185167948,123.64608881822768L212.65097796175218,123.5834562900845L212.71055240578121,123.64680544054393L212.77012684981028,123.70999277815115L213.54459462218816,123.77301889058926L214.4084240606096,123.83588436270722L214.64672183672587,123.89858977653681L214.82544516881308,123.96113571130971L215.12331738895838,124.02352274347417L215.24246627701652,124.08575144671188L215.36161516507468,124.14782239195436L215.48076405313282,124.20973614739962L215.5701257191764,124.27149327852842L215.62970016320546,124.3330943481205L215.77863627327812,124.39453991627062L216.0169340493944,124.45583054040482L216.553104045656,124.51696677529594L216.8509762658013,124.57794917307969L216.9105507098304,123.3959215168669L217.1190612639321,123.45877923934161L217.3573590400484,123.02508718588206L217.3871462620629,122.59248182890363L217.4765079281065,122.5326932490294L217.89352903630999,122.59687247443446L218.31055014451346,122.66089139319034L218.4296990325716,122.72475057324625L218.45948625458612,122.7884505798802L218.48927347660063,122.85199197571468L218.87650736278957,122.91537532073214L219.05523069487677,122.97860117229055L219.20416680494944,122.05628028144226L219.233954026964,122.12090683109976L219.29352847099304,122.18537329807036L219.38289013703664,122.24968024426977L219.4424645810657,122.31382822899558L219.5318262471093,122.25509768488782L219.85948568926918,122.31914209332899L220.63395346164702,122.38302867853143L221.17012345790863,122.44675799130049L221.61693178812664,122.51033057988995L221.7062934541702,122.57374699001694L221.73608067618477,122.5148246222162L221.91480400827194,122.57814112610995L222.21267622841728,122.64130255727574L222.62969733662075,122.70430945321901L223.04671844482422,122.76716234897252L223.16586733288236,122.82986177711061L223.25522899892593,122.8924082677632L223.2850162209405,122.83323577305174L224.08927121533287,122.8956866724772L224.2679945474201,122.95798570275295L224.35735621346367,122.89882784605948L224.62544121159448,122.96103251087231L224.80416454368168,122.90195379141053L224.95310065375435,122.47987896123003L224.98288787576888,122.54266713888398L225.01267509778341,122.60530354632266L225.07224954181248,121.70147560292432L225.34033453994326,121.76545837855984L225.4296962059869,121.82928695965857L225.48927065001595,121.89296187111768L225.96586620224846,121.95648363546336L226.02544064627753,122.01985277286433L226.11480231232113,122.08306980114499L226.2637384223938,122.1461352357987L226.38288731045193,122.20904959000089L226.85948286268444,122.27181337462204L226.889270084699,122.2144821960766L227.0084189727571,122.15728795472154L227.27650397088792,122.22000865971009L227.8722484111786,122.28257984895616L228.229695075353,122.34500202524922L228.4977800734838,122.40727568913556L228.5871417395274,122.46940133893088L229.30203506787618,122.53137947073265L229.62969451003605,122.59321057843245L229.83820506413775,122.65489515372832L229.92756673018138,122.59731306897733L229.98714117421045,122.65890644197297L230.04671561823952,122.72035427108635L230.10629006226856,122.78165704093863L230.28501339435576,122.84281523401049L230.40416228241392,122.9038293306539L230.88075783464643,122.8460644622376L231.2084172768063,122.90699056670255L231.26799172083537,122.96777353616953L231.6552256070243,123.02841384413699L231.7445872730679,121.90575574693862L231.9233106051551,121.96808913458142L232.42969337940215,122.03027664200509L232.5488422674603,122.09231874970533L232.7275655995475,122.03621705100336L232.99565059767826,121.98024627280574L233.02543781969283,122.04224760853296L233.29352281782363,122.10410453128405L233.3828844838672,122.16581751416882L233.47224614991083,122.22738702824154L233.6211822599835,121.70116710118477L233.68075670401257,121.76342649315703L233.85948003609974,121.70816734699058L234.12756503423054,121.77033311920852L234.33607558833228,121.71513520511222L234.4552244763904,121.77720782076594L234.60416058646308,121.83913708101237L235.11054336071015,121.90092345100476L235.7658622450299,121.96256739389497L235.82543668905896,122.02406937084439L235.91479835510253,122.0854298410344L236.2424577972624,122.14664926167718L236.45096835136414,122.20772808802626L236.65947890546587,122.26866677338684L237.10628723568388,122.32946576912639L237.55309556590186,122.39012552468482L237.5828827879164,122.450646487585L237.7616061200036,122.51102910344275L238.05947834014893,122.57127381597708L238.2084144502216,122.63138106702037L238.26798889425066,122.69135129652824L238.35735056029424,122.7511849425896L238.6850100024541,122.81088244143653L238.86373333454134,122.87044422745407L239.16160555468664,122.92987073319007L239.1913927767012,122.9891623893649L239.25096722073027,123.04831962488102L239.63820110691918,123.10734286683252L239.84671166102092,123.16623254051487L239.90628610504996,122.99429109461269L239.93607332706452,122.93801438785545L240.71054109944237,122.99706855717325L240.9190516535441,123.0559895729208L241.60415775987838,123.1147778555465L241.8126683139801,123.17343382373924L241.9020299800237,123.23195789443743L242.08075331211091,123.29035048283818L243.21266774866316,123.34861200240647L243.59990163485207,123.40674286488415L243.62968885686664,123.4647434802988L243.6892633008957,123.52261425697284L243.86798663298288,123.58035560153223L243.9573482990265,123.63796791891536L244.43394385125902,123.69545161238177L244.49351829528808,123.63853072599929L244.73181607140435,123.35332444010922L245.0296882915497,123.41116133947328L245.74458161989847,122.89853897623664L245.8637305079566,122.9570377616776L246.10202828407287,123.015406638901L246.221177172131,122.73207415315532L246.48926217026178,122.7907336977053L246.51904939227634,122.84926332192873L247.05521938853795,122.90766342777634L247.32330438666875,122.6251914487148L247.50202771875595,122.6838803326137L248.12755938106113,122.74243968773432L248.2764954911338,122.68749455136248L248.39564437919194,122.74597759125942L248.455218823221,122.80433189525328L248.8424527094099,122.86255785883685L248.90202715343898,122.92065587589339L248.9913888194826,122.97862633870481L249.14032492955525,123.03646963795983L249.2594738176134,123.094186162762L249.46798437171512,123.1517763006378L249.55734603775872,123.20924043754461L249.795643813875,123.2665789578786L250.03394158999126,123.32379224448268L250.74883491834007,123.38088067865435L250.95734547244177,123.43784464015344L251.28500491460164,123.49468450720993L251.31479213661618,123.55140065653157L251.40415380265978,123.60799346331163L251.49351546870338,123.66446330123641L252.02968546496498,123.72081054249286L252.14883435302312,123.77703555777616L252.26798324108123,123.83313871629704L252.3275576851103,123.88912038578934L252.38713212913936,123.94498093251728" fill="none"></path></g></g></g></g><g opacity="0.2"><g><g><g><path style="fill: none;" stroke="rgb(255, 112, 67)" stroke-width="2px" d="M29.936158124605814,159.20999965667724L30.35317923280928,159.20999965667724L30.591477008925544,159.20999965667724L30.621264230940078,159.20999965667724L31.008498117129008,159.20999965667724L31.21700867123074,159.20999965667724L31.24679589324527,159.20999965667724L31.663817001448738,159.20999965667724L31.69360422346327,159.20999965667724L31.812753111521403,159.20999965667724L31.931901999579537,159.20999965667724L32.11062533166673,159.20999965667724L32.2595614417394,159.20999965667724L32.468071995841136,159.20999965667724L32.765944215986465,159.20999965667724L32.88509310404459,159.20999965667724L33.00424199210273,159.20999965667724L33.42126310030619,88.44999875485898L33.540411988364326,159.20999965667724L33.57019921037886,159.20999965667724L33.62977365440793,159.20999965667724L33.689348098436994,159.20999965667724L34.10636920664045,88.44999875485898L34.19573087268406,159.20999965667724L34.49360309282939,159.20999965667724L34.58296475887299,159.20999965667724L34.64253920290205,159.20999965667724L34.70211364693112,159.20999965667724L34.94041142304738,159.20999965667724L35.08934753312005,159.20999965667724L35.50636864132351,159.20999965667724L35.86381530549791,159.20999965667724L35.92338974952698,159.20999965667724L36.161687525643245,159.20999965667724L36.63828307787577,159.20999965667724L37.085091408093774,159.20999965667724L37.11487863010831,159.20999965667724L37.50211251629724,159.20999965667724L37.53189973831177,159.20999965667724L37.88934640248617,159.20999965667724L37.97870806852976,88.44999875485898L38.217005844646025,159.20999965667724L38.30636751068963,88.44999875485898L38.4553036207623,159.20999965667724L38.604239730834955,159.20999965667724L38.991473617023885,159.20999965667724L39.22977139314016,159.20999965667724L39.28934583716922,17.689997853040705L39.319133059183756,159.20999965667724L39.40849472522736,159.20999965667724L40.093600831561616,-123.83000395059587L40.12338805357615,159.20999965667724L40.48083471775055,159.20999965667724L40.65955804983775,88.44999875485898L40.68934527185228,159.20999965667724L40.71913249386681,159.20999965667724L41.07657915804121,159.20999965667724L41.31487693415748,159.20999965667724L41.43402582221561,159.20999965667724L41.49360026624467,159.20999965667724L41.791472486390006,159.20999965667724L41.85104693041907,159.20999965667724L42.17870637257894,159.20999965667724L42.38721692668067,159.20999965667724L42.804238034884136,159.20999965667724L42.83402525689866,159.20999965667724L42.89359970092774,88.44999875485898L43.102110255029466,159.20999965667724L43.54891858524746,159.20999965667724L43.6680674733056,159.20999965667724L43.817003583378266,159.20999965667724L43.936152471436394,159.20999965667724L43.96593969345093,159.20999965667724L44.114875803523596,159.20999965667724L44.14466302553812,159.20999965667724L44.323386357625324,88.44999875485898L45.00849246395959,159.20999965667724L45.06806690798865,159.20999965667724L45.097854130003185,159.20999965667724L45.12764135201772,159.20999965667724L45.21700301806132,159.20999965667724L45.27657746209039,159.20999965667724L45.69359857029385,159.20999965667724L45.72338579230838,159.20999965667724L45.78296023633745,-123.83000395059587L45.84253468036652,159.20999965667724L45.90210912439558,159.20999965667724L46.021258012453714,159.20999965667724L46.08083245648278,159.20999965667724L46.259555788569976,159.20999965667724L46.37870467662811,-123.83000395059587L46.55742800871531,159.20999965667724L46.61700245274438,17.689997853040705L46.736151340802515,-194.5899995803833L47.21274689303504,159.20999965667724L47.39147022512224,159.20999965667724L47.510619113180375,159.20999965667724L47.570193557209436,159.20999965667724L48.106363553471034,-336.10999083995824L48.37444855160183,159.20999965667724L48.5233846616745,159.20999965667724L48.55317188368903,17.689997853040705L48.791469659805294,159.20999965667724L48.970192991892496,159.20999965667724L48.99998021390703,88.44999875485898L49.417001322110494,159.20999965667724L49.68508632024129,159.20999965667724L49.92338409635756,159.20999965667724L49.953171318372085,-123.83000395059587L50.429766870604624,159.20999965667724L50.489341314633684,88.44999875485898L51.29359630902608,159.20999965667724L51.35317075305515,159.20999965667724L51.41274519708421,159.20999965667724L51.502106863127814,88.44999875485898L51.591468529171415,-53.070008320808405L51.978702415360345,159.20999965667724L52.57444685565101,159.20999965667724L52.902106297810874,159.20999965667724L52.93189351982541,159.20999965667724L53.1106168519126,159.20999965667724L53.289340183999805,159.20999965667724L53.76593573623233,88.44999875485898L53.79572295824686,159.20999965667724L53.85529740227594,159.20999965667724L54.21274406645033,88.44999875485898L54.59997795263926,159.20999965667724L54.83827572875553,88.44999875485898L54.92763739479913,159.20999965667724L55.34465850300259,159.20999965667724L55.49359461307525,-123.83000395059587L55.61274350113339,159.20999965667724L55.761679611206056,88.44999875485898L56.20848794142405,159.20999965667724L56.536147383583916,159.20999965667724L56.65529627164205,159.20999965667724L57.51912571006351,159.20999965667724L57.57870015409258,-194.5899995803833L57.87657237423791,159.20999965667724L58.085082928339645,88.44999875485898L58.50210403654311,159.20999965667724L59.57444402906629,159.20999965667724L59.6638056951099,159.20999965667724L59.72338013913896,159.20999965667724L60.05103958129883,159.20999965667724L60.25955013540056,159.20999965667724L60.37869902345869,88.44999875485898L60.43827346748776,159.20999965667724L60.70635846561856,159.20999965667724L61.27231568389469,159.20999965667724L61.689336792098146,88.44999875485898L61.71912401411268,159.20999965667724L61.778698458141754,159.20999965667724L61.89784734619988,88.44999875485898L62.165932344330685,159.20999965667724L62.52337900850508,159.20999965667724L62.64252789656321,-53.070008320808405L62.70210234059228,159.20999965667724L62.79146400663588,-123.83000395059587L62.851038450664944,-265.35001629829407L62.91061289469401,159.20999965667724L63.20848511483934,159.20999965667724L63.327634002897476,-406.870007557869L63.536144556999204,159.20999965667724L63.59571900102827,159.20999965667724L63.74465511110094,159.20999965667724L63.95316566520267,159.20999965667724L64.10210177527533,159.20999965667724L64.13188899728988,-265.35001629829407L64.48933566146427,88.44999875485898L64.7872078816096,159.20999965667724L64.84678232563866,88.44999875485898L64.87656954765319,159.20999965667724L65.08508010175493,-53.070008320808405L65.35316509988573,159.20999965667724L65.38295232190026,159.20999965667724L65.74039898607467,159.20999965667724L65.97869676219092,17.689997853040705L66.09784565024906,-53.070008320808405L66.30635620435079,88.44999875485898L66.87231342262692,88.44999875485898L66.93188786665598,159.20999965667724L67.08082397672865,159.20999965667724L67.11061119874319,159.20999965667724L67.17018564277224,159.20999965667724L67.25954730881585,159.20999965667724L67.37869619687399,159.20999965667724L67.55741952896118,159.20999965667724L67.67656841701933,159.20999965667724L67.82550452709198,88.44999875485898L68.00422785917918,159.20999965667724L68.24252563529544,159.20999965667724L68.4808234114117,17.689997853040705L68.71912118752797,159.20999965667724L68.98720618565878,159.20999965667724L69.19571673976051,-477.6300242757797L69.2850784058041,159.20999965667724L69.31486562781863,159.20999965667724L69.58295062594944,159.20999965667724L69.88082284609476,159.20999965667724L70.32763117631276,159.20999965667724L70.4467800643709,159.20999965667724L70.77443950653077,159.20999965667724L70.8042267285453,159.20999965667724L70.92337561660342,17.689997853040705L72.02550283114115,159.20999965667724L72.65103449344636,159.20999965667724L72.6808217154609,159.20999965667724L73.21699171172249,159.20999965667724L73.246778933737,159.20999965667724L73.3361405997806,88.44999875485898L73.72337448596954,159.20999965667724L73.78294892999861,159.20999965667724L74.11060837215847,88.44999875485898L74.19997003820208,88.44999875485898L74.3191189262602,159.20999965667724L74.55741670237647,88.44999875485898L74.76592725647821,159.20999965667724L74.79571447849274,159.20999965667724L74.88507614453633,159.20999965667724L74.97443781057994,-336.10999083995824L75.33188447475435,159.20999965667724L75.51060780684153,159.20999965667724L75.62975669489965,159.20999965667724L75.92762891504499,159.20999965667724L76.01699058108859,88.44999875485898L76.43401168929205,88.44999875485898L76.52337335533566,88.44999875485898L76.67230946540832,159.20999965667724L76.76167113145192,159.20999965667724L77.02975612958272,159.20999965667724L77.35741557174259,159.20999965667724L77.50635168181525,159.20999965667724L77.56592612584431,159.20999965667724L78.28081945419311,159.20999965667724L78.51911723030938,159.20999965667724L78.57869167433844,88.44999875485898L78.87656389448378,159.20999965667724L79.0850744485855,88.44999875485898L79.32337222470177,159.20999965667724L79.56167000081804,159.20999965667724L79.77018055491978,159.20999965667724L79.82975499894883,159.20999965667724L80.00847833103605,159.20999965667724L80.27656332916683,159.20999965667724L80.5148611052831,88.44999875485898L80.57443554931217,-123.83000395059587L80.66379721535576,159.20999965667724L80.75315888139937,159.20999965667724L80.7829461034139,159.20999965667724L80.99145665751563,159.20999965667724L81.1403927675883,159.20999965667724L81.34890332169003,159.20999965667724L81.61698831982083,159.20999965667724L81.79571165190802,159.20999965667724L82.06379665003882,-53.070008320808405L82.3914560921987,159.20999965667724L82.68932831234403,159.20999965667724L82.74890275637308,159.20999965667724L82.95741331047482,159.20999965667724L83.10634942054749,159.20999965667724L83.19571108659109,-123.83000395059587L83.43400886270736,159.20999965667724L83.99996608098348,159.20999965667724L84.8340082973904,159.20999965667724L84.95315718544855,159.20999965667724L85.22124218357934,159.20999965667724L85.370178293652,159.20999965667724L85.42975273768107,159.20999965667724L86.05528439998626,88.44999875485898L86.38294384214613,88.44999875485898L86.47230550818972,159.20999965667724L86.65102884027694,159.20999965667724L86.68081606229146,159.20999965667724L87.12762439250946,17.689997853040705L87.157411614524,159.20999965667724L87.48507105668385,159.20999965667724L87.60421994474198,159.20999965667724L87.75315605481465,159.20999965667724L87.81273049884372,88.44999875485898L88.08081549697452,159.20999965667724L88.19996438503266,159.20999965667724L88.22975160704719,159.20999965667724L88.28932605107624,159.20999965667724L88.31911327309078,159.20999965667724L88.37868771711985,159.20999965667724L88.70634715927972,159.20999965667724L88.76592160330878,159.20999965667724L89.00421937942505,-123.83000395059587L89.03400660143959,159.20999965667724L89.12336826748317,159.20999965667724L90.16592103799184,88.44999875485898L91.47655880663129,159.20999965667724L91.74464380476209,159.20999965667724L92.04251602490743,159.20999965667724L92.3701754670673,159.20999965667724L92.4595371331109,159.20999965667724L92.6382604651981,88.44999875485898L92.78719657527076,159.20999965667724L92.81698379728529,159.20999965667724L92.93613268534342,159.20999965667724L92.96591990735796,159.20999965667724L93.17443046145969,159.20999965667724L93.5318771256341,159.20999965667724L94.12762156592474,159.20999965667724L94.42549378607008,159.20999965667724L94.96166378233168,159.20999965667724L95.1701743364334,159.20999965667724L95.61698266665141,-123.83000395059587L95.79570599873861,17.689997853040705L96.09357821888393,159.20999965667724L96.4212376610438,-53.070008320808405L96.5105993270874,159.20999965667724L96.65953543716007,159.20999965667724L97.046769323349,-265.35001629829407L97.76166265169779,88.44999875485898L98.4765559800466,159.20999965667724L98.80421542220647,159.20999965667724L98.89357708825005,17.689997853040705L99.04251319832272,159.20999965667724L99.28081097443899,88.44999875485898L99.57868319458433,159.20999965667724L99.87655541472964,88.44999875485898L100.08506596883139,159.20999965667724L100.97868262926737,159.20999965667724L101.0978315173255,-194.5899995803833L101.12761873934005,17.689997853040705L101.24676762739817,159.20999965667724L102.22974595387777,159.20999965667724L102.37868206395044,88.44999875485898L102.52761817402309,159.20999965667724L102.91485206021203,159.20999965667724L103.1531498363283,88.44999875485898L103.2425115023719,159.20999965667724L103.83825594266256,159.20999965667724L104.07655371877883,159.20999965667724L104.2254898288515,159.20999965667724L104.28506427288056,159.20999965667724L104.37442593892415,159.20999965667724L104.43400038295322,88.44999875485898L104.46378760496775,159.20999965667724L104.79144704712762,159.20999965667724L104.85102149115669,159.20999965667724L104.91059593518574,159.20999965667724L105.11910648928749,-336.10999083995824L105.17868093331654,159.20999965667724L105.41697870943281,-53.070008320808405L106.2212337038252,159.20999965667724L106.25102092583974,159.20999965667724L106.57868036799961,159.20999965667724L106.60846759001414,159.20999965667724L106.90633981015948,159.20999965667724L107.0254886982176,159.20999965667724L107.23399925231934,159.20999965667724L107.44250980642107,-53.070008320808405L107.82974369261,159.20999965667724L108.06804146872626,159.20999965667724L108.0978286907408,-53.070008320808405L108.30633924484253,159.20999965667724L108.39570091088612,159.20999965667724L108.42548813290065,159.20999965667724L108.4552753549152,159.20999965667724L108.5446370209588,159.20999965667724L109.11059423923491,159.20999965667724L109.3488920153512,159.20999965667724L109.37867923736572,159.20999965667724L109.46804090340932,159.20999965667724L109.67655145751105,159.20999965667724L109.76591312355465,159.20999965667724L109.82548756758372,159.20999965667724L109.91484923362731,88.44999875485898L110.03399812168546,159.20999965667724L110.30208311981625,159.20999965667724L110.48080645190345,17.689997853040705L110.62974256197612,88.44999875485898L110.74889145003425,159.20999965667724L111.10633811420864,159.20999965667724L111.13612533622319,159.20999965667724L111.25527422428131,159.20999965667724L111.40421033435398,159.20999965667724L111.43399755636851,88.44999875485898L111.46378477838304,159.20999965667724L111.55314644442664,159.20999965667724L111.82123144255743,159.20999965667724L111.85101866457197,159.20999965667724L111.8808058865865,159.20999965667724L112.02974199665917,159.20999965667724L112.17867810673184,159.20999965667724L112.26803977277544,159.20999965667724L112.4169758828481,159.20999965667724L112.56591199292076,159.20999965667724L112.77442254702251,88.44999875485898L113.1318692111969,159.20999965667724L113.5786775414149,159.20999965667724L113.9361242055893,159.20999965667724L114.23399642573463,159.20999965667724L114.35314531379277,17.689997853040705L114.53186864587995,159.20999965667724L114.74037919998169,159.20999965667724L115.03825142012703,159.20999965667724L115.06803864214156,159.20999965667724L115.63399586041768,159.20999965667724L115.66378308243222,159.20999965667724L115.93186808056302,159.20999965667724L115.99144252459207,159.20999965667724L116.73612307495542,159.20999965667724L116.825484740999,159.20999965667724L116.91484640704262,88.44999875485898L117.21271862718794,159.20999965667724L117.74888862344955,159.20999965667724L117.83825028949313,88.44999875485898L118.04676084359487,159.20999965667724L118.13612250963847,17.689997853040705L118.19569695366754,159.20999965667724L118.37442028575472,159.20999965667724L118.76165417194366,159.20999965667724L119.059526392089,159.20999965667724L119.14888805813258,159.20999965667724L119.2382497241762,159.20999965667724L119.47654750029245,159.20999965667724L119.74463249842326,159.20999965667724L120.19144082864125,159.20999965667724L120.57867471483019,159.20999965667724L121.65101470735338,88.44999875485898L121.68080192936792,159.20999965667724L122.0382485935423,159.20999965667724L122.24675914764404,159.20999965667724L122.27654636965858,159.20999965667724L122.30633359167311,-336.10999083995824L122.48505692376031,159.20999965667724L122.60420581181843,159.20999965667724L122.72335469987658,17.689997853040705L122.75314192189111,88.44999875485898L122.78292914390565,159.20999965667724L122.9318652539783,159.20999965667724L122.99143969800737,159.20999965667724L123.49782247225444,159.20999965667724L124.33186468866137,159.20999965667724L124.48080079873402,159.20999965667724L124.74888579686483,159.20999965667724L124.83824746290843,159.20999965667724L124.8978219069375,159.20999965667724L125.10633246103923,88.44999875485898L125.25526857111188,159.20999965667724L125.61271523528629,159.20999965667724L125.64250245730082,159.20999965667724L125.73186412334441,159.20999965667724L125.79143856737349,159.20999965667724L125.99994912147521,159.20999965667724L126.35739578564962,159.20999965667724L126.41697022967868,159.20999965667724L127.07228911399841,159.20999965667724L127.16165078004201,159.20999965667724L128.05526744047802,88.44999875485898L128.2935652165943,159.20999965667724L129.3063307650884,17.689997853040705L129.45526687516107,159.20999965667724L129.78292631732091,159.20999965667724L130.05101131545172,159.20999965667724L130.25952186955345,159.20999965667724L130.31909631358252,159.20999965667724L130.40845797962612,159.20999965667724L130.4680324236552,88.44999875485898L130.61696853372786,-194.5899995803833L130.6467557557424,159.20999965667724L130.88505353185866,159.20999965667724L131.21271297401853,159.20999965667724L131.33186186207664,159.20999965667724L131.62973408222197,88.44999875485898L131.74888297028014,159.20999965667724L131.86803185833824,159.20999965667724L132.1063296344545,-265.35001629829407L132.25526574452718,159.20999965667724L132.70207407474518,159.20999965667724L132.91058462884692,17.689997853040705L133.11909518294863,159.20999965667724L133.5361162911521,159.20999965667724L133.56590351316663,159.20999965667724L133.59569073518117,159.20999965667724L133.6254779571957,88.44999875485898L133.8042012892829,159.20999965667724L133.86377573331197,88.44999875485898L134.0722862874137,88.44999875485898L134.1616479534573,88.44999875485898L134.48930739561717,88.44999875485898L134.84675405979158,159.20999965667724L135.11483905792235,159.20999965667724L135.38292405605316,159.20999965667724L135.56164738814036,-53.070008320808405L135.79994516425663,159.20999965667724L136.0382429403729,159.20999965667724L136.1276046064165,159.20999965667724L136.3063279385037,88.44999875485898L136.3361151605182,159.20999965667724L136.66377460267807,17.689997853040705L136.6935618246926,159.20999965667724L137.051008488867,159.20999965667724L137.43824237505595,159.20999965667724L137.46802959707048,88.44999875485898L137.497816819085,-123.83000395059587L137.52760404109955,159.20999965667724L137.94462514930302,159.20999965667724L138.65951847765183,159.20999965667724L138.7488801436954,159.20999965667724L138.80845458772447,159.20999965667724L138.86802903175354,159.20999965667724L138.95739069779714,159.20999965667724L139.07653958585527,159.20999965667724L139.16590125189887,159.20999965667724L139.1956884739134,88.44999875485898L139.731858470175,-336.10999083995824L140.02973069032032,159.20999965667724L140.38717735449472,159.20999965667724L140.5361134645674,17.689997853040705L140.56590068658193,159.20999965667724L140.98292179478537,159.20999965667724L141.37015568097434,159.20999965667724L141.39994290298887,159.20999965667724L141.4595173470179,159.20999965667724L141.48930456903247,88.44999875485898L141.57866623507604,-477.6300242757797L141.6084534570906,159.20999965667724L141.6382406791051,88.44999875485898L141.84675123320685,159.20999965667724L141.9063256772359,159.20999965667724L142.41270845148298,159.20999965667724L142.47228289551205,159.20999965667724L142.50207011752659,159.20999965667724L142.62121900558472,159.20999965667724L142.71058067162832,159.20999965667724L143.39568677796257,159.20999965667724L143.69355899810793,159.20999965667724L144.17015455034044,159.20999965667724L144.43823954847124,159.20999965667724L144.4978139925003,159.20999965667724L144.55738843652938,-194.5899995803833L144.79568621264562,159.20999965667724L145.06377121077642,159.20999965667724L145.15313287682002,159.20999965667724L146.04674953725603,17.689997853040705L146.2254728693432,159.20999965667724L146.31483453538684,159.20999965667724L146.43398342344497,159.20999965667724L146.61270675553214,159.20999965667724L146.9105789756775,159.20999965667724L146.97015341970658,159.20999965667724L147.05951508575015,159.20999965667724L147.56589785999722,159.20999965667724L147.68504674805536,159.20999965667724L147.95313174618616,159.20999965667724L148.22121674431693,88.44999875485898L148.39994007640416,159.20999965667724L148.5488761864768,159.20999965667724L148.72759951856403,159.20999965667724L149.20419507079654,88.44999875485898L149.32334395885468,159.20999965667724L149.38291840288372,159.20999965667724L149.65100340101452,-194.5899995803833L149.79993951108722,159.20999965667724L149.9786628431744,159.20999965667724L150.1573861752616,17.689997853040705L150.36589672936333,159.20999965667724L151.46802394390104,88.44999875485898L151.58717283195918,159.20999965667724L151.7063217200173,88.44999875485898L152.21270449426441,159.20999965667724L152.3914278263516,-123.83000395059587L152.5701511584388,159.20999965667724L152.6595128244824,159.20999965667724L153.31483170880213,159.20999965667724L153.52334226290384,159.20999965667724L153.61270392894744,159.20999965667724L153.9403633711073,159.20999965667724L154.23823559125265,-123.83000395059587L154.26802281326718,159.20999965667724L154.35738447931078,159.20999965667724L154.68504392147062,159.20999965667724L155.13185225168863,88.44999875485898L155.5488733598921,159.20999965667724L155.7275966919793,159.20999965667724L155.78717113600837,88.44999875485898L155.9956816901101,159.20999965667724L156.2935539102554,-53.070008320808405L156.38291557629904,159.20999965667724L156.47227724234264,159.20999965667724L156.50206446435715,159.20999965667724L156.62121335241528,159.20999965667724L156.91908557256065,159.20999965667724L157.30631945874956,159.20999965667724L157.3361066807641,159.20999965667724L157.84248945501113,159.20999965667724L158.170148897171,159.20999965667724L158.4382338953018,159.20999965667724L158.58717000537447,159.20999965667724L158.73610611544717,159.20999965667724L158.91482944753434,159.20999965667724L159.18291444566515,159.20999965667724L159.68929721991222,88.44999875485898L160.16589277214473,159.20999965667724L160.25525443818833,159.20999965667724L160.73184999042087,159.20999965667724L160.97014776653714,-336.10999083995824L161.08929665459527,159.20999965667724L161.17865832063887,159.20999965667724L161.26801998668245,159.20999965667724L161.297807208697,159.20999965667724L161.53610498481325,159.20999965667724L161.59567942884232,159.20999965667724L161.9233388710022,159.20999965667724L162.16163664711848,159.20999965667724L162.48929608927833,88.44999875485898L162.60844497733646,159.20999965667724L162.84674275345273,17.689997853040705L163.53184885978698,159.20999965667724L163.7105721918742,159.20999965667724L163.82972107993234,159.20999965667724L164.27652941015032,17.689997853040705L164.45525274223752,159.20999965667724L164.54461440828112,-123.83000395059587L164.6041888523102,88.44999875485898L164.8126994064119,159.20999965667724L164.90206107245552,159.20999965667724L165.02120996051363,159.20999965667724L165.14035884857176,159.20999965667724L165.17014607058633,159.20999965667724L165.7063160668479,159.20999965667724L165.76589051087697,159.20999965667724L165.8850393989351,159.20999965667724L166.0637627310223,159.20999965667724L166.30206050713855,88.44999875485898L166.5999327272839,17.689997853040705L167.01695383548736,159.20999965667724L167.10631550153096,159.20999965667724L167.1956771675746,159.20999965667724L168.14886827203964,17.689997853040705L168.29780438211228,159.20999965667724L168.32759160412684,159.20999965667724L168.44674049218494,159.20999965667724L168.56588938024308,159.20999965667724L168.59567660225764,159.20999965667724L168.6850382683012,159.20999965667724L168.83397437837388,159.20999965667724L169.16163382053375,159.20999965667724L169.39993159665002,159.20999965667724L169.51908048470816,159.20999965667724L169.57865492873722,159.20999965667724L169.75737826082442,159.20999965667724L169.99567603694067,-53.070008320808405L170.02546325895523,88.44999875485898L170.2041865910424,159.20999965667724L170.29354825708603,159.20999965667724L170.71056936528947,159.20999965667724L170.9190799193912,17.689997853040705L171.57439880371095,159.20999965667724L171.78290935781266,17.689997853040705L171.9616326898999,159.20999965667724L172.080781577958,159.20999965667724L172.11056879997253,17.689997853040705L172.49780268616146,159.20999965667724L172.91482379436493,88.44999875485898L173.00418546040854,159.20999965667724L173.09354712645214,159.20999965667724L173.15312157048118,159.20999965667724L173.21269601451024,159.20999965667724L173.68929156674278,159.20999965667724L173.74886601077185,159.20999965667724L173.80844045480092,159.20999965667724L173.83822767681548,159.20999965667724L173.86801489882998,17.689997853040705L174.07652545293172,159.20999965667724L174.10631267494628,-477.6300242757797L174.64248267120786,159.20999965667724L175.2382271114985,159.20999965667724L175.62546099768744,-53.070008320808405L176.01269488387638,159.20999965667724L176.07226932790545,159.20999965667724L176.63822654618156,159.20999965667724L176.7573754342397,159.20999965667724L176.96588598834143,159.20999965667724L177.08503487639956,159.20999965667724L177.23397098647223,159.20999965667724L178.15737486892277,159.20999965667724L178.45524708906808,159.20999965667724L178.48503431108264,159.20999965667724L179.4382254155477,159.20999965667724L180.1531187438965,88.44999875485898L180.51056540807087,159.20999965667724L180.57013985209994,159.20999965667724L180.7190759621726,159.20999965667724L181.01694818231792,159.20999965667724L181.10630984836155,-194.5899995803833L181.13609707037608,159.20999965667724L181.37439484649235,88.44999875485898L181.43396929052142,159.20999965667724L181.5829054005941,88.44999875485898L182.6850326151318,159.20999965667724L182.80418150318994,159.20999965667724L182.92333039124807,159.20999965667724L183.1318409453498,159.20999965667724L183.25098983340794,159.20999965667724L183.28077705542245,159.20999965667724L183.34035149945151,159.20999965667724L183.37013872146608,159.20999965667724L183.72758538564048,88.44999875485898L183.99567038377126,-53.070008320808405L184.32332982593113,17.689997853040705L184.650989268091,159.20999965667724L184.71056371212003,159.20999965667724L184.85949982219273,-123.83000395059587L184.9190742662218,159.20999965667724L185.06801037629447,159.20999965667724L185.24673370838164,159.20999965667724L185.4552442624834,159.20999965667724L185.8424781486723,159.20999965667724L186.28928647889032,159.20999965667724L186.31907370090482,88.44999875485898L186.438222588963,-53.070008320808405L186.55737147702112,159.20999965667724L186.6467331430647,159.20999965667724L187.27226480536993,159.20999965667724L187.48077535947164,159.20999965667724L187.5403498035007,88.44999875485898L187.5999242475298,88.44999875485898L188.22545590983498,159.20999965667724L188.25524313184948,159.20999965667724L188.3446047978931,-336.10999083995824L188.40417924192215,159.20999965667724L188.52332812998029,159.20999965667724L188.55311535199485,88.44999875485898L188.7020514620675,159.20999965667724L188.76162590609658,159.20999965667724L188.82120035012565,-53.070008320808405L189.53609367847443,159.20999965667724L189.71481701056163,159.20999965667724L189.7743914545907,159.20999965667724L190.13183811876507,159.20999965667724L190.45949756092494,88.44999875485898L190.72758255905575,159.20999965667724L190.7573697810703,159.20999965667724L190.87651866912842,159.20999965667724L191.17439088927375,159.20999965667724L191.3829014433755,159.20999965667724L191.50205033143362,159.20999965667724L191.71056088553536,159.20999965667724L192.00843310568067,159.20999965667724L192.06800754970973,159.20999965667724L192.2169436597824,159.20999965667724L192.27651810381147,159.20999965667724L192.36587976985507,17.689997853040705L192.42545421388414,159.20999965667724L192.753113656044,159.20999965667724L193.52758142842188,159.20999965667724L193.76587920453812,159.20999965667724L193.85524087058175,159.20999965667724L193.91481531461082,159.20999965667724L193.94460253662533,159.20999965667724L194.15311309072706,159.20999965667724L194.2722619787852,159.20999965667724L194.33183642281426,159.20999965667724L194.42119808885786,159.20999965667724L194.987155307134,159.20999965667724L195.19566586123574,159.20999965667724L195.3446019713084,88.44999875485898L195.64247419145372,159.20999965667724L195.99992085562812,17.689997853040705L196.74460140599146,159.20999965667724L197.90630306455824,159.20999965667724L198.20417528470355,159.20999965667724L198.62119639290705,159.20999965667724L198.77013250297972,88.44999875485898L199.2169408331977,159.20999965667724L199.78289805147384,17.689997853040705L199.99140860557557,159.20999965667724L200.08077027161914,159.20999965667724L200.28928082572088,159.20999965667724L200.49779137982264,159.20999965667724L200.58715304586622,159.20999965667724L200.79566359996795,159.20999965667724L201.0935358201133,159.20999965667724L201.15311026414236,159.20999965667724L201.24247193018596,159.20999965667724L201.2722591522005,159.20999965667724L201.30204637421502,159.20999965667724L201.33183359622956,159.20999965667724L201.5403441503313,159.20999965667724L201.748854704433,159.20999965667724L202.0169397025638,159.20999965667724L202.2552374786801,159.20999965667724L202.85098191897075,159.20999965667724L203.53608802530502,159.20999965667724L204.04247079955206,159.20999965667724L204.54885357379914,-265.35001629829407L204.63821523984274,17.689997853040705L204.93608745998807,159.20999965667724L204.9658746820026,159.20999965667724L205.02544912603167,88.44999875485898L205.4126830122206,159.20999965667724L206.18715078459846,159.20999965667724L206.99140577899084,159.20999965667724L207.1403418890635,159.20999965667724L207.22970355510714,159.20999965667724L207.46800133122338,159.20999965667724L207.64672466331058,159.20999965667724L207.97438410547045,159.20999965667724L208.24246910360125,159.20999965667724L208.450979657703,159.20999965667724L208.6297029897902,88.44999875485898L208.7488518778483,88.44999875485898L208.80842632187736,159.20999965667724L208.83821354389192,159.20999965667724L209.7318302043279,159.20999965667724L209.85097909238604,159.20999965667724L209.88076631440055,-53.070008320808405L210.11906409051684,159.20999965667724L210.8041701968511,88.44999875485898L210.86374464088016,159.20999965667724L210.8935318628947,159.20999965667724L211.22119130505456,159.20999965667724L211.31055297109816,159.20999965667724L211.72757407930163,159.20999965667724L211.84672296735977,159.20999965667724L211.9062974113888,159.20999965667724L212.26374407556324,159.20999965667724L212.50204185167948,159.20999965667724L212.65097796175218,88.44999875485898L212.71055240578121,159.20999965667724L212.77012684981028,159.20999965667724L213.54459462218816,159.20999965667724L214.4084240606096,159.20999965667724L214.64672183672587,159.20999965667724L214.82544516881308,159.20999965667724L215.12331738895838,159.20999965667724L215.24246627701652,159.20999965667724L215.36161516507468,159.20999965667724L215.48076405313282,159.20999965667724L215.5701257191764,159.20999965667724L215.62970016320546,159.20999965667724L215.77863627327812,159.20999965667724L216.0169340493944,159.20999965667724L216.553104045656,159.20999965667724L216.8509762658013,159.20999965667724L216.9105507098304,-548.3899988174438L217.1190612639321,159.20999965667724L217.3573590400484,-123.83000395059587L217.3871462620629,-123.83000395059587L217.4765079281065,88.44999875485898L217.89352903630999,159.20999965667724L218.31055014451346,159.20999965667724L218.4296990325716,159.20999965667724L218.45948625458612,159.20999965667724L218.48927347660063,159.20999965667724L218.87650736278957,159.20999965667724L219.05523069487677,159.20999965667724L219.20416680494944,-406.870007557869L219.233954026964,159.20999965667724L219.29352847099304,159.20999965667724L219.38289013703664,159.20999965667724L219.4424645810657,159.20999965667724L219.5318262471093,88.44999875485898L219.85948568926918,159.20999965667724L220.63395346164702,159.20999965667724L221.17012345790863,159.20999965667724L221.61693178812664,159.20999965667724L221.7062934541702,159.20999965667724L221.73608067618477,88.44999875485898L221.91480400827194,159.20999965667724L222.21267622841728,159.20999965667724L222.62969733662075,159.20999965667724L223.04671844482422,159.20999965667724L223.16586733288236,159.20999965667724L223.25522899892593,159.20999965667724L223.2850162209405,88.44999875485898L224.08927121533287,159.20999965667724L224.2679945474201,159.20999965667724L224.35735621346367,88.44999875485898L224.62544121159448,159.20999965667724L224.80416454368168,88.44999875485898L224.95310065375435,-123.83000395059587L224.98288787576888,159.20999965667724L225.01267509778341,159.20999965667724L225.07224954181248,-406.870007557869L225.34033453994326,159.20999965667724L225.4296962059869,159.20999965667724L225.48927065001595,159.20999965667724L225.96586620224846,159.20999965667724L226.02544064627753,159.20999965667724L226.11480231232113,159.20999965667724L226.2637384223938,159.20999965667724L226.38288731045193,159.20999965667724L226.85948286268444,159.20999965667724L226.889270084699,88.44999875485898L227.0084189727571,88.44999875485898L227.27650397088792,159.20999965667724L227.8722484111786,159.20999965667724L228.229695075353,159.20999965667724L228.4977800734838,159.20999965667724L228.5871417395274,159.20999965667724L229.30203506787618,159.20999965667724L229.62969451003605,159.20999965667724L229.83820506413775,159.20999965667724L229.92756673018138,88.44999875485898L229.98714117421045,159.20999965667724L230.04671561823952,159.20999965667724L230.10629006226856,159.20999965667724L230.28501339435576,159.20999965667724L230.40416228241392,159.20999965667724L230.88075783464643,88.44999875485898L231.2084172768063,159.20999965667724L231.26799172083537,159.20999965667724L231.6552256070243,159.20999965667724L231.7445872730679,-548.3899988174438L231.9233106051551,159.20999965667724L232.42969337940215,159.20999965667724L232.5488422674603,159.20999965667724L232.7275655995475,88.44999875485898L232.99565059767826,88.44999875485898L233.02543781969283,159.20999965667724L233.29352281782363,159.20999965667724L233.3828844838672,159.20999965667724L233.47224614991083,159.20999965667724L233.6211822599835,-194.5899995803833L233.68075670401257,159.20999965667724L233.85948003609974,88.44999875485898L234.12756503423054,159.20999965667724L234.33607558833228,88.44999875485898L234.4552244763904,159.20999965667724L234.60416058646308,159.20999965667724L235.11054336071015,159.20999965667724L235.7658622450299,159.20999965667724L235.82543668905896,159.20999965667724L235.91479835510253,159.20999965667724L236.2424577972624,159.20999965667724L236.45096835136414,159.20999965667724L236.65947890546587,159.20999965667724L237.10628723568388,159.20999965667724L237.55309556590186,159.20999965667724L237.5828827879164,159.20999965667724L237.7616061200036,159.20999965667724L238.05947834014893,159.20999965667724L238.2084144502216,159.20999965667724L238.26798889425066,159.20999965667724L238.35735056029424,159.20999965667724L238.6850100024541,159.20999965667724L238.86373333454134,159.20999965667724L239.16160555468664,159.20999965667724L239.1913927767012,159.20999965667724L239.25096722073027,159.20999965667724L239.63820110691918,159.20999965667724L239.84671166102092,159.20999965667724L239.90628610504996,17.689997853040705L239.93607332706452,88.44999875485898L240.71054109944237,159.20999965667724L240.9190516535441,159.20999965667724L241.60415775987838,159.20999965667724L241.8126683139801,159.20999965667724L241.9020299800237,159.20999965667724L242.08075331211091,159.20999965667724L243.21266774866316,159.20999965667724L243.59990163485207,159.20999965667724L243.62968885686664,159.20999965667724L243.6892633008957,159.20999965667724L243.86798663298288,159.20999965667724L243.9573482990265,159.20999965667724L244.43394385125902,159.20999965667724L244.49351829528808,88.44999875485898L244.73181607140435,-53.070008320808405L245.0296882915497,159.20999965667724L245.74458161989847,-194.5899995803833L245.8637305079566,159.20999965667724L246.10202828407287,159.20999965667724L246.221177172131,-53.070008320808405L246.48926217026178,159.20999965667724L246.51904939227634,159.20999965667724L247.05521938853795,159.20999965667724L247.32330438666875,-53.070008320808405L247.50202771875595,159.20999965667724L248.12755938106113,159.20999965667724L248.2764954911338,88.44999875485898L248.39564437919194,159.20999965667724L248.455218823221,159.20999965667724L248.8424527094099,159.20999965667724L248.90202715343898,159.20999965667724L248.9913888194826,159.20999965667724L249.14032492955525,159.20999965667724L249.2594738176134,159.20999965667724L249.46798437171512,159.20999965667724L249.55734603775872,159.20999965667724L249.795643813875,159.20999965667724L250.03394158999126,159.20999965667724L250.74883491834007,159.20999965667724L250.95734547244177,159.20999965667724L251.28500491460164,159.20999965667724L251.31479213661618,159.20999965667724L251.40415380265978,159.20999965667724L251.49351546870338,159.20999965667724L252.02968546496498,159.20999965667724L252.14883435302312,159.20999965667724L252.26798324108123,159.20999965667724L252.3275576851103,159.20999965667724L252.38713212913936,159.20999965667724" fill="none"></path></g></g></g></g></g></g><g transform="translate(61, 176)" clip-path="url(#clip_1)"><clipPath id="clip_1"><rect width="268" height="23"></rect></clipPath><g><g><line x1="0" y1="0" x2="0" y2="5" style="visibility: inherit;" fill="rgb(0, 0, 0)" stroke="rgb(204, 204, 204)" stroke-width="1px"></line><line x1="29.787222014533146" y1="0" x2="29.787222014533146" y2="5" style="visibility: inherit;" fill="rgb(0, 0, 0)" stroke="rgb(204, 204, 204)" stroke-width="1px"></line><line x1="59.57444402906629" y1="0" x2="59.57444402906629" y2="5" style="visibility: inherit;" fill="rgb(0, 0, 0)" stroke="rgb(204, 204, 204)" stroke-width="1px"></line><line x1="89.36166604359944" y1="0" x2="89.36166604359944" y2="5" style="visibility: inherit;" fill="rgb(0, 0, 0)" stroke="rgb(204, 204, 204)" stroke-width="1px"></line><line x1="119.14888805813258" y1="0" x2="119.14888805813258" y2="5" style="visibility: inherit;" fill="rgb(0, 0, 0)" stroke="rgb(204, 204, 204)" stroke-width="1px"></line><line x1="148.93611007266574" y1="0" x2="148.93611007266574" y2="5" style="visibility: inherit;" fill="rgb(0, 0, 0)" stroke="rgb(204, 204, 204)" stroke-width="1px"></line><line x1="178.72333208719888" y1="0" x2="178.72333208719888" y2="5" style="visibility: inherit;" fill="rgb(0, 0, 0)" stroke="rgb(204, 204, 204)" stroke-width="1px"></line><line x1="208.51055410173205" y1="0" x2="208.51055410173205" y2="5" style="visibility: inherit;" fill="rgb(0, 0, 0)" stroke="rgb(204, 204, 204)" stroke-width="1px"></line><line x1="238.29777611626517" y1="0" x2="238.29777611626517" y2="5" style="visibility: inherit;" fill="rgb(0, 0, 0)" stroke="rgb(204, 204, 204)" stroke-width="1px"></line><line x1="268.08499813079834" y1="0" x2="268.08499813079834" y2="5" style="visibility: inherit;" fill="rgb(0, 0, 0)" stroke="rgb(204, 204, 204)" stroke-width="1px"></line></g><g transform="translate(0, 8)"><text style="text-anchor: middle; visibility: hidden; font-family: Roboto, sans-serif; font-size: 12px; font-weight: 200;" x="0" y="0" dx="0em" dy="0.95em" fill="rgb(33, 33, 33)" stroke="none" stroke-width="1px">-1k</text><text style="text-anchor: middle; visibility: inherit; font-family: Roboto, sans-serif; font-size: 12px; font-weight: 200;" x="29.787222014533146" y="0" dx="0em" dy="0.95em" fill="rgb(33, 33, 33)" stroke="none" stroke-width="1px">0</text><text style="text-anchor: middle; visibility: inherit; font-family: Roboto, sans-serif; font-size: 12px; font-weight: 200;" x="59.57444402906629" y="0" dx="0em" dy="0.95em" fill="rgb(33, 33, 33)" stroke="none" stroke-width="1px">1k</text><text style="text-anchor: middle; visibility: inherit; font-family: Roboto, sans-serif; font-size: 12px; font-weight: 200;" x="89.36166604359944" y="0" dx="0em" dy="0.95em" fill="rgb(33, 33, 33)" stroke="none" stroke-width="1px">2k</text><text style="text-anchor: middle; visibility: inherit; font-family: Roboto, sans-serif; font-size: 12px; font-weight: 200;" x="119.14888805813258" y="0" dx="0em" dy="0.95em" fill="rgb(33, 33, 33)" stroke="none" stroke-width="1px">3k</text><text style="text-anchor: middle; visibility: inherit; font-family: Roboto, sans-serif; font-size: 12px; font-weight: 200;" x="148.93611007266574" y="0" dx="0em" dy="0.95em" fill="rgb(33, 33, 33)" stroke="none" stroke-width="1px">4k</text><text style="text-anchor: middle; visibility: inherit; font-family: Roboto, sans-serif; font-size: 12px; font-weight: 200;" x="178.72333208719888" y="0" dx="0em" dy="0.95em" fill="rgb(33, 33, 33)" stroke="none" stroke-width="1px">5k</text><text style="text-anchor: middle; visibility: inherit; font-family: Roboto, sans-serif; font-size: 12px; font-weight: 200;" x="208.51055410173205" y="0" dx="0em" dy="0.95em" fill="rgb(33, 33, 33)" stroke="none" stroke-width="1px">6k</text><text style="text-anchor: middle; visibility: inherit; font-family: Roboto, sans-serif; font-size: 12px; font-weight: 200;" x="238.29777611626517" y="0" dx="0em" dy="0.95em" fill="rgb(33, 33, 33)" stroke="none" stroke-width="1px">7k</text><text style="text-anchor: middle; visibility: hidden; font-family: Roboto, sans-serif; font-size: 12px; font-weight: 200;" x="268.08499813079834" y="0" dx="0em" dy="0.95em" fill="rgb(33, 33, 33)" stroke="none" stroke-width="1px">8k</text></g><line x1="0" y1="0" x2="268.08499813079834" y2="0" fill="rgb(0, 0, 0)" stroke="rgb(204, 204, 204)" stroke-width="1px"></line></g></g></g></g></svg>