<svg viewBox="0 0 330 200" xmlns="http://www.w3.org/2000/svg"><g><g><g><g><g><line x1="51.53200149536133" y1="176.89999961853027" x2="46.53200149536133" y2="176.89999961853027" style="visibility: inherit;" fill="rgb(0, 0, 0)" stroke="rgb(204, 204, 204)" stroke-width="1px"></line><line x1="51.53200149536133" y1="157.24444410536026" x2="46.53200149536133" y2="157.24444410536026" style="visibility: inherit;" fill="rgb(0, 0, 0)" stroke="rgb(204, 204, 204)" stroke-width="1px"></line><line x1="51.53200149536133" y1="137.58888859219022" x2="46.53200149536133" y2="137.58888859219022" style="visibility: inherit;" fill="rgb(0, 0, 0)" stroke="rgb(204, 204, 204)" stroke-width="1px"></line><line x1="51.53200149536133" y1="117.9333330790202" x2="46.53200149536133" y2="117.9333330790202" style="visibility: inherit;" fill="rgb(0, 0, 0)" stroke="rgb(204, 204, 204)" stroke-width="1px"></line><line x1="51.53200149536133" y1="98.27777756585016" x2="46.53200149536133" y2="98.27777756585016" style="visibility: inherit;" fill="rgb(0, 0, 0)" stroke="rgb(204, 204, 204)" stroke-width="1px"></line><line x1="51.53200149536133" y1="78.62222205268016" x2="46.53200149536133" y2="78.62222205268016" style="visibility: inherit;" fill="rgb(0, 0, 0)" stroke="rgb(204, 204, 204)" stroke-width="1px"></line><line x1="51.53200149536133" y1="58.9666665395101" x2="46.53200149536133" y2="58.9666665395101" style="visibility: inherit;" fill="rgb(0, 0, 0)" stroke="rgb(204, 204, 204)" stroke-width="1px"></line><line x1="51.53200149536133" y1="39.3111110263401" x2="46.53200149536133" y2="39.3111110263401" style="visibility: inherit;" fill="rgb(0, 0, 0)" stroke="rgb(204, 204, 204)" stroke-width="1px"></line><line x1="51.53200149536133" y1="19.65555551317004" x2="46.53200149536133" y2="19.65555551317004" style="visibility: inherit;" fill="rgb(0, 0, 0)" stroke="rgb(204, 204, 204)" stroke-width="1px"></line><line x1="51.53200149536133" y1="0" x2="46.53200149536133" y2="0" style="visibility: inherit;" fill="rgb(0, 0, 0)" stroke="rgb(204, 204, 204)" stroke-width="1px"></line></g><g transform="translate(41.53200149536133, 0)"><text style="text-anchor: end; visibility: hidden; font-family: Roboto, sans-serif; font-size: 12px; font-weight: 200;" x="0" y="176.89999961853027" dx="0em" dy="0.3em" fill="rgb(33, 33, 33)" stroke="none" stroke-width="1px">0.1</text><text style="text-anchor: end; visibility: inherit; font-family: Roboto, sans-serif; font-size: 12px; font-weight: 200;" x="0" y="157.24444410536026" dx="0em" dy="0.3em" fill="rgb(33, 33, 33)" stroke="none" stroke-width="1px">0.15</text><text style="text-anchor: end; visibility: hidden; font-family: Roboto, sans-serif; font-size: 12px; font-weight: 200;" x="0" y="137.58888859219022" dx="0em" dy="0.3em" fill="rgb(33, 33, 33)" stroke="none" stroke-width="1px">0.2</text><text style="text-anchor: end; visibility: inherit; font-family: Roboto, sans-serif; font-size: 12px; font-weight: 200;" x="0" y="117.9333330790202" dx="0em" dy="0.3em" fill="rgb(33, 33, 33)" stroke="none" stroke-width="1px">0.25</text><text style="text-anchor: end; visibility: hidden; font-family: Roboto, sans-serif; font-size: 12px; font-weight: 200;" x="0" y="98.27777756585016" dx="0em" dy="0.3em" fill="rgb(33, 33, 33)" stroke="none" stroke-width="1px">0.3</text><text style="text-anchor: end; visibility: inherit; font-family: Roboto, sans-serif; font-size: 12px; font-weight: 200;" x="0" y="78.62222205268016" dx="0em" dy="0.3em" fill="rgb(33, 33, 33)" stroke="none" stroke-width="1px">0.35</text><text style="text-anchor: end; visibility: hidden; font-family: Roboto, sans-serif; font-size: 12px; font-weight: 200;" x="0" y="58.9666665395101" dx="0em" dy="0.3em" fill="rgb(33, 33, 33)" stroke="none" stroke-width="1px">0.4</text><text style="text-anchor: end; visibility: inherit; font-family: Roboto, sans-serif; font-size: 12px; font-weight: 200;" x="0" y="39.3111110263401" dx="0em" dy="0.3em" fill="rgb(33, 33, 33)" stroke="none" stroke-width="1px">0.45</text><text style="text-anchor: end; visibility: hidden; font-family: Roboto, sans-serif; font-size: 12px; font-weight: 200;" x="0" y="19.65555551317004" dx="0em" dy="0.3em" fill="rgb(33, 33, 33)" stroke="none" stroke-width="1px">0.5</text><text style="text-anchor: end; visibility: hidden; font-family: Roboto, sans-serif; font-size: 12px; font-weight: 200;" x="0" y="0" dx="0em" dy="0.3em" fill="rgb(33, 33, 33)" stroke="none" stroke-width="1px">0.55</text></g><line x1="51.53200149536133" y1="0" x2="51.53200149536133" y2="176.89999961853027" fill="rgb(0, 0, 0)" stroke="rgb(204, 204, 204)" stroke-width="1px"></line></g></g><g transform="translate(51, 0)" clip-path="url(#clip_0)"><clipPath id="clip_0"><rect width="278" height="176"></rect></clipPath><g><g><g><line x1="0" y1="0" x2="0" y2="176.89999961853027" fill="rgb(0, 0, 0)" stroke="rgb(66, 66, 66)" stroke-width="1px" opacity="0.25"></line><line x1="30.94088872273763" y1="0" x2="30.94088872273763" y2="176.89999961853027" fill="rgb(0, 0, 0)" stroke="rgb(66, 66, 66)" stroke-width="1px" opacity="0.25"></line><line x1="61.88177744547526" y1="0" x2="61.88177744547526" y2="176.89999961853027" fill="rgb(0, 0, 0)" stroke="rgb(66, 66, 66)" stroke-width="1px" opacity="0.25"></line><line x1="92.82266616821289" y1="0" x2="92.82266616821289" y2="176.89999961853027" fill="rgb(0, 0, 0)" stroke="rgb(66, 66, 66)" stroke-width="1px" opacity="0.25"></line><line x1="123.76355489095052" y1="0" x2="123.76355489095052" y2="176.89999961853027" fill="rgb(0, 0, 0)" stroke="rgb(66, 66, 66)" stroke-width="1px" opacity="0.25"></line><line x1="154.70444361368817" y1="0" x2="154.70444361368817" y2="176.89999961853027" fill="rgb(0, 0, 0)" stroke="rgb(66, 66, 66)" stroke-width="1px" opacity="0.25"></line><line x1="185.64533233642578" y1="0" x2="185.64533233642578" y2="176.89999961853027" fill="rgb(0, 0, 0)" stroke="rgb(66, 66, 66)" stroke-width="1px" opacity="0.25"></line><line x1="216.58622105916342" y1="0" x2="216.58622105916342" y2="176.89999961853027" fill="rgb(0, 0, 0)" stroke="rgb(66, 66, 66)" stroke-width="1px" opacity="0.25"></line><line x1="247.52710978190103" y1="0" x2="247.52710978190103" y2="176.89999961853027" fill="rgb(0, 0, 0)" stroke="rgb(66, 66, 66)" stroke-width="1px" opacity="0.25"></line><line x1="278.4679985046387" y1="0" x2="278.4679985046387" y2="176.89999961853027" fill="rgb(0, 0, 0)" stroke="rgb(66, 66, 66)" stroke-width="1px" opacity="0.25"></line></g><g><line x1="0" y1="176.89999961853027" x2="278.4679985046387" y2="176.89999961853027" fill="rgb(0, 0, 0)" stroke="rgb(66, 66, 66)" stroke-width="1px" opacity="0.25"></line><line x1="0" y1="157.24444410536026" x2="278.4679985046387" y2="157.24444410536026" fill="rgb(0, 0, 0)" stroke="rgb(66, 66, 66)" stroke-width="1px" opacity="0.25"></line><line x1="0" y1="137.58888859219022" x2="278.4679985046387" y2="137.58888859219022" fill="rgb(0, 0, 0)" stroke="rgb(66, 66, 66)" stroke-width="1px" opacity="0.25"></line><line x1="0" y1="117.9333330790202" x2="278.4679985046387" y2="117.9333330790202" fill="rgb(0, 0, 0)" stroke="rgb(66, 66, 66)" stroke-width="1px" opacity="0.25"></line><line x1="0" y1="98.27777756585016" x2="278.4679985046387" y2="98.27777756585016" fill="rgb(0, 0, 0)" stroke="rgb(66, 66, 66)" stroke-width="1px" opacity="0.25"></line><line x1="0" y1="78.62222205268016" x2="278.4679985046387" y2="78.62222205268016" fill="rgb(0, 0, 0)" stroke="rgb(66, 66, 66)" stroke-width="1px" opacity="0.25"></line><line x1="0" y1="58.9666665395101" x2="278.4679985046387" y2="58.9666665395101" fill="rgb(0, 0, 0)" stroke="rgb(66, 66, 66)" stroke-width="1px" opacity="0.25"></line><line x1="0" y1="39.3111110263401" x2="278.4679985046387" y2="39.3111110263401" fill="rgb(0, 0, 0)" stroke="rgb(66, 66, 66)" stroke-width="1px" opacity="0.25"></line><line x1="0" y1="19.65555551317004" x2="278.4679985046387" y2="19.65555551317004" fill="rgb(0, 0, 0)" stroke="rgb(66, 66, 66)" stroke-width="1px" opacity="0.25"></line><line x1="0" y1="0" x2="278.4679985046387" y2="0" fill="rgb(0, 0, 0)" stroke="rgb(66, 66, 66)" stroke-width="1px" opacity="0.25"></line></g></g></g><g><g><line x1="0" y1="216.21111064487036" x2="278.4679985046387" y2="216.21111064487036" fill="rgb(0, 0, 0)" stroke="rgb(153, 153, 153)" stroke-width="1.5px"></line></g></g><g><g><line x1="30.94088872273763" y1="0" x2="30.94088872273763" y2="176.89999961853027" fill="rgb(0, 0, 0)" stroke="rgb(153, 153, 153)" stroke-width="1.5px"></line></g></g><g><g><g><g><g><path style="fill: none;" stroke="rgb(255, 112, 67)" stroke-width="2px" d="M43.03877621332804,177.39684244598192L43.10065799077351,176.7136052122529L43.41006687800089,176.38476461489242L43.471948655446376,176.72012690261454L43.812298431396485,175.43599965612913L44.02888465245565,173.24132305365288L44.46205709457398,173.61160762810024L44.49299798329671,173.9706675644115L44.55487976074219,173.106376021099L44.77146598180135,173.16405501366114L45.235579312642415,173.22006151603614L45.359342867533364,173.85565864125573L45.51404731114705,173.32676643566984L45.637810866038,171.68135948647432L45.66875175476074,171.75545302892763L45.82345619837443,171.8275431653047L45.85439708709716,171.08202897136778L46.0400424194336,171.16148877357443L46.75168286005656,171.76907021445513L46.81356463750203,170.79012173879062L46.84450552622477,170.87051845908513L46.87544641494751,171.20443467473578L46.96826908111572,169.76259934233155L47.0301508585612,168.60549396008952L47.46332330067953,167.229626746557L47.49426418940226,166.8619093303758L47.55614596684774,165.29738281389592L47.618027744293215,164.24607715868532L47.679909521738686,164.63365381790118L47.803673076629636,164.07954098545935L47.865554854075114,162.6150395731154L48.051200186411535,161.4113650437817L48.174963741302484,160.00829853298632L48.36060907363891,159.30631140629094L48.4224908510844,158.84065590015487L48.54625440597535,157.50899940279052L49.041308625539145,156.63895943402503L49.22695395787557,157.0748271103495L49.35071751276652,156.22658117632201L49.41259929021199,155.18520483276473L49.96953528722127,154.37331479267598L50.24800328572591,152.95832899901043L50.402707729339596,151.98039664921444L50.433648618062335,150.61645549528484L50.681175727844234,150.48341186286106L50.86682106018066,149.7562308606465L50.89776194890341,148.45160736133315L51.33093439102173,147.56229878428383L51.609402389526366,147.27045228276384L51.85692949930827,146.02446744289762L51.887870388031004,145.37209393328192L52.38292460759481,144.54298784302128L52.44480638504028,143.7288355394207L53.280210380554195,142.7438168783731L53.34209215799967,142.32785698524356L53.403973935445144,141.18982042348202L53.49679660161337,140.25244559736487L53.58961926778158,139.15187259892915L53.99185082117717,138.24806534095646L54.61066859563192,137.35959418880614L54.95101837158203,137.18652410850677L54.98195926030477,136.32138677104334L55.16760459264119,135.98772845851L55.35324992497762,135.1463719532931L55.848304144541416,134.4884635715536L55.879245033264155,133.50425149549181L55.94112681070964,133.70619548906916L56.31241747538249,132.90921381487377L56.71464902877808,132.45425280436197L56.962176138559975,131.8428902872974L57.05499880472819,131.56568223369516L57.48817124684652,130.64809791261894L57.6428756904602,129.7445421038018L57.76663924535115,129.01357121259036L57.92134368896484,128.60912408633348L58.385457019805905,127.89740783702224L58.72580679575602,127.04067841493595L58.84957035064698,126.19656696089238L59.746856123606364,125.36479716851049L59.80873790105184,124.84992910602364L60.11814678827921,124.49387258670613L60.33473300933838,123.84214315902344L60.767905451456706,123.05028301481589L61.88177744547526,122.56641535217777L61.974600111643475,121.94188158930517L62.03648188908895,121.47252896318003L62.37683166503906,121.00966128261233L62.59341788609822,120.40851853775413L62.71718144098917,119.9592820651311L62.77906321843465,119.2305039940061L63.05753121693929,119.78882731306344L63.64540810267131,119.21133250251526L64.07858054478963,118.50132164869746L64.10952143351237,117.80067068716596L64.17140321095785,117.52464166304814L64.29516676584879,117.38985403414237L64.57363476435343,116.70949582093678L64.94492542902628,116.03787750969884L65.06868898391724,115.37483209539556L65.13057076136272,114.72019680096604L65.22339342753092,114.20745915667449L65.2852752049764,113.96689553987135L65.34715698242188,113.33298266062187L65.65656586964926,113.23236487842136L65.7803294245402,112.74112221564758L65.99691564559936,112.38577096821714L66.05879742304484,111.77641050284592L66.21350186665853,111.30285568646735L66.43008808771769,110.9627255729143L66.58479253133137,110.8807375903204L66.61573342005411,110.29431617910062L66.98702408472697,109.71481017484683L67.29643297195435,109.14209825407914L67.35831474939982,108.57606191479074L67.38925563812256,108.14025560672673L67.60584185918172,107.7094709939355L67.88430985768636,107.40599772921216L67.9152507464091,106.86250279718378L68.28654141108196,106.325164820602L68.53406852086385,105.79388003000089L68.6578320757548,105.26854697478234L68.87441829681396,104.749066458803L69.46229518254597,104.4726697811056L69.52417695999145,104.08124922989101L69.67888140360515,104.75144910776295L69.70982229232789,104.24535003601628L69.77170406977335,104.44268101920139L69.86452673594157,104.05911111377745L69.98829029083252,103.56446395952193L70.17393562316894,103.07509426766123L70.2976991780599,102.7050011915268L70.45240362167358,102.67942793762137L70.63804895401,102.42812768246164L70.8855760637919,101.95452562959593L71.1331031735738,101.48584637378684L71.38063028335571,101.13342588036716L71.65909828186035,100.78463123819256L71.87568450291951,100.43940694910316L71.96850716908772,101.08657284432036L71.99944805781045,100.63345183390118L72.2779160563151,100.29377549405825L72.58732494354248,100.82457868142119L73.05143827438354,101.45797960576L73.1752018292745,101.22577095387467L73.51555160522462,100.99585781497598L73.54649249394735,100.55527757108274L73.6702560488383,100.11901050891254L74.81506893157959,100.10912471176131L75.46482759475708,99.88918747264502L75.49576848347982,99.46213453410537L76.0527044804891,99.14335157938768L76.08364536921182,98.72389294542816L76.17646803538004,98.3084247681882L76.57869958877563,98.61679477727725L76.6405813662211,98.30779829080566L76.98093114217122,97.89971985980125L77.07375380833945,98.00322850372953L77.19751736323038,97.60010548287106L77.44504447301229,97.30142864163754L77.66163069407146,97.20610822594246L77.6925715827942,96.81198304833855L77.7853942489624,96.52094182281299L77.87821691513062,96.23254503132168L78.24950757980348,95.84807142271409L78.4351529121399,95.56535042281422L78.55891646703084,95.18726547566604L78.86832535425822,94.91006577144155L78.96114802042644,94.5382036821308L79.39432046254475,94.16963179599156L79.48714312871297,93.99703993246877L79.64184757232665,93.82596192342373L79.73467023849487,93.4651369021971L80.01313823699951,93.10744962036287L80.35348801294963,92.75285950307526L80.50819245656331,92.5903780401833L80.57007423400879,92.33512454410001L81.31265556335448,91.98824195084129L81.56018267313638,91.92468884453265L81.62206445058186,91.76856534315522L81.93147333780924,91.52099738964986L82.1480595588684,91.27551087287262L82.39558666865031,90.94000190714397L82.64311377843221,90.6072905574413L82.85969999949138,90.2773421419367L82.92158177693685,90.04119473672309L83.10722710927328,90.53293260234628L83.38569510777792,90.20689681292043L83.63322221755982,90.24388965214942L83.6951039950053,89.92150347824422L83.7879266611735,89.69118074178347L83.88074932734172,89.37358355061933L83.91169021606446,89.23618010294858L84.12827643712362,89.2768941831974L84.2829808807373,88.96448528881088L84.49956710179647,88.65455904637355L84.77803510030111,88.34708613256983L84.96368043263753,88.30389952778657L85.24214843114217,88.00008823190994L85.58249820709229,87.6986540865569L85.89190709431966,87.7451547893162L85.95378887176513,87.44687856007107L86.1703750928243,87.40835114764435L86.32507953643798,87.11354262306024L86.4179022026062,86.82099726951182L86.6654293123881,86.53068927069722L87.25330619812013,86.24259320146807L88.11965108235677,85.95668402044944L88.24341463724772,85.6729370628259L88.52188263575236,85.47517231495621L88.67658707936604,85.27889215643656L88.73846885681152,85.08408003004317L89.38822751998902,84.80768799321018L89.72857729593913,84.86440726860131L89.82139996210734,84.59070732159996L90.00704529444377,84.31902481610508L90.0379861831665,84.04933766267261L90.50209951400757,83.78162409315728L90.53304040273031,83.51586265489163L90.87339017868041,83.33323651533118L90.99715373357137,83.07098177745706L91.15185817718505,82.81061906214671L91.21373995463053,82.55212809706076L91.49220795313516,82.29548889843169L91.61597150802612,82.04068176594748L91.64691239674886,81.78768727774322L91.70879417419432,81.5364862854993L91.73973506291706,81.28705990964191L91.80161684036254,81.7502741641696L92.14196661631267,81.5014932932253L92.20384839375815,81.25445187991929L92.45137550354005,81.00913186692145L92.48231639226279,81.07770039655398L92.57513905843099,80.83453408406302L93.6580701637268,80.59304500195753L95.01946926752726,80.35321597655046L95.2979372660319,80.65494764706743L95.60734615325927,80.41627561166972L95.94769592920939,80.25591069369936L96.0405185953776,80.02017254846255L96.22616392771403,79.78602812342734L96.38086837132771,79.55346142740355L96.41180926005045,79.39826108485254L96.5355728149414,79.84880770659223L96.56651370366414,79.61798202990124L96.7830999247233,79.3886914902953L97.15439058939617,79.16092093770015L97.77320836385091,79.68204591195871L98.08261725107829,79.4544367099916L98.63955324808757,79.3026444910739L98.85613946914673,79.07772912337914L99.3202527999878,78.85428098256406L99.50589813232422,78.7797024555287L99.8153070195516,78.55859505620955L100.15565679550171,78.33891639203337L100.24847946166992,78.12065276834696L100.40318390528361,78.26832825336996L100.80541545867919,78.05150581140236L101.54799678802489,78.41618529788364L102.29057811737061,78.19998247891664L102.63092789332073,77.98515076903978L102.72375055948893,77.77167727309286L102.87845500310263,77.5595492571029L103.12598211288453,77.34875414577367L103.4353910001119,77.56747627718752L103.74479988733927,77.35775923836925L103.96138610839844,77.14934796067905L104.88961277008056,77.01303819875909L105.01337632497152,76.8069480111945L105.04431721369426,76.60212943428905L105.1680807685852,76.39857083673421L106.18913009643555,76.19626072863352L106.34383454004923,75.99518775935974L106.49853898366291,75.79534071545125L106.90077053705852,75.73579796914503L107.14829764684042,75.53787879752942L107.24112031300864,75.34115567985205L107.85993808746338,75.14561790445744L108.10746519724529,74.95125488720778L108.26216964085897,74.8267310720537L108.32405141830445,74.63444697166344L108.41687408447265,74.85331358784637L108.47875586191813,74.79821870958655L108.50969675064087,74.6074548343744L108.85004652659099,74.41781730533448L108.91192830403646,74.22929627031019L108.97381008148193,74.04188199170271L109.1903963025411,73.855564844811L109.25227807998657,73.6703353162L109.49980518976847,73.55319519969748L110.33520918528238,73.36988489382401L110.36615007400512,73.18763563683558L110.70649984995524,73.072969138312L110.73744073867798,72.8925901363543L111.04684962590535,72.71324649597692L111.1706131807963,72.53492941733919L111.38719940185547,72.35763020003183L111.60378562291463,72.18134024167598L112.00601717631021,72.0060510365472L112.25354428609212,71.83175417422085L112.28448517481486,71.65844133824169L112.50107139587404,71.48610430481492L112.59389406204224,71.31473494151943L112.62483495076498,71.14432520604171L112.65577583948772,70.9748671449319L112.74859850565593,70.80635289237944L113.33647539138794,70.63877466900927L113.58400250116985,70.47212478069774L113.61494338989257,70.43460177622526L113.70776605606079,70.26936863275034L113.92435227711995,70.29648739261071L114.01717494328817,70.13244279941904L114.07905672073365,69.96929495495938L114.17187938690185,69.80703660715696L114.2956429417928,69.64566058191429L114.57411094029744,69.48515978206608L114.75975627263387,69.32552718635056L114.91446071624756,69.16675584839756L115.0382242711385,69.00883889573248L115.40951493581136,68.91432432445603L115.4404558245341,68.75789716534572L115.56421937942504,68.60230526846853L115.71892382303874,68.44754203891121L115.74986471176148,68.29360095099648L115.78080560048421,68.14047554737694L115.87362826665242,67.98815943814282L116.15209626515706,67.83664629994442L116.1830371538798,67.68592987512693L116.21397804260253,67.53600397088003L116.36868248621622,67.44808699417449L116.52338692982991,67.29953350365952L116.61620959599813,67.15175332668863L116.77091403961181,67.00474051395807L116.92561848322549,66.85848917702448L117.14220470428468,66.71299348752906L117.51349536895752,66.81008482509127L117.9776086997986,66.66534084663552L118.34889936447144,66.58154860254028L118.65830825169881,66.43809958904897L118.78207180658977,66.29538264509327L118.96771713892619,66.15339225181857L119.18430335998535,66.4898615887334L119.49371224721273,66.34785945198868L119.52465313593547,66.2660499466674L120.11253002166748,66.12529814176558L120.14347091039022,65.98525422440908L120.42193890889486,66.43707378679606L120.48382068634032,66.2966555102861L121.25734290440877,66.15693836435516L121.35016557057698,66.01791718020452L121.4429882367452,65.87958683970818L121.75239712397259,65.74194227479336L122.30933312098186,65.66339265282113L122.40215578715006,65.52693137296166L122.61874200820924,65.39114181157743L122.71156467437744,65.25601908859693L122.77344645182292,65.12155837109722L122.95909178415934,64.98775487273619L123.36132333755494,64.85460385319227L123.67073222478231,64.72210061761295L123.76355489095052,64.59024051607075L123.85637755711873,64.45901894302717L124.10390466690063,64.32843133680431L124.38237266540527,64.19847317906378L124.84648599624633,64.06913999429335L125.24871754964192,63.94042734930071L126.36258954366048,63.812330852714474L126.39353043238322,63.684846154491936L126.76482109705606,63.5579689454342L126.98140731811525,63.43169495670798L127.01234820683798,63.30601995937371L127.04328909556071,63.23726264335137L127.22893442789714,63.168830011830856L127.35269798278809,63.04460617969258L127.47646153767904,62.920966321127835L127.50740242640178,62.79790638936909L127.53834331512452,62.67542237494461L127.6930477587382,62.609211281832174L127.75492953618368,62.48770966115044L128.28092464447022,62.36677288137305L129.14726952870686,62.412586680128086L129.30197397232055,62.29230047595088L129.5804419708252,62.282961564535256L129.67326463699342,62.163473136218826L129.7351464144389,62.04453410235074L129.95173263549805,61.92614074166046L130.10643707911174,61.808289366400714L130.47772774378458,61.69097632197097L130.50866863250732,61.62880294088284L130.60149129867554,61.56691233057053L130.66337307612102,61.45089104366057L130.87995929718016,61.33539515923357L131.25124996185303,61.32886100647679L131.3131317392985,61.21410684117161L131.99383129119872,61.099869004425884L132.08665395736693,60.986144076075334L133.01488061904908,60.87292866608799L133.26240772883096,60.76021941423273L134.31439794540407,60.64801298975227L134.46910238901773,60.53630609104121L134.80945216496787,60.425095445327536L135.0879201634725,60.36775628368773L135.30450638453166,60.36395786180327L135.36638816197714,60.25378411593767L135.45921082814536,60.144095719417244L135.52109260559084,60.034889526657935L135.6757970492045,59.926162419191236L135.70673793792724,59.870747236577984L135.95426504770916,59.762827262783986L136.29461482365926,59.65537779684057L136.41837837855022,59.54839582189932L136.72778726577758,59.441878346840134L136.85155082066854,59.38821698631478L136.9753143755595,59.282480206460235L137.22284148534138,59.17719970646527L137.37754592895507,59.22877564360534L137.84165925979613,59.123984884851545L138.0582454808553,59.01964357111939L138.27483170191445,58.91574886899629L138.7080041440328,58.86409048460926L138.73894503275554,58.76094434936144L138.76988592147828,58.65823704672213L138.80082681020102,58.55596583321094L138.98647214253742,58.45412798816075L139.0483539199829,58.3527208134809L139.26494014104205,58.251741633423904L139.3577628072103,58.1511877943542L139.69811258316042,58.05105666452033L140.06940324783326,57.951345633830044L140.3478712463379,57.95397815698428L140.62633924484254,57.854835725733025L140.81198457717898,57.7561067915582L141.05951168696086,57.657788822067175L141.30703879674277,57.55987930549639L141.39986146291096,57.46237575050155L141.5855067952474,57.36527568595057L141.61644768397014,57.26857666071922L141.95679745992024,57.17227624348876L141.98773834864298,57.07637202254622L142.35902901331585,56.98086160558757L142.76126056671143,56.88574261952246L142.79220145543417,56.79101271028184L142.82314234415688,56.69666954262786L142.85408323287965,56.60271079996564L143.28725567499797,56.509134184157894L144.02983700434368,56.415937415341226L144.12265967051187,56.3231182317451L144.18454144795737,56.230674389512366L144.24642322540285,56.13860366252257L144.33924589157104,56.04690384221679L144.463009446462,55.95557273742493L144.5558321126302,55.864608174194856L144.58677300135295,55.77400799562371L145.14370899836223,55.68377006169077L145.4531178855896,55.64292597794332L145.82440855026243,55.55328404045943L145.97911299387616,55.46399851282475L146.01005388259887,55.37506731808871L146.4432263247172,55.28648839539967L146.8454578781128,55.19825969984936L146.87639876683554,55.11037920231874L146.93828054428099,55.02284488932617L146.96922143300375,54.935654762876936L147.06204409917194,54.84880684031455L147.0929849878947,54.762299154173895L147.12392587661742,54.676129752036054L147.3405120976766,54.59029669638461L147.40239387512207,54.504798064463856L147.9283889834086,54.467667044630005L147.9902707608541,54.38271432920706L148.02121164957683,54.2980908106549L148.14497520446778,54.21379462129604L148.23779787063597,54.129823907547284L148.94943831125894,54.04617682978707L149.25884719848634,53.96285156222422L149.75390141805013,53.87984629276814L150.0323694165548,53.79715922290059L150.09425119400026,53.7147885675489L150.15613297144574,53.632732554960384L150.40366008122763,53.550989426578546L150.68212807973225,53.469557436920205L150.77495074590047,53.388434853454385L151.70317740758261,53.307619956482334L151.88882273991902,53.22711103901886L151.98164540608724,53.14690640667513L152.1054089609782,53.067004377542816L152.2910542933146,52.987403282079L152.600463180542,52.9081014629931L152.66234495798747,52.82909727513452L152.7551676241557,52.750389085381705L153.2811627324422,52.671975272532265L153.40492628733315,52.593854227194726L153.6833942858378,52.516024351680855L153.96186228434243,52.438484059899515L154.1475076166789,52.36123177725182L154.30221206029256,52.33052108361362L154.487857392629,52.25373143637627L154.9829116121928,52.177225544082404L155.10667516708375,52.10100187490502L155.1685569445292,52.02505890801657L155.44702494303385,51.94939513349006L155.60172938664755,51.87400905220186L155.78737471898395,51.79889917573493L155.9730200513204,51.724064026283614L156.18960627237956,51.6495021365591L157.33441915512083,51.57521204969618L157.45818271001178,51.50119231916068L157.58194626490274,51.42744150865817L158.1079413731893,51.353958192043365L158.2935867055257,51.28074095323078L158.47923203786215,51.20778838610606L158.57205470403034,51.13509909443837L159.2527542559306,51.0626716917938L159.46934047698974,50.990504801449454L159.56216314315796,50.918597056308705L159.90251291910806,50.846947098816926L160.21192180633545,50.77555358087872L160.2428626950582,50.749346548520116L160.3356853612264,50.67835932433379L160.6760351371765,50.607624916677715L161.14014846801757,50.53714201258137L161.5733209101359,50.46690930814366L161.75896624247233,50.39692550845464L161.8208480199178,50.327189327518326L162.03743424097698,50.25769948817573L162.34684312820434,50.18845472202945L162.43966579437256,50.119453769368604L162.53248846054078,50.05069537909423L162.5634293492635,49.98217830864632L162.68719290415444,49.91390132393078L162.99660179138183,49.84586319924748L163.39883334477742,49.77806271721895L163.42977423350015,49.710498668720064L163.9557693417867,49.64316985280797L164.2961191177368,49.57607507665323L164.57458711624145,49.50921315547105L164.72929155985514,49.442582912453936L164.88399600346884,49.376183178704565L165.06964133580524,49.310012793169285L165.3481093343099,49.24407060257247L165.87410444259643,49.1783554613517L166.36915866216023,49.112866231592996L166.46198132832845,49.04760178296733L166.95703554789225,48.98256099266773L167.20456265767416,48.91774274534621L167.32832621256512,48.85314593305243L167.4211488787333,48.788769455172385L167.51397154490152,48.72461221836755L167.54491243362426,48.70390665922979L167.79243954340615,48.640089672648685L167.85432132085162,48.57648901214831L168.19467109680176,48.513103611311124L168.44219820658367,48.44993241071118L168.7825479825338,48.38697435785728L168.9063115374247,48.32422840713596L169.15383864720664,48.261693519755696L169.86547908782958,48.19936866369096L170.05112442016602,48.13725281362747L170.17488797505698,48.07534495090794L170.63900130589803,48.013644063477614L170.82464663823447,47.95214914583127L170.91746930440266,47.89085919896002L170.97935108184814,47.82977323029915L171.1959373029073,47.768890253676176L171.28875996907553,47.7082092892593L171.41252352396646,47.64772936350685L171.5362870788574,47.58744950911651L171.56722796758018,47.527368764975584L172.12416396458943,47.46748617611175L172.1860457420349,47.40780079364365L172.30980929692586,47.34831167473278L172.4954546292623,47.28901788253521L172.74298173904418,47.229918486154276L173.05239062627157,47.213001863373584L173.4855630683899,47.15419889135385L173.57838573455808,47.09558785011923L173.67120840072633,47.03716783070946L174.66131683985392,46.97893792988923L174.81602128346762,46.92089725010257L174.84696217219036,46.86304489942873L174.9707257270813,46.8053799915377L175.09448928197224,46.74790164564687L175.125430170695,46.690608986477116L175.2182528368632,46.63350114421042L175.3729572804769,46.57657725444702L175.713307056427,46.561263989520825L175.9608341662089,46.50461821381733L176.08459772109984,46.44815410923305L176.14647949854532,46.39187083132389L176.33212483088175,46.335767540865476L176.57965194066364,46.362243042444305L176.6105928293864,46.3063247019039L176.7962381617228,46.29169414353486L176.88906082789103,46.23604519422251L177.32223327000935,46.1805729301243L177.53881949106852,46.1252765387434L178.21951904296876,46.07015521255162L178.4361052640279,46.01520814895095L178.62175059636434,45.96043455023629L178.74551415125526,45.90583362355814L178.77645503997803,45.85140458088577L179.17868659337364,45.797146638970375L179.61185903549196,45.743059019309264L179.70468170166015,45.68914094810971L179.7975043678284,45.635391656253326L179.85938614527385,45.58181037926094L179.92126792271932,45.52839635725784L180.41632214228312,45.475148834938594L180.4782039197286,45.46247634907594L180.54008569717408,45.4094765896275L180.57102658589682,45.35664134863164L180.60196747461956,45.30396988756527L180.8185536956787,45.25146147231345L180.84949458440147,45.19911537313623L181.40643058141075,45.14693086463651L182.02524835586547,45.094907225727496L182.42747990926105,45.04304373960074L182.82971146265666,44.9913396936948L182.89159324010214,44.939794379663226L183.47947012583413,44.888407093343965L183.60323368072508,44.83717713472821L183.81981990178426,44.78610380792993L183.9435834566752,44.7351864211555L184.09828790028888,44.684424286673796L185.05745545069377,44.63381672078615L185.36686433792113,44.583363043797L185.3978052266439,44.53306257998467L186.3879136657715,44.482914657572344L187.1304949951172,44.43291860869908L187.50178565979004,44.38307376939174L187.56366743723552,44.333379479536305L187.7183718808492,44.2838350828502L188.02778076807655,44.234439926854314L188.1206034342448,44.185193362845524L188.1515443229675,44.13609474586954L188.39907143274942,44.087143434693736L188.4609532101949,44.038338791780376L188.6156576538086,43.98968018325995L189.7604705365499,43.94116697890501L189.88423409144085,44.049386454821516L190.0079976463318,44.00085062328612L190.22458386739095,43.9524592541525L190.3483474222819,43.90421172752264L190.37928831100464,43.85610742703478L190.44117008845012,43.80814573983833L190.47211097717286,43.76032605656861L190.8434016418457,43.71264777132247L191.12186964035035,43.66511028163336L191.46221941630046,43.61771298844728L191.8025691922506,43.609219579496276L191.86445096969604,43.5620245197826L192.01915541330973,43.51496810401201L192.0810371907552,43.468049745591685L192.2357416343689,43.421268861227844L192.4213869667053,43.37462487090284L192.6379731877645,43.32811719785192L193.04020474116007,43.281745268540455L193.50431807200113,43.23550851264159L193.53525896072387,43.18940636301363L193.65902251561482,43.14343825567797L193.78278607050578,43.09760362979704L193.87560873667397,43.0519019276522L194.5253673998515,43.00633259462254L194.74195362091066,42.96089507916302L194.80383539835614,42.91558883278336L194.86571717580162,42.870413310026876L195.51547583897909,42.82536796844952L195.54641672770182,42.780452268599106L195.63923939387004,42.7356656739946L195.7011211713155,42.69100765110601L195.82488472620645,42.72247022822212L195.85582561492922,42.791803580194646L196.01053005854288,42.747162018164914L196.07241183598836,42.70264796849874L196.13429361343384,42.658260907827454L196.87687494277952,42.6140003156377L197.06252027511596,42.56986567425165L197.12440205256144,42.52585646880784L197.49569271723428,42.48197218724205L197.8360424931844,42.43821232026839L198.11451049168903,42.39457636136029L198.1454513804118,42.3510638067321L198.26921493530273,42.307674155320264L198.57862382253012,42.26440690876518L198.7952100435893,42.221261571392965L198.91897359848025,42.17823765019722L199.1355598195394,42.1353346548213L199.44496870676676,42.09255209754037L199.50685048421224,42.04988949324388L199.66155492782593,42.00734635941798L199.7234367052714,41.964922216128244L199.8162593714396,41.92261658600245L199.87814114888508,41.88042899421334L200.2184909248352,41.83835896846189L201.0229540316264,41.7964060389605L201.27048114140828,41.754569738416016L201.3633038075765,41.71284960201348L201.42518558502198,41.671245167399746L201.45612647374472,41.629755974667L201.67271269480386,41.58838156633673L201.79647624969482,41.54712148734368L201.8583580271403,41.50597528501978L201.95118069330852,41.46494250907885L202.53905757904053,41.42402271160042L202.7556438000997,41.383215447014514L202.91034824371337,41.34252027208611L203.21975713094074,41.3019367459L203.59104779561363,41.261464429845475L204.36457001368206,41.22110288760132L205.57126467386882,41.18085168512096L205.8806735610962,41.14071039061766L206.31384600321454,41.10067857454973L206.4685504468282,41.06075580960596L206.93266377766926,41.02094167069137L207.52054066340128,40.98123573491235L207.73712688446045,40.97813458493804L207.82994955062864,40.93857608478789L208.04653577168781,40.89912471553322L208.263121992747,40.85978006223595L208.3559446589152,40.82054171209316L208.57253087997435,40.78140925442351L208.88193976720171,40.81500389520411L208.9438215446472,40.7759479544589L209.03664421081544,40.73699704722316L209.06758509953818,40.84302608411878L209.09852598826092,40.804017301244805L209.12946687698366,40.765113061748785L209.3460530980428,40.726312965322826L209.56263931910198,40.687616613695425L209.8411073176066,40.649023610618435L210.0886344273885,40.6105335618544L210.70745220184327,40.57214607516349L211.41909264246624,40.5338607602912L211.94508775075275,40.495677228955756L212.4710828590393,40.45759509483522L212.5639055252075,40.419613973555855L212.8733144124349,40.38173348267917L212.90425530115763,40.34395324169034L212.9661370786031,40.306272871985584L213.3683686319987,40.26869199686058L214.17283173878988,40.231210241498424L215.00823573430378,40.19382723295779L215.16294017791748,40.15654260016115L215.2557628440857,40.119355973883316L215.50328995386758,40.0822669867398L215.688935286204,40.116465649276435L216.02928506215414,40.079442027944275L216.30775306065877,40.04251529161827L216.52433928171794,40.00568507890563L216.70998461405438,40.004431289576736L216.8337481689453,39.96772905311632L216.89562994639078,39.96654568277882L216.92657083511352,39.92997053645948L217.85479749679564,39.92885700022521L217.9785610516866,39.89240806629393L218.00950194040934,39.85605366951264L218.25702905019125,39.819793460682824L218.96866949081422,39.78362709231878L219.0305512682597,39.7475542186375L219.0614921569824,39.71157449554802L219.40184193293254,39.675687580641245L219.49466459910076,39.6398931331796L219.92783704121908,39.60419081408674L220.05160059611003,39.56858028593761L220.11348237355548,39.53306121294836L220.48477303822835,39.497633260966246L220.73230014801024,39.46229609745993L220.88700459162396,39.42704939150941L220.9488863690694,39.3918928137966L221.0107681465149,39.42667252678914L221.81523125330608,39.391571219677L222.71251702626546,39.35655937842266L222.96004413604734,39.321636678873446L223.14568946838378,39.460878981917126L223.45509835561114,39.42582550177695L223.5788619105021,39.39086098210978L223.70262546539308,39.35598510212553L223.82638902028404,39.32119754257017L223.91921168645223,39.286497985716245L223.9810934638977,39.25188611535411L224.1357979075114,39.217361616782455L224.38332501729332,39.182924176799666L224.9402610143026,39.183149658570436L225.24966990152996,39.148824625126224L225.31155167897543,39.11458587234594L225.52813790003458,39.08043309239248L225.7756650098165,39.046365978887145L225.80660589853923,39.012384226900565L225.89942856470742,38.97848753294447L226.33260100682577,38.94467559496293L226.7657734489441,38.94531630368969L226.88953700383504,38.9116129285299L226.92047789255778,38.87799356136327L226.9514187812805,38.84445790525076L227.3536503346761,38.81100566464685L227.53929566701254,38.77763654539099L227.6940001106262,38.7443502546998L227.72494099934897,38.71114650115882L227.78682277679442,38.67802499471457L227.87964544296264,38.64498544666673L227.94152722040812,38.64614155579324L228.03434988657634,38.613205899415114L228.37469966252644,38.58035148931954L229.17916276931763,38.54757804163019L229.7360987663269,38.54889932826118L230.20021209716796,38.5162281404381L230.29303476333618,38.483637215759714L230.32397565205892,38.45112627506777L230.50962098439533,38.41869504049226L230.81902987162272,38.386343235444755L231.25220231374104,38.38793657372848L231.68537475585936,38.389526017606755L231.8091383107503,38.35729446473765L231.90196097691853,38.392727088867396L231.93290186564127,38.36053639136247L232.7683058611552,38.32842405494589L232.95395119349163,38.29638980985015L233.04677385965982,38.26443338754025L233.32524185816447,38.23255452070678L233.5108871905009,38.23440086707775L233.6655916341146,38.20261875393171L233.69653252283732,38.50691475408471L233.72747341156008,38.508288498003864L233.78935518900556,38.476106399001765L234.06782318751016,38.44400193434883L234.1606458536784,38.41197483947254L234.22252763112388,38.44698803024495L234.71758185068768,38.415000899998276L234.77946362813316,38.3830906268416L234.87228629430135,38.35125695001835L235.02699073791504,38.35288738839426L235.150754292806,38.32114945230438L235.6458085123698,38.289487472930624L235.67674940109254,38.2579011937141L235.80051295598346,38.22639035924582L236.07898095448812,38.19495471526001L236.69779872894287,38.16359400862786L237.06908939361574,38.13230798735101L237.34755739212036,38.101096400555534L237.44038005828858,38.06995899848536L238.18296138763426,38.03889553249626L238.52331116358437,38.00790575504949L238.73989738464354,38.01010112040247L238.8327200508118,37.97920224006682L238.89460182825727,37.94837644407433L238.95648360570274,37.91762348880808L239.01836538314816,37.8869431317285L239.20401071548463,37.922333093450646L239.32777427037558,37.89168648304243L239.82282848993938,37.861112010239445L240.16317826588948,37.830609435887936L240.22506004333496,37.865998022216274L240.62729159673057,37.967078695904235L240.72011426289876,37.93646056064694L240.9057595952352,37.90591415033656L241.43175470352173,37.87543922847238L241.5555182584127,37.84503555958803L241.7411635907491,37.81470290924568L242.01963158925372,37.78444104403053L242.0505724779765,37.81971729514012L242.3290404764811,37.789487348741204L242.42186314264933,37.75932774684454L242.51468580881755,37.7292382592423L242.66939025243124,37.73186566956861L242.73127202987672,37.70186153446861L242.91691736221313,37.67192695463402L243.19538536071775,37.64206170341169L243.41197158177692,37.61226555512807L243.53573513666788,37.582538285083395L243.69043958028155,37.552879669546996L244.2164346885681,37.52328948575178L244.89713424046835,37.49376751188915L244.95901601791383,37.464313527103734L245.05183868408204,37.4349273114884L245.39218846003214,37.40560864607917L245.60877468109132,37.408748821438564L245.82536090215046,37.379511258032466L246.28947423299155,37.35034071583184L246.75358756383258,37.32123697920141L246.78452845255535,37.29219983342578L246.97017378489176,37.263229064704376L247.27958267211915,37.23432446014677L247.43428711573281,37.20548580776784L247.4961688931783,37.176712896482634L247.5889915593465,37.148005516102124L247.9293413352966,37.119363457327914L248.11498666763305,37.0907865117479L248.4243955548604,37.09441742324949L248.45533644358318,37.06591755196644L248.51721822102866,37.03748229300351L248.9194497744242,37.00911144106832L249.1360359954834,36.98080479173306L249.19791777292886,36.952562141429894L249.22885866165163,36.92438328744667L250.0333217684428,36.92826909099037L250.24990798950193,36.90016515690326L250.96154843012494,36.87212453338296L251.17813465118408,36.84414702072487L251.2709573173523,36.816232420059144L251.45660264968873,36.78838053334661L252.63235642115276,36.76059116337414L253.03458797454832,36.732864113750644L253.06552886327108,36.7051991889026L253.12741064071656,36.6775961940699L253.31305597305297,36.68185714733795L253.4058786392212,36.65432600804031L253.900932858785,36.626856334122415L253.9628146362305,36.59944793367715L254.21034174601238,36.57210061559146L254.51975063323977,36.54481418954201L255.26233196258545,36.51758846599137L255.3860955174764,36.490423256183746L255.63362262725832,36.46331837214115L255.75738618214925,36.43627362665928L256.03585418065387,36.409288833303535L256.0667950693766,36.38236380640514L256.6237310663859,36.38706774681919L256.90219906489057,36.391761287188366L257.087844397227,36.36491327880201L257.73760306040447,36.33812452507342L257.89230750401816,36.3428879877512L258.0160710589091,36.316166766737744L258.0779528363546,36.383870229159896L258.48018438975015,36.35711554222899L258.5420661671956,36.33041964641234L258.63488883336385,36.303782361457195L258.78959327697754,36.277203507843254L258.9133568318685,36.250682906778266L259.1299430529277,36.224220380194836L259.2227657190959,36.19781575074652L259.4702928288778,36.1714688418042L259.71781993865966,36.145179477452444L260.4604012680054,36.11894748248606L260.6769874890645,36.09277268240627L261.01733726501465,36.06665490341738L261.0482781537374,36.07180710936845L261.1411008199056,36.04575331643527L261.2339234860738,36.01975613502702L261.79085948308307,36.02497362197621L261.914623037974,35.99903978673459L262.038386592865,35.973162158026355L262.10026837031046,35.94734056623404L262.16215014775594,35.92157484241785" fill="none"></path></g></g></g></g><g opacity="0.2"><g><g><g><path style="fill: none;" stroke="rgb(255, 112, 67)" stroke-width="2px" d="M33.16863271077474,216.21111064487036L33.354278043111165,176.89999903274907L33.508982486724854,216.21111064487036L33.72556870778402,157.24444176223545L34.03497759501139,216.21111064487036L34.2825047047933,216.21111064487036L34.71567714691162,157.24444176223545L34.83944070180257,216.21111064487036L34.87038159052531,196.55555483880968L34.93226336797078,176.89999903274907L34.99414514541626,176.89999903274907L35.42731758753458,157.24444176223545L35.5201402537028,176.89999903274907L35.829549140930176,196.55555483880968L35.922371807098386,176.89999903274907L35.98425358454386,216.21111064487036L36.04613536198934,176.89999903274907L36.29366247177124,216.21111064487036L36.88153935750326,216.21111064487036L37.252830022176106,176.89999903274907L37.314711799621584,216.21111064487036L38.521406459808354,216.21111064487036L38.55234734853109,58.96666419638529L38.95457890192668,176.89999903274907L38.98551979064942,216.21111064487036L39.35681045532227,196.55555483880968L39.44963312149048,176.89999903274907L39.69716023127238,176.89999903274907L39.789982897440595,176.89999903274907L39.94468734105428,216.21111064487036L40.099391784667965,216.21111064487036L40.50162333806355,137.58888742062783L40.74915044784546,98.27777287960055L40.81103222529093,157.24444176223545L40.84197311401367,98.27777287960055L40.93479578018188,157.24444176223545L41.64643622080485,137.58888742062783L41.67737710952759,39.31110399696564L42.04866777420044,137.58888742062783L42.23431310653687,117.9333330790202L42.265253995259606,58.96666419638529L42.29619488398234,58.96666419638529L42.66748554865519,196.55555483880968L42.91501265843709,216.21111064487036L43.03877621332804,19.65555551317004L43.10065799077351,137.58888742062783L43.41006687800089,157.24444176223545L43.471948655446376,196.55555483880968L43.812298431396485,98.27777287960055L44.02888465245565,39.31110399696564L44.46205709457398,196.55555483880968L44.49299798329671,196.55555483880968L44.55487976074219,117.9333330790202L44.77146598180135,176.89999903274907L45.235579312642415,176.89999903274907L45.359342867533364,216.21111064487036L45.51404731114705,137.58888742062783L45.637810866038,58.96666419638529L45.66875175476074,176.89999903274907L45.82345619837443,176.89999903274907L45.85439708709716,117.9333330790202L46.0400424194336,176.89999903274907L46.75168286005656,216.21111064487036L46.81356463750203,98.27777287960055L46.84450552622477,176.89999903274907L46.87544641494751,196.55555483880968L46.96826908111572,58.96666419638529L47.0301508585612,78.62222439580495L47.46332330067953,58.96666419638529L47.49426418940226,137.58888742062783L47.55614596684774,39.31110399696564L47.618027744293215,78.62222439580495L47.679909521738686,196.55555483880968L47.803673076629636,117.9333330790202L47.865554854075114,39.31110399696564L48.051200186411535,58.96666419638529L48.174963741302484,39.31110399696564L48.36060907363891,98.27777287960055L48.4224908510844,117.9333330790202L48.54625440597535,39.31110399696564L49.041308625539145,78.62222439580495L49.22695395787557,196.55555483880968L49.35071751276652,78.62222439580495L49.41259929021199,58.96666419638529L49.96953528722127,78.62222439580495L50.24800328572591,19.65555551317004L50.402707729339596,58.96666419638529L50.433648618062335,19.65555551317004L50.681175727844234,137.58888742062783L50.86682106018066,78.62222439580495L50.89776194890341,19.65555551317004L51.33093439102173,58.96666419638529L51.609402389526366,117.9333330790202L51.85692949930827,19.65555551317004L51.887870388031004,78.62222439580495L52.38292460759481,58.96666419638529L52.44480638504028,58.96666419638529L53.280210380554195,39.31110399696564L53.34209215799967,98.27777287960055L53.403973935445144,19.65555551317004L53.49679660161337,39.31110399696564L53.58961926778158,19.65555551317004L53.99185082117717,39.31110399696564L54.61066859563192,39.31110399696564L54.95101837158203,117.9333330790202L54.98195926030477,39.31110399696564L55.16760459264119,98.27777287960055L55.35324992497762,39.31110399696564L55.848304144541416,58.96666419638529L55.879245033264155,19.65555551317004L55.94112681070964,157.24444176223545L56.31241747538249,39.31110399696564L56.71464902877808,78.62222439580495L56.962176138559975,58.96666419638529L57.05499880472819,98.27777287960055L57.48817124684652,19.65555551317004L57.6428756904602,19.65555551317004L57.76663924535115,39.31110399696564L57.92134368896484,78.62222439580495L58.385457019805905,39.31110399696564L58.72580679575602,19.65555551317004L58.84957035064698,19.65555551317004L59.746856123606364,19.65555551317004L59.80873790105184,58.96666419638529L60.11814678827921,78.62222439580495L60.33473300933838,39.31110399696564L60.767905451456706,19.65555551317004L61.88177744547526,58.96666419638529L61.974600111643475,39.31110399696564L62.03648188908895,58.96666419638529L62.37683166503906,58.96666419638529L62.59341788609822,39.31110399696564L62.71718144098917,58.96666419638529L62.77906321843465,19.65555551317004L63.05753121693929,196.55555483880968L63.64540810267131,39.31110399696564L64.07858054478963,19.65555551317004L64.10952143351237,19.65555551317004L64.17140321095785,78.62222439580495L64.29516676584879,98.27777287960055L64.57363476435343,19.65555551317004L64.94492542902628,19.65555551317004L65.06868898391724,19.65555551317004L65.13057076136272,19.65555551317004L65.22339342753092,39.31110399696564L65.2852752049764,78.62222439580495L65.34715698242188,19.65555551317004L65.65656586964926,98.27777287960055L65.7803294245402,39.31110399696564L65.99691564559936,58.96666419638529L66.05879742304484,19.65555551317004L66.21350186665853,39.31110399696564L66.43008808771769,58.96666419638529L66.58479253133137,98.27777287960055L66.61573342005411,19.65555551317004L66.98702408472697,19.65555551317004L67.29643297195435,19.65555551317004L67.35831474939982,19.65555551317004L67.38925563812256,39.31110399696564L67.60584185918172,39.31110399696564L67.88430985768636,58.96666419638529L67.9152507464091,19.65555551317004L68.28654141108196,19.65555551317004L68.53406852086385,19.65555551317004L68.6578320757548,19.65555551317004L68.87441829681396,19.65555551317004L69.46229518254597,58.96666419638529L69.52417695999145,39.31110399696564L69.67888140360515,216.21111064487036L69.70982229232789,19.65555551317004L69.77170406977335,137.58888742062783L69.86452673594157,39.31110399696564L69.98829029083252,19.65555551317004L70.17393562316894,19.65555551317004L70.2976991780599,39.31110399696564L70.45240362167358,98.27777287960055L70.63804895401,58.96666419638529L70.8855760637919,19.65555551317004L71.1331031735738,19.65555551317004L71.38063028335571,39.31110399696564L71.65909828186035,39.31110399696564L71.87568450291951,39.31110399696564L71.96850716908772,216.21111064487036L71.99944805781045,19.65555551317004L72.2779160563151,39.31110399696564L72.58732494354248,196.55555483880968L73.05143827438354,216.21111064487036L73.1752018292745,58.96666419638529L73.51555160522462,58.96666419638529L73.54649249394735,19.65555551317004L73.6702560488383,19.65555551317004L74.81506893157959,98.27777287960055L75.46482759475708,58.96666419638529L75.49576848347982,19.65555551317004L76.0527044804891,39.31110399696564L76.08364536921182,19.65555551317004L76.17646803538004,19.65555551317004L76.57869958877563,157.24444176223545L76.6405813662211,39.31110399696564L76.98093114217122,19.65555551317004L77.07375380833945,117.9333330790202L77.19751736323038,19.65555551317004L77.44504447301229,39.31110399696564L77.66163069407146,78.62222439580495L77.6925715827942,19.65555551317004L77.7853942489624,39.31110399696564L77.87821691513062,39.31110399696564L78.24950757980348,19.65555551317004L78.4351529121399,39.31110399696564L78.55891646703084,19.65555551317004L78.86832535425822,39.31110399696564L78.96114802042644,19.65555551317004L79.39432046254475,19.65555551317004L79.48714312871297,58.96666419638529L79.64184757232665,58.96666419638529L79.73467023849487,19.65555551317004L80.01313823699951,19.65555551317004L80.35348801294963,19.65555551317004L80.50819245656331,58.96666419638529L80.57007423400879,39.31110399696564L81.31265556335448,19.65555551317004L81.56018267313638,78.62222439580495L81.62206445058186,58.96666419638529L81.93147333780924,39.31110399696564L82.1480595588684,39.31110399696564L82.39558666865031,19.65555551317004L82.64311377843221,19.65555551317004L82.85969999949138,19.65555551317004L82.92158177693685,39.31110399696564L83.10722710927328,196.55555483880968L83.38569510777792,19.65555551317004L83.63322221755982,98.27777287960055L83.6951039950053,19.65555551317004L83.7879266611735,39.31110399696564L83.88074932734172,19.65555551317004L83.91169021606446,58.96666419638529L84.12827643712362,98.27777287960055L84.2829808807373,19.65555551317004L84.49956710179647,19.65555551317004L84.77803510030111,19.65555551317004L84.96368043263753,78.62222439580495L85.24214843114217,19.65555551317004L85.58249820709229,19.65555551317004L85.89190709431966,98.27777287960055L85.95378887176513,19.65555551317004L86.1703750928243,78.62222439580495L86.32507953643798,19.65555551317004L86.4179022026062,19.65555551317004L86.6654293123881,19.65555551317004L87.25330619812013,19.65555551317004L88.11965108235677,19.65555551317004L88.24341463724772,19.65555551317004L88.52188263575236,39.31110399696564L88.67658707936604,39.31110399696564L88.73846885681152,39.31110399696564L89.38822751998902,19.65555551317004L89.72857729593913,98.27777287960055L89.82139996210734,19.65555551317004L90.00704529444377,19.65555551317004L90.0379861831665,19.65555551317004L90.50209951400757,19.65555551317004L90.53304040273031,19.65555551317004L90.87339017868041,39.31110399696564L90.99715373357137,19.65555551317004L91.15185817718505,19.65555551317004L91.21373995463053,19.65555551317004L91.49220795313516,19.65555551317004L91.61597150802612,19.65555551317004L91.64691239674886,19.65555551317004L91.70879417419432,19.65555551317004L91.73973506291706,19.65555551317004L91.80161684036254,196.55555483880968L92.14196661631267,19.65555551317004L92.20384839375815,19.65555551317004L92.45137550354005,19.65555551317004L92.48231639226279,98.27777287960055L92.57513905843099,19.65555551317004L93.6580701637268,19.65555551317004L95.01946926752726,19.65555551317004L95.2979372660319,157.24444176223545L95.60734615325927,19.65555551317004L95.94769592920939,39.31110399696564L96.0405185953776,19.65555551317004L96.22616392771403,19.65555551317004L96.38086837132771,19.65555551317004L96.41180926005045,39.31110399696564L96.5355728149414,196.55555483880968L96.56651370366414,19.65555551317004L96.7830999247233,19.65555551317004L97.15439058939617,19.65555551317004L97.77320836385091,216.21111064487036L98.08261725107829,19.65555551317004L98.63955324808757,39.31110399696564L98.85613946914673,19.65555551317004L99.3202527999878,19.65555551317004L99.50589813232422,58.96666419638529L99.8153070195516,19.65555551317004L100.15565679550171,19.65555551317004L100.24847946166992,19.65555551317004L100.40318390528361,117.9333330790202L100.80541545867919,19.65555551317004L101.54799678802489,176.89999903274907L102.29057811737061,19.65555551317004L102.63092789332073,19.65555551317004L102.72375055948893,19.65555551317004L102.87845500310263,19.65555551317004L103.12598211288453,19.65555551317004L103.4353910001119,137.58888742062783L103.74479988733927,19.65555551317004L103.96138610839844,19.65555551317004L104.88961277008056,39.31110399696564L105.01337632497152,19.65555551317004L105.04431721369426,19.65555551317004L105.1680807685852,19.65555551317004L106.18913009643555,19.65555551317004L106.34383454004923,19.65555551317004L106.49853898366291,19.65555551317004L106.90077053705852,58.96666419638529L107.14829764684042,19.65555551317004L107.24112031300864,19.65555551317004L107.85993808746338,19.65555551317004L108.10746519724529,19.65555551317004L108.26216964085897,39.31110399696564L108.32405141830445,19.65555551317004L108.41687408447265,137.58888742062783L108.47875586191813,58.96666419638529L108.50969675064087,19.65555551317004L108.85004652659099,19.65555551317004L108.91192830403646,19.65555551317004L108.97381008148193,19.65555551317004L109.1903963025411,19.65555551317004L109.25227807998657,19.65555551317004L109.49980518976847,39.31110399696564L110.33520918528238,19.65555551317004L110.36615007400512,19.65555551317004L110.70649984995524,39.31110399696564L110.73744073867798,19.65555551317004L111.04684962590535,19.65555551317004L111.1706131807963,19.65555551317004L111.38719940185547,19.65555551317004L111.60378562291463,19.65555551317004L112.00601717631021,19.65555551317004L112.25354428609212,19.65555551317004L112.28448517481486,19.65555551317004L112.50107139587404,19.65555551317004L112.59389406204224,19.65555551317004L112.62483495076498,19.65555551317004L112.65577583948772,19.65555551317004L112.74859850565593,19.65555551317004L113.33647539138794,19.65555551317004L113.58400250116985,19.65555551317004L113.61494338989257,58.96666419638529L113.70776605606079,19.65555551317004L113.92435227711995,78.62222439580495L114.01717494328817,19.65555551317004L114.07905672073365,19.65555551317004L114.17187938690185,19.65555551317004L114.2956429417928,19.65555551317004L114.57411094029744,19.65555551317004L114.75975627263387,19.65555551317004L114.91446071624756,19.65555551317004L115.0382242711385,19.65555551317004L115.40951493581136,39.31110399696564L115.4404558245341,19.65555551317004L115.56421937942504,19.65555551317004L115.71892382303874,19.65555551317004L115.74986471176148,19.65555551317004L115.78080560048421,19.65555551317004L115.87362826665242,19.65555551317004L116.15209626515706,19.65555551317004L116.1830371538798,19.65555551317004L116.21397804260253,19.65555551317004L116.36868248621622,39.31110399696564L116.52338692982991,19.65555551317004L116.61620959599813,19.65555551317004L116.77091403961181,19.65555551317004L116.92561848322549,19.65555551317004L117.14220470428468,19.65555551317004L117.51349536895752,98.27777287960055L117.9776086997986,19.65555551317004L118.34889936447144,39.31110399696564L118.65830825169881,19.65555551317004L118.78207180658977,19.65555551317004L118.96771713892619,19.65555551317004L119.18430335998535,176.89999903274907L119.49371224721273,19.65555551317004L119.52465313593547,39.31110399696564L120.11253002166748,19.65555551317004L120.14347091039022,19.65555551317004L120.42193890889486,216.21111064487036L120.48382068634032,19.65555551317004L121.25734290440877,19.65555551317004L121.35016557057698,19.65555551317004L121.4429882367452,19.65555551317004L121.75239712397259,19.65555551317004L122.30933312098186,39.31110399696564L122.40215578715006,19.65555551317004L122.61874200820924,19.65555551317004L122.71156467437744,19.65555551317004L122.77344645182292,19.65555551317004L122.95909178415934,19.65555551317004L123.36132333755494,19.65555551317004L123.67073222478231,19.65555551317004L123.76355489095052,19.65555551317004L123.85637755711873,19.65555551317004L124.10390466690063,19.65555551317004L124.38237266540527,19.65555551317004L124.84648599624633,19.65555551317004L125.24871754964192,19.65555551317004L126.36258954366048,19.65555551317004L126.39353043238322,19.65555551317004L126.76482109705606,19.65555551317004L126.98140731811525,19.65555551317004L127.01234820683798,19.65555551317004L127.04328909556071,39.31110399696564L127.22893442789714,39.31110399696564L127.35269798278809,19.65555551317004L127.47646153767904,19.65555551317004L127.50740242640178,19.65555551317004L127.53834331512452,19.65555551317004L127.6930477587382,39.31110399696564L127.75492953618368,19.65555551317004L128.28092464447022,19.65555551317004L129.14726952870686,78.62222439580495L129.30197397232055,19.65555551317004L129.5804419708252,58.96666419638529L129.67326463699342,19.65555551317004L129.7351464144389,19.65555551317004L129.95173263549805,19.65555551317004L130.10643707911174,19.65555551317004L130.47772774378458,19.65555551317004L130.50866863250732,39.31110399696564L130.60149129867554,39.31110399696564L130.66337307612102,19.65555551317004L130.87995929718016,19.65555551317004L131.25124996185303,58.96666419638529L131.3131317392985,19.65555551317004L131.99383129119872,19.65555551317004L132.08665395736693,19.65555551317004L133.01488061904908,19.65555551317004L133.26240772883096,19.65555551317004L134.31439794540407,19.65555551317004L134.46910238901773,19.65555551317004L134.80945216496787,19.65555551317004L135.0879201634725,39.31110399696564L135.30450638453166,58.96666419638529L135.36638816197714,19.65555551317004L135.45921082814536,19.65555551317004L135.52109260559084,19.65555551317004L135.6757970492045,19.65555551317004L135.70673793792724,39.31110399696564L135.95426504770916,19.65555551317004L136.29461482365926,19.65555551317004L136.41837837855022,19.65555551317004L136.72778726577758,19.65555551317004L136.85155082066854,39.31110399696564L136.9753143755595,19.65555551317004L137.22284148534138,19.65555551317004L137.37754592895507,78.62222439580495L137.84165925979613,19.65555551317004L138.0582454808553,19.65555551317004L138.27483170191445,19.65555551317004L138.7080041440328,39.31110399696564L138.73894503275554,19.65555551317004L138.76988592147828,19.65555551317004L138.80082681020102,19.65555551317004L138.98647214253742,19.65555551317004L139.0483539199829,19.65555551317004L139.26494014104205,19.65555551317004L139.3577628072103,19.65555551317004L139.69811258316042,19.65555551317004L140.06940324783326,19.65555551317004L140.3478712463379,58.96666419638529L140.62633924484254,19.65555551317004L140.81198457717898,19.65555551317004L141.05951168696086,19.65555551317004L141.30703879674277,19.65555551317004L141.39986146291096,19.65555551317004L141.5855067952474,19.65555551317004L141.61644768397014,19.65555551317004L141.95679745992024,19.65555551317004L141.98773834864298,19.65555551317004L142.35902901331585,19.65555551317004L142.76126056671143,19.65555551317004L142.79220145543417,19.65555551317004L142.82314234415688,19.65555551317004L142.85408323287965,19.65555551317004L143.28725567499797,19.65555551317004L144.02983700434368,19.65555551317004L144.12265967051187,19.65555551317004L144.18454144795737,19.65555551317004L144.24642322540285,19.65555551317004L144.33924589157104,19.65555551317004L144.463009446462,19.65555551317004L144.5558321126302,19.65555551317004L144.58677300135295,19.65555551317004L145.14370899836223,19.65555551317004L145.4531178855896,39.31110399696564L145.82440855026243,19.65555551317004L145.97911299387616,19.65555551317004L146.01005388259887,19.65555551317004L146.4432263247172,19.65555551317004L146.8454578781128,19.65555551317004L146.87639876683554,19.65555551317004L146.93828054428099,19.65555551317004L146.96922143300375,19.65555551317004L147.06204409917194,19.65555551317004L147.0929849878947,19.65555551317004L147.12392587661742,19.65555551317004L147.3405120976766,19.65555551317004L147.40239387512207,19.65555551317004L147.9283889834086,39.31110399696564L147.9902707608541,19.65555551317004L148.02121164957683,19.65555551317004L148.14497520446778,19.65555551317004L148.23779787063597,19.65555551317004L148.94943831125894,19.65555551317004L149.25884719848634,19.65555551317004L149.75390141805013,19.65555551317004L150.0323694165548,19.65555551317004L150.09425119400026,19.65555551317004L150.15613297144574,19.65555551317004L150.40366008122763,19.65555551317004L150.68212807973225,19.65555551317004L150.77495074590047,19.65555551317004L151.70317740758261,19.65555551317004L151.88882273991902,19.65555551317004L151.98164540608724,19.65555551317004L152.1054089609782,19.65555551317004L152.2910542933146,19.65555551317004L152.600463180542,19.65555551317004L152.66234495798747,19.65555551317004L152.7551676241557,19.65555551317004L153.2811627324422,19.65555551317004L153.40492628733315,19.65555551317004L153.6833942858378,19.65555551317004L153.96186228434243,19.65555551317004L154.1475076166789,19.65555551317004L154.30221206029256,39.31110399696564L154.487857392629,19.65555551317004L154.9829116121928,19.65555551317004L155.10667516708375,19.65555551317004L155.1685569445292,19.65555551317004L155.44702494303385,19.65555551317004L155.60172938664755,19.65555551317004L155.78737471898395,19.65555551317004L155.9730200513204,19.65555551317004L156.18960627237956,19.65555551317004L157.33441915512083,19.65555551317004L157.45818271001178,19.65555551317004L157.58194626490274,19.65555551317004L158.1079413731893,19.65555551317004L158.2935867055257,19.65555551317004L158.47923203786215,19.65555551317004L158.57205470403034,19.65555551317004L159.2527542559306,19.65555551317004L159.46934047698974,19.65555551317004L159.56216314315796,19.65555551317004L159.90251291910806,19.65555551317004L160.21192180633545,19.65555551317004L160.2428626950582,39.31110399696564L160.3356853612264,19.65555551317004L160.6760351371765,19.65555551317004L161.14014846801757,19.65555551317004L161.5733209101359,19.65555551317004L161.75896624247233,19.65555551317004L161.8208480199178,19.65555551317004L162.03743424097698,19.65555551317004L162.34684312820434,19.65555551317004L162.43966579437256,19.65555551317004L162.53248846054078,19.65555551317004L162.5634293492635,19.65555551317004L162.68719290415444,19.65555551317004L162.99660179138183,19.65555551317004L163.39883334477742,19.65555551317004L163.42977423350015,19.65555551317004L163.9557693417867,19.65555551317004L164.2961191177368,19.65555551317004L164.57458711624145,19.65555551317004L164.72929155985514,19.65555551317004L164.88399600346884,19.65555551317004L165.06964133580524,19.65555551317004L165.3481093343099,19.65555551317004L165.87410444259643,19.65555551317004L166.36915866216023,19.65555551317004L166.46198132832845,19.65555551317004L166.95703554789225,19.65555551317004L167.20456265767416,19.65555551317004L167.32832621256512,19.65555551317004L167.4211488787333,19.65555551317004L167.51397154490152,19.65555551317004L167.54491243362426,39.31110399696564L167.79243954340615,19.65555551317004L167.85432132085162,19.65555551317004L168.19467109680176,19.65555551317004L168.44219820658367,19.65555551317004L168.7825479825338,19.65555551317004L168.9063115374247,19.65555551317004L169.15383864720664,19.65555551317004L169.86547908782958,19.65555551317004L170.05112442016602,19.65555551317004L170.17488797505698,19.65555551317004L170.63900130589803,19.65555551317004L170.82464663823447,19.65555551317004L170.91746930440266,19.65555551317004L170.97935108184814,19.65555551317004L171.1959373029073,19.65555551317004L171.28875996907553,19.65555551317004L171.41252352396646,19.65555551317004L171.5362870788574,19.65555551317004L171.56722796758018,19.65555551317004L172.12416396458943,19.65555551317004L172.1860457420349,19.65555551317004L172.30980929692586,19.65555551317004L172.4954546292623,19.65555551317004L172.74298173904418,19.65555551317004L173.05239062627157,39.31110399696564L173.4855630683899,19.65555551317004L173.57838573455808,19.65555551317004L173.67120840072633,19.65555551317004L174.66131683985392,19.65555551317004L174.81602128346762,19.65555551317004L174.84696217219036,19.65555551317004L174.9707257270813,19.65555551317004L175.09448928197224,19.65555551317004L175.125430170695,19.65555551317004L175.2182528368632,19.65555551317004L175.3729572804769,19.65555551317004L175.713307056427,39.31110399696564L175.9608341662089,19.65555551317004L176.08459772109984,19.65555551317004L176.14647949854532,19.65555551317004L176.33212483088175,19.65555551317004L176.57965194066364,58.96666419638529L176.6105928293864,19.65555551317004L176.7962381617228,39.31110399696564L176.88906082789103,19.65555551317004L177.32223327000935,19.65555551317004L177.53881949106852,19.65555551317004L178.21951904296876,19.65555551317004L178.4361052640279,19.65555551317004L178.62175059636434,19.65555551317004L178.74551415125526,19.65555551317004L178.77645503997803,19.65555551317004L179.17868659337364,19.65555551317004L179.61185903549196,19.65555551317004L179.70468170166015,19.65555551317004L179.7975043678284,19.65555551317004L179.85938614527385,19.65555551317004L179.92126792271932,19.65555551317004L180.41632214228312,19.65555551317004L180.4782039197286,39.31110399696564L180.54008569717408,19.65555551317004L180.57102658589682,19.65555551317004L180.60196747461956,19.65555551317004L180.8185536956787,19.65555551317004L180.84949458440147,19.65555551317004L181.40643058141075,19.65555551317004L182.02524835586547,19.65555551317004L182.42747990926105,19.65555551317004L182.82971146265666,19.65555551317004L182.89159324010214,19.65555551317004L183.47947012583413,19.65555551317004L183.60323368072508,19.65555551317004L183.81981990178426,19.65555551317004L183.9435834566752,19.65555551317004L184.09828790028888,19.65555551317004L185.05745545069377,19.65555551317004L185.36686433792113,19.65555551317004L185.3978052266439,19.65555551317004L186.3879136657715,19.65555551317004L187.1304949951172,19.65555551317004L187.50178565979004,19.65555551317004L187.56366743723552,19.65555551317004L187.7183718808492,19.65555551317004L188.02778076807655,19.65555551317004L188.1206034342448,19.65555551317004L188.1515443229675,19.65555551317004L188.39907143274942,19.65555551317004L188.4609532101949,19.65555551317004L188.6156576538086,19.65555551317004L189.7604705365499,19.65555551317004L189.88423409144085,98.27777287960055L190.0079976463318,19.65555551317004L190.22458386739095,19.65555551317004L190.3483474222819,19.65555551317004L190.37928831100464,19.65555551317004L190.44117008845012,19.65555551317004L190.47211097717286,19.65555551317004L190.8434016418457,19.65555551317004L191.12186964035035,19.65555551317004L191.46221941630046,19.65555551317004L191.8025691922506,39.31110399696564L191.86445096969604,19.65555551317004L192.01915541330973,19.65555551317004L192.0810371907552,19.65555551317004L192.2357416343689,19.65555551317004L192.4213869667053,19.65555551317004L192.6379731877645,19.65555551317004L193.04020474116007,19.65555551317004L193.50431807200113,19.65555551317004L193.53525896072387,19.65555551317004L193.65902251561482,19.65555551317004L193.78278607050578,19.65555551317004L193.87560873667397,19.65555551317004L194.5253673998515,19.65555551317004L194.74195362091066,19.65555551317004L194.80383539835614,19.65555551317004L194.86571717580162,19.65555551317004L195.51547583897909,19.65555551317004L195.54641672770182,19.65555551317004L195.63923939387004,19.65555551317004L195.7011211713155,19.65555551317004L195.82488472620645,58.96666419638529L195.85582561492922,78.62222439580495L196.01053005854288,19.65555551317004L196.07241183598836,19.65555551317004L196.13429361343384,19.65555551317004L196.87687494277952,19.65555551317004L197.06252027511596,19.65555551317004L197.12440205256144,19.65555551317004L197.49569271723428,19.65555551317004L197.8360424931844,19.65555551317004L198.11451049168903,19.65555551317004L198.1454513804118,19.65555551317004L198.26921493530273,19.65555551317004L198.57862382253012,19.65555551317004L198.7952100435893,19.65555551317004L198.91897359848025,19.65555551317004L199.1355598195394,19.65555551317004L199.44496870676676,19.65555551317004L199.50685048421224,19.65555551317004L199.66155492782593,19.65555551317004L199.7234367052714,19.65555551317004L199.8162593714396,19.65555551317004L199.87814114888508,19.65555551317004L200.2184909248352,19.65555551317004L201.0229540316264,19.65555551317004L201.27048114140828,19.65555551317004L201.3633038075765,19.65555551317004L201.42518558502198,19.65555551317004L201.45612647374472,19.65555551317004L201.67271269480386,19.65555551317004L201.79647624969482,19.65555551317004L201.8583580271403,19.65555551317004L201.95118069330852,19.65555551317004L202.53905757904053,19.65555551317004L202.7556438000997,19.65555551317004L202.91034824371337,19.65555551317004L203.21975713094074,19.65555551317004L203.59104779561363,19.65555551317004L204.36457001368206,19.65555551317004L205.57126467386882,19.65555551317004L205.8806735610962,19.65555551317004L206.31384600321454,19.65555551317004L206.4685504468282,19.65555551317004L206.93266377766926,19.65555551317004L207.52054066340128,19.65555551317004L207.73712688446045,39.31110399696564L207.82994955062864,19.65555551317004L208.04653577168781,19.65555551317004L208.263121992747,19.65555551317004L208.3559446589152,19.65555551317004L208.57253087997435,19.65555551317004L208.88193976720171,58.96666419638529L208.9438215446472,19.65555551317004L209.03664421081544,19.65555551317004L209.06758509953818,98.27777287960055L209.09852598826092,19.65555551317004L209.12946687698366,19.65555551317004L209.3460530980428,19.65555551317004L209.56263931910198,19.65555551317004L209.8411073176066,19.65555551317004L210.0886344273885,19.65555551317004L210.70745220184327,19.65555551317004L211.41909264246624,19.65555551317004L211.94508775075275,19.65555551317004L212.4710828590393,19.65555551317004L212.5639055252075,19.65555551317004L212.8733144124349,19.65555551317004L212.90425530115763,19.65555551317004L212.9661370786031,19.65555551317004L213.3683686319987,19.65555551317004L214.17283173878988,19.65555551317004L215.00823573430378,19.65555551317004L215.16294017791748,19.65555551317004L215.2557628440857,19.65555551317004L215.50328995386758,19.65555551317004L215.688935286204,58.96666419638529L216.02928506215414,19.65555551317004L216.30775306065877,19.65555551317004L216.52433928171794,19.65555551317004L216.70998461405438,39.31110399696564L216.8337481689453,19.65555551317004L216.89562994639078,39.31110399696564L216.92657083511352,19.65555551317004L217.85479749679564,39.31110399696564L217.9785610516866,19.65555551317004L218.00950194040934,19.65555551317004L218.25702905019125,19.65555551317004L218.96866949081422,19.65555551317004L219.0305512682597,19.65555551317004L219.0614921569824,19.65555551317004L219.40184193293254,19.65555551317004L219.49466459910076,19.65555551317004L219.92783704121908,19.65555551317004L220.05160059611003,19.65555551317004L220.11348237355548,19.65555551317004L220.48477303822835,19.65555551317004L220.73230014801024,19.65555551317004L220.88700459162396,19.65555551317004L220.9488863690694,19.65555551317004L221.0107681465149,58.96666419638529L221.81523125330608,19.65555551317004L222.71251702626546,19.65555551317004L222.96004413604734,19.65555551317004L223.14568946838378,117.9333330790202L223.45509835561114,19.65555551317004L223.5788619105021,19.65555551317004L223.70262546539308,19.65555551317004L223.82638902028404,19.65555551317004L223.91921168645223,19.65555551317004L223.9810934638977,19.65555551317004L224.1357979075114,19.65555551317004L224.38332501729332,19.65555551317004L224.9402610143026,39.31110399696564L225.24966990152996,19.65555551317004L225.31155167897543,19.65555551317004L225.52813790003458,19.65555551317004L225.7756650098165,19.65555551317004L225.80660589853923,19.65555551317004L225.89942856470742,19.65555551317004L226.33260100682577,19.65555551317004L226.7657734489441,39.31110399696564L226.88953700383504,19.65555551317004L226.92047789255778,19.65555551317004L226.9514187812805,19.65555551317004L227.3536503346761,19.65555551317004L227.53929566701254,19.65555551317004L227.6940001106262,19.65555551317004L227.72494099934897,19.65555551317004L227.78682277679442,19.65555551317004L227.87964544296264,19.65555551317004L227.94152722040812,39.31110399696564L228.03434988657634,19.65555551317004L228.37469966252644,19.65555551317004L229.17916276931763,19.65555551317004L229.7360987663269,39.31110399696564L230.20021209716796,19.65555551317004L230.29303476333618,19.65555551317004L230.32397565205892,19.65555551317004L230.50962098439533,19.65555551317004L230.81902987162272,19.65555551317004L231.25220231374104,39.31110399696564L231.68537475585936,39.31110399696564L231.8091383107503,19.65555551317004L231.90196097691853,58.96666419638529L231.93290186564127,19.65555551317004L232.7683058611552,19.65555551317004L232.95395119349163,19.65555551317004L233.04677385965982,19.65555551317004L233.32524185816447,19.65555551317004L233.5108871905009,39.31110399696564L233.6655916341146,19.65555551317004L233.69653252283732,216.21111064487036L233.72747341156008,39.31110399696564L233.78935518900556,19.65555551317004L234.06782318751016,19.65555551317004L234.1606458536784,19.65555551317004L234.22252763112388,58.96666419638529L234.71758185068768,19.65555551317004L234.77946362813316,19.65555551317004L234.87228629430135,19.65555551317004L235.02699073791504,39.31110399696564L235.150754292806,19.65555551317004L235.6458085123698,19.65555551317004L235.67674940109254,19.65555551317004L235.80051295598346,19.65555551317004L236.07898095448812,19.65555551317004L236.69779872894287,19.65555551317004L237.06908939361574,19.65555551317004L237.34755739212036,19.65555551317004L237.44038005828858,19.65555551317004L238.18296138763426,19.65555551317004L238.52331116358437,19.65555551317004L238.73989738464354,39.31110399696564L238.8327200508118,19.65555551317004L238.89460182825727,19.65555551317004L238.95648360570274,19.65555551317004L239.01836538314816,19.65555551317004L239.20401071548463,58.96666419638529L239.32777427037558,19.65555551317004L239.82282848993938,19.65555551317004L240.16317826588948,19.65555551317004L240.22506004333496,58.96666419638529L240.62729159673057,98.27777287960055L240.72011426289876,19.65555551317004L240.9057595952352,19.65555551317004L241.43175470352173,19.65555551317004L241.5555182584127,19.65555551317004L241.7411635907491,19.65555551317004L242.01963158925372,19.65555551317004L242.0505724779765,58.96666419638529L242.3290404764811,19.65555551317004L242.42186314264933,19.65555551317004L242.51468580881755,19.65555551317004L242.66939025243124,39.31110399696564L242.73127202987672,19.65555551317004L242.91691736221313,19.65555551317004L243.19538536071775,19.65555551317004L243.41197158177692,19.65555551317004L243.53573513666788,19.65555551317004L243.69043958028155,19.65555551317004L244.2164346885681,19.65555551317004L244.89713424046835,19.65555551317004L244.95901601791383,19.65555551317004L245.05183868408204,19.65555551317004L245.39218846003214,19.65555551317004L245.60877468109132,39.31110399696564L245.82536090215046,19.65555551317004L246.28947423299155,19.65555551317004L246.75358756383258,19.65555551317004L246.78452845255535,19.65555551317004L246.97017378489176,19.65555551317004L247.27958267211915,19.65555551317004L247.43428711573281,19.65555551317004L247.4961688931783,19.65555551317004L247.5889915593465,19.65555551317004L247.9293413352966,19.65555551317004L248.11498666763305,19.65555551317004L248.4243955548604,39.31110399696564L248.45533644358318,19.65555551317004L248.51721822102866,19.65555551317004L248.9194497744242,19.65555551317004L249.1360359954834,19.65555551317004L249.19791777292886,19.65555551317004L249.22885866165163,19.65555551317004L250.0333217684428,39.31110399696564L250.24990798950193,19.65555551317004L250.96154843012494,19.65555551317004L251.17813465118408,19.65555551317004L251.2709573173523,19.65555551317004L251.45660264968873,19.65555551317004L252.63235642115276,19.65555551317004L253.03458797454832,19.65555551317004L253.06552886327108,19.65555551317004L253.12741064071656,19.65555551317004L253.31305597305297,39.31110399696564L253.4058786392212,19.65555551317004L253.900932858785,19.65555551317004L253.9628146362305,19.65555551317004L254.21034174601238,19.65555551317004L254.51975063323977,19.65555551317004L255.26233196258545,19.65555551317004L255.3860955174764,19.65555551317004L255.63362262725832,19.65555551317004L255.75738618214925,19.65555551317004L256.03585418065387,19.65555551317004L256.0667950693766,19.65555551317004L256.6237310663859,39.31110399696564L256.90219906489057,39.31110399696564L257.087844397227,19.65555551317004L257.73760306040447,19.65555551317004L257.89230750401816,39.31110399696564L258.0160710589091,19.65555551317004L258.0779528363546,78.62222439580495L258.48018438975015,19.65555551317004L258.5420661671956,19.65555551317004L258.63488883336385,19.65555551317004L258.78959327697754,19.65555551317004L258.9133568318685,19.65555551317004L259.1299430529277,19.65555551317004L259.2227657190959,19.65555551317004L259.4702928288778,19.65555551317004L259.71781993865966,19.65555551317004L260.4604012680054,19.65555551317004L260.6769874890645,19.65555551317004L261.01733726501465,19.65555551317004L261.0482781537374,39.31110399696564L261.1411008199056,19.65555551317004L261.2339234860738,19.65555551317004L261.79085948308307,39.31110399696564L261.914623037974,19.65555551317004L262.038386592865,19.65555551317004L262.10026837031046,19.65555551317004L262.16215014775594,19.65555551317004" fill="none"></path></g></g></g></g></g></g><g transform="translate(51, 176)" clip-path="url(#clip_1)"><clipPath id="clip_1"><rect width="278" height="23"></rect></clipPath><g><g><line x1="0" y1="0" x2="0" y2="5" style="visibility: inherit;" fill="rgb(0, 0, 0)" stroke="rgb(204, 204, 204)" stroke-width="1px"></line><line x1="30.94088872273763" y1="0" x2="30.94088872273763" y2="5" style="visibility: inherit;" fill="rgb(0, 0, 0)" stroke="rgb(204, 204, 204)" stroke-width="1px"></line><line x1="61.88177744547526" y1="0" x2="61.88177744547526" y2="5" style="visibility: inherit;" fill="rgb(0, 0, 0)" stroke="rgb(204, 204, 204)" stroke-width="1px"></line><line x1="92.82266616821289" y1="0" x2="92.82266616821289" y2="5" style="visibility: inherit;" fill="rgb(0, 0, 0)" stroke="rgb(204, 204, 204)" stroke-width="1px"></line><line x1="123.76355489095052" y1="0" x2="123.76355489095052" y2="5" style="visibility: inherit;" fill="rgb(0, 0, 0)" stroke="rgb(204, 204, 204)" stroke-width="1px"></line><line x1="154.70444361368817" y1="0" x2="154.70444361368817" y2="5" style="visibility: inherit;" fill="rgb(0, 0, 0)" stroke="rgb(204, 204, 204)" stroke-width="1px"></line><line x1="185.64533233642578" y1="0" x2="185.64533233642578" y2="5" style="visibility: inherit;" fill="rgb(0, 0, 0)" stroke="rgb(204, 204, 204)" stroke-width="1px"></line><line x1="216.58622105916342" y1="0" x2="216.58622105916342" y2="5" style="visibility: inherit;" fill="rgb(0, 0, 0)" stroke="rgb(204, 204, 204)" stroke-width="1px"></line><line x1="247.52710978190103" y1="0" x2="247.52710978190103" y2="5" style="visibility: inherit;" fill="rgb(0, 0, 0)" stroke="rgb(204, 204, 204)" stroke-width="1px"></line><line x1="278.4679985046387" y1="0" x2="278.4679985046387" y2="5" style="visibility: inherit;" fill="rgb(0, 0, 0)" stroke="rgb(204, 204, 204)" stroke-width="1px"></line></g><g transform="translate(0, 8)"><text style="text-anchor: middle; visibility: hidden; font-family: Roboto, sans-serif; font-size: 12px; font-weight: 200;" x="0" y="0" dx="0em" dy="0.95em" fill="rgb(33, 33, 33)" stroke="none" stroke-width="1px">-1k</text><text style="text-anchor: middle; visibility: inherit; font-family: Roboto, sans-serif; font-size: 12px; font-weight: 200;" x="30.94088872273763" y="0" dx="0em" dy="0.95em" fill="rgb(33, 33, 33)" stroke="none" stroke-width="1px">0</text><text style="text-anchor: middle; visibility: inherit; font-family: Roboto, sans-serif; font-size: 12px; font-weight: 200;" x="61.88177744547526" y="0" dx="0em" dy="0.95em" fill="rgb(33, 33, 33)" stroke="none" stroke-width="1px">1k</text><text style="text-anchor: middle; visibility: inherit; font-family: Roboto, sans-serif; font-size: 12px; font-weight: 200;" x="92.82266616821289" y="0" dx="0em" dy="0.95em" fill="rgb(33, 33, 33)" stroke="none" stroke-width="1px">2k</text><text style="text-anchor: middle; visibility: inherit; font-family: Roboto, sans-serif; font-size: 12px; font-weight: 200;" x="123.76355489095052" y="0" dx="0em" dy="0.95em" fill="rgb(33, 33, 33)" stroke="none" stroke-width="1px">3k</text><text style="text-anchor: middle; visibility: inherit; font-family: Roboto, sans-serif; font-size: 12px; font-weight: 200;" x="154.70444361368817" y="0" dx="0em" dy="0.95em" fill="rgb(33, 33, 33)" stroke="none" stroke-width="1px">4k</text><text style="text-anchor: middle; visibility: inherit; font-family: Roboto, sans-serif; font-size: 12px; font-weight: 200;" x="185.64533233642578" y="0" dx="0em" dy="0.95em" fill="rgb(33, 33, 33)" stroke="none" stroke-width="1px">5k</text><text style="text-anchor: middle; visibility: inherit; font-family: Roboto, sans-serif; font-size: 12px; font-weight: 200;" x="216.58622105916342" y="0" dx="0em" dy="0.95em" fill="rgb(33, 33, 33)" stroke="none" stroke-width="1px">6k</text><text style="text-anchor: middle; visibility: inherit; font-family: Roboto, sans-serif; font-size: 12px; font-weight: 200;" x="247.52710978190103" y="0" dx="0em" dy="0.95em" fill="rgb(33, 33, 33)" stroke="none" stroke-width="1px">7k</text><text style="text-anchor: middle; visibility: hidden; font-family: Roboto, sans-serif; font-size: 12px; font-weight: 200;" x="278.4679985046387" y="0" dx="0em" dy="0.95em" fill="rgb(33, 33, 33)" stroke="none" stroke-width="1px">8k</text></g><line x1="0" y1="0" x2="278.4679985046387" y2="0" fill="rgb(0, 0, 0)" stroke="rgb(204, 204, 204)" stroke-width="1px"></line></g></g></g></g></svg>