<svg viewBox="0 0 330 200" xmlns="http://www.w3.org/2000/svg"><g><g><g><g><g><line x1="51.41600036621094" y1="176.95999908447266" x2="46.41600036621094" y2="176.95999908447266" style="visibility: inherit;" fill="rgb(0, 0, 0)" stroke="rgb(204, 204, 204)" stroke-width="1px"></line><line x1="51.41600036621094" y1="159.2639991760254" x2="46.41600036621094" y2="159.2639991760254" style="visibility: inherit;" fill="rgb(0, 0, 0)" stroke="rgb(204, 204, 204)" stroke-width="1px"></line><line x1="51.41600036621094" y1="141.56799926757813" x2="46.41600036621094" y2="141.56799926757813" style="visibility: inherit;" fill="rgb(0, 0, 0)" stroke="rgb(204, 204, 204)" stroke-width="1px"></line><line x1="51.41600036621094" y1="123.87199935913085" x2="46.41600036621094" y2="123.87199935913085" style="visibility: inherit;" fill="rgb(0, 0, 0)" stroke="rgb(204, 204, 204)" stroke-width="1px"></line><line x1="51.41600036621094" y1="106.17599945068359" x2="46.41600036621094" y2="106.17599945068359" style="visibility: inherit;" fill="rgb(0, 0, 0)" stroke="rgb(204, 204, 204)" stroke-width="1px"></line><line x1="51.41600036621094" y1="88.47999954223633" x2="46.41600036621094" y2="88.47999954223633" style="visibility: inherit;" fill="rgb(0, 0, 0)" stroke="rgb(204, 204, 204)" stroke-width="1px"></line><line x1="51.41600036621094" y1="70.78399963378907" x2="46.41600036621094" y2="70.78399963378907" style="visibility: inherit;" fill="rgb(0, 0, 0)" stroke="rgb(204, 204, 204)" stroke-width="1px"></line><line x1="51.41600036621094" y1="53.0879997253418" x2="46.41600036621094" y2="53.0879997253418" style="visibility: inherit;" fill="rgb(0, 0, 0)" stroke="rgb(204, 204, 204)" stroke-width="1px"></line><line x1="51.41600036621094" y1="35.391999816894526" x2="46.41600036621094" y2="35.391999816894526" style="visibility: inherit;" fill="rgb(0, 0, 0)" stroke="rgb(204, 204, 204)" stroke-width="1px"></line><line x1="51.41600036621094" y1="17.695999908447263" x2="46.41600036621094" y2="17.695999908447263" style="visibility: inherit;" fill="rgb(0, 0, 0)" stroke="rgb(204, 204, 204)" stroke-width="1px"></line><line x1="51.41600036621094" y1="0" x2="46.41600036621094" y2="0" style="visibility: inherit;" fill="rgb(0, 0, 0)" stroke="rgb(204, 204, 204)" stroke-width="1px"></line></g><g transform="translate(41.41600036621094, 0)"><text style="text-anchor: end; visibility: hidden; font-family: Roboto, sans-serif; font-size: 12px; font-weight: 200;" x="0" y="176.95999908447266" dx="0em" dy="0.3em" fill="rgb(33, 33, 33)" stroke="none" stroke-width="1px">0</text><text style="text-anchor: end; visibility: inherit; font-family: Roboto, sans-serif; font-size: 12px; font-weight: 200;" x="0" y="159.2639991760254" dx="0em" dy="0.3em" fill="rgb(33, 33, 33)" stroke="none" stroke-width="1px">0.05</text><text style="text-anchor: end; visibility: hidden; font-family: Roboto, sans-serif; font-size: 12px; font-weight: 200;" x="0" y="141.56799926757813" dx="0em" dy="0.3em" fill="rgb(33, 33, 33)" stroke="none" stroke-width="1px">0.1</text><text style="text-anchor: end; visibility: inherit; font-family: Roboto, sans-serif; font-size: 12px; font-weight: 200;" x="0" y="123.87199935913085" dx="0em" dy="0.3em" fill="rgb(33, 33, 33)" stroke="none" stroke-width="1px">0.15</text><text style="text-anchor: end; visibility: hidden; font-family: Roboto, sans-serif; font-size: 12px; font-weight: 200;" x="0" y="106.17599945068359" dx="0em" dy="0.3em" fill="rgb(33, 33, 33)" stroke="none" stroke-width="1px">0.2</text><text style="text-anchor: end; visibility: inherit; font-family: Roboto, sans-serif; font-size: 12px; font-weight: 200;" x="0" y="88.47999954223633" dx="0em" dy="0.3em" fill="rgb(33, 33, 33)" stroke="none" stroke-width="1px">0.25</text><text style="text-anchor: end; visibility: hidden; font-family: Roboto, sans-serif; font-size: 12px; font-weight: 200;" x="0" y="70.78399963378907" dx="0em" dy="0.3em" fill="rgb(33, 33, 33)" stroke="none" stroke-width="1px">0.3</text><text style="text-anchor: end; visibility: inherit; font-family: Roboto, sans-serif; font-size: 12px; font-weight: 200;" x="0" y="53.0879997253418" dx="0em" dy="0.3em" fill="rgb(33, 33, 33)" stroke="none" stroke-width="1px">0.35</text><text style="text-anchor: end; visibility: hidden; font-family: Roboto, sans-serif; font-size: 12px; font-weight: 200;" x="0" y="35.391999816894526" dx="0em" dy="0.3em" fill="rgb(33, 33, 33)" stroke="none" stroke-width="1px">0.4</text><text style="text-anchor: end; visibility: inherit; font-family: Roboto, sans-serif; font-size: 12px; font-weight: 200;" x="0" y="17.695999908447263" dx="0em" dy="0.3em" fill="rgb(33, 33, 33)" stroke="none" stroke-width="1px">0.45</text><text style="text-anchor: end; visibility: hidden; font-family: Roboto, sans-serif; font-size: 12px; font-weight: 200;" x="0" y="0" dx="0em" dy="0.3em" fill="rgb(33, 33, 33)" stroke="none" stroke-width="1px">0.5</text></g><line x1="51.41600036621094" y1="0" x2="51.41600036621094" y2="176.95999908447266" fill="rgb(0, 0, 0)" stroke="rgb(204, 204, 204)" stroke-width="1px"></line></g></g><g transform="translate(51, 0)" clip-path="url(#clip_0)"><clipPath id="clip_0"><rect width="278" height="176"></rect></clipPath><g><g><g><line x1="0" y1="0" x2="0" y2="176.95999908447266" fill="rgb(0, 0, 0)" stroke="rgb(66, 66, 66)" stroke-width="1px" opacity="0.25"></line><line x1="30.953777737087673" y1="0" x2="30.953777737087673" y2="176.95999908447266" fill="rgb(0, 0, 0)" stroke="rgb(66, 66, 66)" stroke-width="1px" opacity="0.25"></line><line x1="61.907555474175346" y1="0" x2="61.907555474175346" y2="176.95999908447266" fill="rgb(0, 0, 0)" stroke="rgb(66, 66, 66)" stroke-width="1px" opacity="0.25"></line><line x1="92.86133321126302" y1="0" x2="92.86133321126302" y2="176.95999908447266" fill="rgb(0, 0, 0)" stroke="rgb(66, 66, 66)" stroke-width="1px" opacity="0.25"></line><line x1="123.81511094835069" y1="0" x2="123.81511094835069" y2="176.95999908447266" fill="rgb(0, 0, 0)" stroke="rgb(66, 66, 66)" stroke-width="1px" opacity="0.25"></line><line x1="154.76888868543838" y1="0" x2="154.76888868543838" y2="176.95999908447266" fill="rgb(0, 0, 0)" stroke="rgb(66, 66, 66)" stroke-width="1px" opacity="0.25"></line><line x1="185.72266642252603" y1="0" x2="185.72266642252603" y2="176.95999908447266" fill="rgb(0, 0, 0)" stroke="rgb(66, 66, 66)" stroke-width="1px" opacity="0.25"></line><line x1="216.6764441596137" y1="0" x2="216.6764441596137" y2="176.95999908447266" fill="rgb(0, 0, 0)" stroke="rgb(66, 66, 66)" stroke-width="1px" opacity="0.25"></line><line x1="247.63022189670139" y1="0" x2="247.63022189670139" y2="176.95999908447266" fill="rgb(0, 0, 0)" stroke="rgb(66, 66, 66)" stroke-width="1px" opacity="0.25"></line><line x1="278.58399963378906" y1="0" x2="278.58399963378906" y2="176.95999908447266" fill="rgb(0, 0, 0)" stroke="rgb(66, 66, 66)" stroke-width="1px" opacity="0.25"></line></g><g><line x1="0" y1="176.95999908447266" x2="278.58399963378906" y2="176.95999908447266" fill="rgb(0, 0, 0)" stroke="rgb(66, 66, 66)" stroke-width="1px" opacity="0.25"></line><line x1="0" y1="159.2639991760254" x2="278.58399963378906" y2="159.2639991760254" fill="rgb(0, 0, 0)" stroke="rgb(66, 66, 66)" stroke-width="1px" opacity="0.25"></line><line x1="0" y1="141.56799926757813" x2="278.58399963378906" y2="141.56799926757813" fill="rgb(0, 0, 0)" stroke="rgb(66, 66, 66)" stroke-width="1px" opacity="0.25"></line><line x1="0" y1="123.87199935913085" x2="278.58399963378906" y2="123.87199935913085" fill="rgb(0, 0, 0)" stroke="rgb(66, 66, 66)" stroke-width="1px" opacity="0.25"></line><line x1="0" y1="106.17599945068359" x2="278.58399963378906" y2="106.17599945068359" fill="rgb(0, 0, 0)" stroke="rgb(66, 66, 66)" stroke-width="1px" opacity="0.25"></line><line x1="0" y1="88.47999954223633" x2="278.58399963378906" y2="88.47999954223633" fill="rgb(0, 0, 0)" stroke="rgb(66, 66, 66)" stroke-width="1px" opacity="0.25"></line><line x1="0" y1="70.78399963378907" x2="278.58399963378906" y2="70.78399963378907" fill="rgb(0, 0, 0)" stroke="rgb(66, 66, 66)" stroke-width="1px" opacity="0.25"></line><line x1="0" y1="53.0879997253418" x2="278.58399963378906" y2="53.0879997253418" fill="rgb(0, 0, 0)" stroke="rgb(66, 66, 66)" stroke-width="1px" opacity="0.25"></line><line x1="0" y1="35.391999816894526" x2="278.58399963378906" y2="35.391999816894526" fill="rgb(0, 0, 0)" stroke="rgb(66, 66, 66)" stroke-width="1px" opacity="0.25"></line><line x1="0" y1="17.695999908447263" x2="278.58399963378906" y2="17.695999908447263" fill="rgb(0, 0, 0)" stroke="rgb(66, 66, 66)" stroke-width="1px" opacity="0.25"></line><line x1="0" y1="0" x2="278.58399963378906" y2="0" fill="rgb(0, 0, 0)" stroke="rgb(66, 66, 66)" stroke-width="1px" opacity="0.25"></line></g></g></g><g><g><line x1="0" y1="176.95999908447266" x2="278.58399963378906" y2="176.95999908447266" fill="rgb(0, 0, 0)" stroke="rgb(153, 153, 153)" stroke-width="1.5px"></line></g></g><g><g><line x1="30.953777737087673" y1="0" x2="30.953777737087673" y2="176.95999908447266" fill="rgb(0, 0, 0)" stroke="rgb(153, 153, 153)" stroke-width="1.5px"></line></g></g><g><g><g><g><g><path style="fill: none;" stroke="rgb(255, 112, 67)" stroke-width="2px" d="M31.108546625773112,176.7699367476402L31.54189951409234,176.8046072604723L31.78952973598904,176.81240385168744L31.820483513726128,176.8369037549425L32.22288262430827,176.8403842990453L32.43955906846788,176.85010577290726L32.47051284620497,176.83250365178182L32.903865734524196,176.82668724767223L32.934819512261285,176.80405440182247L33.058634623209635,176.81393138102564L33.182449734157984,176.8243069691337L33.36817240058051,176.8256559325342L33.52294128926595,176.82868490240025L33.73961773342557,176.8169480076587L34.04915551079644,176.8229264413296L34.17297062174479,176.83095226754438L34.296785732693145,176.83147665822617L34.730138621012365,176.8244948731704L34.85395373196072,176.8262719855029L34.88490750969781,176.82928636082156L34.94681506517198,176.8211717691141L35.00872262064616,176.82387398212583L35.44207550896538,176.82599437631558L35.53493684217665,176.8245197609344L35.844474619547526,176.81252880425282L35.93733595275879,176.80356986139117L35.99924350823296,176.79356138390114L36.06115106370714,176.78962554106093L36.30878128560384,176.7935809014694L36.46355017428928,176.786382185983L36.89690306260851,176.77391930159504L37.26834839545356,176.73893546227734L37.330255950927736,176.6984908661458L37.577886172824435,176.59001022271408L38.073146616617834,176.43247714299957L38.53745328267416,175.80718459672093L38.568407060411246,175.70839048151785L38.970806170993384,175.25849553440534L39.001759948730474,175.06250718026027L39.37320528157552,175.06852071799537L39.46606661478678,174.3166070211156L39.71369683668348,173.85453320751733L39.80655816989475,173.65915303155722L39.96132705858019,172.88890335730738L40.11609594726562,172.18359490447935L40.51849505784776,170.84076052482888L40.76612527974447,170.8555601075085L40.82803283521864,166.55714008303926L40.85898661295573,166.74623312183544L40.95184794616699,166.89220672705133L41.66378483412001,167.01149282566237L41.6947386118571,166.82606117042099L42.066183944702146,165.26727858278522L42.251906611124674,164.05542679610505L42.282860388861764,162.4796903104236L42.313814166598846,162.4145691567476L42.6852594994439,162.55992275357244L42.93288972134061,161.584155992401L43.05670483228896,161.3498573010227L43.11861238776313,160.43378151417173L43.42815016513401,160.29625359884585L43.490057720608185,160.15675035867875L43.830549275716145,160.16969993144647L44.04722571987576,159.7754036024454L44.48057860819499,159.6076178050892L44.51153238593207,157.6446705002914L44.57343994140625,157.77455881326193L44.79011638556586,156.19882949897487L45.25442305162218,156.0214383537355L45.37823816257053,156.10317509267486L45.53300705125597,156.0623655252611L45.65682216220432,156.17513368052516L45.68777593994141,153.1321884383L45.84254482862685,149.29428799296477L45.87349860636393,149.3135319065495L46.05922127278646,129.36347440284004L46.771158160739475,129.9854788581296L46.833065716213646,130.479062577643L46.864019493950735,130.64095183018117L46.894973271687824,130.27747360492125L46.987834604899085,130.73098154597278L47.04974216037326,131.15391882417177L47.48309504869249,129.94530781540269L47.51404882642957,130.23402387575513L47.57595638190375,130.6430498319085L47.63786393737794,130.54479274459362L47.69977149285211,130.7775114552868L47.82358660380046,130.59212896159227L47.885494159274636,129.72343871433583L48.07121682569716,129.24982893259997L48.195031936645506,129.45397503858433L48.380754603068034,129.63151786249108L48.44266215854221,127.76943466246509L48.56647726949056,127.8668700799106L49.06173771328396,126.24098499885453L49.24746037970649,125.71840588449439L49.37127549065484,125.8794954481111L49.43318304612901,126.04106641297594L49.990351045396594,126.0999010322962L50.26893504503038,126.26434707867014L50.42370393371582,123.2016891591744L50.45465771145291,123.4493085151302L50.70228793334961,123.26985336297172L50.88801059977214,122.95263646679244L50.918964377509226,123.12670445381319L51.35231726582845,123.25512946924282L51.630901265462235,123.61297119578948L51.87853148735894,123.85717926372128L51.90948526509602,123.31625502705754L52.404745708889436,122.7691623593187L52.46665326436361,122.50594764423869L53.30240526326497,122.6139492434426L53.36431281873915,122.34352840355545L53.42622037421332,122.28141405925847L53.51908170742459,119.14175374236855L53.61194304063585,112.83071389029891L54.01434215121799,111.82955452546331L54.63341770595975,112.11492208704401L54.97390926106771,112.51239515316173L55.0048630388048,112.64710411969097L55.19058570522732,111.42988517323725L55.37630837164985,110.91496946102212L55.87156881544325,110.98305970281547L55.902522593180336,110.05691179325439L55.964430148654515,110.17798242531225L56.33587548149956,109.5424018013316L56.7382745920817,108.83381609196216L56.98590481397841,109.06130040633951L57.078766147189675,109.10676339965194L57.5121190355089,109.26397761097293L57.666887924194334,109.36792368591692L57.790703035142684,109.26911838608962L57.94547192382812,109.60205649471618L58.40977858988444,108.97175694905077L58.7502701449924,109.17244321526515L58.874085255940756,109.16824865124418L59.7717448103163,109.30029262728584L59.83365236579048,109.28575355974483L60.14319014316135,109.4516486812437L60.359866587320965,108.92637907158966L60.79321947564019,109.2502804385249L61.907555474175346,79.92148146696728L62.000416807386614,79.85824353030704L62.062324362860785,80.33391959677013L62.40281591796875,80.62909574355841L62.61949236212836,81.19652127685372L62.74330747307671,81.51707850176095L62.80521502855089,81.5819818757614L63.08379902818468,82.00805067291036L63.671920805189345,82.46971384712958L64.10527369350856,82.86738664491881L64.13622747124566,82.79613419525924L64.19813502671984,82.85217887628085L64.32195013766818,82.90788297628954L64.60053413730198,83.24630049186106L64.97197947014702,83.536456678071L65.09579458109538,83.89791565035239L65.15770213656955,83.58175244135555L65.25056346978081,83.64721359878243L65.312471025255,84.07811293479145L65.37437858072917,84.09465066136957L65.68391635810005,84.45133383770997L65.80773146904839,84.7880653428265L66.02440791320801,85.11071041617292L66.08631546868219,85.5801700678273L66.24108435736763,85.98018341784939L66.45776080152723,86.25315677555993L66.61252969021267,86.07784116741549L66.64348346794976,80.40942397463265L67.0149288007948,80.58181266376954L67.3244665781657,80.84161455694937L67.38637413363986,81.12155636986496L67.41732791137696,81.20464684822154L67.63400435553658,79.88442931569575L67.91258835517036,79.82770227181221L67.94354213290744,80.1573091433552L68.3149874657525,80.29059362360806L68.5626176876492,80.55037576717456L68.68643279859755,80.69665980977072L68.90310924275715,81.03567055731895L69.49123101976183,80.53850093840045L69.553138575236,80.56603969129698L69.70790746392144,80.87974554550071L69.73886124165854,81.03760288133779L69.80076879713269,81.35657175366876L69.89363013034396,81.67112775185694L70.01744524129232,82.06794744339895L70.20316790771484,81.98564085089583L70.3269830186632,82.29130660358125L70.48175190734864,82.20616233841312L70.66747457377116,82.46593116043422L70.91510479566786,82.57583172484163L71.16273501756456,82.92074882947125L71.41036523946127,83.28758368212563L71.68894923909505,82.55443732255645L71.90562568325467,82.85253202028943L71.99848701646592,83.19889351936445L72.02944079420301,83.50177138461653L72.30802479383681,70.48754456791826L72.61756257120769,70.92177075155978L73.08186923726399,71.31760361032559L73.20568434821234,71.71950994251645L73.54617590332032,72.19877018739292L73.5771296810574,71.94942786466362L73.70094479200574,72.3036649352737L74.84623456827799,72.2047757043122L75.49626390075684,72.15865195501455L75.52721767849393,72.62227482546744L76.0843856777615,72.6978522535322L76.11533945549859,73.10648218018206L76.20820078870985,72.7328897321896L76.610599899292,72.91505852146221L76.67250745476616,73.28742946322747L77.01299900987414,73.65687140777402L77.1058603430854,73.8496377923257L77.22967545403374,74.28789402576172L77.47730567593044,74.61586903350576L77.69398212009007,74.81173168205734L77.72493589782715,75.15553853352876L77.81779723103841,75.4647387777381L77.91065856424967,75.75374454662028L78.28210389709473,76.18589008482046L78.46782656351725,76.44923605108484L78.59164167446559,76.69905304096314L78.90117945183647,76.95739898292221L78.99404078504774,77.27797332136551L79.42739367336696,77.67653219019566L79.52025500657824,75.23521652950377L79.67502389526366,75.52194348688698L79.76788522847494,75.89816862079527L80.04646922810872,76.2978853594376L80.3869607832167,76.7188483551668L80.54172967190212,77.02307821497581L80.6036372273763,77.33181522734571L81.3465278930664,77.57491470567113L81.59415811496311,77.37967891205115L81.65606567043729,77.71302143890766L81.96560344780816,76.57319113114005L82.18227989196777,76.99044999994875L82.42991011386447,77.33633379899175L82.67754033576117,77.73361045590676L82.8942167799208,78.04883739328784L82.95612433539496,78.42509082728873L83.1418470018175,78.65177172628083L83.42043100145128,79.07166337548223L83.66806122334799,79.2900503933308L83.72996877882217,79.33234619981263L83.82283011203342,79.6330846587664L83.91569144524469,79.93762935561931L83.94664522298177,80.18218380613503L84.16332166714139,80.2068797026701L84.31809055582681,80.50876727252648L84.53476699998645,80.88118192368334L84.81335099962023,81.18204295396593L84.99907366604275,81.54354079869304L85.27765766567654,81.89595533749805L85.6181492207845,82.24056156856759L85.9276869981554,82.3434636995762L85.98959455362954,82.11112864570775L86.20627099778918,81.88887011337634L86.36103988647461,82.26889947892988L86.45390121968587,82.62129199798305L86.70153144158257,82.928511035243L87.28965321858725,83.23260525647804L88.15635899522569,83.53764391477851L88.28017410617404,83.16051847412113L88.55875810580784,83.22687447347705L88.71352699449326,83.4676428744813L88.77543454996744,83.57770057148794L89.4254638824463,83.8735093510723L89.76595543755425,82.66283114715827L89.85881677076551,83.01990052197156L90.04453943718805,83.32329413375645L90.07549321492512,83.67335767696369L90.53979988098145,83.96335390141122L90.57075365871854,84.25586400777087L90.91124521382649,84.50502304088748L91.03506032477485,84.78024521969489L91.18982921346029,84.94448448898092L91.25173676893446,85.1696742677348L91.53032076856825,85.23955532499143L91.6541358795166,85.40626001557727L91.6850896572537,85.36721474172441L91.74699721272786,85.66581920878711L91.77795099046494,85.96877764665065L91.83985854593912,86.0323251271478L92.1803501010471,86.1665935571198L92.24225765652128,86.4307736314575L92.48988787841797,86.57998570961821L92.52084165615506,86.70460866095573L92.61370298936632,86.97416283730743L93.69708521016439,87.3095610551477L95.05905143059624,87.37234749800092L95.33763543023004,87.67114736195586L95.64717320760091,87.82587598989504L95.98766476270887,88.06327222956659L96.08052609592015,88.13326270149174L96.26624876234267,88.27886133088353L96.4210176510281,88.54349619094853L96.45197142876519,88.67397569877541L96.57578653971355,88.94626519968561L96.60674031745063,89.22885481546342L96.82341676161025,89.51901194235707L97.1948620944553,89.74848925339002L97.81393764919704,89.92209205047727L98.12347542656792,89.9600242578672L98.6806434258355,89.94566282815573L98.89731986999512,90.10401586795608L99.36162653605143,90.18063926383584L99.54734920247395,90.09924446652826L99.85688697984484,89.97022390859628L100.1973785349528,90.15933822942787L100.29023986816406,90.36283895377264L100.4450087568495,90.53619981893335L100.84740786743164,90.59132333409107L101.59029853312174,90.68471173359227L102.33318919881185,90.90170516425185L102.67368075391983,91.1063600497797L102.76654208713107,91.28453315586408L102.92131097581652,91.53924102725907L103.16894119771322,91.69557635913952L103.4784789750841,91.62956411122465L103.78801675245496,90.3190571108976L104.00469319661458,90.45509567696709L104.93330652872721,90.30706613704986L105.05712163967557,89.97259834372626L105.08807541741265,90.15443772136254L105.211890528361,90.26917194741176L106.2333651936849,90.3248087556404L106.38813408237033,90.54502583036117L106.54290297105577,90.80138159272063L106.94530208163792,90.7283118851641L107.19293230353462,90.67371856412471L107.28579363674588,90.87216817195869L107.90486919148762,90.93713280544313L108.15249941338433,90.79389938379812L108.30726830206977,90.97461696857883L108.36917585754395,91.18351658936417L108.4620371907552,91.36863383619715L108.52394474622938,91.52902783871838L108.55489852396647,91.75035332820418L108.89539007907443,91.85061719421954L108.95729763454861,92.10142117404726L109.01920519002277,91.94123777253137L109.2358816341824,91.95876498877595L109.29778918965657,92.00961066766212L109.54541941155327,83.55463490844724L110.38117141045464,83.85228589373986L110.41212518819172,83.9982059176905L110.7526167432997,84.2016888002255L110.78357052103678,84.436695583158L111.09310829840766,84.49526855898087L111.216923409356,84.54134375783534L111.43359985351563,84.36926865912021L111.65027629767525,84.46270366712793L112.05267540825737,84.71132967338518L112.30030563015407,85.00147638610991L112.33125940789117,85.23532914721675L112.54793585205078,85.46788108695564L112.64079718526204,85.7186881492654L112.67175096299913,85.62119312753654L112.70270474073622,85.80875559333018L112.79556607394748,86.08195031849142L113.38368785095214,86.23578241097043L113.63131807284886,86.44644570199401L113.66227185058592,86.65693645827481L113.7551331837972,86.9066291092547L113.97180962795682,86.57710946301376L114.06467096116808,86.86292235827581L114.12657851664225,87.08225146603691L114.21943984985352,87.2510924426228L114.34325496080187,87.49890216811976L114.62183896043565,87.71257757179377L114.80756162685817,87.8369259211239L114.96233051554363,87.74007485566015L115.08614562649197,87.79360945438717L115.45759095933703,87.61842309440436L115.48854473707411,87.82998857859717L115.61235984802245,88.03800380233822L115.7671287367079,88.03476788439285L115.79808251444499,88.21502866914712L115.82903629218208,88.32923111946161L115.92189762539333,88.48268904967541L116.20048162502712,88.63698393645048L116.23143540276422,88.80628295441362L116.2623891805013,89.02526238014757L116.41715806918674,88.56130185947501L116.57192695787218,88.81632302241977L116.66478829108345,89.0182409491319L116.81955717976888,89.2672139997261L116.97432606845432,89.48795799208953L117.19100251261393,89.69327438688316L117.56244784545898,89.69535840046684L118.0267545115153,89.45296557714944L118.39819984436035,89.63100265947827L118.70773762173123,89.82878468890702L118.83155273267958,90.02849808230168L119.0172753991021,90.20724372248833L119.23395184326172,90.23745450558836L119.5434896206326,90.38870824616096L119.57444339836968,90.5570920836485L120.16256517537435,90.78209130358799L120.19351895311144,90.97455247504898L120.47210295274523,90.88721440155665L120.5340105082194,90.82695243494962L121.3078549516466,91.01509309691669L121.40071628485785,91.25624640243278L121.49357761806912,91.40467372147631L121.80311539544,91.59069705105748L122.36028339470758,91.55671349006147L122.45314472791883,91.7698737944435L122.66982117207846,92.0114594641504L122.7626825052897,92.10501251944847L122.82459006076388,92.28035129165542L123.0103127271864,92.44831346505576L123.41271183776855,92.69101735921782L123.72224961513943,92.86418551789342L123.81511094835069,93.09259810512121L123.90797228156195,93.3201817907898L124.15560250345865,93.41231310964541L124.43418650309245,93.53116141754998L124.89849316914875,93.69004991856778L125.3008922797309,93.87727592831281L126.41522827826606,94.08698701657377L126.44618205600315,94.06152603174966L126.8176273888482,94.27631573046779L127.03430383300781,94.48418556224891L127.06525761074491,94.62810879337864L127.09621138848198,94.59129191254264L127.28193405490451,94.64749457589564L127.40574916585285,94.84765573243277L127.52956427680121,95.0644252211974L127.5605180545383,95.16949318741746L127.5914718322754,95.30209286025291L127.74624072096083,95.47901780324764L127.808148276435,95.65178269947351L128.3343624979655,95.85692043399224L129.20106827460395,95.67142125347605L129.35583716328938,95.82570929839642L129.63442116292316,95.90222393951528L129.72728249613445,96.06759697898337L129.7891900516086,96.27044954354831L130.00586649576823,96.45877040510486L130.16063538445366,95.20636892498376L130.53208071729873,95.35909240069584L130.56303449503582,95.50577675243528L130.65589582824705,95.53960203474651L130.71780338372125,95.58883468980987L130.93447982788086,95.76382819415873L131.3059251607259,95.81203417936419L131.3678327162001,96.01839505349484L132.04881582641602,96.15884689596216L132.14167715962728,96.35861708261444L133.0702904917399,96.52962208854886L133.31792071363662,96.65239686224797L134.37034915669759,96.79264883750236L134.525118045383,96.43970240407025L134.86560960049098,96.58840728922762L135.1441936001248,96.62773538575003L135.36087004428438,96.26913729342587L135.42277759975858,96.44365825777143L135.51563893296984,96.55983269943735L135.57754648844403,96.61548834961997L135.73231537712945,96.7801011754465L135.76326915486655,96.75178697420954L136.01089937676323,96.93098328623655L136.3513909318712,97.03523582763468L136.47520604281954,97.16966898360036L136.7847438201904,97.32012796689976L136.9085589311388,97.3006315422237L137.03237404208713,97.48420296406732L137.28000426398384,97.5741251905107L137.43477315266927,97.63174349737443L137.8990798187256,97.69472044756414L138.11575626288518,97.81606423901036L138.3324327070448,97.95135227081556L138.76578559536404,98.08420283915112L138.79673937310113,98.11315865919309L138.82769315083823,98.09204488505361L138.8586469285753,98.27554345410792L139.04436959499782,98.33803071963094L139.106277150472,98.39445179672416L139.3229535946316,98.46993051748683L139.4158149278429,98.6366224628513L139.75630648295086,98.81635202244873L140.1277518157959,98.77265234189139L140.40633581542968,98.84087112992174L140.68491981506347,98.82146253121323L140.87064248148602,98.85055476570585L141.1182727033827,98.96263812746412L141.3659029252794,99.10790575823869L141.45876425849067,99.2742105730141L141.6444869249132,99.34314530304665L141.67544070265026,99.44547633614208L142.01593225775824,99.6210040723221L142.04688603549533,99.70086242795468L142.4183313683404,99.74605464955343L142.82073047892254,99.84457187477639L142.8516842566596,100.03630094211408L142.88263803439668,100.13285851532432L142.9135918121338,100.26925738642565L143.346944700453,100.39289522023647L144.08983536614312,100.48556923793662L144.18269669935438,100.46935450782007L144.24460425482857,100.63258174942511L144.30651181030274,100.57230934466098L144.399373143514,100.72330655048513L144.52318825446235,100.8696239151566L144.61604958767361,100.65268178967901L144.6470033654107,100.78293631939239L145.20417136467827,100.91708625877976L145.51370914204915,100.91934122106005L145.8851544748942,100.86197420216301L146.03992336357965,100.99811685640299L146.0708771413167,101.05806086151847L146.50423002963595,101.16291608272216L146.9066291402181,101.26086409934096L146.9375829179552,100.94181132859958L146.99949047342935,101.08940477091843L147.03044425116644,101.24671956350873L147.1233055843777,101.373258499654L147.1542593621148,101.42066902886533L147.1852131398519,101.50770501629796L147.40188958401149,101.67362877139811L147.46379713948568,101.73090554163495L147.99001136101617,101.80521053785199L148.05191891649037,101.91345313063903L148.08287269422743,101.71817780874586L148.2066878051758,101.7386972933127L148.29954913838705,101.89574919243697L149.01148602634007,101.9823239755169L149.32102380371094,102.08474627023762L149.81628424750434,102.1434567391098L150.09486824713812,102.23627059605174L150.15677580261232,102.22532162695767L150.21868335808648,102.34929954418047L150.46631357998317,102.27862542022959L150.74489757961697,102.33634425938713L150.8377589128282,102.45627497370535L151.76637224494087,102.57576695485749L151.9520949113634,102.53076608740899L152.04495624457465,102.64535618769823L152.168771355523,102.77074438298929L152.35449402194553,102.92723136693739L152.6640317993164,103.0070228070993L152.7259393547906,103.11653662012931L152.81880068800186,103.23497100899449L153.34501490953232,103.32823708282116L153.46883002048068,103.41613188675467L153.74741402011446,103.55001023615435L154.02599801974827,103.69079638456789L154.2117206861708,103.71170441415825L154.36648957485622,103.74428818980658L154.55221224127877,103.85749896315191L155.04747268507217,103.98776386081761L155.17128779602052,103.95659469896366L155.23319535149466,104.08203853464903L155.51177935112847,104.18353995541173L155.66654823981392,104.30001287021406L155.85227090623644,104.42940688083259L156.03799357265896,104.49657230200836L156.25467001681858,104.61426146906689L157.3999597930908,104.76642236270055L157.52377490403916,104.78794534800225L157.64759001498751,104.89370379229327L158.17380423651804,105.0264574583513L158.35952690294053,105.1361335857254L158.54524956936308,105.2603700056832L158.6381109025743,105.37538341795106L159.31909401279026,105.43895617504992L159.53577045694988,105.58916108616032L159.6286317901611,105.68136760147L159.96912334526908,105.72140347191173L160.27866112264,105.71700620459526L160.30961490037706,105.54526853693193L160.40247623358835,105.66600734358899L160.7429677886963,105.64681806358902L161.2072744547526,105.76126673869459L161.64062734307183,105.85345606747869L161.82635000949435,105.924605348546L161.88825756496854,105.87492304962365L162.10493400912816,105.947591482459L162.414471786499,106.02122734945813L162.5073331197103,105.11376541597645L162.60019445292156,105.12167851924025L162.63114823065862,105.24562414245761L162.75496334160698,105.31624093667165L163.0645011189779,105.47042636004484L163.46690022956,105.56970634995005L163.4978540072971,105.65999224003811L164.02406822882756,105.78331726312616L164.36455978393553,105.847923980253L164.64314378356931,105.96314197498326L164.79791267225477,106.04079196411378L164.95268156094022,106.1533866252817L165.13840422736274,106.12676261347757L165.41698822699652,106.26397620295634L165.94320244852702,106.35059008860566L166.43846289232042,106.48182981497125L166.53132422553168,106.5393833656136L167.02658466932508,106.63218051999213L167.2742148912218,106.34928129623896L167.39803000217015,106.40061027267163L167.4908913353814,106.29185908353216L167.58375266859267,106.43013861749138L167.61470644632976,106.29515111197952L167.86233666822645,106.37515424450842L167.9242442237006,106.46225655485266L168.26473577880859,106.5440223530832L168.5123660007053,106.6304026367783L168.85285755581327,106.54760742996737L168.9766726667616,106.09928766077486L169.22430288865831,106.06589099542462L169.93623977661133,106.19033441663845L170.12196244303385,106.31974477150656L170.2457775539822,106.43959429362658L170.7100842200385,106.54429368837148L170.89580688646106,106.64438044142284L170.9886682196723,106.54567678640659L171.05057577514648,106.671092330267L171.2672522193061,106.72137326967535L171.36011355251736,106.8041935891252L171.4839286634657,106.8791777477119L171.60774377441405,106.87286057142352L171.63869755215117,106.97481846306785L172.1958655514187,107.0535756844159L172.2577731068929,107.01246486257548L172.38158821784126,107.10447805318388L172.56731088426378,107.23294048369875L172.81494110616046,107.22673177732233L173.12447888353137,107.29859942104916L173.55783177185057,107.40551393009599L173.65069310506183,107.43452639537838L173.74355443827312,107.47784480629151L174.73407532585992,107.5373621462702L174.88884421454534,107.64100319727748L174.91979799228247,107.60782720074192L175.0436131032308,107.69582969848081L175.16742821417915,107.73247533799181L175.19838199191625,107.8198323760291L175.2912433251275,107.74412594120054L175.44601221381293,107.81113256999926L175.7865037689209,105.98042509846198L176.03413399081762,106.01837641323998L176.15794910176595,105.52620315873962L176.21985665724011,105.57667304706874L176.40557932366266,105.69082990300481L176.65320954555935,105.79860900584451L176.68416332329645,105.92814449030604L176.86988598971897,105.8504014436206L176.96274732293023,105.7426568386387L177.39610021124946,105.84352763099471L177.61277665540908,105.97201561534587L178.293759765625,105.62017370010241L178.51043620978461,105.75276879843044L178.69615887620716,105.86766112150022L178.81997398715546,105.92973904316712L178.8509277648926,105.87816097483118L179.25332687547473,105.77172576570027L179.68667976379396,105.88876782624595L179.7795410970052,106.02228377097568L179.87240243021648,106.12706065034058L179.93430998569065,106.18264373495946L179.9962175411648,106.26481747000923L180.4914779849582,106.27687381824892L180.5533855404324,106.2208822460067L180.61529309590657,106.28903477787222L180.64624687364366,106.37507126784527L180.67720065138076,106.47307610317978L180.89387709554035,106.56343480713404L180.92483087327747,106.68588599522127L181.48199887254503,106.7814837803611L182.10107442728676,106.80809060030512L182.50347353786893,106.66474804712026L182.90587264845107,106.7725368788576L182.96778020392523,106.87722961975143L183.5559019809299,106.68818310627715L183.67971709187825,106.74486848060371L183.89639353603786,106.55626833629341L184.02020864698622,106.44528197025592L184.17497753567164,106.44850507203958L185.13454464552137,106.58043452326986L185.44408242289225,106.60648994864466L185.47503620062935,106.73006180956031L186.46555708821614,106.78314759524464L187.20844775390626,106.75041263770936L187.5798930867513,106.81075416212862L187.6418006422255,106.82158695401452L187.79656953091092,106.90395393999351L188.10610730828176,107.01958132024717L188.19896864149305,106.81384192223527L188.22992241923012,106.92595381217761L188.47755264112686,106.83397772885301L188.53946019660103,106.66983629029558L188.69422908528645,106.63749976840315L189.8395188615587,106.15200984754487L189.96333397250706,106.13598575231427L190.08714908345542,106.11032814225418L190.303825527615,106.15326890405642L190.4276406385634,105.88141654973913L190.45859441630046,106.00433970533439L190.52050197177462,106.00149778931097L190.55145574951175,105.7979673202871L190.9229010823568,105.90396071969873L191.20148508199057,105.94116325286055L191.54197663709854,106.03738253587423L191.8824681922065,106.08710182858543L191.94437574768065,106.17928258841847L192.0991446363661,106.14423889026492L192.1610521918403,106.10064634885723L192.31582108052572,106.18297965278148L192.50154374694822,106.27171322685523L192.71822019110786,106.3728267804762L193.12061930169,106.4481889422983L193.5849259677463,106.21950502843558L193.6158797454834,106.27462198720548L193.73969485643175,106.39097996692034L193.8635099673801,106.48549174682992L193.95637130059134,106.60107285626465L194.60640063307022,106.6988345172841L194.82307707722984,106.74904110126838L194.884984632704,106.37501382370667L194.9468921881782,105.95479520336075L195.59692152065702,106.08336419070152L195.6278752983941,106.2002855797806L195.72073663160538,106.26916696766453L195.7826441870795,106.33021984580341L195.90645929802787,106.27473125765275L195.937413075765,106.29036580667622L196.09218196445042,106.350385888265L196.15408951992458,106.45849859451187L196.21599707539877,106.52667179510559L196.95888774108886,106.65474074542726L197.14461040751138,106.70600175830175L197.20651796298557,106.8250440264489L197.5779632958306,106.79853445671029L197.9184548509386,106.89242045389442L198.19703885057237,106.9767951142008L198.22799262830947,107.09367777551256L198.3518077392578,107.10918780458904L198.6613455166287,107.14533309647508L198.87802196078832,107.26487274680896L199.00183707173667,106.62929359541491L199.21851351589626,106.74145776474565L199.52805129326714,106.78174279854169L199.5899588487413,106.84426945287471L199.74472773742676,106.92871699527313L199.80663529290092,107.00999700932555L199.89949662611218,106.98479591809733L199.96140418158637,107.07878659737888L200.30189573669432,107.16822005661452L201.10669395785862,104.09002660999643L201.3543241797553,104.20451189046922L201.4471855129666,104.28949797012602L201.50909306844076,104.41538273258266L201.54004684617783,104.53003466131568L201.75672329033745,104.61355705721267L201.8805384012858,104.64701721046717L201.94244595676,104.65300370756715L202.03530728997123,104.60646692873696L202.62342906697592,104.68596123797492L202.84010551113553,104.65063518452992L202.99487439982096,104.71968588988766L203.30441217719184,104.8008796107563L203.6758575100369,104.81905157850183L204.44970195346409,104.7104141129828L205.6568992852105,104.6872244060282L205.96643706258138,104.56149392003594L206.3997899509006,104.68719299164424L206.55455883958606,104.7331211767804L207.01886550564234,104.77862123564546L207.60698728264703,104.80680276388537L207.82366372680664,104.87556338997437L207.9165250600179,104.9821179031885L208.1332015041775,105.0211279357365L208.34987794833714,105.09702233283195L208.4427392815484,104.96848837949295L208.65941572570802,104.9614132210778L208.96895350307886,104.88000445856426L209.03086105855306,104.98754552025706L209.12372239176435,105.09915124865945L209.1546761695014,104.86533339951826L209.1856299472385,104.67317353588031L209.21658372497558,104.75019081717721L209.4332601691352,104.45137157283554L209.6499366132948,104.30635158417415L209.9285206129286,104.34746248473581L210.1761508348253,103.94271694986188L210.79522638956706,104.04491204552902L211.50716327752008,104.16833806268191L212.03337749905054,104.27245860914903L212.55959172058107,104.28789092126506L212.6524530537923,104.4071191151989L212.9619908311632,103.98979486751544L212.99294460890027,104.04974395848612L213.05485216437447,104.00170315580759L213.4572512749566,104.0024733913225L214.26204949612088,104.05624889289356L215.09780149502222,104.11751201506041L215.25257038370768,104.14037788169645L215.34543171691894,104.23920601325867L215.59306193881562,104.32814875775311L215.77878460523817,103.99852789358808L216.11927616034615,104.08514235810237L216.39786015997993,104.17020573314187L216.61453660413954,104.28566312167021L216.80025927056207,104.17928476506772L216.9240743815104,104.05938922545778L216.9859819369846,104.15937796402775L217.01693571472168,104.25269902369453L217.94554904683432,104.28515749213884L218.06936415778267,104.32127540080106L218.10031793551974,104.40127498400295L218.34794815741645,104.50772735097864L219.05988504536947,104.53311617496003L219.12179260084363,104.60330960892553L219.15274637858073,104.71289097204365L219.49323793368868,104.7571816629293L219.58609926689996,104.84676517909315L220.0194521552192,104.85417275048788L220.14326726616756,104.9293219333607L220.2051748216417,105.00820910090086L220.57662015448676,104.99615980463697L220.82425037638345,105.10087495101634L220.97901926506893,105.17953201290855L221.04092682054306,105.30441288182104L221.10283437601726,105.17913167303375L221.90763259718153,105.1312068202892L222.8052921515571,105.24574586212749L223.05292237345375,105.29305296058078L223.2386450398763,104.86353835788823L223.54818281724718,104.87496645922624L223.67199792819554,104.97501096741277L223.7958130391439,104.99176425014771L223.91962815009225,105.06435937185826L224.01248948330348,105.16857425800065L224.07439703877768,105.19161667730367L224.2291659274631,104.96189279976002L224.4767961493598,105.00932983267232L225.0339641486274,104.87771628796513L225.34350192599825,104.9526394077145L225.40540948147245,104.82083981401858L225.62208592563206,104.88051576924137L225.86971614752878,104.92681307580536L225.90066992526584,105.04737866957758L225.9935312584771,105.10573037596998L226.42688414679634,105.09062914690746L226.86023703511557,104.99423738721595L226.98405214606393,104.88676815637339L227.015005923801,104.90209650984623L227.04595970153807,104.95695452806328L227.4483588121202,105.01817166126965L227.63408147854275,105.0878696651879L227.78885036722818,105.19993358387951L227.8198041449653,105.31186605776736L227.88171170043944,105.38840830049469L227.97457303365073,105.48378013294406L228.0364805891249,105.33484972362297L228.12934192233615,105.44467887599633L228.46983347744413,105.53467524775769L229.27463169860837,105.40047788034603L229.83179969787597,105.30230400902728L230.2961063639323,105.39029335062283L230.38896769714356,105.47129795801744L230.41992147488065,105.557138987684L230.60564414130315,105.62893734954908L230.91518191867405,105.69685660594448L231.34853480699326,105.7220199294968L231.7818876953125,105.65239721577028L231.90570280626085,105.72831385385186L231.9985641394721,105.45938216376204L232.0295179172092,105.52451115325563L232.86526991611058,105.52749376598472L233.0509925825331,105.62304140249832L233.14385391574436,105.71746032905625L233.42243791537814,105.82580545871802L233.6081605818007,105.71928866597518L233.7629294704861,105.80951280026005L233.79388324822318,105.79751088281225L233.8248370259603,105.40053238475232L233.88674458143447,105.32148039259457L234.16532858106822,105.23237640621586L234.2581899142795,105.30346460844756L234.3200974697537,105.13321389027716L234.8153579135471,105.19644120538358L234.87726546902127,105.24705381294041L234.97012680223253,105.15552419208127L235.12489569091795,105.21973151419756L235.2487108018663,105.26777321135754L235.7439712456597,105.35186569524168L235.77492502339683,105.39331881132931L235.89874013434516,105.47892009859146L236.17732413397894,105.49016527022718L236.7963996887207,105.58388555719277L237.16784502156577,105.69826220659296L237.44642902119955,105.77751213273683L237.5392903544108,105.84149192586513L238.2821810201009,105.78369939300204L238.62267257520887,105.87651609268461L238.83934901936848,105.88399272294748L238.93221035257974,105.98295339224303L238.99411790805394,106.09074140539619L239.05602546352813,106.12509975988125L239.11793301900227,106.17556008906959L239.30365568542481,106.00768964318532L239.42747079637317,106.06650965039309L239.92273124016657,106.15955423567355L240.26322279527452,106.25040366575966L240.3251303507487,106.04586535015756L240.72752946133085,105.93178592751106L240.8203907945421,106.03471642772514L241.00611346096463,106.10356872155569L241.53232768249512,106.09406003561699L241.65614279344348,106.10152229131013L241.84186545986597,106.19190533332633L242.12044945949978,106.27361551391326L242.15140323723688,106.31139373595089L242.42998723687066,106.35779570468503L242.52284857008192,106.33756015379906L242.6157099032932,106.34658267281064L242.77047879197863,106.2986029036895L242.8323863474528,106.39960349707259L243.01810901387532,106.49401153018484L243.2966930135091,106.58803781598006L243.51336945766872,106.68221871073479L243.63718456861707,106.79282320270202L243.7919534573025,106.87363146623372L244.31816767883302,106.80405880017294L244.99915078904894,106.58771595440616L245.06105834452313,106.65077710908857L245.15391967773436,106.60303521508322L245.49441123284234,106.5302127428597L245.71108767700196,106.55447974261332L245.92776412116157,106.61147066416899L246.3920707872179,106.69474268849221L246.85637745327418,106.76630000183013L246.8873312310113,106.8419062700939L247.0730538974338,106.8306190774069L247.3825916748047,106.92292474507771L247.53736056349013,106.99664592699001L247.5992681189643,107.09460525991919L247.69212945217555,107.20199964803031L248.03262100728352,107.26892418923802L248.21834367370604,107.3185446693389L248.52788145107692,107.35824201746166L248.55883522881402,107.17285514302222L248.6207427842882,107.27063085804804L249.02314189487032,107.3217992627393L249.23981833902997,107.39704052475135L249.3017258945041,107.42305781985029L249.33267967224123,107.43452170829485L250.13747789340547,107.51326958988628L250.3541543375651,107.614721749673L251.06609122551814,107.69369214846236L251.28276766967775,107.7495221668966L251.37562900288899,107.84380916811952L251.56135166931153,107.94515914156517L252.73759522332085,107.9907360322224L253.139994333903,108.00480229493498L253.1709481116401,107.8532165697422L253.23285566711428,107.88780140076506L253.41857833353677,107.91636964783395L253.51143966674806,107.29175991059539L254.00670011054146,107.23993678754009L254.06860766601562,107.32042051859567L254.3162378879123,107.42255766587695L254.62577566528321,107.4001704395335L255.3686663309733,107.45797019552889L255.49248144192165,107.54288976571065L255.74011166381837,107.57257429840824L255.8639267747667,107.54609413129438L256.1425107744005,107.6404305445569L256.1734645521376,107.69066544658662L256.73063255140517,107.17368090385172L257.00921655103895,107.11207846993983L257.19493921746147,107.17370379781039L257.84496854994035,107.2817864794597L257.99973743862574,107.2121497258128L258.12355254957413,107.28893526825601L258.1854601050483,107.20753774995367L258.58785921563043,107.28017714878048L258.64976677110457,107.35656681623354L258.7426281043159,107.39014441827526L258.8973969930013,107.22253742098971L259.02121210394967,107.3301347523946L259.23788854810925,107.40586486280772L259.3307498813205,107.46203690593975L259.5783801032172,107.51682195424776L259.82601032511394,107.59896822825043L260.568900990804,107.53366311284229L260.78557743496367,107.53427243280723L261.12606899007164,107.58625678734329L261.1570227678087,107.61730401643152L261.24988410102,107.70992864986928L261.34274543423123,107.80588035324148L261.8999134334988,107.77723132678298L262.0237285444472,107.71871529568969L262.1475436553955,107.7692789020638L262.20945121086964,107.85602972099984L262.27135876634384,107.83024370477057" fill="none"></path></g></g></g></g><g opacity="0.2"><g><g><g><path style="fill: none;" stroke="rgb(255, 112, 67)" stroke-width="2px" d="M31.108546625773112,176.7699367476402L31.54189951409234,176.83924310279156L31.78952973598904,176.82797365214063L31.820483513726128,176.91025656326332L32.22288262430827,176.85427170480352L32.43955906846788,176.8985675143928L32.47051284620497,176.72725995411434L32.903865734524196,176.78613495290824L32.934819512261285,176.62380451916493L33.058634623209635,176.90238091295592L33.182449734157984,176.92749390142092L33.36817240058051,176.84040579446065L33.52294128926595,176.8647971452669L33.73961773342557,176.6654321729358L34.04915551079644,176.90599948923102L34.17297062174479,176.95038104151112L34.296785732693145,176.83979594734288L34.730138621012365,176.70686706450414L34.85395373196072,176.85795783643317L34.88490750969781,176.8859901823952L34.94681506517198,176.66057325521797L35.00872262064616,176.880000385879L35.44207550896538,176.87211032527335L35.53493684217665,176.79100763199736L35.844474619547526,176.52831570274947L35.93733595275879,176.58248478637742L35.99924350823296,176.53682484480626L36.06115106370714,176.68483271934892L36.30878128560384,176.90273947599167L36.46355017428928,176.58072184758907L36.89690306260851,176.405772380567L37.26834839545356,175.67161615889256L37.330255950927736,175.42539951641572L37.577886172824435,173.07036248312102L38.073146616617834,171.16906175867612L38.53745328267416,154.31145179068312L38.568407060411246,172.21683806667943L38.970806170993384,158.92489630969965L39.001759948730474,167.75840196363282L39.37320528157552,175.29841699834014L39.46606661478678,144.8486885635399L39.71369683668348,155.30209912537873L39.80655816989475,165.62722667835214L39.96132705858019,140.4867261007937L40.11609594726562,141.83837425282786L40.51849505784776,111.78288009985249L40.76612527974447,171.52057991994246L40.82803283521864,-30.6934996733562L40.85898661295573,175.60376971424935L40.95184794616699,173.86892348815817L41.66378483412001,172.82616258196913L41.6947386118571,157.61088081118402L42.066183944702146,86.32252240343496L42.251906611124674,101.53176268500783L42.282860388861764,79.68908129471811L42.313814166598846,158.9314107945483L42.6852594994439,170.47193606872315L42.93288972134061,107.54869435935325L43.05670483228896,148.15390691878486L43.11861238776313,107.9758578722342L43.42815016513401,152.29137609369866L43.490057720608185,151.9056542500674L43.830549275716145,160.9477895444541L44.04722571987576,135.713455861817L44.48057860819499,149.21110457471514L44.51153238593207,34.175190558053146L44.57343994140625,166.06612839374424L44.79011638556586,54.136774565039104L45.25442305162218,144.365857254812L45.37823816257053,161.55001615867468L45.53300705125597,153.30481423695403L45.65682216220432,163.900048337793L45.68777593994141,-58.1490010877078L45.84254482862685,-120.75070860379492L45.87349860636393,150.68545603517362L46.05922127278646,-1311.4104323631836L46.771158160739475,175.48250245024238L46.833065716213646,167.03963317996744L46.864019493950735,142.78209514657362L46.894973271687824,102.68198787017332L46.987834604899085,165.58020135329713L47.04974216037326,164.04399063355328L47.48309504869249,34.84324629876801L47.51404882642957,153.21795443897201L47.57595638190375,163.58059202917354L47.63786393737794,122.54221962472343L47.69977149285211,149.94487737327177L47.82358660380046,115.15357819108681L47.885494159274636,56.58392148307303L48.07121682569716,88.94091549634891L48.195031936645506,147.01541070694736L48.380754603068034,145.0665289287764L48.44266215854221,-35.81252148219937L48.56647726949056,136.51524246636484L49.06173771328396,-19.552599347999603L49.24746037970649,78.38338920094839L49.37127549065484,140.61726366725702L49.43318304612901,140.96950467133217L49.990351045396594,131.58929780591393L50.26893504503038,141.75645602319491L50.42370393371582,-168.09580639656815L50.45465771145291,147.22486042624644L50.70228793334961,105.87714689790846L50.88801059977214,91.92197329647774L50.918964377509226,140.31117912656612L51.35231726582845,136.04922145551598L51.630901265462235,159.58409071613647L51.87853148735894,148.62498288509005L51.90948526509602,67.96970631720296L52.404745708889436,66.30090124160824L52.46665326436361,95.10241309554453L53.30240526326497,133.9547479947105L53.36431281873915,93.70600604214587L53.42622037421332,115.64804090749226L53.51908170742459,-218.95301446169833L53.61194304063585,-572.3996346423701L54.01434215121799,2.2357617071829736L54.63341770595975,143.60706282228296L54.97390926106771,156.72930923676546L55.0048630388048,127.7523993939867L55.19058570522732,-26.13981015986701L55.37630837164985,52.26315545699572L55.87156881544325,118.79918991615273L55.902522593180336,2.9247861520129845L55.964430148654515,124.28976809094775L56.33587548149956,34.8993491846777L56.7382745920817,24.99233263437054L56.98590481397841,136.17810567974084L57.078766147189675,114.56608530853669L57.5121190355089,128.28087296875196L57.666887924194334,122.03268433378048L57.790703035142684,97.14404025363729L57.94547192382812,150.75093049734403L58.40977858988444,30.519273790773696L58.7502701449924,134.32708224895634L58.874085255940756,108.63882437766961L59.7717448103163,126.08170101739165L59.83365236579048,107.42531336519482L60.14319014316135,130.82433036831276L60.359866587320965,40.79751445643933L60.79321947564019,151.54271530426752L61.907555474175346,-3775.0671038822475L62.000416807386614,71.49136220184573L62.062324362860785,143.68190622380462L62.40281591796875,120.1946424083228L62.61949236212836,157.7453012268437L62.74330747307671,125.0389773575489L62.80521502855089,90.44990803653081L63.08379902818468,140.5904278395684L63.671920805189345,146.34386897191155L64.10527369350856,138.2303042079037L64.13622747124566,72.8153017091563L64.19813502671984,90.7508901573949L64.32195013766818,90.80639182794516L64.60053413730198,131.52197750711366L64.97197947014702,125.17607028095767L65.09579458109538,136.0792453067553L65.15770213656955,37.66925382198906L65.25056346978081,93.20922284540575L65.312471025255,147.38775023501216L65.37437858072917,86.53853802731737L65.68391635810005,137.4643426554319L65.80773146904839,135.1220498056116L66.02440791320801,133.6131759263559L66.08631546868219,156.55133894273382L66.24108435736763,146.7918587957962L66.45776080152723,127.98289165086612L66.61252969021267,59.128813361386165L66.64348346794976,-795.7153208954624L67.0149288007948,107.37221128226338L67.3244665781657,121.43579877969387L67.38637413363986,125.0985345948659L67.41732791137696,94.32755724742628L67.63400435553658,-129.73476464862324L67.91258835517036,70.77313134771248L67.94354213290744,133.04466351817962L68.3149874657525,101.78863458423734L68.5626176876492,122.66940304233935L68.68643279859755,104.5364208249041L68.90310924275715,136.56732933914986L69.49123101976183,-1.3156068733815118L69.553138575236,85.12300283261447L69.70790746392144,133.05156694717527L69.73886124165854,107.42200140689897L69.80076879713269,134.93461564348775L69.89363013034396,134.76933415783162L70.01744524129232,149.38200531445443L70.20316790771484,67.95539317259318L70.3269830186632,134.6493336816153L70.48175190734864,67.55117604593079L70.66747457377116,127.39200242891707L70.91510479566786,101.67351766436173L71.16273501756456,143.1424604687296L71.41036523946127,147.63850186735897L71.68894923909505,-46.65939585387696L71.90562568325467,135.6356749431444L71.99848701646592,144.81324586333722L72.02944079420301,137.62950284325234L72.30802479383681,-2265.978748957794L72.61756257120769,149.23497124233916L73.08186923726399,143.03057112604677L73.20568434821234,144.8614986697511L73.54617590332032,159.8097772055046L73.5771296810574,26.164976823860343L73.70094479200574,137.6378170188151L74.84623456827799,53.88546654479387L75.49626390075684,63.57665732870055L75.52721767849393,159.26295074081963L76.0843856777615,86.88295004717247L76.11533945549859,150.13359834721757L76.20820078870985,2.007574109181405L76.610599899292,107.54919009833384L76.67250745476616,144.38420750782223L77.01299900987414,144.4929510175059L77.1058603430854,110.96590225984096L77.22967545403374,159.02551286439302L77.47730567593044,138.29465007282045L77.69398212009007,112.99755662631355L77.72493589782715,142.4613335677659L77.81779723103841,136.24408642852973L77.91065856424967,132.79538064440828L78.28210389709473,161.82572350225712L78.46782656351725,128.84834643459658L78.59164167446559,126.60610320393334L78.90117945183647,128.77479248180634L78.99404078504774,141.8326996236458L79.42739367336696,158.2530684699862L79.52025500657824,-420.2702096176654L79.67502389526366,133.9461701282006L79.76788522847494,152.85796355796094L80.04646922810872,158.38062369183757L80.3869607832167,163.49865006735536L80.54172967190212,139.98003076135126L80.6036372273763,141.46601099257782L81.3465278930664,128.26652818122852L81.59415811496311,36.5143718546974L81.65606567043729,147.74904111239255L81.96560344780816,-163.80694697509261L82.18227989196777,165.31550310675703L82.42991011386447,150.8250856654937L82.67754033576117,162.45409902924905L82.8942167799208,145.51965545231099L82.95612433539496,159.25329569679076L83.1418470018175,127.52598907296874L83.42043100145128,169.9326056784375L83.66806122334799,126.71803473716773L83.72996877882217,88.55096404992582L83.82283011203342,145.4156768380418L83.91569144524469,146.7904111324965L83.94664522298177,134.05670409941524L84.16332166714139,85.6665331604604L84.31809055582681,147.48350696555008L84.53476699998645,163.79200492757394L84.81335099962023,148.39643403049092L84.99907366604275,162.5849820308531L85.27765766567654,161.17413657964477L85.6181492207845,160.02894789156932L85.9276869981554,105.6512586849658L85.98959455362954,29.306717339527495L86.20627099778918,31.20309825012646L86.36103988647461,169.22709066100185L86.45390121968587,163.5270350793583L86.70153144158257,153.69925897711607L87.28965321858725,153.51726212232188L88.15635899522569,154.27481720739945L88.28017410617404,-4.582568946018L88.55875810580784,98.71630279967167L88.71352699449326,139.854345108315L88.77543454996744,109.4368111956694L89.4254638824463,153.6026267926337L89.76595543755425,-203.64670426867087L89.85881677076551,167.7344001543984L90.04453943718805,155.53436074851334L90.07549321492512,167.25878342998377L90.53979988098145,153.42683985964425L90.57075365871854,154.54365803871883L90.91124521382649,144.56494655679865L91.03506032477485,151.3313089981408L91.18982921346029,124.78329734140038L91.25173676893446,139.96333121367002L91.53032076856825,102.2959706926813L91.6541358795166,126.22102476621308L91.6850896572537,75.77820702448525L91.74699721272786,159.224136751858L91.77795099046494,160.82767831804L91.83985854593912,101.7822427156791L92.1803501010471,119.54519270083688L92.24225765652128,152.30313407303083L92.48988787841797,123.89734322344066L92.52084165615506,117.96565228466193L92.61370298936632,154.79214720273933L93.69708521016439,171.9441341629847L95.05905143059624,103.26279355030442L95.33763543023004,163.51645184319557L95.64717320760091,127.2164264486853L95.98766476270887,148.67592533916456L96.08052609592015,106.05547053780924L96.26624876234267,125.66994760346051L96.4210176510281,156.70060647717122L96.45197142876519,122.37591501819247L96.57578653971355,159.47841525062256L96.60674031745063,162.63818827170866L96.82341676161025,165.10867711238183L97.1948620944553,149.6997476319176L97.81393764919704,135.40413319629545L98.12347542656792,99.9258057097502L98.6806434258355,86.16196625955126L98.89731986999512,131.94056051657526L99.36162653605143,110.48068454804161L99.54734920247395,68.47534952976639L99.85688697984484,55.599130724313L100.1973785349528,140.67796268637505L100.29023986816406,144.87347814947884L100.4450087568495,137.10018809436576L100.84740786743164,105.43752662468546L101.59029853312174,115.90479150888609L102.33318919881185,149.66021772203453L102.67368075391983,146.67281551771794L102.76654208713107,139.79046070255572L102.92131097581652,161.06613931534145L103.16894119771322,134.4835010818797L103.4784789750841,73.51457845801042L103.78801675245496,-270.25794865976604L104.00469319661458,127.98364580697489L104.93330652872721,49.363557064251836L105.05712163967557,-2.779513535424485L105.08807541741265,140.712007824558L105.211890528361,122.25193280867461L106.2333651936849,105.87392986835357L106.38813408237033,152.2487399044585L106.54290297105577,162.81524355815378L106.94530208163792,70.14955499595817L107.19293230353462,75.25933707401418L107.28579363674588,147.0464787743373L107.90486919148762,109.37291360536278L108.15249941338433,50.04441763735895L108.30726830206977,142.517354709482L108.36917585754395,150.91320590620296L108.4620371907552,144.4303428759307L108.52394474622938,137.6183645376459L108.55489852396647,155.50590453995466L108.89539007907443,120.80414821113868L108.95729763454861,164.705050653441L109.01920519002277,45.45712334956852L109.2358816341824,97.05746524187816L109.29778918965657,106.83671825448573L109.54541941155327,-2387.981673131282L110.38117141045464,171.07118495292335L110.41212518819172,126.85929925135997L110.7526167432997,144.11423280543022L110.78357052103678,153.79656621042307L111.09310829840766,101.82371602784247L111.216923409356,98.20480037426319L111.43359985351563,33.22005975702541L111.65027629767525,112.30176587178039L112.05267540825737,158.96401749861468L112.30030563015407,171.85761551516552L112.33125940789117,155.4033485383452L112.54793585205078,155.4081279367618L112.64079718526204,161.3243085740308L112.67175096299913,56.16337661296484L112.70270474073622,142.61087270387884L112.79556607394748,169.00744664968704L113.38368785095214,133.03694264724788L113.63131807284886,150.6840268302402L113.66227185058592,150.98800184335414L113.7551331837972,163.39187237368247L113.97180962795682,-14.588796578270376L114.06467096116808,174.80818784009074L114.12657851664225,154.7219289404302L114.21943984985352,139.43715966087314L114.34325496080187,164.26392470490993L114.62183896043565,154.0509435932928L114.80756162685817,126.52814033850723L114.96233051554363,57.53807135377747L115.08614562649197,104.52460747047303L115.45759095933703,32.747725984902445L115.48854473707411,154.24019985986126L115.61235984802245,153.4763030075054L115.7671287367079,87.01458456797582L115.79808251444499,145.16884365316923L115.82903629218208,124.48976712670196L115.92189762539333,137.17761303025975L116.20048162502712,137.7026691703503L116.23143540276422,142.75856600336192L116.2623891805013,158.95869489684702L116.41715806918674,-59.92480140200678L116.57192695787218,170.60654304572793L116.66478829108345,153.9141829204774L116.81955717976888,169.45526573368343L116.97432606845432,160.73355647137424L117.19100251261393,156.09842732732113L117.56244784545898,90.37079547857525L118.0267545115153,10.728899041935165L118.39819984436035,147.57372091237949L118.70773762173123,154.33077242637876L118.83155273267958,155.29473687413508L119.0172753991021,148.74138397987815L119.23395184326172,100.15091867130832L119.5434896206326,140.12306991561763L119.57444339836968,146.03691952491408L120.16256517537435,165.06643777801708L120.19351895311144,154.64506566625357L120.47210295274523,61.935444873812685L120.5340105082194,70.81043834291131L121.3078549516466,153.63304090647478L121.40071628485785,171.6787865774873L121.49357761806912,141.0026796293896L121.80311539544,153.8753438808758L122.36028339470758,80.15570879474535L122.45314472791883,163.42357989161917L122.66982117207846,173.38046995882394L122.7626825052897,123.67677629381092L122.82459006076388,151.56869413637799L123.0103127271864,149.35336320377803L123.41271183776855,175.07855807890343L123.72224961513943,151.76154451055572L123.81511094835069,170.92999954601524L123.90797228156195,171.02491510243183L124.15560250345865,124.92962999559631L124.43418650309245,134.26619864617533L124.89849316914875,148.2530599887217L125.3008922797309,158.29425567747194L126.41522827826606,166.37753092161122L126.44618205600315,85.26808559172105L126.8176273888482,168.5984593537912L127.03430383300781,166.547631359326L127.06525761074491,144.61669854208083L127.09621138848198,81.77976024279451L127.28193405490451,114.24147647881045L127.40574916585285,164.76018711202948L127.52956427680121,170.91877422239625L127.5605180545383,132.00422078502947L127.5914718322754,141.8748664430001L127.74624072096083,157.734692940041L127.808148276435,156.5554367000521L128.3343624979655,168.3053714806566L129.20106827460395,30.038913266220334L129.35583716328938,150.51477415892043L129.63442116292316,123.0729820369097L129.72728249613445,154.89893017023115L129.7891900516086,168.56558038882193L130.00586649576823,163.69592781253527L130.16063538445366,-352.7489150298625L130.53208071729873,150.08272181587984L130.56303449503582,148.1594549763123L130.65589582824705,107.7031434209016L130.71780338372125,113.32433299562513L130.93447982788086,158.91500658072783L131.3059251607259,113.23923992698883L131.3678327162001,170.75257970683572L132.04881582641602,147.11333234016115L132.14167715962728,168.96028420533952L133.0702904917399,158.78596282347996L133.31792071363662,141.42792083526604L134.37034915669759,148.03100847905966L134.525118045383,-32.72613497015209L134.86560960049098,151.10324006106543L135.1441936001248,111.0701867556088L135.36087004428438,-35.64534142172397L135.42277759975858,160.75337152759573L135.51563893296984,139.4425231347376L135.57754648844403,117.194340442873L135.73231537712945,157.74979452058267L135.76326915486655,86.24690638743823L136.01089937676323,163.52732250249068L136.3513909318712,135.84495062641838L136.47520604281954,147.29886529055625L136.7847438201904,153.51944812027352L136.9085589311388,90.006147815438L137.03237404208713,166.28118088644229L137.28000426398384,131.33036911729687L137.43477315266927,119.29722828180115L137.8990798187256,121.41438180096861L138.11575626288518,143.59455332375148L138.3324327070448,149.07459704520898L138.76578559536404,148.3688836003356L138.79673937310113,109.09106489962187L138.82769315083823,90.07417480597655L138.8586469285753,168.07201290318196L139.04436959499782,122.14466860520429L139.106277150472,119.92483910504643L139.3229535946316,127.31935029916599L139.4158149278429,162.45230461235388L139.75630648295086,167.73404549007452L140.1277518157959,81.98901483079271L140.40633581542968,125.08345674650946L140.68491981506347,91.3433878941214L140.87064248148602,110.0775591019003L141.1182727033827,142.2855229025912L141.3659029252794,155.34627263284062L141.45876425849067,163.75859001075463L141.6444869249132,126.11459382613566L141.67544070265026,139.24917965848874L142.01593225775824,168.00310716256212L142.04688603549533,130.86075136192926L142.4183313683404,117.40709684664898L142.82073047892254,138.4048517934417L142.8516842566596,175.19679281461507L142.88263803439668,138.04339479076464L142.9135918121338,153.90503548152174L143.346944700453,149.0855797731566L144.08983536614312,137.0397580400138L144.18269669935438,94.06383993120949L144.24460425482857,165.2129326021455L144.30651181030274,76.68935417553303L144.399373143514,160.64699991798142L144.52318825446235,159.0242128680237L144.61604958767361,14.29741808170047L144.6470033654107,152.70989845424242L145.20417136467827,154.47751907536167L145.51370914204915,101.82100528490605L145.8851544748942,77.88895812745659L146.03992336357965,155.5988635095436L146.0708771413167,125.13477100481941L146.50423002963595,143.34100129354624L146.9066291402181,140.71897190247148L146.9375829179552,-27.77798489504403L146.99949047342935,160.72293368156943L147.03044425116644,164.9016507128868L147.1233055843777,152.65043878257586L147.1542593621148,120.6609165624809L147.1852131398519,136.88047288649523L147.40188958401149,169.20592616635847L147.46379713948568,125.07691721102083L147.99001136101617,132.13587112728965L148.05191891649037,146.1610995026423L148.08287269422743,21.777845060211348L148.2066878051758,110.15090737575179L148.29954913838705,166.37357819431386L149.01148602634007,137.57664071908277L149.32102380371094,144.25481172315995L149.81628424750434,126.35064468818041L150.09486824713812,140.5592384743428L150.15677580261232,97.69806020735973L150.21868335808648,153.68520424963447L150.46631357998317,72.97304163372473L150.74489757961697,126.30364441376537L150.8377589128282,152.3265841089584L151.76637224494087,152.33332404956684L151.9520949113634,83.76577498013921L152.04495624457465,150.49517664773032L152.168771355523,155.20247009328233L152.35449402194553,168.45397187699777L152.6640317993164,136.46487485855505L152.7259393547906,149.10094768155489L152.81880068800186,153.03368193130416L153.34501490953232,142.59825509205905L153.46883002048068,140.4753557471538L153.74741402011446,160.07464553270557L154.02599801974827,163.21317033727257L154.2117206861708,112.56336838660127L154.36648957485622,117.55777512765349L154.55221224127877,151.91690330587164L155.04747268507217,159.36169508978844L155.17128779602052,90.68909682084632L155.23319535149466,157.55051404265936L155.51177935112847,147.50507161120572L155.66654823981392,154.0781301299411L155.85227090623644,159.8036978107187L156.03799357265896,133.27843345353176L156.25467001681858,155.11379873849359L157.3999597930908,170.14423612186928L157.52377490403916,114.04781657342505L157.64759001498751,150.45449440840832L158.17380423651804,162.2922336598129L158.35952690294053,152.50923755421093L158.54524956936308,158.99304327961914L158.6381109025743,155.18422927201516L159.31909401279026,133.00638086647643L159.53577045694988,170.80831144773734L159.6286317901611,145.76962392254484L159.96912334526908,123.15022766295965L160.27866112264,103.80026426018549L160.30961490037706,30.589162439398933L160.40247623358835,158.43122466613556L160.7429677886963,97.24994381182046L161.2072744547526,155.90614520713444L161.64062734307183,146.2972642339172L161.82635000949435,137.1779294593963L161.88825756496854,84.0234643213048L162.10493400912816,137.94953399813653L162.414471786499,138.49034567231763L162.5073331197103,-295.53038436580755L162.60019445292156,108.61972260546008L162.63114823065862,160.10570700782182L162.75496334160698,136.61152130497806L163.0645011189779,173.8865591387017L163.46690022956,149.67797994423267L163.4978540072971,145.82243594543445L164.02406822882756,160.71110977950048L164.36455978393553,134.6589082999053L164.64314378356931,157.40764892441808L164.79791267225477,140.75419310227858L164.95268156094022,156.5509381324942L165.13840422736274,94.19513165378157L165.41698822699652,167.83224268032805L165.94320244852702,145.26223771282093L166.43846289232042,165.51397009810847L166.53132422553168,132.45880288259218L167.02658466932508,148.47457884267055L167.2742148912218,-21.36552734765337L167.39803000217015,129.60117354099225L167.4908913353814,57.07711848293229L167.58375266859267,169.08332965276773L167.61470644632976,45.05985711627227L167.86233666822645,142.71114646034096L167.9242442237006,146.0700232864158L168.26473577880859,143.76963620191214L168.5123660007053,146.00382631105026L168.85285755581327,68.76334223457525L168.9766726667616,-98.73835791048896L169.22430288865831,90.78882473704789L169.93623977661133,163.18348269199083L170.12196244303385,165.65768430119948L170.2457775539822,161.45842442664656L170.7100842200385,154.66474755854676L170.89580688646106,152.6988234344633L170.9886682196723,61.074472836183304L171.05057577514648,164.51555179120118L171.2672522193061,129.93910931118603L171.36011355251736,145.09181425369593L171.4839286634657,141.58440559092617L171.60774377441405,103.94566872224755L171.63869755215117,154.27368861014577L172.1958655514187,143.6316599138305L172.2577731068929,87.89693666759786L172.38158821784126,149.93750193748076L172.56731088426378,167.10196906063973L172.81494110616046,104.32989807511808L173.12447888353137,140.8685848720496L173.55783177185057,157.40305410966448L173.65069310506183,121.01734234188689L173.74355443827312,127.78129464797235L174.73407532585992,135.46485331068925L174.88884421454534,156.32769473975117L174.91979799228247,92.00542620742294L175.0436131032308,149.12921535108637L175.16742821417915,125.0053514879719L175.19838199191625,149.04155656953458L175.2912433251275,71.98013974143123L175.44601221381293,139.5005852443844L175.7865037689209,-760.7793503120483L176.03413399081762,124.00660620429016L176.15794910176595,-128.01332685998295L176.21985665724011,129.55144670218397L176.40557932366266,159.97871740305203L176.65320954555935,157.10993920820778L176.68416332329645,167.66496043961064L176.86988598971897,68.75733008098086L176.96274732293023,54.278893437900024L177.39610021124946,154.07663236536143L177.61277665540908,167.47767658132665L178.293759765625,-62.98540948706341L178.51043620978461,169.36236873146706L178.69615887620716,161.04440195211544L178.81997398715546,135.77470335810506L178.8509277648926,81.05444137600261L179.25332687547473,54.491016983402915L179.68667976379396,162.3404139512163L179.7795410970052,170.48858749280654L179.87240243021648,156.77119126989686L179.93430998569065,133.07750886255315L179.9962175411648,146.0683725810868L180.4914779849582,112.12296758817479L180.5533855404324,79.0419204246532L180.61529309590657,139.40607049820744L180.64624687364366,148.2265168579844L180.67720065138076,154.19661702012093L180.89387709554035,150.60995340628415L180.92483087327747,166.43893926937702L181.48199887254503,153.47961496580126L182.10107442728676,119.81871932028662L182.50347353786893,36.497706586839286L182.90587264845107,159.59073572800395L182.96778020392523,158.2315829316147L183.5559019809299,13.860113014993203L183.67971709187825,134.60805022693387L183.89639353603786,13.7558707097769L184.02020864698622,51.77835437689282L184.17497753567164,108.03769339933433L185.13454464552137,171.69655374389072L185.44408242289225,119.47977625067483L185.47503620062935,167.84599614090257L186.46555708821614,133.06499145329326L187.20844775390626,90.52741207970894L187.5798930867513,136.74557123485704L187.6418006422255,112.20107284671235L187.79656953091092,147.8481836346915L188.10610730828176,164.55542581777024L188.19896864149305,4.335363956909987L188.22992241923012,162.8248709146332L188.47755264112686,60.92873612352787L188.53946019660103,24.66482847804491L188.69422908528645,90.4660353748568L189.8395188615587,-136.88325746289684L189.96333397250706,98.10636981752145L190.08714908345542,93.2406178895701L190.303825527615,127.7134680625536L190.4276406385634,-30.748473962012213L190.45859441630046,167.84513518996022L190.52050197177462,104.57036312361765L190.55145574951175,3.2030750299677493L190.9229010823568,159.38518336090334L191.20148508199057,124.7308861287504L191.54197663709854,154.68196657739384L191.8824681922065,131.2477020053741L191.94437574768065,152.87307832304998L192.0991446363661,88.37573614174426L192.1610521918403,83.97610542720167L192.31582108052572,148.01010042386235L192.50154374694822,151.39387758607393L192.71822019110786,157.8399649584058L193.12061930169,144.84470946714782L193.5849259677463,-10.405371345092135L193.6158797454834,134.41027937968283L193.73969485643175,165.84530041007685L193.8635099673801,154.8233945799733L193.95637130059134,165.77120325393554L194.60640063307022,156.79416402521014L194.82307707722984,132.5004818736943L194.884984632704,-85.64899243865784L194.9468921881782,-109.98770904857793L195.59692152065702,172.21493784379172L195.6278752983941,166.397389486839L195.72073663160538,141.76617303459636L195.7826441870795,137.82244814617104L195.90645929802787,77.62585784805606L195.937413075765,114.37006273226507L196.09218196445042,137.39679294550763L196.15408951992458,162.43371440058178L196.21599707539877,141.85606791537975L196.95888774108886,173.08548153318793L197.14461040751138,133.32026011156427L197.20651796298557,168.68784003722772L197.5779632958306,93.00957715552067L197.9184548509386,155.77219547981537L198.19703885057237,150.94505449879637L198.22799262830947,168.05795422033614L198.3518077392578,115.20639548779536L198.6613455166287,126.03268087032166L198.87802196078832,169.78603438393444L199.00183707173667,-226.09136044832667L199.21851351589626,165.51184738598414L199.52805129326714,127.90893161401732L199.5899588487413,139.6655845807271L199.74472773742676,151.29671801969732L199.80663529290092,149.75230123767903L199.89949662611218,93.72050377041865L199.96140418158637,156.5940792898981L200.30189573669432,154.3249501302663L201.10669395785862,-1520.440651008299L201.3543241797553,164.6785932222615L201.4471855129666,149.22134896801083L201.50909306844076,171.02943212835604L201.54004684617783,165.2539075384188L201.75672329033745,148.88928823211893L201.8805384012858,122.40013766859511L201.94244595676,107.83209356786324L202.03530728997123,79.87163981122967L202.62342906697592,146.97525321261014L202.84010551113553,85.84142354422966L202.99487439982096,141.51766541220957L203.30441217719184,148.10786647941734L203.6758575100369,114.52005014298811L204.44970195346409,46.66440598187228L205.6568992852105,92.28597227988507L205.96643706258138,37.26573283942707L206.3997899509006,172.02443431904337L206.55455883958606,129.35821924995184L207.01886550564234,129.19523187553568L207.60698728264703,119.94283337527804L207.82366372680664,141.83800244859242L207.9165250600179,162.3099207300911L208.1332015041775,126.02704843169113L208.34987794833714,145.9991958980188L208.4427392815484,35.63786314646359L208.65941572570802,101.14185342913629L208.96895350307886,60.89369687047429L209.03086105855306,163.1428320955825L209.12372239176435,165.50364000525497L209.1546761695014,-21.791187822135726L209.1856299472385,0.49444162112968115L209.21658372497558,146.53999966147148L209.4332601691352,-57.82523079519342L209.6499366132948,25.485761682263274L209.9285206129286,126.71059337863994L210.1761508348253,-116.41122052047194L210.79522638956706,159.7290205344937L211.50716327752008,171.47681051885706L212.03337749905054,161.10022664407592L212.55959172058107,112.71765923358134L212.6524530537923,169.5884804224874L212.9619908311632,-124.34770626584941L212.99294460890027,136.87776741737775L213.05485216437447,77.67295305121206L213.4572512749566,104.42494811391771L214.26204949612088,133.57637521777554L215.09780149502222,137.7755480743159L215.25257038370768,116.71319411929721L215.34543171691894,158.6243268651678L215.59306193881562,153.31324971035247L215.77878460523817,-77.68748769621743L216.11927616034615,151.86555740464803L216.39786015997993,151.13302395354287L216.61453660413954,168.08037520234257L216.80025927056207,45.35359828372839L216.9240743815104,37.705421672296325L216.9859819369846,159.5408467192632L217.01693571472168,155.9826327217114L217.94554904683432,122.29204020173188L218.06936415778267,124.37433905150874L218.10031793551974,148.85343417403874L218.34794815741645,163.70570019903562L219.05988504536947,118.66304100633465L219.12179260084363,143.69990049403623L219.15274637858073,165.7963488226531L219.49323793368868,129.46550454869794L219.58609926689996,154.86198706853935L220.0194521552192,108.99314590331755L220.14326726616756,146.9519376590656L220.2051748216417,149.15576111873315L220.57662015448676,98.24772926045466L220.82425037638345,163.79448625938636L220.97901926506893,149.30188545708086L221.04092682054306,175.41052421566803L221.10283437601726,34.79345090031347L221.90763259718153,78.18504087052315L222.8052921515571,169.69634386363506L223.05292237345375,131.93318244387478L223.2386450398763,-137.1969864041448L223.54818281724718,111.32045055970343L223.67199792819554,161.4439385644664L223.7958130391439,114.4552349081855L223.91962815009225,146.1028712676988L224.01248948330348,164.12714952909243L224.07439703877768,118.23762840134259L224.2291659274631,-25.201154769215464L224.4767961493598,131.9079735893299L225.0339641486274,30.190862537589965L225.34350192599825,147.50165945034996L225.40540948147245,29.91471483012583L225.62208592563206,138.8220609730688L225.86971614752878,131.27898102552172L225.90066992526584,173.72446007316364L225.9935312584771,138.3693299859549L226.42688414679634,96.47564171469116L226.86023703511557,49.963116444542266L226.98405214606393,43.48539011391995L227.015005923801,113.66634015404247L227.04595970153807,136.34638533146574L227.4483588121202,140.07237796794288L227.63408147854275,145.02811706850912L227.78885036722818,169.4655846196717L227.8198041449653,169.54976729531305L227.88171170043944,149.34844009379526L227.97457303365073,160.2985956171869L228.0364805891249,19.674139779347115L228.12934192233615,168.6619607484498L228.46983347744413,157.37438167452916L229.27463169860837,28.04335291658981L229.83179969787597,48.66918496701419L230.2961063639323,156.1854519321451L230.38896769714356,152.26841652293274L230.41992147488065,155.1844679123223L230.60564414130315,147.16798756277115L230.91518191867405,145.0202010662765L231.34853480699326,120.30144778954514L231.7818876953125,65.28434099753895L231.90570280626085,149.7774837231292L231.9985641394721,-50.695681538561075L232.0295179172092,143.36887606356652L232.86526991611058,107.26184079943596L233.0509925825331,161.22253046071535L233.14385391574436,160.69953111001234L233.42243791537814,168.96253414834584L233.6081605818007,43.603660777523146L233.7629294704861,158.4615412143262L233.79388324822318,98.78857521445889L233.8248370259603,-126.5935726101261L233.88674458143447,59.09074693625962L234.16532858106822,53.086187641153174L234.2581899142795,146.93571802890813L234.3200974697537,5.356828852595754L234.8153579135471,142.27727201285575L234.87726546902127,134.9506348685254L234.97012680223253,51.40080167880342L235.12489569091795,142.95468878219344L235.2487108018663,133.52187293591487L235.7439712456597,154.84256886719328L235.77492502339683,129.80661515789507L235.89874013434516,155.92783378753523L236.17732413397894,112.1220868604114L236.7963996887207,160.8944593688534L237.16784502156577,173.24629016115352L237.44642902119955,152.61293138225722L237.5392903544108,143.67861536078453L238.2821810201009,71.58211407820727L238.62267257520887,160.8431767534571L238.83934901936848,110.31474383501768L238.93221035257974,164.66858615081821L238.99411790805394,170.05492333885167L239.05602546352813,126.52816670760194L239.11793301900227,136.1609288514453L239.30365568542481,6.184997736403147L239.42747079637317,141.06709669086206L239.92273124016657,161.56291196444369L240.26322279527452,160.38331951849722L240.3251303507487,-15.91138598793168L240.72752946133085,37.86527112444173L240.8203907945421,167.49053942572726L241.00611346096463,147.24028634665308L241.53232768249512,100.40915121582498L241.65614279344348,110.56593583124618L241.84186545986597,160.30122197902023L242.12044945949978,155.22349021713217L242.15140323723688,128.95818953552975L242.42998723687066,134.1927818126776L242.52284857008192,94.19085458661925L242.6157099032932,111.76608826033976L242.77047879197863,77.45975364664491L242.8323863474528,167.1474840957951L243.01810901387532,163.31425758030656L243.2966930135091,163.21586789566163L243.51336945766872,163.44052862724544L243.63718456861707,173.49268561905387L243.7919534573025,155.63692202394174L244.31816767883302,64.79330626344608L244.99915078904894,-24.134219006607964L245.06105834452313,144.77943277318775L245.15391967773436,77.71803365553205L245.49441123284234,62.44216394544037L245.71108767700196,121.25571368426631L245.92776412116157,141.15964957639244L246.3920707872179,157.20736510244097L246.85637745327418,150.2008843661947L246.8873312310113,152.7638047945626L247.0730538974338,99.97055933729575L247.3825916748047,163.0600014952725L247.53736056349013,151.86010163895207L247.5992681189643,166.74657694974647L247.69212945217555,172.6413027027166L248.03262100728352,148.07455703897688L248.21834367370604,137.59275750977088L248.52788145107692,131.59363815890356L248.55883522881402,-6.078624808334098L248.6207427842882,167.039044489928L249.02314189487032,138.61989967154818L249.23981833902997,153.44889233355207L249.3017258945041,123.35716177062318L249.33267967224123,114.45992860704428L250.13747789340547,155.8026900193953L250.3541543375651,169.86589582417983L251.06609122551814,156.18046421788029L251.28276766967775,142.04990449369973L251.37562900288899,165.8073381428744L251.56135166931153,170.28963794702187L252.73759522332085,136.04442491718783L253.139994333903,116.66832446773492L253.1709481116401,14.43230127497236L253.23285566711428,129.21535676862004L253.41857833353677,125.54457837956079L253.51143966674806,-278.366002282979L254.00670011054146,75.22259965126113L254.06860766601562,157.07551962887993L254.3162378879123,170.60270766090204L254.62577566528321,93.54332982304732L255.3686663309733,143.2557842901648L255.49248144192165,160.16938309773286L255.74011166381837,125.97997959762984L255.8639267747667,91.11568548746254L256.1425107744005,166.20997707921828L256.1734645521376,138.89841796062694L256.73063255140517,-214.19126224329193L257.00921655103895,68.79588169745011L257.19493921746147,145.52737368633325L257.84496854994035,174.58976257537216L257.99973743862574,63.81999133470481L258.12355254957413,155.16451969217252L258.1854601050483,56.425833486454394L258.58785921563043,152.62517718984157L258.64976677110457,155.0712917578175L258.7426281043159,128.3760495792062L258.8973969930013,2.405958392093453L259.02121210394967,174.65860206364152L259.23788854810925,154.82185198793263L259.3307498813205,142.65331112490867L259.5783801032172,141.8595644573386L259.82601032511394,159.12403175760204L260.568900990804,66.54769487283875L260.78557743496367,107.91691239791453L261.12606899007164,140.25061195292164L261.1570227678087,127.13732971218656L261.24988410102,165.97922047216437L261.34274543423123,168.20369422912842L261.8999134334988,89.73321186370981L262.0237285444472,70.84195468491134L262.1475436553955,139.65307508219564L262.20945121086964,162.59028881116393L262.27135876634384,91.55141368230602" fill="none"></path></g></g></g></g></g></g><g transform="translate(51, 176)" clip-path="url(#clip_1)"><clipPath id="clip_1"><rect width="278" height="23"></rect></clipPath><g><g><line x1="0" y1="0" x2="0" y2="5" style="visibility: inherit;" fill="rgb(0, 0, 0)" stroke="rgb(204, 204, 204)" stroke-width="1px"></line><line x1="30.953777737087673" y1="0" x2="30.953777737087673" y2="5" style="visibility: inherit;" fill="rgb(0, 0, 0)" stroke="rgb(204, 204, 204)" stroke-width="1px"></line><line x1="61.907555474175346" y1="0" x2="61.907555474175346" y2="5" style="visibility: inherit;" fill="rgb(0, 0, 0)" stroke="rgb(204, 204, 204)" stroke-width="1px"></line><line x1="92.86133321126302" y1="0" x2="92.86133321126302" y2="5" style="visibility: inherit;" fill="rgb(0, 0, 0)" stroke="rgb(204, 204, 204)" stroke-width="1px"></line><line x1="123.81511094835069" y1="0" x2="123.81511094835069" y2="5" style="visibility: inherit;" fill="rgb(0, 0, 0)" stroke="rgb(204, 204, 204)" stroke-width="1px"></line><line x1="154.76888868543838" y1="0" x2="154.76888868543838" y2="5" style="visibility: inherit;" fill="rgb(0, 0, 0)" stroke="rgb(204, 204, 204)" stroke-width="1px"></line><line x1="185.72266642252603" y1="0" x2="185.72266642252603" y2="5" style="visibility: inherit;" fill="rgb(0, 0, 0)" stroke="rgb(204, 204, 204)" stroke-width="1px"></line><line x1="216.6764441596137" y1="0" x2="216.6764441596137" y2="5" style="visibility: inherit;" fill="rgb(0, 0, 0)" stroke="rgb(204, 204, 204)" stroke-width="1px"></line><line x1="247.63022189670139" y1="0" x2="247.63022189670139" y2="5" style="visibility: inherit;" fill="rgb(0, 0, 0)" stroke="rgb(204, 204, 204)" stroke-width="1px"></line><line x1="278.58399963378906" y1="0" x2="278.58399963378906" y2="5" style="visibility: inherit;" fill="rgb(0, 0, 0)" stroke="rgb(204, 204, 204)" stroke-width="1px"></line></g><g transform="translate(0, 8)"><text style="text-anchor: middle; visibility: hidden; font-family: Roboto, sans-serif; font-size: 12px; font-weight: 200;" x="0" y="0" dx="0em" dy="0.95em" fill="rgb(33, 33, 33)" stroke="none" stroke-width="1px">-1k</text><text style="text-anchor: middle; visibility: inherit; font-family: Roboto, sans-serif; font-size: 12px; font-weight: 200;" x="30.953777737087673" y="0" dx="0em" dy="0.95em" fill="rgb(33, 33, 33)" stroke="none" stroke-width="1px">0</text><text style="text-anchor: middle; visibility: inherit; font-family: Roboto, sans-serif; font-size: 12px; font-weight: 200;" x="61.907555474175346" y="0" dx="0em" dy="0.95em" fill="rgb(33, 33, 33)" stroke="none" stroke-width="1px">1k</text><text style="text-anchor: middle; visibility: inherit; font-family: Roboto, sans-serif; font-size: 12px; font-weight: 200;" x="92.86133321126302" y="0" dx="0em" dy="0.95em" fill="rgb(33, 33, 33)" stroke="none" stroke-width="1px">2k</text><text style="text-anchor: middle; visibility: inherit; font-family: Roboto, sans-serif; font-size: 12px; font-weight: 200;" x="123.81511094835069" y="0" dx="0em" dy="0.95em" fill="rgb(33, 33, 33)" stroke="none" stroke-width="1px">3k</text><text style="text-anchor: middle; visibility: inherit; font-family: Roboto, sans-serif; font-size: 12px; font-weight: 200;" x="154.76888868543838" y="0" dx="0em" dy="0.95em" fill="rgb(33, 33, 33)" stroke="none" stroke-width="1px">4k</text><text style="text-anchor: middle; visibility: inherit; font-family: Roboto, sans-serif; font-size: 12px; font-weight: 200;" x="185.72266642252603" y="0" dx="0em" dy="0.95em" fill="rgb(33, 33, 33)" stroke="none" stroke-width="1px">5k</text><text style="text-anchor: middle; visibility: inherit; font-family: Roboto, sans-serif; font-size: 12px; font-weight: 200;" x="216.6764441596137" y="0" dx="0em" dy="0.95em" fill="rgb(33, 33, 33)" stroke="none" stroke-width="1px">6k</text><text style="text-anchor: middle; visibility: inherit; font-family: Roboto, sans-serif; font-size: 12px; font-weight: 200;" x="247.63022189670139" y="0" dx="0em" dy="0.95em" fill="rgb(33, 33, 33)" stroke="none" stroke-width="1px">7k</text><text style="text-anchor: middle; visibility: hidden; font-family: Roboto, sans-serif; font-size: 12px; font-weight: 200;" x="278.58399963378906" y="0" dx="0em" dy="0.95em" fill="rgb(33, 33, 33)" stroke="none" stroke-width="1px">8k</text></g><line x1="0" y1="0" x2="278.58399963378906" y2="0" fill="rgb(0, 0, 0)" stroke="rgb(204, 204, 204)" stroke-width="1px"></line></g></g></g></g></svg>