<svg viewBox="0 0 330 200" xmlns="http://www.w3.org/2000/svg"><g><g><g><g><g><line x1="30.70800018310547" y1="176.95999908447266" x2="25.70800018310547" y2="176.95999908447266" style="visibility: inherit;" fill="rgb(0, 0, 0)" stroke="rgb(204, 204, 204)" stroke-width="1px"></line><line x1="30.70800018310547" y1="157.29777696397568" x2="25.70800018310547" y2="157.29777696397568" style="visibility: inherit;" fill="rgb(0, 0, 0)" stroke="rgb(204, 204, 204)" stroke-width="1px"></line><line x1="30.70800018310547" y1="137.63555484347873" x2="25.70800018310547" y2="137.63555484347873" style="visibility: inherit;" fill="rgb(0, 0, 0)" stroke="rgb(204, 204, 204)" stroke-width="1px"></line><line x1="30.70800018310547" y1="117.97333272298178" x2="25.70800018310547" y2="117.97333272298178" style="visibility: inherit;" fill="rgb(0, 0, 0)" stroke="rgb(204, 204, 204)" stroke-width="1px"></line><line x1="30.70800018310547" y1="98.31111060248482" x2="25.70800018310547" y2="98.31111060248482" style="visibility: inherit;" fill="rgb(0, 0, 0)" stroke="rgb(204, 204, 204)" stroke-width="1px"></line><line x1="30.70800018310547" y1="78.64888848198784" x2="25.70800018310547" y2="78.64888848198784" style="visibility: inherit;" fill="rgb(0, 0, 0)" stroke="rgb(204, 204, 204)" stroke-width="1px"></line><line x1="30.70800018310547" y1="58.98666636149089" x2="25.70800018310547" y2="58.98666636149089" style="visibility: inherit;" fill="rgb(0, 0, 0)" stroke="rgb(204, 204, 204)" stroke-width="1px"></line><line x1="30.70800018310547" y1="39.32444424099392" x2="25.70800018310547" y2="39.32444424099392" style="visibility: inherit;" fill="rgb(0, 0, 0)" stroke="rgb(204, 204, 204)" stroke-width="1px"></line><line x1="30.70800018310547" y1="19.66222212049697" x2="25.70800018310547" y2="19.66222212049697" style="visibility: inherit;" fill="rgb(0, 0, 0)" stroke="rgb(204, 204, 204)" stroke-width="1px"></line><line x1="30.70800018310547" y1="0" x2="25.70800018310547" y2="0" style="visibility: inherit;" fill="rgb(0, 0, 0)" stroke="rgb(204, 204, 204)" stroke-width="1px"></line></g><g transform="translate(20.70800018310547, 0)"><text style="text-anchor: end; visibility: hidden; font-family: Roboto, sans-serif; font-size: 12px; font-weight: 200;" x="0" y="176.95999908447266" dx="0em" dy="0.3em" fill="rgb(33, 33, 33)" stroke="none" stroke-width="1px">40</text><text style="text-anchor: end; visibility: inherit; font-family: Roboto, sans-serif; font-size: 12px; font-weight: 200;" x="0" y="157.29777696397568" dx="0em" dy="0.3em" fill="rgb(33, 33, 33)" stroke="none" stroke-width="1px">45</text><text style="text-anchor: end; visibility: hidden; font-family: Roboto, sans-serif; font-size: 12px; font-weight: 200;" x="0" y="137.63555484347873" dx="0em" dy="0.3em" fill="rgb(33, 33, 33)" stroke="none" stroke-width="1px">50</text><text style="text-anchor: end; visibility: inherit; font-family: Roboto, sans-serif; font-size: 12px; font-weight: 200;" x="0" y="117.97333272298178" dx="0em" dy="0.3em" fill="rgb(33, 33, 33)" stroke="none" stroke-width="1px">55</text><text style="text-anchor: end; visibility: hidden; font-family: Roboto, sans-serif; font-size: 12px; font-weight: 200;" x="0" y="98.31111060248482" dx="0em" dy="0.3em" fill="rgb(33, 33, 33)" stroke="none" stroke-width="1px">60</text><text style="text-anchor: end; visibility: inherit; font-family: Roboto, sans-serif; font-size: 12px; font-weight: 200;" x="0" y="78.64888848198784" dx="0em" dy="0.3em" fill="rgb(33, 33, 33)" stroke="none" stroke-width="1px">65</text><text style="text-anchor: end; visibility: hidden; font-family: Roboto, sans-serif; font-size: 12px; font-weight: 200;" x="0" y="58.98666636149089" dx="0em" dy="0.3em" fill="rgb(33, 33, 33)" stroke="none" stroke-width="1px">70</text><text style="text-anchor: end; visibility: inherit; font-family: Roboto, sans-serif; font-size: 12px; font-weight: 200;" x="0" y="39.32444424099392" dx="0em" dy="0.3em" fill="rgb(33, 33, 33)" stroke="none" stroke-width="1px">75</text><text style="text-anchor: end; visibility: hidden; font-family: Roboto, sans-serif; font-size: 12px; font-weight: 200;" x="0" y="19.66222212049697" dx="0em" dy="0.3em" fill="rgb(33, 33, 33)" stroke="none" stroke-width="1px">80</text><text style="text-anchor: end; visibility: hidden; font-family: Roboto, sans-serif; font-size: 12px; font-weight: 200;" x="0" y="0" dx="0em" dy="0.3em" fill="rgb(33, 33, 33)" stroke="none" stroke-width="1px">85</text></g><line x1="30.70800018310547" y1="0" x2="30.70800018310547" y2="176.95999908447266" fill="rgb(0, 0, 0)" stroke="rgb(204, 204, 204)" stroke-width="1px"></line></g></g><g transform="translate(30, 0)" clip-path="url(#clip_0)"><clipPath id="clip_0"><rect width="299" height="176"></rect></clipPath><g><g><g><line x1="0" y1="0" x2="0" y2="176.95999908447266" fill="rgb(0, 0, 0)" stroke="rgb(66, 66, 66)" stroke-width="1px" opacity="0.25"></line><line x1="33.25466664632161" y1="0" x2="33.25466664632161" y2="176.95999908447266" fill="rgb(0, 0, 0)" stroke="rgb(66, 66, 66)" stroke-width="1px" opacity="0.25"></line><line x1="66.50933329264322" y1="0" x2="66.50933329264322" y2="176.95999908447266" fill="rgb(0, 0, 0)" stroke="rgb(66, 66, 66)" stroke-width="1px" opacity="0.25"></line><line x1="99.76399993896484" y1="0" x2="99.76399993896484" y2="176.95999908447266" fill="rgb(0, 0, 0)" stroke="rgb(66, 66, 66)" stroke-width="1px" opacity="0.25"></line><line x1="133.01866658528644" y1="0" x2="133.01866658528644" y2="176.95999908447266" fill="rgb(0, 0, 0)" stroke="rgb(66, 66, 66)" stroke-width="1px" opacity="0.25"></line><line x1="166.2733332316081" y1="0" x2="166.2733332316081" y2="176.95999908447266" fill="rgb(0, 0, 0)" stroke="rgb(66, 66, 66)" stroke-width="1px" opacity="0.25"></line><line x1="199.5279998779297" y1="0" x2="199.5279998779297" y2="176.95999908447266" fill="rgb(0, 0, 0)" stroke="rgb(66, 66, 66)" stroke-width="1px" opacity="0.25"></line><line x1="232.7826665242513" y1="0" x2="232.7826665242513" y2="176.95999908447266" fill="rgb(0, 0, 0)" stroke="rgb(66, 66, 66)" stroke-width="1px" opacity="0.25"></line><line x1="266.0373331705729" y1="0" x2="266.0373331705729" y2="176.95999908447266" fill="rgb(0, 0, 0)" stroke="rgb(66, 66, 66)" stroke-width="1px" opacity="0.25"></line><line x1="299.29199981689453" y1="0" x2="299.29199981689453" y2="176.95999908447266" fill="rgb(0, 0, 0)" stroke="rgb(66, 66, 66)" stroke-width="1px" opacity="0.25"></line></g><g><line x1="0" y1="176.95999908447266" x2="299.29199981689453" y2="176.95999908447266" fill="rgb(0, 0, 0)" stroke="rgb(66, 66, 66)" stroke-width="1px" opacity="0.25"></line><line x1="0" y1="157.29777696397568" x2="299.29199981689453" y2="157.29777696397568" fill="rgb(0, 0, 0)" stroke="rgb(66, 66, 66)" stroke-width="1px" opacity="0.25"></line><line x1="0" y1="137.63555484347873" x2="299.29199981689453" y2="137.63555484347873" fill="rgb(0, 0, 0)" stroke="rgb(66, 66, 66)" stroke-width="1px" opacity="0.25"></line><line x1="0" y1="117.97333272298178" x2="299.29199981689453" y2="117.97333272298178" fill="rgb(0, 0, 0)" stroke="rgb(66, 66, 66)" stroke-width="1px" opacity="0.25"></line><line x1="0" y1="98.31111060248482" x2="299.29199981689453" y2="98.31111060248482" fill="rgb(0, 0, 0)" stroke="rgb(66, 66, 66)" stroke-width="1px" opacity="0.25"></line><line x1="0" y1="78.64888848198784" x2="299.29199981689453" y2="78.64888848198784" fill="rgb(0, 0, 0)" stroke="rgb(66, 66, 66)" stroke-width="1px" opacity="0.25"></line><line x1="0" y1="58.98666636149089" x2="299.29199981689453" y2="58.98666636149089" fill="rgb(0, 0, 0)" stroke="rgb(66, 66, 66)" stroke-width="1px" opacity="0.25"></line><line x1="0" y1="39.32444424099392" x2="299.29199981689453" y2="39.32444424099392" fill="rgb(0, 0, 0)" stroke="rgb(66, 66, 66)" stroke-width="1px" opacity="0.25"></line><line x1="0" y1="19.66222212049697" x2="299.29199981689453" y2="19.66222212049697" fill="rgb(0, 0, 0)" stroke="rgb(66, 66, 66)" stroke-width="1px" opacity="0.25"></line><line x1="0" y1="0" x2="299.29199981689453" y2="0" fill="rgb(0, 0, 0)" stroke="rgb(66, 66, 66)" stroke-width="1px" opacity="0.25"></line></g></g></g><g><g><line x1="0" y1="334.25777604844836" x2="299.29199981689453" y2="334.25777604844836" fill="rgb(0, 0, 0)" stroke="rgb(153, 153, 153)" stroke-width="1.5px"></line></g></g><g><g><line x1="33.25466664632161" y1="0" x2="33.25466664632161" y2="176.95999908447266" fill="rgb(0, 0, 0)" stroke="rgb(153, 153, 153)" stroke-width="1.5px"></line></g></g><g><g><g><g><g><path style="fill: none;" stroke="rgb(255, 112, 67)" stroke-width="2px" d="M33.420939979553225,182.46541227756083L33.88650531260173,116.76074256056484L34.1525426457723,119.52717044149792L34.18579731241862,130.8547109093932L34.6181079788208,145.76828645400542L34.85089064534505,142.3725887993947L34.884145311991375,149.97677796659903L35.34971064503988,148.72468408308194L35.3829653116862,153.05897172387708L35.515983978271485,154.59081131482623L35.64900264485677,143.98769318421085L35.8485306447347,135.71194609751228L36.01480397796631,135.5869219860354L36.24758664449056,141.95402953663088L36.58013331095378,144.6737441371716L36.71315197753906,150.0992926636709L36.84617064412435,141.52552281911167L37.31173597717285,143.6430896620832L37.44475464375814,125.13410859655477L37.47800931040447,119.90948802971646L37.5445186436971,121.7834070565715L37.611027976989746,126.62995257089439L38.07659331003824,124.76278940120373L38.17635730997721,125.91860147676975L38.508903976440436,129.00370172186584L38.608667976379394,132.51000684343293L38.67517730967204,127.44960104158037L38.74168664296468,127.02116178529688L39.00772397613525,111.37247423314979L39.17399730936686,105.7706603097672L39.63956264241536,106.5178992128324L40.03861864217122,106.66929362263735L40.10512797546387,106.16977505841663L40.37116530863444,101.45501698409068L40.903239974975584,94.48417503394612L41.40205997467041,98.28279494164175L41.43531464131674,98.22947034985911L41.86762530771892,100.20286904341181L41.90087997436524,95.98135879789099L42.2999359741211,95.49944302825308L42.399699974060056,97.72199096168387L42.66573730723063,97.78408862739629L42.7655013071696,97.5071049847916L42.93177464040121,94.00121973945853L43.09804797363281,96.278646362676L43.53035864003499,97.0232440971904L43.79639597320557,96.34928807113992L43.862905306498206,96.67627501591785L43.896159973144535,93.48013860326937L43.99592397308349,93.68391511238147L44.76078130594889,94.10104187419654L44.79403597259522,96.1776207482075L45.19309197235107,95.97527187069376L45.39261997222901,97.3431238011675L45.42587463887533,99.07987424519966L45.45912930552164,100.68962816863322L45.85818530527751,100.43389811067162L46.12422263844808,98.4152852989057L46.25724130503337,97.9675429861433L46.323750638326004,99.9240122124967L46.65629730478922,101.22517546002315L46.72280663808187,99.63372598943126L47.0886079711914,100.3202038947507L47.32139063771566,101.8347945737686L47.78695597076416,99.36176638831498L47.820210637410476,99.89303501147194L47.886719970703126,96.98766447149156L48.11950263722738,99.04063487130308L48.6183226369222,96.47116887664326L48.75134130350749,94.84722775181154L48.917614636739096,94.93215179898809L49.05063330332438,94.38102231192588L49.083887969970704,93.52117109160807L49.25016130320231,94.29914714781103L49.283415969848626,93.45165117757573L49.48294396972656,93.89934635286318L50.24780130259196,95.23172672746786L50.3143106358846,92.0826495030886L50.347565302530924,92.59926453456431L50.380819969177246,93.05694658929151L50.48058396911621,90.34599722150926L50.547093302408854,91.056215507274L51.012658635457356,89.53355878936111L51.04591330210368,88.6521124798911L51.11242263539632,87.75765378859425L51.17893196868897,87.91904781409367L51.24544130198161,89.09565853144893L51.378459968566894,89.13967903936646L51.44496930185954,89.9258547446228L51.644497301737466,90.29267254330753L51.77751596832275,89.79736768832176L51.97704396820068,90.96743947781533L52.04355330149333,90.08522673751425L52.17657196807861,90.03229472812714L52.70864663441976,90.1929947897187L52.90817463429769,90.3889906588461L53.04119330088297,89.73482586162515L53.10770263417562,89.87717976355859L53.706286633809405,89.17430597249923L54.0055786336263,89.09266650517746L54.17185196685791,89.19267085461493L54.20510663350423,89.20964517127115L54.4711439666748,89.39496149404707L54.67067196655274,89.52497956710371L54.70392663319906,89.75899008741592L55.169491966247556,89.18742167754137L55.46878396606445,86.46514835119939L55.73482129923503,86.75358518673093L55.768075965881344,86.65991675537198L56.3001506322225,87.31131086625925L56.36665996551513,87.73396499055136L57.264535964965816,87.30697358333872L57.331045298258466,87.67845197022581L57.3975546315511,87.00003627073896L57.497318631490074,86.85807059431664L57.59708263142904,87.03795565172624L58.02939329783122,87.99080746537514L58.69448663075765,88.36599787490944L59.06028796386719,86.33851852200851L59.09354263051351,86.4304424129514L59.29307063039143,86.12766846957304L59.49259863026937,86.63411040580685L60.02467329661051,85.52592162062562L60.05792796325684,86.08713829724182L60.12443729654948,83.56521560971457L60.52349329630534,83.69967632509021L60.95580396270752,83.63757352328676L61.22184129587809,83.57971382636526L61.32160529581706,82.77252621099309L61.78717062886557,82.42273105763167L61.95344396209717,82.19352981843193L62.08646262868245,83.04534625709017L62.25273596191406,82.45771983118578L62.75155596160889,82.60287850651498L63.117357294718424,80.82857603070961L63.25037596130372,79.73881766221503L64.21476129404704,80.12941823503688L64.28127062733968,79.87399241117639L64.6138172938029,79.4556602711365L64.84659996032715,79.00720938531367L65.31216529337566,78.93275435813632L66.50933329264322,79.71151546352556L66.60909729258219,80.12537921372616L66.67560662587483,79.71284969755817L67.04140795898438,78.78476341521188L67.27419062550862,78.48862492398787L67.40720929209391,78.19939805047859L67.47371862538655,78.42552558938516L67.77301062520345,78.46689005333755L68.40484929148356,77.91229009091435L68.87041462453206,76.88827828767242L68.90366929117839,77.43037253906866L68.97017862447103,75.94284623886273L69.10319729105632,75.74699045846594L69.4024892908732,76.29826528794672L69.80154529062906,76.45331655208176L69.93456395721435,76.44136803996209L70.001073290507,76.9002238883749L70.10083729044597,77.52709509294728L70.16734662373861,76.01938236497817L70.23385595703125,75.77009449793702L70.56640262349447,75.74728381155772L70.69942129007975,75.72736687990663L70.932203956604,75.93377417526324L70.99871328989664,75.69837053365036L71.16498662312826,76.03116999499768L71.3977692896525,75.57538260099653L71.56404262288412,75.81891731518365L71.59729728953043,76.04186799101818L71.99635328928629,75.53808857280391L72.3288999557495,76.02551149145646L72.39540928904215,76.02966824479341L72.42866395568848,76.28614973527046L72.66144662221274,76.43138215027568L72.96073862202962,75.59561277425013L72.99399328867594,76.19907146112942L73.39304928843181,75.97186321459905L73.65908662160238,75.60981082702345L73.79210528818766,75.71228529065264L74.02488795471191,75.04767381097801L74.65672662099202,75.76502279963351L74.72323595428468,76.0799817820803L74.88950928751628,76.00837044709901L74.9227639541626,76.47779808990023L74.98927328745523,76.13922958517229L75.0890372873942,76.15169351174704L75.22205595397949,75.87594755210576L75.42158395385742,76.24301947362771L75.55460262044272,76.1542739049253L75.72087595367432,75.91881643321341L75.92040395355224,76.23066595472312L76.18644128672281,76.34800404530313L76.45247861989338,76.3879807832674L76.71851595306397,76.68610789559133L77.01780795288087,76.61065464137774L77.25059061940512,76.19808998349416L77.35035461934407,75.79632194166074L77.38360928599039,75.42269538756176L77.68290128580729,75.92631718712269L78.0154479522705,75.47512085026936L78.51426795196532,75.09750628395275L78.64728661855062,75.36834961729852L79.01308795166015,75.15941386106078L79.04634261830648,75.46586609618844L79.17936128489175,75.55513303102133L80.40978395080566,74.83487539529892L81.10813195037842,75.16218324651177L81.14138661702475,75.59098720906744L81.73997061665854,75.90104859767187L81.77322528330484,75.99440500940754L81.87298928324381,76.57865762791042L82.305299949646,77.07919054902338L82.37180928293863,76.53826503891064L82.73761061604817,76.30233888378534L82.83737461598714,75.79838690661532L82.97039328257242,75.63297416222795L83.23643061574299,75.8257489100255L83.46921328226726,74.83879437340823L83.50246794891358,75.22388991205246L83.60223194885253,75.47410359908518L83.7019959487915,75.33746606880501L84.10105194854737,75.1763976403093L84.3005799484253,74.85946177928393L84.43359861501057,74.66876147926736L84.7661452814738,74.44074590873427L84.86590928141277,74.81131153446603L85.33147461446126,74.44115524981471L85.43123861440023,74.66229516429432L85.59751194763183,75.01016822041115L85.6972759475708,75.08526170598826L85.99656794738769,75.3007235494142L86.36236928049723,75.06819735575893L86.52864261372883,75.4409544122613L86.59515194702148,75.47327900972859L87.3932639465332,74.9422681148259L87.65930127970377,75.54514279657802L87.72581061299641,75.36238701543498L88.05835727945963,74.90093625314839L88.29113994598389,74.6264164024909L88.55717727915446,74.90500768938881L88.82321461232503,75.20697187016181L89.05599727884929,75.61980868819559L89.12250661214192,75.5591391311644L89.32203461201986,75.42453509209427L89.62132661183675,75.8355213445557L89.88736394500732,75.71864101244627L89.95387327829998,75.66557179480439L90.05363727823892,74.80760591830489L90.1534012781779,74.89457333749897L90.18665594482422,74.66275820435719L90.41943861134847,74.85601389475352L90.58571194458007,75.2418326007171L90.81849461110433,75.31685530725444L91.11778661092123,75.49116943951502L91.31731461079916,75.46328025015713L91.61660661061605,75.51566623278167L91.98240794372559,75.73587984528578L92.3149546101888,75.67781502492602L92.38146394348144,75.68221691953978L92.61424661000571,75.60760925680066L92.78051994323731,75.846707809186L92.88028394317628,75.52289912988414L93.14632127634684,75.81346382346065L93.77815994262696,75.48347344849535L94.70929060872395,75.45147543047905L94.84230927530925,75.79333581796402L95.14160127512613,75.48344525811872L95.30787460835774,75.61895968060838L95.3743839416504,76.07010988472538L96.07273194122315,76.18565887406169L96.43853327433268,75.68933859812859L96.53829727427164,75.94274208682606L96.73782527414959,76.36045281257168L96.77107994079589,76.34047561237053L97.26989994049073,76.18658351973474L97.30315460713705,76.3043514111506L97.66895594024658,76.16619555762757L97.80197460683186,76.6039858913578L97.96824794006346,76.76414748896495L98.03475727335612,76.24071588558907L98.33404927317301,76.48801835349795L98.46706793975831,76.61198261487114L98.50032260640462,76.97746696304597L98.56683193969725,77.03828084108429L98.60008660634358,77.26192723824754L98.66659593963622,77.46819633536873L99.03239727274577,77.7265860237589L99.09890660603841,77.88577939445688L99.36494393920898,78.03446685130675L99.39819860585531,78.08375016104907L99.49796260579427,78.30861409956357L100.66187593841552,78.27425576429809L102.12508127085367,78.46145119456034L102.42437327067057,78.09183194930958L102.75691993713379,78.47559565986889L103.12272127024333,78.49621602320804L103.2224852701823,78.5427020904633L103.42201327006022,78.77648953091716L103.58828660329182,78.83531310016892L103.62154126993815,78.74208137928669L103.75455993652344,79.05476553344681L103.78781460316976,79.2266281251536L104.02059726969401,78.89359855844076L104.41965326944988,78.99163205440622L105.0847466023763,78.72865339819415L105.41729326883952,79.11454820031787L106.0158772684733,78.69197828511905L106.24865993499755,78.79709697913061L106.7474799346924,78.43720663846776L106.94700793457031,78.38933642368107L107.27955460103354,78.60795908070835L107.64535593414307,78.66384265492078L107.74511993408203,78.98263632552697L107.91139326731364,78.63715819067458L108.34370393371582,78.63138274658678L109.14181593322753,78.89403988750125L109.93992793273927,78.76436405995351L110.3057292658488,78.99193907660654L110.40549326578775,78.98060920348127L110.57176659901937,79.18896246164086L110.83780393218994,79.33301719348576L111.17035059865316,78.86649607358487L111.50289726511636,79.10352610897922L111.73567993164063,79.2694837881815L112.73331993103027,78.81675752633758L112.86633859761557,79.33753654312244L112.89959326426188,79.81141379362613L113.03261193084717,79.57672781652595L114.13001593017579,79.69539927986644L114.29628926340739,79.7867739916988L114.46256259663899,79.44656431557561L114.89487326304118,79.51331031859439L115.16091059621175,79.29514380696627L115.26067459615072,78.93155542753361L115.92576792907714,78.6751033364694L116.19180526224773,78.60338649753703L116.35807859547933,78.31226496375545L116.42458792877197,78.59440017712284L116.52435192871093,78.6875557105937L116.59086126200357,78.90289744966921L116.6241159286499,79.26388873556685L116.98991726175944,79.23326781066632L117.05642659505209,79.3666318627556L117.12293592834472,79.22642010117356L117.35571859486899,79.36589551005709L117.42222792816162,79.20217471172462L117.68826526133219,79.43088520382662L118.58614126078287,79.73717804469493L118.6193959274292,80.12575591254988L118.98519726053874,79.45389196934167L119.01845192718505,79.36486007869135L119.35099859364827,79.2856124506711L119.48401726023356,79.48700226360693L119.71679992675782,79.30751192269567L119.94958259328207,79.61837732803326L120.38189325968423,79.24375067073512L120.6479305928548,79.53635733152583L120.68118525950113,79.66533902536032L120.91396792602539,79.66066733043542L121.01373192596435,79.90045934891891L121.04698659261068,79.71212721132551L121.080241259257,79.68015474178664L121.18000525919597,79.77877904964929L121.81184392547607,79.62949580046642L122.07788125864666,79.75097487369649L122.11113592529296,79.50242380318386L122.21089992523193,79.5866594188611L122.44368259175619,79.48403020324709L122.54344659169514,79.8940565521487L122.6099559249878,79.70319244659801L122.70971992492674,79.56916916443387L122.84273859151205,79.56747326273674L123.14203059132893,79.71982020747102L123.34155859120686,80.05023265745804L123.50783192443848,79.33428222051398L123.64085059102376,79.52901511863818L124.03990659077962,79.78152426382728L124.07316125742595,79.92403648294331L124.20617992401122,80.19787263925484L124.37245325724284,80.53490653359495L124.40570792388917,80.68032211358386L124.43896259053548,80.65535606502429L124.53872659047444,80.7429418333285L124.83801859029134,81.01004643997442L124.87127325693766,81.30157895547711L124.90452792358398,81.42218666599263L125.07080125681559,81.68915214944121L125.2370745900472,81.34356371191525L125.33683858998617,81.44986193113604L125.50311192321777,81.31216991808209L125.66938525644937,81.34645625099066L125.90216792297365,81.58420069993714L126.30122392272949,81.7808031677364L126.80004392242432,81.97035941143426L127.19909992218017,82.19869520719925L127.5316465886434,82.30805541721911L127.66466525522868,82.52722526694791L127.86419325510661,82.54654508215441L128.09697592163084,82.57651956671981L128.42952258809407,82.6206500662159L128.4627772547404,82.46346376502366L129.0946159210205,82.23938257538765L129.12787058766685,81.97494971364172L129.42716258748374,82.39190914824971L129.49367192077636,82.74658362708234L130.32503858693443,83.11480108875685L130.42480258687337,83.19432598454671L130.52456658681234,83.19836358401511L130.85711325327557,82.77028518663097L131.45569725290935,82.89827848319496L131.5554612528483,82.99181520394175L131.78824391937258,82.73217166174594L131.88800791931152,82.80840574724597L131.95451725260418,82.95615832947203L132.1540452524821,82.7270684891162L132.58635591888427,82.99923190860554L132.9189025853475,83.19283260080114L133.01866658528644,83.18413987469232L133.1184305852254,83.35348830862468L133.38446791839598,83.64236751367791L133.6837599182129,83.85892693990417L134.1825799179077,83.80041044192471L134.6148905843099,83.41395821162514L135.81205858357748,83.44226181289702L135.8453132502238,83.7372335148919L136.24436924997966,83.90728138390473L136.4771519165039,84.04937517296324L136.51040658315023,84.05306328093458L136.54366124979654,84.32266816918519L136.7431892496745,83.90153318665182L136.87620791625977,84.29855151460592L137.00922658284506,84.16703317713983L137.04248124949137,84.27661061571654L137.0757359161377,84.34101734564442L137.2420092493693,84.30705632977634L137.30851858266195,84.52575874665919L137.8738479156494,84.65239759279805L138.8049785817464,84.74187491388062L138.971251914978,84.79443038579109L139.27054391479493,85.0311599963741L139.3703079147339,85.30427691217321L139.43681724802653,85.32196523893887L139.6695999145508,85.31870392861526L139.8358732477824,85.1224955834347L140.23492924753825,85.19750474385482L140.26818391418456,85.267802118769L140.36794791412353,85.22000241226564L140.43445724741616,85.29760873944745L140.66723991394042,85.41941744996758L141.06629591369628,84.36478921206509L141.13280524698894,84.66307952964353L141.864407913208,84.70383868346322L141.96417191314697,84.64513954235676L142.96181191253663,84.56192774480678L143.2278492457072,84.47048537412151L144.35850791168212,84.58877726779507L144.52478124491373,84.70439930669176L144.89058257802327,84.66225161731163L145.18987457784016,84.55194311029189L145.42265724436442,84.53060915684475L145.48916657765707,84.49979083008053L145.58893057759605,84.476545516921L145.65543991088867,84.52658825097237L145.82171324412028,84.31169474189488L145.85496791076662,84.01634708126458L146.12100524393716,84.11485984880397L146.4868065770467,83.83367505242524L146.619825243632,83.8208597634429L146.95237191009522,83.60335049409107L147.0853905766805,82.99683568069416L147.2184092432658,82.98735787607029L147.48444657643637,83.25582947476374L147.65071990966797,83.14556420109233L148.1495399093628,83.29506149653314L148.38232257588703,83.41688780494118L148.6151052424113,83.34202945391347L149.0806705754598,82.99082488562755L149.11392524210612,83.33423964939045L149.14717990875243,83.32606525527967L149.18043457539878,83.48394058482688L149.3799625752767,83.71526944298509L149.44647190856935,83.78425283797168L149.67925457509358,83.96377040770051L149.77901857503255,84.18761034350229L150.1448199081421,84.3706173704278L150.54387590789796,84.60289709706447L150.84316790771484,84.91373349666932L151.14245990753173,85.01763799855406L151.34198790740967,85.26340095022327L151.60802524058025,84.90638698758346L151.87406257375082,84.70181718171104L151.97382657368976,84.95228876318245L152.1733545735677,84.80985234210343L152.20660924021402,84.85354916148049L152.57241057332357,84.71785161058529L152.60566523996988,85.00893969565429L153.00472123972577,84.80300908750083L153.43703190612794,84.95468269118808L153.47028657277426,85.09773116588168L153.50354123942057,85.29814017167399L153.53679590606689,85.20845562684094L154.0023612391154,85.33227472921425L154.80047323862712,85.5321640280441L154.9002372385661,85.70741305064979L154.96674657185872,85.35253409463277L155.03325590515138,85.59105733952376L155.13301990509032,85.71297496269558L155.2660385716756,85.815650858125L155.36580257161458,85.96817185367443L155.39905723826092,85.89770841523571L155.9976412378947,86.09181316506303L156.3301879043579,85.91824644536234L156.72924390411376,85.29380157778962L156.8955172373454,85.01808163885906L156.9287719039917,85.0130065281759L157.3943372370402,85.21371579644085L157.8266479034424,85.22472493906808L157.8599025700887,85.19096436366644L157.92641190338134,85.3631633647413L157.95966657002768,85.39605306838882L158.05943056996662,85.04353468903004L158.09268523661297,85.00945027823767L158.12593990325928,85.1617860964L158.3587225697835,85.03016556598975L158.42523190307617,84.66037789317645L158.99056123606366,84.77638655932051L159.05707056935628,84.97063556595927L159.0903252360026,85.1890466521819L159.22334390258789,85.30135528854083L159.32310790252686,85.25365879181746L160.08796523539223,85.11836401952625L160.4205119018555,85.30182313396011L160.9525865681966,85.6177794303159L161.25187856801352,85.71115302601982L161.31838790130615,85.97020033764234L161.3848972345988,85.70907721292862L161.65093456776935,85.58896921302278L161.95022656758627,85.60914122509445L162.0499905675252,85.54621512052815L163.04763056691488,85.52026990476907L163.2471585667928,85.68258186507086L163.3469225667318,85.8790413746294L163.47994123331708,86.02972683314579L163.679469233195,86.0777243137812L164.01201589965822,86.01420591337707L164.07852523295085,86.00137829008418L164.17828923288982,86.30582532458811L164.74361856587726,86.47869002800894L164.87663723246257,86.68440609369732L165.17592923227946,86.90422259432417L165.47522123209635,87.04063523325975L165.6747492319743,86.83367241730889L165.8410225652059,86.92268506473036L166.04055056508383,86.89122657194729L166.57262523142498,87.08323103498685L166.70564389801027,87.35379161058574L166.7721532313029,87.31960997527298L167.07144523111978,87.13204595521191L167.2377185643514,87.395899404997L167.43724656422933,87.36175639341792L167.63677456410727,87.39640374176193L167.8695572306315,86.98656249258822L169.0999798965454,86.93433023763576L169.23299856313068,87.09749876547599L169.366017229716,87.05789712990207L169.93134656270345,87.12394252127919L170.13087456258137,87.06712569057721L170.3304025624593,87.20373317906204L170.43016656239826,87.19217826860867L171.16176922861735,87.03590216025974L171.3945518951416,86.86573062545085L171.49431589508055,86.81980190184706L171.8601172281901,87.01827770688662L172.19266389465332,87.27004864055667L172.22591856129964,87.42113842739911L172.32568256123864,87.38674691339502L172.69148389434812,87.43227774880886L173.19030389404296,87.412276540642L173.65586922709147,87.51397648244486L173.85539722696942,87.61442281195094L173.92190656026204,87.3603630493297L174.1546892267863,87.45555713117348L174.4872358932495,87.55219511588844L174.58699989318848,87.77202057125504L174.68676389312745,87.9333811865332L174.72001855977373,87.85217293544426L174.85303722635905,88.0607572877208L175.18558389282228,88.13420760307908L175.61789455922442,88.24890876083867L175.65114922587077,88.4328909239742L176.21647855885823,88.59861367653251L176.58227989196777,88.51828181311285L176.88157189178466,88.40307817985494L177.04784522501626,88.18207433752299L177.2141185582479,87.92764769428751L177.4136465581258,87.8273166339887L177.7129385579427,87.83139134497301L178.27826789093018,87.97431997936236L178.81034255727133,87.95625066754785L178.91010655721027,88.06457564216696L179.44218122355142,88.06288433106933L179.70821855672202,87.96124711703115L179.8412372233073,88.0179502866918L179.94100122324625,88.24960360915992L180.04076522318522,88.11241635478085L180.07401988983156,88.27583810743756L180.3400572230021,88.25814416576308L180.40656655629476,88.49161260122594L180.77236788940428,88.3812683308667L181.03840522257488,88.36512849265586L181.40420655568442,88.52616550289856L181.53722522226968,88.69095398050514L181.80326255544026,88.83374357443579L182.56811988830566,88.94006921204341L182.7676478881836,88.77732898212376L182.9006665547689,88.56299351943234L183.3994865544637,88.6601413604134L183.59901455434164,88.73905703638158L183.69877855428058,88.74956880690424L183.76528788757324,88.98720089072539L183.9980705540975,88.96401058368187L184.09783455403647,89.06651884525756L184.23085322062173,88.57267520749083L184.36387188720704,88.63429449247124L184.39712655385338,88.50370044823016L184.99571055348713,88.64896986638892L185.0622198867798,88.8621180978573L185.19523855336507,88.85455540018162L185.39476655324302,88.88153900812678L185.66080388641356,88.72593111774755L185.9933505528768,88.77581001596123L186.45891588592528,88.57462965468974L186.55867988586425,88.75379576148164L186.65844388580322,88.8411209630616L187.7225932184855,88.80606569735818L187.88886655171711,88.83460978474086L187.92212121836346,88.98822078107953L188.05513988494872,89.02214903590982L188.188158551534,88.95772900406992L188.22141321818034,88.88187465893395L188.32117721811932,88.76888463513538L188.48745055135092,88.9217791958201L188.85325188446046,89.07998380702557L189.11928921763104,89.09610683357593L189.2523078842163,88.76814584672645L189.31881721750895,88.93854108425091L189.5183452173869,89.2387700549807L189.78438255055744,89.38142788791346L189.81763721720378,89.58456044407481L190.0171652170817,89.72618316170367L190.11692921702067,89.81641780052215L190.58249455006919,89.84235266652584L190.81527721659342,89.9460855524519L191.5468798828125,90.11827792665478L191.77966254933676,90.09523756335109L191.9791905492147,89.98892212045794L192.11220921579996,90.01762401504305L192.1454638824463,90.08211223265653L192.57777454884848,90.21074358731796L193.04333988189697,90.24458972981012L193.14310388183594,90.06457283669647L193.2428678817749,89.9663092274743L193.30937721506754,89.84645487781226L193.37588654836017,89.49688534039267L193.90796121470132,89.29893814329667L193.97447054799397,89.45813806261127L194.0409798812866,89.44159229799321L194.07423454793295,89.60258453944607L194.10748921457926,89.6591153448358L194.34027188110352,89.66877738987893L194.37352654774986,89.69449402434199L194.97211054738364,89.86393685443915L195.63720388031004,89.96223328076083L196.06951454671224,89.9455822977504L196.50182521311442,90.1468218696031L196.56833454640707,90.00982226203597L197.20017321268716,89.96275576713529L197.33319187927245,89.91982536895482L197.5659745457967,90.1139068346223L197.698993212382,89.9305289286633L197.8652665456136,89.94510372786158L198.89616121164957,89.85706264623394L199.22870787811277,89.64775899802878L199.26196254475911,89.66285978941559L200.3261118774414,89.71992786284905L201.12422387695312,89.6445765580518L201.52327987670898,89.71580543947861L201.58978921000164,89.68724215243175L201.75606254323324,89.90193000453019L202.08860920969644,90.0173834247157L202.18837320963542,90.17424873427333L202.22162787628173,90.2440596335959L202.48766520945233,90.33174671578611L202.55417454274496,90.16072617523632L202.72044787597656,90.16286544776143L203.95087054189045,90.05602460340776L204.08388920847574,90.15078635272172L204.21690787506103,90.1811064778129L204.44969054158528,90.39893370892122L204.58270920817057,90.63016936458145L204.61596387481688,90.73433988915995L204.68247320810954,90.84833313864581L204.71572787475588,90.98301062851219L205.11478387451172,91.16707051000814L205.41407587432863,91.21693217661894L205.77987720743815,91.10362287599636L206.1456785405477,90.8456196883803L206.21218787384032,90.98816996567372L206.37846120707195,91.07689238463686L206.4449705403646,91.21793861258725L206.6112438735962,91.46132061445985L206.8107718734741,91.63607158702317L207.04355453999838,91.85426241514975L207.47586520640056,91.88847968647747L207.9746852060954,92.01032984945027L208.00793987274167,92.13643835735108L208.140958539327,91.96876028608537L208.27397720591227,91.93125692620215L208.37374120585122,92.02879342423748L209.072089205424,92.0387317913405L209.30487187194825,92.10067510835277L209.3713812052409,92.31686412135625L209.43789053853354,92.40411808553834L210.13623853810628,92.40489726765709L210.1694932047526,92.37365672180898L210.26925720469157,92.44075323773426L210.3357665379842,92.47341690159907L210.46878520456949,92.31061977962835L210.50203987121583,92.25537475621637L210.66831320444743,92.13048109175634L210.7348225377401,91.7770089752449L210.80133187103272,91.7206733667994L211.59944387054443,91.0024205293205L211.79897187042235,90.99076783529861L211.865481203715,90.95346923960155L212.26453720347087,91.08228201375395L212.6303385365804,91.20017529783341L212.9296305363973,91.30869651330929L212.96288520304364,91.40035586211103L213.0959038696289,91.27673826986323L213.42845053609213,91.374300611045L213.6612332026164,91.40704990923341L213.79425186920167,91.39172227060057L214.02703453572593,91.14422186903305L214.35958120218913,91.23943782927152L214.42609053548176,91.17885883664918L214.59236386871336,91.25441392318221L214.65887320200602,91.28646731793347L214.75863720194496,91.28934823125341L214.82514653523762,91.47252280085029L215.19094786834717,91.59861386157024L216.05556920115154,91.80690668222783L216.3216065343221,91.95368984894898L216.4213705342611,91.82983342861539L216.48787986755372,91.89249651888493L216.52113453420003,91.90162824690013L216.7539172007243,92.02994321709704L216.88693586730957,92.07209001476586L216.95344520060223,92.02468686283831L217.05320920054118,92.276495321451L217.6850478668213,92.0900809721903L217.91783053334555,92.31552449376719L218.08410386657715,92.37683830302467L218.41665053304035,92.48876039831444L218.81570653279624,92.52685074258592L219.64707319895427,92.64490948447134L220.9440051981608,92.59676725522317L221.276551864624,92.73429126342798L221.74211719767254,92.78424824386416L221.90839053090414,92.85529927743396L222.40721053059895,93.0080786353431L223.03904919687906,93.06470603955991L223.27183186340332,92.750974455033L223.37159586334226,92.75180553090354L223.60437852986652,92.78981025306585L223.8371611963908,92.70972470874912L223.93692519632975,92.84816482045373L224.169707862854,92.82918222526024L224.5022545293172,92.88725581279034L224.56876386260984,92.78911583956837L224.66852786254884,92.9240399425026L224.70178252919516,93.00497955130395L224.7350371958415,93.18127160692013L224.76829186248779,93.39470818580651L225.00107452901204,93.4427757182329L225.2338571955363,93.5383793921577L225.5331491953532,93.71959669344604L225.79918652852376,93.86356028462066L226.4642798614502,94.0345149146186L227.2291371943156,94.0315459079434L227.79446652730306,94.06598266292752L228.35979586029052,94.17865470603618L228.4595598602295,94.21204788428203L228.79210652669272,94.12267590601988L228.82536119333903,94.17977103230012L228.89187052663166,94.16007892578986L229.32418119303387,94.21343402933647L230.1888025258382,93.97061634417399L231.0866785252889,94.0227994606732L231.2529518585205,93.89922940157223L231.35271585845948,93.93790415071697L231.61875319163002,94.02494256786599L231.81828119150796,93.9664750645541L232.1840825246175,94.06257104108629L232.48337452443442,94.0354138210826L232.71615719095865,94.1283883507817L232.9156851908366,94.22608905141277L233.04870385742186,94.2994195749669L233.1152131907145,94.30168850445877L233.14846785736086,94.50435442570092L234.1461078567505,94.58054592139514L234.27912652333578,94.60068611667067L234.3123811899821,94.62925138508663L234.57841852315266,94.4939785307558L235.34327585601807,94.51634192620028L235.40978518931072,94.67114235947628L235.443039855957,94.78822035139409L235.80884118906656,94.73119587289973L235.90860518900556,94.82477970718037L236.37417052205404,94.98978146316121L236.50718918863933,95.1136438750371L236.57369852193196,95.11303431111256L236.97275452168785,95.20564400821732L237.2387918548584,95.18806347850317L237.40506518809002,95.34967433962319L237.47157452138265,95.36752661619907L237.53808385467528,95.53834900696832L238.40270518747965,95.7233968768395L239.367090520223,95.91215879962506L239.63312785339355,95.88225438162645L239.8326558532715,95.71033166533233L240.1652025197347,95.47620536289203L240.29822118631998,95.5785846185553L240.43123985290526,95.55422620609635L240.56425851949058,95.6132577261146L240.66402251942952,95.5250393723383L240.73053185272218,95.42595051220414L240.89680518595378,95.57583117083709L241.16284251912435,95.60418412518212L241.76142651875816,95.59303545786247L242.09397318522136,95.68214371175385L242.160482518514,95.56036135129791L242.39326518503825,95.48236665437581L242.65930251820885,95.4307749200902L242.69255718485513,95.30970853739962L242.7923211847941,95.31703032379245L243.25788651784262,95.38351149224049L243.7234518508911,95.53440108176525L243.85647051747642,95.63544419992179L243.8897251841227,95.7904744670193L243.92297985076902,95.89297830480868L244.35529051717123,95.99454164063148L244.55481851704917,95.94856931221776L244.72109185028077,95.91366357445789L244.7543465169271,95.97734386548326L244.82085585021971,96.17893714018757L244.9206198501587,96.22771938063609L244.98712918345134,96.29958643262677L245.0868931833903,96.29352690280997L245.45269451649983,96.3931162551751L246.31731584930418,96.45228061459383L246.91589984893798,96.4425675923589L247.4147198486328,96.53760082455919L247.51448384857176,96.57532091769845L247.5477385152181,96.61159038285967L247.74726651509602,96.51477857154146L248.07981318155925,96.57211908137714L248.54537851460773,96.65777639263557L249.01094384765625,96.77978558032636L249.14396251424154,96.6619903766196L249.24372651418048,96.73919495661984L249.27698118082682,96.73649074134993L250.1748571802775,96.3908351105701L250.37438518015546,96.3867084875097L250.4741491800944,96.4223666454501L250.7734411799113,96.55157798950425L250.97296917978923,96.55593647578215L251.13924251302083,96.64773645589017L251.17249717966715,96.81191518920208L251.2057518463135,97.01130001832148L251.27226117960615,97.00277835930638L251.571553179423,96.82456383063617L251.67131717936198,96.94306507129386L251.73782651265464,97.09611368653007L252.26990117899578,97.13031250056724L252.3364105122884,97.28282769945899L252.43617451222738,97.40222275725276L252.60244784545898,97.29288158387267L252.73546651204427,97.29460998489448L253.26754117838541,97.4077317207121L253.30079584503176,97.33393873090606L253.43381451161702,97.33292947484614L253.7331065114339,97.26335945830968L254.39819984436033,97.2338673344714L254.79725584411622,96.95450279999427L255.0965478439331,97.05577250514055L255.19631184387208,97.23513287385198L255.99442384338377,97.2721064787326L256.3602251764933,97.45682200141346L256.5930078430176,97.56292962953276L256.6927718429566,97.54962502211356L256.7592811762492,97.61309208175417L256.82579050954183,97.68103689222743L256.89229984283446,97.73692956705945L257.0918278427124,97.69828132790593L257.2248465092977,97.77518138290212L257.7569211756388,97.73981793159041L258.1227225087484,97.8211563990941L258.189231842041,97.66724844411597L258.6215425084432,97.71767384570592L258.72130650838216,97.6660635571551L258.9208345082601,97.62837305610476L259.48616384124756,97.78448244277303L259.6191825078329,97.87263718513144L259.81871050771076,97.93697823981955L260.11800250752765,97.76524880978154L260.151257174174,97.59588446412317L260.4505491739909,97.60492834082304L260.55031317392985,97.60414075535844L260.65007717386885,97.62753797293784L260.8163505071004,97.59209629821096L260.88285984039305,97.68663022070338L261.082387840271,97.58460265174574L261.3816798400879,97.70966239099498L261.61446250661214,97.6806924074628L261.7474811731974,97.67457488501867L261.91375450642903,97.77126446638081L262.4790838394165,97.82221955482889L263.2106865056356,97.95752317061803L263.2771958389282,97.89512343535591L263.3769598388672,97.58628819789672L263.7427611719767,97.71263829584588L263.975543838501,97.52698609579771L264.20832650502524,97.6921279724774L264.7071465047201,97.72486007422994L265.20596650441485,97.80149923241711L265.2392211710612,97.9064036244229L265.4387491709391,98.04595014431965L265.77129583740236,97.92825036834681L265.93756917063394,97.95984483309786L266.0040785039266,97.97976232317316L266.10384250386556,97.82824859453059L266.4696438369751,97.81744909532935L266.669171836853,97.92893658621435L267.0017185033162,97.92570308140681L267.0349731699626,97.80229780560785L267.1014825032552,97.91680913178601L267.5337931696574,97.98292194614847L267.76657583618163,97.85196009845723L267.83308516947426,97.90463321905152L267.86633983612063,98.03278303292407L268.730961168925,98.025553308429L268.9637438354492,98.0682471422685L269.72860116831464,98.04498292429429L269.9613838348389,98.06969874066435L270.06114783477784,98.06306578223995L270.2606758346558,98.13367456331812L271.524353167216,98.02935645827334L271.95666383361817,98.05339862369081L271.9899185002645,98.25512351697408L272.05642783355717,98.30487316810297L272.25595583343505,98.14200065954108L272.35571983337405,97.98012795882555L272.8877944997152,98.04929413389452L272.9543038330078,98.0528923834931L273.2203411661784,98.02982547607284L273.5528878326416,98.19773548061939L274.3509998321533,97.99506525225303L274.4840184987386,98.17549632225469L274.7500558319092,98.15735356857768L274.88307449849447,98.02282414064274L275.18236649831135,98.10106921471039L275.21562116495767,98.17724503823436L275.8142051645915,98.21030335736259L276.1134971644084,98.19152858427793L276.31302516428633,98.21569224522173L277.01137316385905,98.2164756689078L277.1776464970907,98.28530564857068L277.31066516367594,98.14681351818406L277.3771744969686,98.23203452619096L277.80948516337077,98.28184736463758L277.8759944966634,98.25235156504682L277.9757584966024,98.34227643519023L278.14203182983397,98.443304690349L278.2750504964193,98.54473897700355L278.50783316294354,98.61647903349501L278.6075971628825,98.69746253231533L278.87363449605306,98.73630544677415L279.13967182922363,98.61794990040889L279.93778382873535,98.28965761414483L280.1705664952596,98.25593031528727L280.5363678283691,98.3491195078119L280.56962249501544,98.22291523255895L280.66938649495444,98.06640417809288L280.7691504948934,98.14226503323302L281.36773449452716,98.25661051940604L281.50075316111247,98.25295877953823L281.63377182769773,98.32029680684172L281.70028116099036,98.38188844440415L281.76679049428304,98.41411648285576" fill="none"></path></g></g></g></g><g opacity="0.2"><g><g><g><path style="fill: none;" stroke="rgb(255, 112, 67)" stroke-width="2px" d="M33.420939979553225,182.46541227756083L33.88650531260173,51.121777513292095L34.1525426457723,125.05172968614366L34.18579731241862,164.76941236911355L34.6181079788208,205.2736019382053L34.85089064534505,125.44496812811963L34.884145311991375,195.4424908779568L35.34971064503988,139.99501549750437L35.3829653116862,187.57760202975803L35.515983978271485,168.30861835123702L35.64900264485677,38.537937354872064L35.8485306447347,45.22311087714301L36.01480397796631,134.09634886135527L36.24758664449056,224.14933217366536L36.71315197753906,230.8344831943088L36.84617064412435,5.50542819417315L37.31173597717285,179.3194597384983L37.44475464375814,-204.88037849731433L37.47800931040447,21.62844433254666L37.5445186436971,158.87074573296445L37.611027976989746,227.2952847127279L38.07659331003824,84.15430167507601L38.17635730997721,152.1856022128635L38.508903976440436,202.12763439805775L38.67517730967204,-2.3594606540256264L38.74168664296468,115.61385706787114L39.00772397613525,-320.49422056410043L39.17399730936686,-54.26774505343962L39.63956264241536,128.59093566826712L40.03861864217122,111.2881742017958L40.10512797546387,90.44622175428601L40.37116530863444,-51.515015955268055L41.40205997467041,228.86826098225913L41.43531464131674,96.34488839043513L41.86762530771892,171.84782433336045L41.90087997436524,-61.34612701551654L42.2999359741211,77.07590471191409L42.399699974060056,184.82488793267146L42.66573730723063,100.2773328145345L42.7655013071696,86.1205238871257L42.93177464040121,-53.48123816731774L43.09804797363281,194.262745549859L43.53035864003499,129.77066599527996L43.79639597320557,66.06504832356781L43.862905306498206,111.68141264377174L43.896159973144535,-56.23396726548931L43.99592397308349,103.42328535359702L44.76078130594889,114.43412674085832L44.79403597259522,199.3749353020562L45.19309197235107,85.72728544514976L45.39261997222901,167.91537990926105L45.42587463887533,190.33030112575958L45.45912930552164,186.79111014472113L45.85818530527751,86.51377733018664L46.12422263844808,-13.370317042371926L46.25724130503337,72.75022184583875L46.323750638326004,211.95875295884875L46.65629730478922,176.95999908447266L46.72280663808187,5.50542819417315L47.0886079711914,141.56799926757813L47.32139063771566,194.262745549859L47.78695597076416,-53.87450661146368L47.820210637410476,133.3098569763184L47.886719970703126,-88.47999954223633L48.75134130350749,-13.370317042371926L48.917614636739096,100.67057125651044L49.05063330332438,56.627205707465244L49.083887969970704,33.81901604682077L49.25016130320231,149.03963467271598L49.283415969848626,33.0325391628689L49.48294396972656,126.2314600131565L50.24780130259196,192.6897767808702L50.3143106358846,-141.1747608256022L50.347565302530924,131.3436347642687L50.380819969177246,127.80444378323025L50.48058396911621,-117.97333272298178L50.547093302408854,146.2869355767144L51.012658635457356,-30.279840066867294L51.04591330210368,18.482476792399154L51.11242263539632,15.729777696397573L51.17893196868897,101.06382469957138L51.24544130198161,186.00461825968426L51.378459968566894,92.80568240831167L51.44496930185954,156.11804663696287L51.644497301737466,121.51252370402023L51.77751596832275,47.189333089192715L51.97704396820068,192.6897767808702L52.04355330149333,12.583810156250069L52.17657196807861,85.33404700317381L52.70864663441976,104.60301568060984L52.90817463429769,108.1422216627333L53.04119330088297,29.886571622721394L53.10770263417562,103.03004691162107L53.706286633809405,23.59466654459635L54.0055786336263,81.40158757798943L54.17185196685791,98.70434904446076L54.20510663350423,90.83946019626195L54.4711439666748,107.35572977769642L54.67067196655274,102.24355502658419L54.70392663319906,112.86115797186956L55.169491966247556,32.246032276747016L55.46878396606445,-187.18437858886705L55.73482129923503,116.00711051093208L55.768075965881344,77.07590471191409L56.3001506322225,154.5450628668891L56.36665996551513,131.73688820732966L57.264535964965816,42.47038177897144L57.331045298258466,127.01795189819337L57.3975546315511,14.550032368299759L57.497318631490074,71.57047651774094L57.59708263142904,106.56923789265954L58.02939329783122,192.2965233378093L58.69448663075765,129.77066599527996L59.06028796386719,-139.20853861355246L59.09354263051351,96.73812683241106L59.29307063039143,51.908254397243994L59.49259863026937,144.3207133646647L60.02467329661051,-41.683904895019566L60.05792796325684,151.00585688476568L60.12443729654948,-210.38577668931754L60.52349329630534,99.49084092949762L60.95580396270752,76.28942782796221L61.22184129587809,76.68266626993815L61.32160529581706,-14.1567939263238L61.78717062886557,40.11092112494582L61.95344396209717,54.26771505126962L62.08646262868245,187.57760202975803L62.25273596191406,9.831111060248485L62.75155596160889,100.67057125651044L63.117357294718424,-141.56799926757813L63.25037596130372,-57.80695103556306L64.21476129404704,129.77066599527996L64.28127062733968,47.189333089192715L64.6138172938029,25.560888756646058L64.84659996032715,20.841937446424783L65.31216529337566,69.21101586371532L66.50933329264322,182.0721738355849L66.60909729258219,134.88284074639216L66.67560662587483,24.77438187052418L67.04140795898438,-45.616349319118946L67.27419062550862,38.537937354872064L67.40720929209391,38.93120579901798L67.47371862538655,109.32195198974611L67.77301062520345,84.15430167507601L68.40484929148356,1.1797153259278315L68.87041462453206,-65.67183988376186L68.90366929117839,153.3653325398763L68.97017862447103,-133.70311041937933L69.10319729105632,47.97580997314459L69.4024892908732,154.93830130886505L69.80154529062906,98.70434904446076L69.93456395721435,74.71644405788847L70.001073290507,143.53422147962783L70.10083729044597,169.09511023627388L70.16734662373861,-145.5004436916775L70.23385595703125,38.93120579901798L70.56640262349447,72.35698340386281L70.69942129007975,72.75022184583875L70.932203956604,106.96249133572047L70.99871328989664,40.11092112494582L71.16498662312826,126.62471345621744L71.3977692896525,5.898666636149088L71.56404262288412,113.25439641384548L71.59729728953043,110.50168231675893L71.99635328928629,-2.7527290981715664L72.3288999557495,152.1856022128635L72.39540928904215,76.68266626993815L72.42866395568848,116.79360239596895L72.66144662221274,99.49084092949762L72.96073862202962,-57.80695103556306L72.99399328867594,173.02755466037326L73.39304928843181,39.32444424099392L73.65908662160238,16.909493022325403L73.79210528818766,92.4124439663357L74.02488795471191,-33.81901604682077L74.65672662099202,193.86950710788307L74.72323595428468,128.1976822252062L74.88950928751628,64.09882611151811L74.9227639541626,154.93830130886505L74.98927328745523,19.268983678521014L75.0890372873942,78.2556500400119L75.22205595397949,29.1000947387695L75.42158395385742,138.81528517049153L75.55460262044272,60.952888573540584L75.72087595367432,35.391999816894526L75.92040395355224,130.1639044372559L76.18644128672281,96.73812683241106L76.45247861989338,83.36782479112412L76.71851595306397,128.9841741102431L77.01780795288087,63.31234922756623L77.25059061940512,3.1459375379775207L77.35035461934407,4.3256828660753355L77.38360928599039,8.651365732150671L77.68290128580729,166.3423961391873L78.0154479522705,-5.898666636149107L78.51426795196532,6.685143520100981L78.64728661855062,124.65849124416772L79.01308795166015,36.96498358696827L79.04634261830648,131.73688820732966L79.17936128489175,92.01919052327479L80.40978395080566,-58.59342791951494L81.10813195037842,136.062571073405L81.14138661702475,155.72479319390195L81.73997061665854,134.09634886135527L81.77322528330484,93.59217429334853L81.87298928324381,187.18434858669707L82.305299949646,172.2410627753364L82.37180928293863,-26.740634084743853L82.73761061604817,31.06631695081919L82.83737461598714,-21.23520589057072L82.97039328257242,43.65012710706926L83.23643061574299,113.25439641384548L83.46921328226726,-117.58009428100584L83.50246794891358,150.6126184427897L83.60223194885253,124.65849124416772L83.7019959487915,48.36904841512053L84.10105194854737,43.25688866509332L84.3005799484253,11.797333272298175L84.43359861501057,36.571715142822356L84.7661452814738,28.70682629462358L84.86590928141277,149.4328881157769L85.33147461446126,-0.39323844197593727L85.43123861440023,119.54630149197054L85.59751194763183,145.89368213365344L85.6972759475708,90.44622175428601L85.99656794738769,119.54630149197054L86.36236928049723,27.13387252671981L86.52864261372883,152.57884065483944L86.59515194702148,82.1880944641113L87.3932639465332,-35.78523825887046L87.65930127970377,201.7343959560818L87.72581061299641,36.96498358696827L88.05835727945963,-22.414951218668538L88.29113994598389,16.516254580349447L88.55717727915446,134.09634886135527L88.82321461232503,139.60177705552843L89.05599727884929,163.98293548516168L89.12250661214192,62.52587234361433L89.32203461201986,46.40282620307084L89.62132661183675,164.76941236911355L89.88736394500732,50.33527062717024L89.95387327829998,64.09882611151811L90.05363727823892,-112.86117297295455L90.1534012781779,93.9854127353245L90.18665594482422,23.59466654459635L90.41943861134847,117.58007927992085L90.58571194458007,160.83696794501415L90.81849461110433,92.01919052327479L91.11778661092123,114.43412674085832L91.31731461079916,69.21101586371532L91.61660661061605,87.30026921522351L91.98240794372559,125.44496812811963L92.3149546101888,62.52587234361433L92.38146394348144,76.68266626993815L92.61424661000571,58.59342791951494L92.78051994323731,130.55715788031682L92.88028394317628,1.1797153259278315L93.14632127634684,142.74772959459094L93.77815994262696,-0.7865068861218774L94.70929060872395,68.0312705356175L94.84230927530925,155.331554751926L95.14160127512613,3.1459375379775207L95.30787460835774,107.35572977769642L95.3743839416504,182.0721738355849L96.07273194122315,103.42328535359702L96.43853327433268,-41.683904895019566L96.53829727427164,136.062571073405L96.73782527414959,175.78026875745985L96.77107994079589,71.57047651774094L97.26989994049073,39.32444424099392L97.30315460713705,104.60301568060984L97.66895594024658,42.86365022311738L97.80197460683186,182.46541227756083L97.96824794006346,115.61385706787114L98.03475727335612,-51.121777513292116L98.33404927317301,136.84906295844186L98.46706793975831,106.96249133572047L98.50032260640462,166.73563458116323L98.56683193969725,92.01919052327479L98.60008660634358,132.52338009236652L98.66659593963622,128.59093566826712L99.03239727274577,141.96123770955407L99.09890660603841,117.58007927992085L99.36494393920898,115.2206186258952L99.39819860585531,90.44622175428601L99.49796260579427,134.88284074639216L100.66187593841552,69.60425430569126L102.12508127085367,125.83822157118055L102.42437327067057,-15.729777696397553L102.75691993713379,176.1735071994358L103.12272127024333,83.76106323310006L103.2224852701823,90.44622175428601L103.42201327006022,138.81528517049153L103.58828660329182,93.9854127353245L103.62154126993815,54.66098349541556L103.75455993652344,160.05049106106227L103.78781460316976,123.87199935913085L104.02059726969401,-7.864888848198796L104.41965326944988,104.60301568060984L105.0847466023763,9.831111060248485L105.41729326883952,180.4991900655111L106.0158772684733,-32.63930072089296L106.24865993499755,106.56923789265954L106.7474799346924,-16.909523024495368L106.94700793457031,65.67180988159186L107.27955460103354,136.84906295844186L107.64535593414307,93.59217429334853L107.74511993408203,164.37617392713761L107.91139326731364,-14.1567939263238L108.34370393371582,77.07590471191409L109.14181593322753,149.82612655775284L109.93992793273927,43.65012710706926L110.3057292658488,140.78150738254126L110.40549326578775,75.89615938381628L110.57176659901937,136.062571073405L110.83780393218994,118.75982460801866L111.17035059865316,-49.15555530124239L111.50289726511636,144.3207133646647L111.73567993164063,125.05172968614366L112.73331993103027,-46.40285620524082L112.89959326426188,211.56550701633032L113.03261193084717,14.15679392632382L114.13001593017579,112.86115797186956L114.29628926340739,105.38950756564671L114.46256259663899,-16.12301613837353L114.89487326304118,98.31111060248482L115.16091059621175,17.695999908447263L115.26067459615072,-23.987904986572286L115.92576792907714,5.898666636149088L116.19180526224773,58.20015947536901L116.35807859547933,-4.7189513102212555L116.42458792877197,159.2639991760254L116.52435192871093,105.38950756564671L116.59086126200357,140.78150738254126L116.6241159286499,183.2519041625977L116.98991726175944,70.39076119181313L117.05642659505209,117.97333272298178L117.12293592834472,38.537937354872064L117.35571859486899,119.93955493503147L117.42222792816162,31.459555392795146L117.68826526133219,146.2869355767144L118.58614126078287,169.48834867824982L118.6193959274292,194.262745549859L118.98519726053874,-118.36657116495772L119.01845192718505,53.0879997253418L119.35099859364827,55.840698821343366L119.48401726023356,139.2085236124675L119.71679992675782,25.954127198621997L119.94958259328207,172.2410627753364L120.38189325968423,-32.63930072089296L120.6479305928548,167.12888802422418L120.68118525950113,118.36657116495772L120.91396792602539,78.2556500400119L121.01373192596435,152.1856022128635L121.04698659261068,22.80815965847449L121.080241259257,69.9974927476672L121.18000525919597,109.71519043172205L121.81184392547607,34.21225448879673L122.07788125864666,116.79360239596895L122.11113592529296,3.539205982123441L122.21089992523193,105.38950756564671L122.44368259175619,47.97580997314459L122.54344659169514,206.06007882215718L122.6099559249878,20.841937446424783L122.70971992492674,38.144698912896104L122.84273859151205,79.04212692396378L123.14203059132893,127.01795189819337L123.34155859120686,182.85866572062176L123.50783192443848,-143.92745992160377L123.64085059102376,140.3882689405653L124.03990659077962,158.87074573296445L124.07316125742595,124.65849124416772L124.20617992401122,166.3423961391873L124.37245325724284,186.79111014472113L124.40570792388917,126.62471345621744L124.43896259053548,72.75022184583875L124.53872659047444,108.53546010470923L124.83801859029134,165.94915769721135L124.87127325693766,174.2072849873861L124.90452792358398,119.93955493503147L125.07080125681559,167.12888802422418L125.2370745900472,-29.493333180745456L125.33683858998617,115.61385706787114L125.50311192321777,36.96498358696827L125.66938525644937,92.4124439663357L125.90216792297365,158.4775072909885L126.30122392272949,145.5004436916775L126.80004392242432,143.53422147962783L127.19909992218017,156.5112850789388L127.5316465886434,117.97333272298178L127.66466525522868,154.15182442491317L127.86419325510661,88.87323798421227L128.09697592163084,92.4124439663357L128.42952258809407,97.131380275472L128.4627772547404,30.67304850667327L129.0946159210205,8.258127290174734L129.12787058766685,-5.50542819417313L130.32503858693443,205.66684038018124L130.42480258687337,109.71519043172205L130.52456658681234,84.54755511813693L130.85711325327557,-60.559650131564624L131.45569725290935,125.83822157118055L131.5554612528483,114.43412674085832L131.78824391937258,-4.7189513102212555L131.88800791931152,108.53546010470923L131.95451725260418,132.91661853434246L132.1540452524821,5.11215975002723L132.58635591888427,175.3870153143989L132.9189025853475,149.03963467271598L133.01866658528644,80.2218722520616L133.1184305852254,141.1747458245172L133.38446791839598,182.46541227756083L133.6837599182129,158.08426884901257L134.1825799179077,63.70558766954216L134.6148905843099,-49.54879374321836L135.81205858357748,93.1989358513726L135.8453132502238,185.61137981770833L136.24436924997966,142.74772959459094L136.4771519165039,133.3098569763184L136.51040658315023,85.33404700317381L136.54366124979654,178.13972941148546L136.87620791625977,222.96959434611006L137.00922658284506,38.144698912896104L137.04248124949137,122.69226903211803L137.0757359161377,106.96249133572047L137.2420092493693,72.35698340386281L137.30851858266195,161.62345983005102L137.8738479156494,129.37741255221903L138.8049785817464,116.40034895290802L138.971251914978,103.42328535359702L139.27054391479493,169.09511023627388L139.3703079147339,182.46541227756083L139.43681724802653,91.62595208129883L139.6695999145508,84.15430167507601L139.8358732477824,14.943270810275695L140.23492924753825,112.07466608683268L140.26818391418456,110.50168231675893L140.36794791412353,68.0312705356175L140.43445724741616,113.25439641384548L140.66723991394042,129.37741255221903L141.06629591369628,-296.8995540195041L141.13280524698894,192.6897767808702L141.864407913208,99.49084092949762L141.96417191314697,63.31234922756623L142.96181191253663,54.26771505126962L143.2278492457072,51.121777513292095L144.35850791168212,127.80444378323025L144.52478124491373,127.01795189819337L144.89058257802327,69.21101586371532L145.18987457784016,44.04336554904519L145.42265724436442,76.68266626993815L145.48916657765707,73.14346028781469L145.58893057759605,75.89615938381628L145.65543991088867,103.03004691162107L145.82171324412028,4.718921308051272L145.85496791076662,-25.560888756646037L146.12100524393716,120.72604682006835L146.4868065770467,-20.841967448594787L146.619825243632,79.04212692396378L146.95237191009522,2.359460654025646L147.0853905766805,-143.92745992160377L147.2184092432658,79.43536536593973L147.48444657643637,184.03839604763456L147.65071990966797,41.683904895019566L148.1495399093628,139.60177705552843L148.38232257588703,129.37741255221903L148.6151052424113,55.054221937391496L149.0806705754598,-49.942062187364265L149.11392524210612,213.53172922838L149.14717990875243,80.2218722520616L149.18043457539878,143.53422147962783L149.3799625752767,171.84782433336045L149.44647190856935,110.10844387478299L149.67925457509358,152.57884065483944L149.77901857503255,169.88160212131075L150.1448199081421,154.5450628668891L150.54387590789796,173.81404654541012L150.84316790771484,204.48711005316838L151.14245990753173,125.05172968614366L151.34198790740967,180.10595162353516L151.60802524058025,-53.0879997253418L151.87406257375082,5.50542819417315L151.97382657368976,182.0721738355849L152.1733545735677,29.493333180745434L152.20660924021402,101.85030158352325L152.57241057332357,31.85279383477108L152.60566523996988,198.5884434170193L153.00472123972577,4.3256828660753355L153.43703190612794,144.3207133646647L153.47028657277426,141.1747458245172L153.50354123942057,163.98293548516168L153.53679590606689,49.94203218519428L154.0023612391154,134.09634886135527L154.80047323862712,164.37617392713761L154.9002372385661,154.93830130886505L154.96674657185872,-55.054221937391496L155.03325590515138,180.10595162353516L155.13301990509032,134.09634886135527L155.2660385716756,126.62471345621744L155.36580257161458,146.68017401869034L155.39905723826092,57.806921033393074L155.9976412378947,163.58968204210072L156.3301879043579,16.516254580349447L156.72924390411376,-164.76942737019854L156.8955172373454,-25.560888756646037L156.9287719039917,82.97457134806318L157.3943372370402,165.94915769721135L157.8266479034424,89.65972986924915L157.8599025700887,71.57047651774094L157.92641190338134,154.93830130886505L157.95966657002768,98.70434904446076L158.05943056996662,-57.80695103556306L158.09268523661297,71.177238075765L158.12593990325928,147.07341246066628L158.3587225697835,31.459555392795146L158.42523190307617,-66.0650783257378L158.99056123606366,132.1301266493056L159.05707056935628,164.37617392713761L159.0903252360026,174.60052342936203L159.22334390258789,131.3436347642687L159.32310790252686,65.67180988159186L160.08796523539223,29.493333180745434L160.4205119018555,160.83696794501415L160.9525865681966,215.89119738294815L161.25187856801352,124.26523780110679L161.31838790130615,193.0830152228462L161.3848972345988,-22.414951218668538L161.65093456776935,35.78523825887048L161.95022656758627,93.9854127353245L162.0499905675252,59.37990480346683L163.04763056691488,74.71644405788847L163.2471585667928,153.3653325398763L163.3469225667318,167.91537990926105L163.47994123331708,149.03963467271598L163.679469233195,106.17599945068359L164.01201589965822,59.37990480346683L164.07852523295085,80.61511069403755L164.17828923288982,214.31822111341688L164.74361856587726,159.2639991760254L164.87663723246257,173.42079310234922L165.17592923227946,179.71271318155922L165.47522123209635,144.71395180664064L165.6747492319743,-0.7865068861218774L165.8410225652059,124.65849124416772L166.04055056508383,73.53669872979064L166.57262523142498,168.70185679321295L166.70564389801027,202.5208878411187L166.7721532313029,72.75022184583875L167.07144523111978,7.078381962076919L167.2377185643514,200.16141218600808L167.43724656422933,72.75022184583875L167.63677456410727,102.24355502658419L167.8695572306315,-88.87323798421227L169.0999798965454,64.49209455566402L169.23299856313068,157.29777696397568L169.366017229716,69.9974927476672L169.93134656270345,115.61385706787114L170.13087456258137,62.52587234361433L170.3304025624593,146.2869355767144L170.43016656239826,82.1880944641113L171.16176922861735,19.268983678521014L171.3945518951416,12.977048598226006L171.49431589508055,66.85155520968966L171.8601172281901,173.42079310234922L172.19266389465332,197.01545964694557L172.22591856129964,153.3653325398763L172.32568256123864,72.35698340386281L172.69148389434812,107.35572977769642L173.19030389404296,78.64888848198784L173.65586922709147,132.1301266493056L173.85539722696942,131.73688820732966L173.92190656026204,-24.381173430718228L174.1546892267863,129.37741255221903L174.4872358932495,130.1639044372559L174.58699989318848,184.82488793267146L174.68676389312745,159.2639991760254L174.72001855977373,51.908254397243994L174.85303722635905,180.4991900655111L175.18558389282228,120.72604682006835L175.61789455922442,139.2085236124675L175.65114922587077,170.2748405632867L176.21647855885823,162.4099517150879L176.58227989196777,52.69476128336585L176.88157189178466,36.96498358696827L177.04784522501626,-10.617617946370363L177.2141185582479,-25.954127198621975L177.4136465581258,42.86365022311738L177.7129385579427,89.65972986924915L178.27826789093018,152.1856022128635L178.81034255727133,79.82860380791567L178.91010655721027,136.84906295844186L179.44218122355142,87.30026921522351L179.70821855672202,42.077143336995505L179.8412372233073,113.64763485582145L179.94100122324625,193.0830152228462L180.04076522318522,25.954127198621997L180.07401988983156,162.4099517150879L180.3400572230021,80.2218722520616L180.40656655629476,194.65599899291993L180.77236788940428,38.144698912896104L181.03840522257488,81.00834913601349L181.40420655568442,162.01671327311195L181.53722522226968,163.98293548516168L181.80326255544026,154.15182442491317L182.56811988830566,137.63555484347873L182.7676478881836,14.15679392632382L182.9006665547689,-9.831111060248485L183.3994865544637,133.3098569763184L183.59901455434164,125.05172968614366L183.69877855428058,93.59217429334853L183.76528788757324,198.5884434170193L183.9980705540975,78.2556500400119L184.09783455403647,136.4558245164659L184.23085322062173,-139.99501549750437L184.36387188720704,117.18684083794491L184.39712655385338,27.920349410671683L184.99571055348713,156.11804663696287L185.0622198867798,187.97084047173396L185.19523855336507,85.33404700317381L185.39476655324302,101.45706314154731L185.66080388641356,16.123016138373508L185.9933505528768,112.07466608683268L186.45891588592528,-5.50542819417313L186.55867988586425,172.63430121731233L186.65844388580322,129.77066599527996L187.7225932184855,72.35698340386281L187.88886655171711,102.24355502658419L187.92212121836346,161.23022138807508L188.05513988494872,104.99626912367077L188.188158551534,58.59342791951494L188.22141321818034,53.0879997253418L188.32117721811932,35.391999816894526L188.48745055135092,161.23022138807508L188.85325188446046,163.98293548516168L189.11928921763104,96.73812683241106L189.2523078842163,-66.85155520968966L189.31881721750895,169.88160212131075L189.5183452173869,232.01422102186416L189.78438255055744,157.29777696397568L189.81763721720378,186.3978567016602L190.0171652170817,157.29777696397568L190.11692921702067,132.91661853434246L190.58249455006919,102.24355502658419L190.81527721659342,139.60177705552843L191.5468798828125,172.63430121731233L191.77966254933676,79.04212692396378L191.9791905492147,38.93120579901798L192.11220921579996,103.81652379557296L192.1454638824463,121.11928526204429L192.57777454884848,152.1856022128635L193.04333988189697,106.56923789265954L193.14310388183594,3.1459375379775207L193.2428678817749,42.47038177897144L193.30937721506754,31.85279383477108L193.37588654836017,-79.82863381008566L193.90796121470132,-6.685173522270945L193.97447054799397,166.73563458116323L194.0409798812866,81.40158757798943L194.07423454793295,167.91537990926105L194.10748921457926,117.18684083794491L194.34027188110352,94.37866617838542L194.37352654774986,102.24355502658419L194.97211054738364,172.63430121731233L195.63720388031004,138.02879328545467L196.06951454671224,81.79482601996537L196.50182521311442,188.75733235677083L196.56833454640707,22.80815965847449L197.20017321268716,66.85155520968966L197.33319187927245,68.81777742173935L197.5659745457967,185.61137981770833L197.698993212382,-0.39323844197593727L197.8652665456136,97.131380275472L198.89616121164957,46.40282620307084L199.22870787811277,-13.763555484347863L199.26196254475911,97.131380275472L200.3261118774414,117.97333272298178L201.12422387695312,52.301492839219925L201.52327987670898,125.05172968614366L201.58978921000164,75.50292094184034L201.75606254323324,196.62222120496963L202.08860920969644,147.46666590372723L202.18837320963542,168.30861835123702L202.22162787628173,125.05172968614366L202.48766520945233,134.09634886135527L202.55417454274496,4.718921308051272L202.72044787597656,91.2327136393229L203.95087054189045,36.571715142822356L204.08388920847574,137.63555484347873L204.21690787506103,105.38950756564671L204.44969054158528,199.76817374403214L204.58270920817057,206.84657070719405L204.61596387481688,143.14096803656687L204.68247320810954,148.2531577887641L204.71572787475588,158.87074573296445L205.11478387451172,184.03839604763456L205.41407587432863,116.40034895290802L205.77987720743815,33.81901604682077L206.1456785405477,-39.71768268296988L206.21218787384032,163.19644360012478L206.37846120707195,136.062571073405L206.4449705403646,162.80319015706385L206.6112438735962,215.10470549791125L207.04355453999838,202.91412628309462L207.47586520640056,109.32195198974611L207.9746852060954,154.15182442491317L208.00793987274167,156.5112850789388L208.140958539327,6.2919050781250245L208.27397720591227,72.75022184583875L208.37374120585122,141.96123770955407L209.072089205424,97.131380275472L209.30487187194825,123.87199935913085L209.3713812052409,203.30737972615557L209.43789053853354,137.2423014004178L210.13623853810628,92.80568240831167L210.1694932047526,76.28942782796221L210.26925720469157,127.01795189819337L210.3357665379842,109.32195198974611L210.46878520456949,8.258127290174734L210.50203987121583,63.70558766954216L210.66831320444743,27.527110968695748L210.7348225377401,-91.2327286404079L210.80133187103272,62.52587234361433L211.59944387054443,-281.5630447672525L211.79897187042235,84.9407935601129L211.865481203715,71.57047651774094L212.26453720347087,158.08426884901257L212.6303385365804,152.57884065483944L212.9296305363973,147.85990434570317L212.96288520304364,139.2085236124675L213.0959038696289,26.74060408257387L213.42845053609213,142.354491152615L213.6612332026164,108.53546010470923L213.79425186920167,83.36782479112412L214.02703453572593,-38.53796735704203L214.35958120218913,141.1747458245172L214.42609053548176,59.37990480346683L214.59236386871336,130.95039632229276L214.65887320200602,108.1422216627333L214.75863720194496,92.80568240831167L214.82514653523762,187.97084047173396L215.19094786834717,158.08426884901257L216.05556920115154,201.7343959560818L216.3216065343221,169.48834867824982L216.4213705342611,26.347365640597932L216.48787986755372,125.05172968614366L216.52113453420003,96.73812683241106L216.7539172007243,160.05049106106227L216.88693586730957,114.43412674085832L216.95344520060223,66.85155520968966L217.05320920054118,226.11555438571503L217.91783053334555,212.35199890136718L218.08410386657715,125.05172968614366L218.41665053304035,152.1856022128635L218.81570653279624,112.86115797186956L219.64707319895427,155.72479319390195L220.9440051981608,66.85155520968966L221.276551864624,166.3423961391873L221.74211719767254,119.54630149197054L221.90839053090414,130.95039632229276L222.40721053059895,174.99377687242296L223.03904919687906,123.47874591606991L223.27183186340332,-75.89618938598628L223.37159586334226,93.1989358513726L223.60437852986652,113.25439641384548L223.8371611963908,49.54879374321835L223.93692519632975,167.52212646620012L224.169707862854,82.58133290608724L224.5022545293172,124.26523780110679L224.56876386260984,39.71768268296986L224.66852786254884,165.94915769721135L224.70178252919516,136.84906295844186L224.7350371958415,188.75733235677083L224.76829186248779,209.20603886176215L225.00107452901204,119.54630149197054L225.2338571955363,145.5004436916775L225.5331491953532,192.2965233378093L225.79918652852376,172.2410627753364L226.4642798614502,187.18434858669707L227.2291371943156,92.4124439663357L227.79446652730306,112.86115797186956L228.35979586029052,155.72479319390195L228.4595598602295,112.46790452880862L228.79210652669272,45.22311087714301L228.82536119333903,125.44496812811963L228.89187052663166,83.36782479112412L229.32418119303387,123.47874591606991L230.1888025258382,-39.32444424099394L231.0866785252889,122.69226903211803L231.2529518585205,25.954127198621997L231.35271585845948,115.2206186258952L231.61875319163002,141.96123770955407L231.81828119150796,61.739365457492475L232.1840825246175,147.07341246066628L232.48337452443442,79.04212692396378L232.71615719095865,145.5004436916775L232.9156851908366,148.2531577887641L233.04870385742186,134.88284074639216L233.1152131907145,95.55839650539825L233.14846785736086,206.84657070719405L234.1461078567505,136.84906295844186L234.27912652333578,105.78274600762268L234.3123811899821,110.50168231675893L234.57841852315266,19.268983678521014L235.34327585601807,106.96249133572047L235.40978518931072,180.89244350857203L235.443039855957,160.05049106106227L235.80884118906656,62.91911078559027L235.90860518900556,147.07341246066628L236.37417052205404,187.18434858669707L236.50718918863933,164.37617392713761L236.57369852193196,94.77190462036137L236.97275452168785,147.07341246066628L237.2387918548584,85.33404700317381L237.40506518809002,186.00461825968426L237.47157452138265,105.38950756564671L237.53808385467528,191.5100464538574L239.367090520223,202.12763439805775L239.63312785339355,79.04212692396378L239.8326558532715,-1.1797453280978147L240.1652025197347,-36.571745144992335L240.29822118631998,153.3653325398763L240.43123985290526,81.79482601996537L240.56425851949058,128.9841741102431L240.66402251942952,45.616349319118946L240.73053185272218,39.32444424099392L240.89680518595378,180.4991900655111L241.16284251912435,111.68141264377174L241.76142651875816,89.26649142727321L242.09397318522136,146.2869355767144L242.160482518514,26.347365640597932L242.39326518503825,51.121777513292095L242.65930251820885,66.06504832356781L242.69255718485513,26.347365640597932L242.7923211847941,99.49084092949762L243.25788651784262,133.3098569763184L243.7234518508911,181.67893539360892L243.85647051747642,153.3653325398763L243.8897251841227,184.4316344896105L243.92297985076902,154.5450628668891L244.35529051717123,154.15182442491317L244.55481851704917,69.60425430569126L244.72109185028077,75.89615938381628L244.7543465169271,132.52338009236652L244.82085585021971,211.95875295884875L244.9206198501587,124.26523780110679L244.98712918345134,137.63555484347873L245.0868931833903,92.80568240831167L245.45269451649983,153.75857098185224L246.31731584930418,130.55715788031682L246.91589984893798,90.83946019626195L247.4147198486328,151.3991103278266L247.51448384857176,118.36657116495772L247.5477385152181,117.58007927992085L247.74726651509602,40.50415956692175L248.07981318155925,129.77066599527996L248.54537851460773,146.2869355767144L249.01094384765625,167.52212646620012L249.14396251424154,28.31358785264764L249.24372651418048,141.56799926757813L249.27698118082682,95.1651580634223L250.1748571802775,-104.60301568060986L250.37438518015546,93.9854127353245L250.4741491800944,117.18684083794491L250.7734411799113,171.84782433336045L250.97296917978923,99.09760248752168L251.13924251302083,150.21938000081377L251.17249717966715,192.6897767808702L251.2057518463135,213.53172922838L251.27226117960615,92.01919052327479L251.571553179423,-7.471650406222859L251.67131717936198,166.3423961391873L251.73782651265464,186.79111014472113L252.26990117899578,117.18684083794491L252.3364105122884,186.79111014472113L252.43617451222738,167.52212646620012L252.60244784545898,33.0325391628689L252.73546651204427,98.31111060248482L253.26754117838541,163.98293548516168L253.30079584503176,53.87447660929368L253.43381451161702,96.73812683241106L253.7331065114339,56.233937263319326L254.39819984436033,79.82860380791567L254.79725584411622,-68.03130053778749L255.0965478439331,156.90452352091478L255.19631184387208,203.30737972615557L255.99442384338377,119.1530630499946L256.3602251764933,206.84657070719405L256.5930078430176,160.4437295030382L256.6927718429566,89.65972986924915L256.7592811762492,135.2760791883681L256.82579050954183,138.02879328545467L256.89229984283446,130.95039632229276L257.0918278427124,74.71644405788847L257.2248465092977,143.53422147962783L257.7569211756388,76.68266626993815L258.1227225087484,146.2869355767144L258.189231842041,5.898666636149088L258.6215425084432,127.80444378323025L258.72130650838216,66.85155520968966L258.9208345082601,75.1096824998644L259.48616384124756,191.11679301079647L259.6191825078329,150.6126184427897L259.81871050771076,136.4558245164659L260.11800250752765,-5.112189752197193L260.151257174174,-3.9324444240993786L260.4505491739909,103.03004691162107L260.55031317392985,97.131380275472L260.65007717386885,111.68141264377174L260.8163505071004,76.28942782796221L260.88285984039305,154.5450628668891L261.082387840271,36.17847670084642L261.3816798400879,173.02755466037326L261.61446250661214,80.2218722520616L261.7474811731974,93.9854127353245L261.91375450642903,156.11804663696287L262.4790838394165,128.59093566826712L263.2106865056356,179.71271318155922L263.2771958389282,60.166381687418706L263.3769598388672,-89.26650642835821L263.7427611719767,174.2072849873861L263.975543838501,-14.943300812445678L264.20832650502524,197.80195153198244L264.7071465047201,117.58007927992085L265.20596650441485,144.3207133646647L265.2392211710612,161.62345983005102L265.4387491709391,182.85866572062176L265.77129583740236,26.347365640597932L265.93756917063394,117.18684083794491L266.0040785039266,110.10844387478299L266.10384250386556,5.50542819417315L266.4696438369751,91.2327136393229L266.669171836853,165.94915769721135L267.0017185033162,95.95163494737419L267.0349731699626,22.414921216498534L267.1014825032552,167.91537990926105L267.5337931696574,138.42204672851562L267.76657583618163,17.695999908447263L267.83308516947426,130.1639044372559L267.86633983612063,176.56674564141173L268.730961168925,93.59217429334853L268.9637438354492,124.26523780110679L269.72860116831464,83.76106323310006L269.9613838348389,113.25439641384548L270.06114783477784,93.9854127353245L270.2606758346558,141.56799926757813L271.524353167216,33.81901604682077L271.95666383361817,112.86115797186956L271.9899185002645,222.57635590413412L272.05642783355717,128.9841741102431L272.25595583343505,-2.3594606540256264L272.35571983337405,-1.9662222120496893L272.8877944997152,140.78150738254126L272.9543038330078,100.2773328145345L273.2203411661784,83.76106323310006L273.5528878326416,202.12763439805775L274.4840184987386,209.99253074679908L274.7500558319092,86.90701577216258L274.88307449849447,14.550032368299759L275.18236649831135,146.68017401869034L275.21562116495767,145.5004436916775L275.8142051645915,118.75982460801866L276.1134971644084,86.51377733018664L276.31302516428633,113.25439641384548L277.01137316385905,98.70434904446076L277.1776464970907,141.1747458245172L277.31066516367594,11.797333272298175L277.3771744969686,151.3991103278266L277.80948516337077,129.37741255221903L277.8759944966634,79.82860380791567L277.9757584966024,154.5450628668891L278.14203182983397,161.62345983005102L278.2750504964193,162.01671327311195L278.50783316294354,143.53422147962783L278.6075971628825,149.4328881157769L278.87363449605306,123.08550747409397L279.13967182922363,24.381143428548242L279.93778382873535,-107.74898322075737L280.1705664952596,77.07590471191409L280.5363678283691,156.90452352091478L280.56962249501544,18.875715234375093L280.66938649495444,-0.39323844197593727L280.7691504948934,145.89368213365344L281.36773449452716,170.2748405632867L281.50075316111247,95.95163494737419L281.63377182769773,140.78150738254126L281.70028116099036,137.2423014004178L281.76679049428304,118.75982460801866" fill="none"></path></g></g></g></g></g></g><g transform="translate(30, 176)" clip-path="url(#clip_1)"><clipPath id="clip_1"><rect width="299" height="23"></rect></clipPath><g><g><line x1="0" y1="0" x2="0" y2="5" style="visibility: inherit;" fill="rgb(0, 0, 0)" stroke="rgb(204, 204, 204)" stroke-width="1px"></line><line x1="33.25466664632161" y1="0" x2="33.25466664632161" y2="5" style="visibility: inherit;" fill="rgb(0, 0, 0)" stroke="rgb(204, 204, 204)" stroke-width="1px"></line><line x1="66.50933329264322" y1="0" x2="66.50933329264322" y2="5" style="visibility: inherit;" fill="rgb(0, 0, 0)" stroke="rgb(204, 204, 204)" stroke-width="1px"></line><line x1="99.76399993896484" y1="0" x2="99.76399993896484" y2="5" style="visibility: inherit;" fill="rgb(0, 0, 0)" stroke="rgb(204, 204, 204)" stroke-width="1px"></line><line x1="133.01866658528644" y1="0" x2="133.01866658528644" y2="5" style="visibility: inherit;" fill="rgb(0, 0, 0)" stroke="rgb(204, 204, 204)" stroke-width="1px"></line><line x1="166.2733332316081" y1="0" x2="166.2733332316081" y2="5" style="visibility: inherit;" fill="rgb(0, 0, 0)" stroke="rgb(204, 204, 204)" stroke-width="1px"></line><line x1="199.5279998779297" y1="0" x2="199.5279998779297" y2="5" style="visibility: inherit;" fill="rgb(0, 0, 0)" stroke="rgb(204, 204, 204)" stroke-width="1px"></line><line x1="232.7826665242513" y1="0" x2="232.7826665242513" y2="5" style="visibility: inherit;" fill="rgb(0, 0, 0)" stroke="rgb(204, 204, 204)" stroke-width="1px"></line><line x1="266.0373331705729" y1="0" x2="266.0373331705729" y2="5" style="visibility: inherit;" fill="rgb(0, 0, 0)" stroke="rgb(204, 204, 204)" stroke-width="1px"></line><line x1="299.29199981689453" y1="0" x2="299.29199981689453" y2="5" style="visibility: inherit;" fill="rgb(0, 0, 0)" stroke="rgb(204, 204, 204)" stroke-width="1px"></line></g><g transform="translate(0, 8)"><text style="text-anchor: middle; visibility: hidden; font-family: Roboto, sans-serif; font-size: 12px; font-weight: 200;" x="0" y="0" dx="0em" dy="0.95em" fill="rgb(33, 33, 33)" stroke="none" stroke-width="1px">-1k</text><text style="text-anchor: middle; visibility: inherit; font-family: Roboto, sans-serif; font-size: 12px; font-weight: 200;" x="33.25466664632161" y="0" dx="0em" dy="0.95em" fill="rgb(33, 33, 33)" stroke="none" stroke-width="1px">0</text><text style="text-anchor: middle; visibility: inherit; font-family: Roboto, sans-serif; font-size: 12px; font-weight: 200;" x="66.50933329264322" y="0" dx="0em" dy="0.95em" fill="rgb(33, 33, 33)" stroke="none" stroke-width="1px">1k</text><text style="text-anchor: middle; visibility: inherit; font-family: Roboto, sans-serif; font-size: 12px; font-weight: 200;" x="99.76399993896484" y="0" dx="0em" dy="0.95em" fill="rgb(33, 33, 33)" stroke="none" stroke-width="1px">2k</text><text style="text-anchor: middle; visibility: inherit; font-family: Roboto, sans-serif; font-size: 12px; font-weight: 200;" x="133.01866658528644" y="0" dx="0em" dy="0.95em" fill="rgb(33, 33, 33)" stroke="none" stroke-width="1px">3k</text><text style="text-anchor: middle; visibility: inherit; font-family: Roboto, sans-serif; font-size: 12px; font-weight: 200;" x="166.2733332316081" y="0" dx="0em" dy="0.95em" fill="rgb(33, 33, 33)" stroke="none" stroke-width="1px">4k</text><text style="text-anchor: middle; visibility: inherit; font-family: Roboto, sans-serif; font-size: 12px; font-weight: 200;" x="199.5279998779297" y="0" dx="0em" dy="0.95em" fill="rgb(33, 33, 33)" stroke="none" stroke-width="1px">5k</text><text style="text-anchor: middle; visibility: inherit; font-family: Roboto, sans-serif; font-size: 12px; font-weight: 200;" x="232.7826665242513" y="0" dx="0em" dy="0.95em" fill="rgb(33, 33, 33)" stroke="none" stroke-width="1px">6k</text><text style="text-anchor: middle; visibility: inherit; font-family: Roboto, sans-serif; font-size: 12px; font-weight: 200;" x="266.0373331705729" y="0" dx="0em" dy="0.95em" fill="rgb(33, 33, 33)" stroke="none" stroke-width="1px">7k</text><text style="text-anchor: middle; visibility: hidden; font-family: Roboto, sans-serif; font-size: 12px; font-weight: 200;" x="299.29199981689453" y="0" dx="0em" dy="0.95em" fill="rgb(33, 33, 33)" stroke="none" stroke-width="1px">8k</text></g><line x1="0" y1="0" x2="299.29199981689453" y2="0" fill="rgb(0, 0, 0)" stroke="rgb(204, 204, 204)" stroke-width="1px"></line></g></g></g></g></svg>