<svg viewBox="0 0 330 200" xmlns="http://www.w3.org/2000/svg"><g><g><g><g><g><line x1="41.0620002746582" y1="176.95999908447266" x2="36.0620002746582" y2="176.95999908447266" style="visibility: inherit;" fill="rgb(0, 0, 0)" stroke="rgb(204, 204, 204)" stroke-width="1px"></line><line x1="41.0620002746582" y1="154.83999919891357" x2="36.0620002746582" y2="154.83999919891357" style="visibility: inherit;" fill="rgb(0, 0, 0)" stroke="rgb(204, 204, 204)" stroke-width="1px"></line><line x1="41.0620002746582" y1="132.7199993133545" x2="36.0620002746582" y2="132.7199993133545" style="visibility: inherit;" fill="rgb(0, 0, 0)" stroke="rgb(204, 204, 204)" stroke-width="1px"></line><line x1="41.0620002746582" y1="110.59999942779541" x2="36.0620002746582" y2="110.59999942779541" style="visibility: inherit;" fill="rgb(0, 0, 0)" stroke="rgb(204, 204, 204)" stroke-width="1px"></line><line x1="41.0620002746582" y1="88.47999954223633" x2="36.0620002746582" y2="88.47999954223633" style="visibility: inherit;" fill="rgb(0, 0, 0)" stroke="rgb(204, 204, 204)" stroke-width="1px"></line><line x1="41.0620002746582" y1="66.35999965667725" x2="36.0620002746582" y2="66.35999965667725" style="visibility: inherit;" fill="rgb(0, 0, 0)" stroke="rgb(204, 204, 204)" stroke-width="1px"></line><line x1="41.0620002746582" y1="44.239999771118164" x2="36.0620002746582" y2="44.239999771118164" style="visibility: inherit;" fill="rgb(0, 0, 0)" stroke="rgb(204, 204, 204)" stroke-width="1px"></line><line x1="41.0620002746582" y1="22.119999885559082" x2="36.0620002746582" y2="22.119999885559082" style="visibility: inherit;" fill="rgb(0, 0, 0)" stroke="rgb(204, 204, 204)" stroke-width="1px"></line><line x1="41.0620002746582" y1="0" x2="36.0620002746582" y2="0" style="visibility: inherit;" fill="rgb(0, 0, 0)" stroke="rgb(204, 204, 204)" stroke-width="1px"></line></g><g transform="translate(31.062000274658203, 0)"><text style="text-anchor: end; visibility: hidden; font-family: Roboto, sans-serif; font-size: 12px; font-weight: 200;" x="0" y="176.95999908447266" dx="0em" dy="0.3em" fill="rgb(33, 33, 33)" stroke="none" stroke-width="1px">0</text><text style="text-anchor: end; visibility: inherit; font-family: Roboto, sans-serif; font-size: 12px; font-weight: 200;" x="0" y="154.83999919891357" dx="0em" dy="0.3em" fill="rgb(33, 33, 33)" stroke="none" stroke-width="1px">0.5</text><text style="text-anchor: end; visibility: hidden; font-family: Roboto, sans-serif; font-size: 12px; font-weight: 200;" x="0" y="132.7199993133545" dx="0em" dy="0.3em" fill="rgb(33, 33, 33)" stroke="none" stroke-width="1px">1</text><text style="text-anchor: end; visibility: inherit; font-family: Roboto, sans-serif; font-size: 12px; font-weight: 200;" x="0" y="110.59999942779541" dx="0em" dy="0.3em" fill="rgb(33, 33, 33)" stroke="none" stroke-width="1px">1.5</text><text style="text-anchor: end; visibility: hidden; font-family: Roboto, sans-serif; font-size: 12px; font-weight: 200;" x="0" y="88.47999954223633" dx="0em" dy="0.3em" fill="rgb(33, 33, 33)" stroke="none" stroke-width="1px">2</text><text style="text-anchor: end; visibility: inherit; font-family: Roboto, sans-serif; font-size: 12px; font-weight: 200;" x="0" y="66.35999965667725" dx="0em" dy="0.3em" fill="rgb(33, 33, 33)" stroke="none" stroke-width="1px">2.5</text><text style="text-anchor: end; visibility: hidden; font-family: Roboto, sans-serif; font-size: 12px; font-weight: 200;" x="0" y="44.239999771118164" dx="0em" dy="0.3em" fill="rgb(33, 33, 33)" stroke="none" stroke-width="1px">3</text><text style="text-anchor: end; visibility: inherit; font-family: Roboto, sans-serif; font-size: 12px; font-weight: 200;" x="0" y="22.119999885559082" dx="0em" dy="0.3em" fill="rgb(33, 33, 33)" stroke="none" stroke-width="1px">3.5</text><text style="text-anchor: end; visibility: hidden; font-family: Roboto, sans-serif; font-size: 12px; font-weight: 200;" x="0" y="0" dx="0em" dy="0.3em" fill="rgb(33, 33, 33)" stroke="none" stroke-width="1px">4</text></g><line x1="41.0620002746582" y1="0" x2="41.0620002746582" y2="176.95999908447266" fill="rgb(0, 0, 0)" stroke="rgb(204, 204, 204)" stroke-width="1px"></line></g></g><g transform="translate(41, 0)" clip-path="url(#clip_0)"><clipPath id="clip_0"><rect width="288" height="176"></rect></clipPath><g><g><g><line x1="0" y1="0" x2="0" y2="176.95999908447266" fill="rgb(0, 0, 0)" stroke="rgb(66, 66, 66)" stroke-width="1px" opacity="0.25"></line><line x1="32.10422219170464" y1="0" x2="32.10422219170464" y2="176.95999908447266" fill="rgb(0, 0, 0)" stroke="rgb(66, 66, 66)" stroke-width="1px" opacity="0.25"></line><line x1="64.20844438340929" y1="0" x2="64.20844438340929" y2="176.95999908447266" fill="rgb(0, 0, 0)" stroke="rgb(66, 66, 66)" stroke-width="1px" opacity="0.25"></line><line x1="96.31266657511392" y1="0" x2="96.31266657511392" y2="176.95999908447266" fill="rgb(0, 0, 0)" stroke="rgb(66, 66, 66)" stroke-width="1px" opacity="0.25"></line><line x1="128.41688876681857" y1="0" x2="128.41688876681857" y2="176.95999908447266" fill="rgb(0, 0, 0)" stroke="rgb(66, 66, 66)" stroke-width="1px" opacity="0.25"></line><line x1="160.52111095852322" y1="0" x2="160.52111095852322" y2="176.95999908447266" fill="rgb(0, 0, 0)" stroke="rgb(66, 66, 66)" stroke-width="1px" opacity="0.25"></line><line x1="192.62533315022785" y1="0" x2="192.62533315022785" y2="176.95999908447266" fill="rgb(0, 0, 0)" stroke="rgb(66, 66, 66)" stroke-width="1px" opacity="0.25"></line><line x1="224.72955534193252" y1="0" x2="224.72955534193252" y2="176.95999908447266" fill="rgb(0, 0, 0)" stroke="rgb(66, 66, 66)" stroke-width="1px" opacity="0.25"></line><line x1="256.83377753363715" y1="0" x2="256.83377753363715" y2="176.95999908447266" fill="rgb(0, 0, 0)" stroke="rgb(66, 66, 66)" stroke-width="1px" opacity="0.25"></line><line x1="288.9379997253418" y1="0" x2="288.9379997253418" y2="176.95999908447266" fill="rgb(0, 0, 0)" stroke="rgb(66, 66, 66)" stroke-width="1px" opacity="0.25"></line></g><g><line x1="0" y1="176.95999908447266" x2="288.9379997253418" y2="176.95999908447266" fill="rgb(0, 0, 0)" stroke="rgb(66, 66, 66)" stroke-width="1px" opacity="0.25"></line><line x1="0" y1="154.83999919891357" x2="288.9379997253418" y2="154.83999919891357" fill="rgb(0, 0, 0)" stroke="rgb(66, 66, 66)" stroke-width="1px" opacity="0.25"></line><line x1="0" y1="132.7199993133545" x2="288.9379997253418" y2="132.7199993133545" fill="rgb(0, 0, 0)" stroke="rgb(66, 66, 66)" stroke-width="1px" opacity="0.25"></line><line x1="0" y1="110.59999942779541" x2="288.9379997253418" y2="110.59999942779541" fill="rgb(0, 0, 0)" stroke="rgb(66, 66, 66)" stroke-width="1px" opacity="0.25"></line><line x1="0" y1="88.47999954223633" x2="288.9379997253418" y2="88.47999954223633" fill="rgb(0, 0, 0)" stroke="rgb(66, 66, 66)" stroke-width="1px" opacity="0.25"></line><line x1="0" y1="66.35999965667725" x2="288.9379997253418" y2="66.35999965667725" fill="rgb(0, 0, 0)" stroke="rgb(66, 66, 66)" stroke-width="1px" opacity="0.25"></line><line x1="0" y1="44.239999771118164" x2="288.9379997253418" y2="44.239999771118164" fill="rgb(0, 0, 0)" stroke="rgb(66, 66, 66)" stroke-width="1px" opacity="0.25"></line><line x1="0" y1="22.119999885559082" x2="288.9379997253418" y2="22.119999885559082" fill="rgb(0, 0, 0)" stroke="rgb(66, 66, 66)" stroke-width="1px" opacity="0.25"></line><line x1="0" y1="0" x2="288.9379997253418" y2="0" fill="rgb(0, 0, 0)" stroke="rgb(66, 66, 66)" stroke-width="1px" opacity="0.25"></line></g></g></g><g><g><line x1="0" y1="176.95999908447266" x2="288.9379997253418" y2="176.95999908447266" fill="rgb(0, 0, 0)" stroke="rgb(153, 153, 153)" stroke-width="1.5px"></line></g></g><g><g><line x1="32.10422219170464" y1="0" x2="32.10422219170464" y2="176.95999908447266" fill="rgb(0, 0, 0)" stroke="rgb(153, 153, 153)" stroke-width="1.5px"></line></g></g><g><g><g><g><g><path style="fill: none;" stroke="rgb(255, 112, 67)" stroke-width="2px" d="M32.26474330266316,72.55425821914332L32.71420241334703,99.17260221519578L32.97103619088067,105.88588178818694L33.00314041307237,123.6411190233662L33.420495301564536,101.84491730476869L33.64522485690647,114.36081768979685L33.67732907909817,112.07302020262536L34.12678818978204,110.98487784986777L34.158892411973746,110.77923432681739L34.28730930074056,117.37233268945097L34.41572618950738,122.81025594186089L34.60835152265761,124.0577605449889L34.76887263361613,128.13661467756714L34.993602188958064,121.93977360497593L35.314644410875104,125.62203761536925L35.443061299641926,128.84593915601496L35.57147818840875,131.6756179349955L36.02093729909261,128.7624304417684L36.14935418785943,131.30400252831234L36.181458410051135,126.19941867018849L36.24566685443454,120.32749235859528L36.30987529881796,118.58885988417981L36.75933440950181,118.07216764959091L36.855647076076934,117.87825188441475L37.17668929799398,117.53730832579434L37.27300196456909,109.6659658803403L37.3372104089525,112.13116230504141L37.40141885333591,111.2030564874497L37.65825263086955,113.49623859225841L37.81877374182807,113.72373471320527L38.268232852511936,113.05587257433994L38.65348351881239,113.37829189480894L38.717691963195804,114.03608031447054L38.97452574072944,114.47340779329062L39.48819329579671,113.80729498837363L39.969756628672286,112.2498715382226L40.00186085086399,112.53188920197952L40.41921573935615,111.70696830849406L40.45131996154785,113.18511953270435L40.83657062784831,113.60659431430696L40.93288329442342,113.26189051802967L41.189717071957055,112.4952623996777L41.28602973853218,112.81026702338684L41.4465508494907,113.60141881081634L41.60707196044922,113.94325765641312L42.024426848941374,113.8597176116798L42.28126062647502,113.22932731796713L42.34546907085842,106.23466114850035L42.37757329305013,106.8206614849573L42.47388595962524,107.25568420638183L43.21228307003445,107.48829804435306L43.24438729222616,107.15589874298836L43.62963795852661,106.63932035272059L43.82226329167684,104.84004543427704L43.854367513868546,104.22239120909205L43.886471736060244,103.96684171812015L44.27172240236071,104.62640898089056L44.528556179894345,104.64160775685095L44.65697306866116,104.56251397593233L44.72118151304456,102.7627931958933L45.04222373496162,100.14704083271644L45.10643217934503,100.90893291654876L45.45957862345377,100.87228082335606L45.68430817879571,99.16747456796149L46.13376728947958,100.00434284015623L46.16587151167128,99.64422357149193L46.23007995605469,100.59173318212726L46.45480951139662,98.08878474156037L46.93637284427219,98.54690297948046L47.06478973303901,99.10557956302237L47.22531084399753,99.2483301244105L47.35372773276435,99.66796920866575L47.38583195495605,96.67569782956183L47.54635306591458,93.96363171972239L47.57845728810628,94.33202226478645L47.77108262125651,41.7140985428042L48.50947973166572,43.51470154888059L48.573688176049124,44.79934410706874L48.60579239824083,45.65642560468303L48.637896620432535,46.572872485849146L48.734209287007644,47.75298726684679L48.79841773139106,48.80563512839376L49.24787684207492,49.32045288514181L49.27998106426663,50.017226738451804L49.34418950865004,50.98007278189782L49.40839795303345,51.84931114618571L49.472606397416854,52.56714949514925L49.601023286183676,53.54213678598485L49.665231730567086,54.17039724050529L49.85785706371731,54.30385379267469L49.986273952484126,55.148803947631066L50.17889928563436,54.834834007050674L50.24310773001777,53.47618373636956L50.37152461878459,54.149270233429725L50.88519217385186,54.70233786314543L51.07781750700209,55.07573917239522L51.20623439576891,55.96002088978297L51.27044284015231,56.62145340942928L51.848318839602996,57.252805895911585L52.13725683932834,57.86563021358957L52.297777950286864,54.761919244391095L52.32988217247857,55.37515310721867L52.586715950012206,55.68169490296252L52.77934128316244,55.689462614210335L52.81144550535414,56.503661339766204L53.260904616038,57.316634635781206L53.549842615763346,58.176305668952324L53.80667639329699,58.87248318538185L53.83878061548869,59.44506708298047L54.35244817055597,59.70851243882935L54.41665661493937,60.3639098796248L55.283470614115394,60.08703720578227L55.347679058498805,60.08808691492207L55.411887502882216,60.745797914202434L55.50820016945733,58.70119768838515L55.60451283603244,54.31819531731945L56.021867724524604,54.5561824957287L56.6639521683587,55.24673311563422L57.01709861246745,56.070915020662824L57.049202834659155,56.71744184140675L57.24182816780937,56.12690134175255L57.434453500959606,56.777686140707104L57.94812105602688,57.55047387947598L57.98022527821858,57.479487430916905L58.044433722602,58.20359983816662L58.42968438890245,58.494012759004995L58.847039277394614,58.49426523168077L59.10387305492825,59.08114042047309L59.20018572150337,59.74080536913296L59.649644832187235,60.543741819621715L59.81016594314575,61.136155453424934L59.93858283191257,61.71146031422861L60.09910394287109,62.169105785757495L60.58066727574666,61.23072571732001L60.93381371985541,61.773378011405505L61.06223060862224,62.31024691183479L61.993253052181664,62.82011588510534L62.05746149656508,63.24778213754568L62.37850371848212,63.54941178048835L62.60323327382406,63.94019608372458L63.05269238450792,64.34029006342737L64.20844438340929,9.378884995065292L64.3047570499844,10.171079541162344L64.36896549436781,10.969851301574053L64.72211193847656,11.773430421854217L64.9468414938185,12.637490402690755L65.0752583825853,13.281020627405475L65.13946682696873,13.95485970318492L65.42840482669406,15.122248274638066L66.03838504833645,15.96343986503137L66.48784415902031,16.806672014791776L66.51994838121202,17.537393391428566L66.58415682559543,18.2099449922387L66.71257371436225,18.8388852590676L67.0015117140876,19.432618380231446L67.38676238038805,20.307203327558216L67.51517926915487,20.935062708344958L67.57938771353828,21.242581183329893L67.67570038011338,21.718029448023472L67.73990882449681,22.531857991126653L67.8041172688802,23.11138357947596L68.12515949079726,23.656943857869567L68.25357637956408,24.304366241202832L68.478305934906,25.003505126424304L68.54251437928941,25.995977433683105L68.70303549024794,26.609578831567838L68.92776504558987,27.3217616247291L69.08828615654839,27.922150214264473L69.1203903787401,19.26817126570707L69.50564104504055,19.857658595883315L69.8266832669576,20.840679292901132L69.89089171134101,21.50539344231853L69.92299593353272,22.226968635635295L70.14772548887466,21.842370647007026L70.43666348859999,22.09608639917698L70.4687677107917,22.16080598829375L70.85401837709215,22.8462221287796L71.11085215462579,23.451317365189997L71.23926904339261,24.080588170498064L71.46399859873453,24.701153702095L72.07397882037692,24.706812771531315L72.13818726476033,25.038078183767208L72.29870837571886,25.238336996060156L72.33081259791057,26.09116219015003L72.39502104229396,26.687077013758792L72.49133370886908,26.86783662260816L72.61975059763591,27.477060631410943L72.81237593078613,28.061740290584336L72.94079281955295,28.639911876649652L73.10131393051148,29.181342982635027L73.2939392636617,29.290064362068446L73.55077304119533,29.645559657672976L73.80760681872897,30.28106402365926L74.06444059626263,30.633308916900756L74.35337859598796,30.166719663044717L74.57810815132989,30.732010039779645L74.674420817905,31.509968073885982L74.70652504009671,32.072833068407405L74.99546303982204,2.422299288062626L75.3165052617391,3.1218541182572115L75.79806859461466,3.8419957434082126L75.92648548338148,4.074041986695226L76.27963192749024,4.814465960254268L76.31173614968195,5.148472332140912L76.44015303844876,5.881054813389289L77.62800925954183,6.378609429758316L78.30219792556763,6.878777552288692L78.33430214775935,7.774716033051908L78.91217814721003,8.392892863543299L78.94428236940172,8.667017518678183L79.04059503597684,8.93694601650078L79.457949924469,9.314221969811141L79.5221583688524,9.97441667407018L79.87530481296115,10.700341179310808L79.97161747953628,11.330273837983697L80.10003436830308,11.77192477753193L80.35686814583671,12.299213814196127L80.58159770117867,12.941939336143147L80.61370192337037,13.749593643673045L80.71001458994547,14.26229401338464L80.80632725652059,14.77763803648128L81.19157792282105,15.574545299796895L81.38420325597127,16.148303562750268L81.51262014473808,16.605241574265666L81.83366236665513,17.09741955656788L81.92997503323025,17.435185416115722L82.37943414391411,18.050011317323197L82.47574681048923,14.710583149281396L82.63626792144775,15.275970665946137L82.73258058802287,16.046710804850285L83.0215185877482,16.813974683821947L83.37466503185696,17.581187866481347L83.53518614281548,18.113375146076805L83.59939458719889,18.52472173189022L84.3698959197998,19.078510906403185L84.62672969733343,19.39218744214491L84.69093814171684,19.94059049381349L85.0119803636339,19.592774389989255L85.23670991897582,20.132132506212205L85.49354369650946,20.855156833656405L85.75037747404309,21.215722154024093L85.97510702938504,21.493513917443376L86.03931547376844,21.990987846818495L86.23194080691867,22.51833607653339L86.52087880664402,23.223431800720274L86.77771258417765,23.57956188895126L86.84192102856107,24.04702266316086L86.93823369513618,24.561565559382444L87.03454636171129,25.24289480596369L87.066650583903,25.7449905890715L87.29138013924492,26.121915802840103L87.45190125020345,26.785972098160286L87.67663080554539,27.44934205132L87.96556880527073,28.080735863987346L88.15819413842095,28.495043991482028L88.4471321381463,28.896028006433617L88.80027858225505,29.50901097350087L89.1213208041721,29.954309470461443L89.1855292485555,30.281106135063844L89.41025880389743,30.573246987254443L89.57077991485596,31.200495719131567L89.66709258143108,31.63364658331032L89.9239263589647,32.25680363462001L90.5339065806071,32.87169599697788L91.43282480197482,33.47144449652209L91.56124169074164,33.791810875494505L91.85017969046699,34.255929048555295L92.0107008014255,34.50707257522517L92.07490924580891,34.65781675973512L92.74909791183472,35.075042712390015L93.10224435594347,34.28736334922884L93.19855702251857,34.87462304252168L93.39118235566882,35.46486385993725L93.42328657786051,36.04766154257198L93.90484991073609,36.352679800129316L93.9369541329278,36.9300755532638L94.29010057703653,37.241018919549035L94.41851746580336,37.80345593067365L94.57903857676187,38.35113194579665L94.64324702114529,38.75408396637354L94.93218502087063,39.11340652616752L95.06060190963746,39.52661397635722L95.09270613182916,40.07254499099139L95.15691457621256,40.62370994989659L95.18901879840426,41.16702678239249L95.25322724278767,41.51750836354847L95.60637368689643,41.873354950841936L95.67058213127984,42.39818779639657L95.92741590881349,42.70452056055729L95.95952013100519,42.9880236516468L96.0558327975803,43.511325736876195L97.17948057428995,43.882407398351745L98.59206635072496,43.80385511665521L98.8810043504503,44.130503974939344L99.20204657236735,44.263433701212875L99.5551930164761,44.345107413956015L99.65150568305123,44.73533619979528L99.84413101620144,45.000507074570955L100.00465212715996,45.49162027112515L100.03675634935166,45.848395313647416L100.1651732381185,46.168421096348574L100.1972774603102,46.6659557808476L100.42200701565213,47.1604238277178L100.80725768195259,47.63653228947876L101.44934212578667,47.920997112953984L101.77038434770373,48.381376026052706L102.34826034715441,48.72798043071434L102.57298990249633,49.20405079917869L103.05455323537191,49.52870073141138L103.24717856852213,49.64515538111292L103.56822079043918,49.90276055440773L103.92136723454794,50.19996047527216L104.01767990112305,50.6665284420213L104.17820101208157,50.99507947593463L104.59555590057373,51.145833206041395L105.36605723317463,51.34890942899707L106.13655856577556,51.79383809940479L106.48970500988432,52.244989006143726L106.58601767645942,52.481831790951155L106.74653878741795,52.92971184827732L107.00337256495158,53.245958737639135L107.32441478686863,53.54292913963068L107.64545700878567,52.426945204247104L107.87018656412761,52.86860256946942L108.83331322987874,53.144687323674326L108.96173011864556,53.2974945373911L108.99383434083727,53.38393722923642L109.12225122960407,53.64435732859685L110.18169056193035,53.79713128590119L110.34221167288887,54.02930714621311L110.50273278384738,54.462143227223265L110.92008767233955,54.70220980036254L111.17692144987318,54.850231211722054L111.27323411644831,55.273739871348916L111.91531856028239,55.52141903570119L112.17215233781603,55.78705958587506L112.33267344877454,56.06402988725621L112.39688189315797,56.48003148233147L112.49319455973307,56.69956941997271L112.55740300411648,56.946738658768275L112.58950722630819,57.34237793091289L112.94265367041695,57.62443455524959L113.00686211480036,58.02953987135224L113.07107055918375,58.16416194950569L113.29580011452569,58.319151843033836L113.36000855890909,58.516590159381934L113.61684233644273,47.148894755307474L114.48365633561875,47.586089345249874L114.51576055781047,48.01940420947801L114.86890700191921,48.35760633425632L114.90101122411092,48.78870356131136L115.22205344602797,48.98513234452541L115.35047033479478,49.02575132025028L115.57519989013673,49.188169998078024L115.79992944547865,49.369769375435354L116.21728433397081,49.790159371921916L116.47411811150444,50.208267325516566L116.50622233369614,50.40521980448935L116.7309518890381,50.81585685447886L116.8272645556132,51.226664924407935L116.8593687778049,51.42689135543068L116.89147299999661,51.83442336890487L116.98778566657172,52.23760821903022L117.5977658882141,52.634423549969846L117.85459966574776,53.032658716334375L117.88670388793945,53.238887798730346L117.98301655451456,53.638288276375846L118.2077461098565,53.77347299204927L118.30405877643162,54.16932803685367L118.36826722081503,54.46847500030175L118.46457988739013,54.72928254753894L118.59299677615695,55.02378752321994L118.8819347758823,55.38556934261343L119.07456010903252,55.59120313619676L119.23508121999106,55.878878692432764L119.36349810875787,56.25487010586301L119.74874877505832,56.19563032696188L119.78085299725004,56.572393996130394L119.90926988601684,56.94505135269829L120.06979099697537,57.32128466779859L120.10189521916708,57.51718077060216L120.13399944135878,57.889293000210124L120.23031210793388,58.250916192900576L120.51925010765923,58.61003386025005L120.55135432985094,58.97082952969979L120.58345855204264,59.31966489923726L120.74397966300116,58.94527840433979L120.9045007739597,59.308340098592026L121.00081344053481,59.6587843661017L121.16133455149333,60.01691233179523L121.32185566245184,60.37250960509935L121.54658521779379,60.551922198654246L121.93183588409424,60.690333953110546L122.41339921696982,60.71255939154302L122.79864988327026,60.89393351836942L123.11969210518731,61.24361152999999L123.24810899395413,61.43362861530123L123.44073432710435,61.779587408378994L123.66546388244629,61.939685175501474L123.98650610436333,62.04133775274263L124.01861032655505,62.197734636045226L124.62859054819744,62.41790450879753L124.66069477038914,62.63725241790516L124.94963277011448,62.590969978468785L125.01384121449787,62.62340393787343L125.81644676929051,62.94095386304002L125.91275943586561,63.2770456108489L126.00907210244073,63.48290701485518L126.33011432435778,63.81831430493012L126.90799032380846,63.99350380289198L127.00430299038356,64.2052421555099L127.22903254572552,64.53254740298408L127.32534521230062,64.72864550161191L127.38955365668403,65.04969053608595L127.58217898983425,65.37385993774086L127.99953387832642,65.69961362743888L128.32057610024347,65.80015337995904L128.41688876681857,66.12150264651858L128.51320143339368,66.44312414771856L128.77003521092732,66.29834593167492L129.05897321065265,66.23833423590453L129.54053654352822,66.55524918843462L129.9578914320204,66.86721420329255L131.11364343092177,67.10161757271601L131.14574765311346,67.29538604491528L131.53099831941392,67.60788064183681L131.75572787475588,67.91570935731512L131.78783209694757,68.22265506712397L131.81993631913926,68.25484609606073L132.0125616522895,68.50182258311935L132.1409785410563,68.80941450625728L132.26939542982313,68.9808392253625L132.30149965201485,69.21011776300624L132.33360387420655,69.50744462967806L132.49412498516506,69.6684561335797L132.55833342954847,69.96626987764425L133.10410520680745,70.26485021613276L134.0030234281752,70.35314783780699L134.1635445391337,70.64669673098697L134.45248253885904,70.65067770128182L134.54879520543417,70.70270379066085L134.61300364981759,70.99574561672765L134.8377332051595,71.16741627914986L134.99825431611802,69.40979661765195L135.3835049824185,69.19832289591471L135.41560920461018,69.377518327921L135.5119218711853,69.51549229418895L135.57613031556872,69.8100052614991L135.80085987091064,70.10332737517085L136.1861105372111,70.31216324960214L136.25031898159452,70.60368459399444L136.956611869812,70.89150153998526L137.05292453638714,71.17911389695072L138.01605120213827,71.22589607527708L138.27288497967191,71.06335070443964L139.36442853418987,71.22423861705282L139.52494964514838,71.0557922437489L139.87809608925713,71.16921307536576L140.16703408898246,71.3418598974228L140.3917636443244,71.31195765080976L140.45597208870782,71.59376511309453L140.55228475528293,71.7578858519708L140.61649319966634,71.87015594474528L140.77701431062488,72.07081154042736L140.80911853281657,72.19932811030776L141.0659523103502,72.4772462278773L141.41909875445896,72.62615198064975L141.54751564322578,72.9025729029375L141.86855786514283,73.09167121263853L141.99697475390965,73.2158109778784L142.12539164267645,73.48957365253939L142.3822254202101,73.52016599773086L142.54274653116863,73.66944508787314L143.0243098640442,73.67089714382348L143.24903941938612,73.78056760547695L143.47376897472805,73.92594112196659L143.92322808541192,74.1463435849012L143.95533230760364,74.41169617561839L143.98743652979533,74.55328413611214L144.01954075198705,74.69980467846929L144.21216608513726,74.96398323365572L144.27637452952067,75.11831377346091L144.5011040848626,75.26649519682432L144.59741675143772,75.34734886482619L144.95056319554647,75.4184387099186L145.33581386184693,75.46512937806273L145.62475186157226,75.52303202352938L145.9136898612976,75.60663563734028L146.10631519444786,75.73515991498466L146.36314897198147,75.99288854549252L146.61998274951512,76.24851885737024L146.71629541609022,76.50301869169935L146.90892074924045,76.65964885635378L146.94102497143214,76.91231986873716L147.29417141554092,77.10657541638324L147.3262756377326,77.35863196310963L147.71152630403307,77.51609478087454L148.12888119252526,77.76291526813097L148.16098541471692,77.94221161112962L148.1930896369086,77.99078405132784L148.22519385910036,78.23804671089516L148.6746529697842,78.48312184574843L149.44515430238513,78.72857865991635L149.54146696896024,78.84029017265375L149.60567541334365,79.08628211842948L149.66988385772706,79.1108834738098L149.76619652430216,79.35294777546396L149.89461341306898,79.59341964964337L149.99092607964408,79.54971495349585L150.0230303018358,79.69892247773821L150.6009063012865,79.78318853274781L150.92194852320353,79.9113106960855L151.30719918950396,79.99491419916328L151.46772030046253,80.1625117919277L151.49982452265422,80.40043665050293L151.94928363333807,80.63593770987518L152.36663852183023,80.86990030342072L152.39874274402197,80.64190435379892L152.46295118840533,80.87615407733709L152.49505541059708,81.0469008275599L152.59136807717218,81.20018745383499L152.6234722993639,81.43029112541417L152.6555765215556,81.50468836495409L152.8803060768975,81.73720701064258L152.94451452128092,81.8636230284809L153.49028629853993,81.89658749031777L153.55449474292334,82.12141273561652L153.58659896511503,82.1522535827028L153.71501585388185,82.2308436703797L153.81132852045695,82.45883593439794L154.54972563086613,82.60546169246432L154.87076785278322,82.8098354190503L155.38443540785048,83.03097575210951L155.67337340757584,83.23422266001722L155.73758185195925,83.45449090598412L155.80179029634266,83.5900971470219L156.05862407387627,83.72908949370893L156.3475620736016,83.94757059865532L156.4438747401767,84.16918006467424L157.40700140592787,84.2803255670094L157.59962673907808,84.49818800247546L157.6959394056532,84.71442092308372L157.82435629442006,84.93263855719073L158.01698162757026,85.14965903648066L158.3380238494873,85.27327101378896L158.40223229387072,85.48964200621484L158.49854496044583,85.70137511992114L159.0443167377048,85.91027908490837L159.17273362647163,86.11254744511973L159.46167162619696,86.32388559907037L159.7506096259223,86.4280714540856L159.94323495907256,86.63906438225168L160.10375607003107,86.654650131372L160.2963814031813,86.8619194910102L160.81004895824856,86.94041553094335L160.9384658470154,86.81677477323494L161.0026742913988,86.92681730182547L161.29161229112412,87.01833805697365L161.45213340208267,87.22720385618267L161.64475873523287,87.43126226153858L161.8373840683831,87.51934183694078L162.06211362372505,87.72570745662932L163.2499698448181,87.8631159105773L163.37838673358493,87.9033911024261L163.50680362235175,87.96871589892278L164.05257539961073,88.17137975486759L164.24520073276096,88.2814529686694L164.4378260659112,88.47789125874719L164.5341387324863,88.67987066706375L165.24043162070382,88.88127922019744L165.46516117604574,89.0808889713334L165.56147384262084,89.28045014867318L165.9146202867296,89.47704867004661L166.23566250864667,89.49623258603921L166.26776673083833,89.3848010391623L166.3640793974135,89.5807843279567L166.7172258415222,89.77589021980454L167.19878917439777,89.9145900043317L167.64824828508165,90.10793447705493L167.84087361823188,90.3007149327231L167.9050820626153,90.28589588832402L168.12981161795722,90.47989600394354L168.45085383987427,90.56235122765545L168.5471665064494,90.20494528112921L168.6434791730245,90.3949313856147L168.6755833952162,90.5855918896479L168.80400028398302,90.77595470907544L169.12504250590007,90.96815200626142L169.54239739439222,91.15786445899725L169.57450161658394,91.2328727333583L170.1202733938429,91.42313283190758L170.47341983795164,91.51616504138356L170.762357837677,91.69897040549728L170.9228789486355,91.7926937302769L171.08340005959406,91.97939483348954L171.27602539274426,92.0474245518595L171.5649633924696,92.22965563083085L172.1107351697286,92.3454793464357L172.62440272479589,92.53071820342709L172.720715391371,92.59721169848093L173.23438294643825,92.78041279367417L173.4912167239719,92.43885800056012L173.6196336127387,92.62201670900116L173.71594627931384,92.61420875143348L173.81225894588894,92.79871536618597L173.84436316808066,92.86085933682516L174.10119694561428,92.92371611473565L174.1654053899977,93.09370584955113L174.51855183410643,93.19548649832181L174.7753856116401,93.37638128945248L175.12853205574885,93.4447228316359L175.25694894451564,93.37718080847259L175.51378272204929,93.47428660173001L176.2521798324585,93.65276557479065L176.44480516560873,93.78019021235825L176.57322205437555,93.9561080921599L177.05478538725112,94.02034952106949L177.24741072040135,94.19931373754875L177.34372338697645,94.2359057295574L177.40793183135986,94.27541673936403L177.63266138670178,94.36060928792043L177.72897405327691,94.5210302564069L177.8573909420437,94.64139080098704L177.98580783081056,94.81268169185236L178.01791205300228,94.88508894944489L178.59578805245292,95.05809992186691L178.65999649683633,95.23144087459484L178.78841338560315,95.30336042753774L178.9810387187534,95.47482205010868L179.23787249628703,95.56214662186129L179.55891471820408,95.62410990059983L180.00837382888793,95.79510610258963L180.10468649546306,95.96536530392629L180.2009991620382,96.13312926757031L181.22833427217273,96.21791893614375L181.38885538313124,96.38729355744962L181.42095960532296,96.5524890256469L181.54937649408976,96.72027148278943L181.67779338285658,96.88780568648063L181.7098976050483,97.05215539185718L181.8062102716234,97.08279689695316L181.9667313825819,97.24815885636909L182.31987782669069,95.39267906365818L182.57671160422433,95.41297061223167L182.70512849299112,95.23123113880605L182.76933693737453,95.3965449131307L182.96196227052477,95.564766608377L183.21879604805838,95.5691609144045L183.25090027025013,95.58129006372997L183.44352560340033,95.51275671315811L183.53983826997546,95.54627576542852L183.9892973806593,95.71361943497604L184.21402693600123,95.78724982545599L184.92031982421875,95.76312573074405L185.14504937956067,95.8716628031911L185.33767471271094,96.03674319627206L185.46609160147773,96.09114784010532L185.49819582366945,95.98356117793968L185.9155507121616,96.14573431685965L186.36500982284545,96.19263939772215L186.46132248942058,96.35774899641844L186.5576351559957,96.52219363598068L186.6218436003791,96.56838362159888L186.6860520447625,96.66196535421533L187.19971959982976,96.62658592695476L187.26392804421317,96.66763826866944L187.32813648859658,96.82996832457594L187.3602407107883,96.99064819299005L187.39234493298,97.05268961962967L187.61707448832195,97.21370469962658L187.64917871051367,97.30175922057636L188.22705470996434,97.46127235847842L188.86913915379841,97.62104115514833L189.28649404229057,97.63077638774357L189.70384893078275,97.78312300593738L189.76805737516617,97.94164528576765L190.37803759680853,97.88988514248976L190.50645448557535,98.04722498908748L190.7311840409173,98.01599010005559L190.85960092968412,98.00115010961481L191.02012204064263,98.0458910879925L192.0153529285855,98.20391069580977L192.3363951505025,98.302484644857L192.36849937269423,98.45899582439544L193.39583448282877,98.55849451956112L194.1663358154297,98.6079479063084L194.55158648173014,98.34959700058391L194.61579492611355,98.41816996437069L194.77631603707206,98.57030428396298L195.09735825898912,98.7255951263247L195.19367092556425,98.65874105008206L195.22577514775594,98.80889169305827L195.48260892528958,98.77344971148507L195.546817369673,98.77079502808243L195.7073384806315,98.81633801163863L196.89519470172456,98.34660056329403L197.02361159049138,98.38729503970723L197.15202847925823,98.41207742447386L197.37675803460016,98.18275100140667L197.50517492336698,98.00540822179498L197.53727914555867,98.15311989669804L197.60148758994208,98.1624194507145L197.6335918121338,98.11514965042036L198.01884247843424,98.14382596269348L198.3077804781596,98.22703317608256L198.66092692226835,98.31818580391997L199.0140733663771,98.38155116299633L199.07828181076047,98.53337523950425L199.23880292171904,98.51027828382973L199.30301136610245,98.65980950854302L199.46353247706097,98.80971776911444L199.65615781021117,98.95760360733671L199.88088736555312,99.11006348054747L200.29824225404528,99.15772088802788L200.77980558692084,99.12618813239894L200.81190980911254,99.19118813991882L200.94032669787936,99.27678477923621L201.06874358664618,99.42696553211925L201.16505625322128,99.57590318416396L201.8392449192471,99.72469374222484L202.06397447458903,99.87327485611081L202.12818291897244,99.84367162784785L202.19239136335585,99.72437266721246L202.86658002938165,99.87284337524004L202.89868425157334,100.01807106591804L202.99499691814847,100.08103977300964L203.05920536253186,100.2266267511347L203.18762225129868,100.27536414109836L203.2197264734904,100.33367441332008L203.3802475844489,100.37340789525196L203.44445602883235,100.51873299124348L203.50866447321576,100.58678659910126L204.27916580581663,100.7329549387675L204.47179113896686,100.87703980085243L204.5359995833503,101.01862822039188L204.92125024965074,100.98234140789816L205.27439669375948,100.98497641164127L205.56333469348485,101.12679037251493L205.59543891567657,101.2685539117588L205.72385580444336,101.32491297121226L206.0448980263604,101.33477174757333L206.26962758170234,101.47742164861616L206.39804447046916,100.92273753323713L206.6227740258111,101.06540037738918L206.94381624772814,101.20643394397152L207.00802469211155,101.34733064089885L207.16854580307006,101.48691775661604L207.23275424745347,101.62769460139825L207.32906691402857,101.52313265799495L207.39327535841198,101.66332159334519L207.74642180252076,101.80117240992323L208.58113157950507,98.73735065279703L208.8379653570387,98.8824081971048L208.93427802361384,99.02414227297437L208.99848646799725,99.16918017737054L209.03059069018894,99.31280883189683L209.25532024553087,99.45521499782033L209.3837371342977,99.59954839104634L209.4479455786811,99.66133412373689L209.5442582452562,99.80312148011406L210.15423846689862,99.9457166652934L210.37896802224054,99.84440362698646L210.53948913319906,99.83970676921811L210.86053135511608,99.97196091275097L211.24578202141657,99.98740098410735L212.0483875762092,99.96484800749487L213.30045224168566,100.04619222685899L213.6214944636027,99.92335493112714L214.0709535742866,100.06534359630842L214.2314746852451,100.10747212036772L214.71303801812064,100.24577239896834L215.32301823976306,100.29356462113576L215.54774779510498,100.37909906308606L215.64406046168008,100.51770627085645L215.868790017022,100.6011895561576L216.09351957236396,100.63037365159258L216.1898322389391,100.62497548229929L216.414561794281,100.76396142173596L216.73560401619804,100.68850372182082L216.79981246058145,100.8265884331767L216.89612512715658,100.95990225624182L216.92822934934827,100.84976280814601L216.96033357154,100.8284327179897L216.99243779373168,100.96409837289741L217.2171673490736,100.85925513583207L217.44189690441556,100.90840154062168L217.7308349041409,101.04173508623353L217.98766868167453,100.87441796436642L218.62975312550864,101.0114376425914L219.36815023591785,101.14939613443394L219.9139220131768,101.28623734150595L220.4596937904358,101.30653554041228L220.5560064570109,101.352756384845L220.87704867892796,101.03884698273289L220.90915290111965,101.17492233814643L220.97336134550306,101.15798881986939L221.39071623399522,101.224273075911L222.22542601097953,101.26826110722433L223.09224001015556,101.40291812726319L223.25276112111408,101.42847335690199L223.3490737876892,101.56447722640586L223.60590756522282,101.69567272870067L223.79853289837308,101.62287446747483L224.15167934248183,101.75714485220657L224.44061734220716,101.89112328268742L224.66534689754909,102.02532132686872L224.85797223069935,102.05246279005765L224.98638911946614,102.07212844173499L225.05059756384955,102.11086753153798L225.08270178604127,102.24277382662986L226.0458284517924,102.21225355135441L226.17424534055922,102.34439215569259L226.20634956275092,102.40049556604507L226.46318334028456,102.53321296656927L227.20158045069377,102.60782502408158L227.26578889507718,102.73852360562795L227.29789311726887,102.86980882669839L227.65103956137762,102.93275322265102L227.74735222795275,103.06193634664096L228.19681133863662,103.19050484766457L228.32522822740344,103.320154144044L228.38943667178683,103.44555668399141L228.7746873380873,103.50821082000019L229.03152111562093,103.6371144643785L229.19204222657947,103.64761206252867L229.25625067096286,103.77615640522718L229.32045911534627,103.72508904317468L230.1551688923306,103.69443757048168L231.08619133589005,103.82072244510971L231.34302511342366,103.88935300913703L231.5356504465739,103.90633064826494L231.85669266849092,104.0333162270395L231.98510955725774,104.16093587852185L232.1135264460246,104.2855163373879L232.24194333479142,104.41191326972326L232.33825600136652,104.53790057752796L232.40246444574993,104.66320115361079L232.56298555670844,104.67752711400982L232.81981933424208,104.80295893060581L233.39769533369278,104.84830343484904L233.7187375556098,104.97292188982242L233.78294599999322,104.80955012646383L234.00767555533514,104.93483921250564L234.2645093328688,104.96940931021803L234.2966135550605,105.0337311775611L234.3929262216356,105.08219922274961L234.84238533231948,105.20525003991612L235.29184444300336,105.13098603752725L235.42026133177018,105.2544396288649L235.45236555396187,105.37386186560701L235.48446977615356,105.4954460047948L235.90182466464572,105.42852264942758L236.09444999779595,105.55002009380968L236.25497110875446,105.57693321668326L236.28707533094618,105.6964632913674L236.35128377532956,105.81833261987592L236.44759644190472,105.9366926439824L236.51180488628813,105.95786940386752L236.60811755286323,105.97129485385037L236.96126399697198,106.0851272559003L237.7959737739563,106.20525749369664L238.37384977340696,106.17430068279126L238.85541310628255,106.18302750236307L238.95172577285766,106.30334234604435L238.98382999504938,106.35609613678845L239.17645532819958,106.47676437765816L239.49749755011663,106.58934218463965L239.9469566608005,106.60517107888285L240.39641577148436,106.50548387925254L240.52483266025118,106.54895272970148L240.62114532682628,106.52633619291095L240.65324954901803,106.55471326288671L241.52006354819403,106.61728181249093L241.7126888813443,106.73295423917985L241.8090015479194,106.77933244585964L242.09793954764473,106.89691962336882L242.29056488079496,106.92002420517383L242.45108599175347,106.92332341028437L242.48319021394516,106.86631968818367L242.51529443613688,106.84285659607076L242.5795028805203,106.82589949436232L242.86844088024563,106.85782748490432L242.96475354682076,106.84000462976202L243.02896199120417,106.76786607511455L243.54262954627143,106.81215015491665L243.60683799065484,106.93076155312367L243.70315065722994,107.04571838590373L243.86367176818848,107.09373783064079L243.9920886569553,107.2103085345487L244.50575621202256,107.32653465371287L244.53786043421428,107.34600330118447L244.66627732298107,107.38715366045926L244.95521532270644,107.42998840562447L245.59729976654052,107.54572891612867L245.982550432841,107.66205780775661L246.27148843256634,107.77601921842019L246.36780109914145,107.88750223091584L247.13830243174235,107.85067957238304L247.4914488758511,107.9657647318444L247.71617843119301,107.97075471131546L247.81249109776815,107.99112733443059L247.87669954215156,108.10431228154528L247.94090798653497,108.21561722296106L248.00511643091835,108.32828499404509L248.1977417640686,108.33001129054014L248.32615865283543,108.44241699608759L248.8398262079027,108.48043578936726L249.19297265201146,108.59332532179742L249.25718109639487,108.59692714868717L249.67453598488703,108.59429836521204L249.77084865146213,108.70478482398802L249.96347398461236,108.81683186102711L250.50924576187134,108.73496650669672L250.63766265063816,108.84683687597636L250.83028798378837,108.86835608373175L251.1192259835137,108.922285042265L251.15133020570542,108.96613396687822L251.44026820543078,109.0124145274799L251.53658087200589,109.01731479641421L251.63289353858102,109.04229387136186L251.79341464953953,109.06537221181961L251.85762309392294,109.17152687767604L252.05024842707314,109.21501454948658L252.3391864267985,109.32520274135L252.56391598214043,109.34549471595483L252.69233287090725,109.45579859323797L252.85285398186576,109.56523365250567L253.39862575912477,109.51390457476673L254.10491864734226,109.3685020387312L254.16912709172567,109.38366646889533L254.26543975830077,109.42611906420518L254.61858620240955,109.53446970798845L254.84331575775147,109.58369070944487L255.0680453130934,109.69263849883586L255.549608645969,109.80212911586268L256.0311719788445,109.90792642139047L256.0632762010363,110.01683452805823L256.2559015341865,110.12350342896865L256.5769437561035,110.23119571551804L256.73746486706204,110.33854102775072L256.8016733114454,110.44518340808008L256.89798597802053,110.55277686481037L257.25113242212933,110.65887166975912L257.44375775527953,110.75921231806419L257.76479997719656,110.74373280056813L257.7969041993883,110.75893075074698L257.8611126437717,110.8660075593436L258.27846753226385,110.9715132239695L258.5031970876058,111.07701146067798L258.5674055319892,111.08665400969784L258.59950975418093,111.11917016917252L259.43421953116524,111.12517968946119L259.65894908650716,111.23060156113664L260.3973461969164,111.33620097195322L260.6220757522583,111.44035614133216L260.7183884188334,111.54492404572444L260.91101375198366,111.6482061172626L262.13097419526844,111.68986154085749L262.54832908376056,111.74965318193104L262.5804333059523,111.53948449951203L262.6446417503357,111.64080937275598L262.8372670834859,111.67150892814227L262.933579750061,110.89949065430376L263.4472473051283,110.9061437888494L263.51145574951175,110.92595944396335L263.76828952704534,110.94802204484321L264.0893317489624,111.05231714892581L264.8598330815633,111.11604202921555L264.9882499703301,111.22040582253861L265.24508374786376,111.23588561848885L265.3735006366306,111.25789652078271L265.66243863635594,111.36125257762583L265.69454285854766,111.465029697583L266.27241885799833,111.03103162434803L266.56135685772364,111.06336688042404L266.7539821908739,111.16707592453653L267.42817085689967,111.2708396217777L267.5886919678582,111.29861710569494L267.71710885662503,111.34611569967616L267.78131730100847,111.31273402780865L268.1986721895006,111.18587647162721L268.262880633884,111.28832737507199L268.35919330045914,111.3904084049841L268.5197144114176,111.33687207825477L268.64813130018445,111.44064936055636L268.8728608555264,111.54336713703512L268.9691735221015,111.64431438591198L269.22600729963517,111.74694277793843L269.48284107716876,111.84951200121483L270.2533424097697,111.88600235156265L270.4780719651116,111.93143933115351L270.83121840922036,112.03281123626242L270.8633226314121,112.0882662152303L270.95963529798723,112.18955114613287L271.05594796456234,112.29018262362779L271.633823964013,112.22727117677675L271.7622408527798,112.23864675857153L271.8906577415466,112.33954206876551L271.95486618593003,112.43939571002257L272.01907463031347,112.53938055520666" fill="none"></path></g></g></g></g><g opacity="0.2"><g><g><g><path style="fill: none;" stroke="rgb(255, 112, 67)" stroke-width="2px" d="M32.26474330266316,72.55425821914332L32.71420241334703,125.76432786725445L32.97103619088067,119.29230780872786L33.00314041307237,176.80037030868863L33.420495301564536,14.877854594505607L33.64522485690647,176.75283123950553L33.67732907909817,98.3941990339431L34.12678818978204,103.39828850657364L34.158892411973746,109.14147206107373L34.28730930074056,176.41431831575125L34.41572618950738,176.89129815240543L34.60835152265761,137.69824971007654L34.76887263361613,176.76587728731184L34.993602188958064,41.94250273939497L35.314644410875104,176.78876645465496L35.443061299641926,176.81939361224053L35.57147818840875,176.56755954915664L36.02093729909261,79.68159247181984L36.14935418785943,176.62014422100776L36.181458410051135,30.17640172604979L36.24566685443454,4.114296014480715L36.30987529881796,82.47653720146991L36.75933440950181,106.8347511200202L36.855647076076934,113.47131960336992L37.17668929799398,109.45616611118817L37.27300196456909,-84.57975729099144L37.3372104089525,175.36815303582972L37.40141885333591,86.49200184896927L37.65825263086955,176.78263068562867L37.81877374182807,120.22307884006045L38.268232852511936,93.32758316393097L38.65348351881239,123.21495851665918L38.717691963195804,134.74155959037125L38.97452574072944,128.66247068597022L39.48819329579671,91.55147169431439L39.969756628672286,58.71019870901091L40.00186085086399,122.4988741068355L40.41921573935615,81.75791608473492L40.45131996154785,168.27294408643425L40.83657062784831,129.719486395147L40.93288329442342,99.75275588879185L41.189717071957055,81.71486062688882L41.28602973853218,125.7598609426102L41.4465508494907,146.88288754765222L41.60707196044922,128.65054658134136L42.024426848941374,110.18562492584988L42.28126062647502,84.90271541538868L42.34546907085842,-214.74429599287214L42.37757329305013,134.2702146593L42.47388595962524,128.04732189688593L43.21228307003445,118.82719389473709L43.24438729222616,90.63703895406547L43.62963795852661,80.47713751164929L43.82226329167684,12.009171328402317L43.854367513868546,71.77028393807359L43.886471736060244,90.29817499173782L44.27172240236071,140.52854748500727L44.528556179894345,105.48327700401114L44.65697306866116,100.10786848728117L44.72118151304456,-0.29594562377405964L45.04222373496162,-52.10406543477802L45.10643217934503,145.97200672446104L45.45957862345377,98.66999866935703L45.68430817879571,-4.868388837422572L46.13376728947958,151.8592209111887L46.16587151167128,76.99270424110227L46.23007995605469,161.0770969926491L46.45480951139662,-64.03046944869766L46.93637284427219,128.64780946931023L47.06478973303901,136.3351362756615L47.22531084399753,108.89415632176792L47.35372773276435,128.41434805236622L47.38583195495605,-111.08704715476779L47.54635306591458,-96.86463332606672L47.57845728810628,120.59507293298452L47.77108262125651,-3758.3015912736737L48.50947973166572,175.22127816712378L48.573688176049124,139.95496429991783L48.60579239824083,109.93462278710331L48.637896620432535,116.15007155408011L48.734209287007644,138.4373517026745L48.79841773139106,130.66567807306728L49.24787684207492,89.82995479838996L49.27998106426663,105.4855711152511L49.34418950865004,128.51496197015013L49.40839795303345,122.64464773622353L49.472606397416854,111.69032985123158L49.601023286183676,134.73853505520776L49.665231730567086,107.06688880840966L49.85785706371731,65.66233669641952L49.986273952484126,127.83467624330774L50.17889928563436,27.53928130207123L50.24310773001777,-65.87974460850273L50.37152461878459,113.8924604150186L50.88519217385186,104.29607180042126L51.07781750700209,88.89828721783715L51.20623439576891,136.86122081044584L51.27044284015231,117.73487524155962L51.848318839602996,116.15935347541881L52.13725683932834,115.59849337852802L52.297777950286864,-240.44024045526749L52.32988217247857,114.25574215904976L52.586715950012206,85.39157733607726L52.77934128316244,56.449312528386145L52.81144550535414,136.8836187194944L53.260904616038,138.30751555413053L53.549842615763346,144.59252599295814L53.80667639329699,129.47943797834387L53.83878061548869,118.0309843537209L54.35244817055597,86.90006886345964L54.41665661493937,128.59796133266627L55.283470614115394,31.01378924536857L55.347679058498805,60.199250939771446L55.411887502882216,130.98468610707664L55.50820016945733,-161.47186870958558L55.60451283603244,-421.57267413424233L56.021867724524604,80.60789657850819L56.6639521683587,131.45342313468086L57.01709861246745,147.75707841246083L57.049202834659155,129.21431255246944L57.24182816780937,-10.61579672089556L57.434453500959606,130.90575813278406L57.94812105602688,146.25936129717786L57.98022527821858,49.268132584307295L58.044433722602,142.604902740836L58.42968438890245,92.60031825794931L58.847039277394614,58.52413837672157L59.10387305492825,129.0384043216443L59.20018572150337,138.95519589536127L59.649644832187235,157.66828501191776L59.81016594314575,133.3156666152654L59.93858283191257,132.31107794019545L60.09910394287109,118.73095724667542L60.58066727574666,-55.56809957365567L60.93381371985541,129.7910995825664L61.06223060862224,130.07209920345758L61.993253052181664,127.6191299893112L62.05746149656508,117.97257680893335L62.37850371848212,102.4091099304535L62.60323327382406,114.62595897499023L63.05269238450792,116.58134337191723L64.20844438340929,-7214.769276638224L64.3047570499844,114.98471050854982L64.36896549436781,117.34598910656291L64.72211193847656,119.48554580859786L64.9468414938185,129.20386511714446L65.0752583825853,100.65280692478473L65.13946682696873,106.02334243281189L65.42840482669406,175.63247115538886L66.03838504833645,132.34786282731898L66.48784415902031,134.19914203832218L66.51994838121202,119.89468340833355L66.58415682559543,112.9966548032744L66.71257371436225,108.01886059189087L67.0015117140876,104.1293822051075L67.38676238038805,145.8167771377092L67.51517926915487,111.57477520438374L67.57938771353828,65.89971128701882L67.67570038011338,91.16746911565838L67.73990882449681,142.10314896974262L67.8041172688802,108.75164718630526L68.12515949079726,104.74232653787385L68.25357637956408,121.07983182253588L68.478305934906,130.1033887712431L68.54251437928941,176.03425968842825L68.70303549024794,119.89178808173415L68.92776504558987,136.19392186274922L69.08828615654839,120.21221477303902L69.1203903787401,-1318.312469070639L69.50564104504055,111.4680805733592L69.8266832669576,174.4381869211132L69.89089171134101,125.92752092060937L69.92299593353272,136.18908313386953L70.14772548887466,-39.22265719148527L70.43666348859999,62.593301048692865L70.4687677107917,32.54544338554615L70.85401837709215,133.40001080161187L71.11085215462579,121.55668525749252L71.23926904339261,126.63220860769843L71.46399859873453,126.35289660886883L72.07397882037692,25.63852312175004L72.13818726476033,79.85407799415134L72.29870837571886,58.54299755325974L72.33081259791057,168.6330318738684L72.39502104229396,126.78446376056672L72.49133370886908,57.38072169181078L72.61975059763591,130.82208372144328L72.81237593078613,127.72812400539465L72.94079281955295,127.67594484077813L73.10131393051148,122.37218115438122L73.2939392636617,48.093030795190316L73.55077304119533,91.42083392529116L73.80760681872897,141.2386250150555L74.06444059626263,92.42482665882062L74.35337859598796,-52.067591702972095L74.57810815132989,130.827056932706L74.674420817905,169.90115921453847L74.70652504009671,132.66323192625805L74.99546303982204,-5320.788502135241L75.3165052617391,129.2873865877359L75.79806859461466,134.3099238790271L75.92648548338148,46.303592385106185L76.27963192749024,140.1674200960141L76.31173614968195,66.47900865493239L76.44015303844876,140.99581048021707L77.62800925954183,98.55100021873977L78.30219792556763,99.9423338583158L78.33430214775935,175.20544583304488L78.91217814721003,124.4182594156614L78.94428236940172,60.33976657167386L79.04059503597684,60.03749236516887L79.457949924469,81.04234323534865L79.5221583688524,136.02538115698667L79.87530481296115,149.88769335447887L79.97161747953628,132.62085679105553L80.10003436830308,97.16591605461053L80.35686814583671,114.67629230297689L80.58159770117867,138.24916074753241L80.61370192337037,171.86108865455282L80.71001458994547,115.04356632794747L80.80632725652059,116.49209980777323L81.19157792282105,173.50051987709287L81.38420325597127,130.31152003580655L81.51262014473808,107.88977859945567L81.83366236665513,115.81536336107911L81.92997503323025,85.45180434839995L82.37943414391411,142.3491937186833L82.47574681048923,-663.0816434505577L82.63626792144775,130.4807938024021L82.73258058802287,173.70763692035095L83.0215185877482,174.37335141506907L83.37466503185696,175.73905099844796L83.53518614281548,128.24355542591525L83.59939458719889,103.97408933252837L84.3698959197998,134.55579195503321L84.62672969733343,85.04863143788816L84.69093814171684,135.16131338763807L85.0119803636339,-53.75856791340084L85.23670991897582,134.30306527749246L85.49354369650946,174.47367131744693L85.75037747404309,98.10740348603417L85.97510702938504,80.95174957355539L86.03931547376844,128.86024417013073L86.23194080691867,136.2188380203428L86.52087880664402,175.8000835042107L86.77771258417765,100.92176114321137L86.84192102856107,125.93282638246546L86.93823369513618,137.11107325666296L87.03454636171129,174.8063444755635L87.066650583903,136.35499747779875L87.29138013924492,109.45078154204793L87.45190125020345,174.10902200624125L87.67663080554539,175.13566051830955L87.96556880527073,169.13838832252682L88.15819413842095,121.37561923174167L88.4471321381463,119.10026169193884L88.80027858225505,167.87840639521335L89.1213208041721,130.8164196398991L89.1855292485555,104.55446783332513L89.41025880389743,97.19559183379965L89.57077991485596,174.72733887724837L89.66709258143108,131.0806854332859L89.9239263589647,175.8067964989005L90.5339065806071,174.99047261243783L91.43282480197482,172.550582139655L91.56124169074164,108.32917209846414L91.85017969046699,142.59466625826872L92.0107008014255,93.32357506153471L92.07490924580891,70.07660753234632L92.74909791183472,133.42505616776953L93.10224435594347,-151.98848748728687L93.19855702251857,174.20164064970157L93.39118235566882,175.94876770483103L93.42328657786051,175.20351874664195L93.90484991073609,109.41442910807768L93.9369541329278,175.67356813112863L94.29010057703653,112.19409031043256L94.41851746580336,173.80550911151215L94.57903857676187,171.19854636192858L94.64324702114529,136.8012284830661L94.93218502087063,126.81606975748878L95.06060190963746,140.69332268404492L95.09270613182916,174.14604981864983L95.15691457621256,176.39785782039425L95.18901879840426,175.41679742330007L95.25322724278767,128.382573293238L95.60637368689643,130.33540516179687L95.67058213127984,173.2633882117786L95.92741590881349,119.31714749594676L95.95952013100519,114.1033551607079L96.0558327975803,175.17054584177276L97.17948057428995,137.5213605489281L98.59206635072496,23.92327679654818L98.8810043504503,127.04480583266036L99.20204657236735,78.10445691708264L99.5551930164761,65.19826172476041L99.65150568305123,144.65981464884476L99.84413101620144,113.09886141437892L100.00465212715996,171.97857022299672L100.03675634935166,138.00087989936014L100.1651732381185,129.06587564451547L100.1972774603102,175.91235239705057L100.42200701565213,175.975712634649L100.80725768195259,172.02051290504596L101.44934212578667,122.44768114636122L101.77038434770373,169.33493893992005L102.34826034715441,140.04520461584195L102.57298990249633,174.98085464994838L103.05455323537191,135.539092859942L103.24717856852213,80.58328893932276L103.56822079043918,118.52881176661162L103.92136723454794,129.5917861432747L104.01767990112305,175.64356809447796L104.17820101208157,139.2424845453413L104.59555590057373,91.74775268771418L105.36605723317463,106.19082310096701L106.13655856577556,172.27373828809047L106.48970500988432,174.73831089275126L106.58601767645942,116.96001939344137L106.74653878741795,175.1862837415312L107.00337256495158,139.8005969825631L107.32441478686863,135.03711758845304L107.64545700878567,-254.62837446084268L107.87018656412761,174.70729177299341L108.83331322987874,129.507004229956L108.96173011864556,95.6728504476348L108.99383434083727,77.417963905345L109.12225122960407,126.23781133190687L110.18169056193035,96.49369927075008L110.34221167288887,119.08381265065736L110.50273278384738,176.05175566517323L110.92008767233955,122.31260282178846L111.17692144987318,96.64396092005813L111.27323411644831,175.1545864416187L111.91531856028239,125.80825877904499L112.17215233781603,131.3610047315335L112.33267344877454,135.05915160399456L112.39688189315797,175.4254174803615L112.49319455973307,119.62756975271782L112.55740300411648,127.97100446296986L112.58950722630819,171.3111753577181L112.94265367041695,139.0748667578937L113.00686211480036,175.3008698185689L113.07107055918375,97.23055725338804L113.29580011452569,103.40600410368643L113.36000855890909,116.09157435437055L113.61684233644273,-3275.825969990532L114.48365633561875,175.69462146355713L114.51576055781047,175.29699323203252L114.86890700191921,147.93625113721134L114.90101122411092,176.02268176057092L115.22205344602797,107.09735566044014L115.35047033479478,61.07118197316322L115.57519989013673,97.46701419949136L115.79992944547865,103.47750126708911L116.21728433397081,175.34052976105028L116.47411811150444,175.36992174285754L116.50622233369614,109.50123089405133L116.7309518890381,174.31539280411897L116.8272645556132,175.06448159691868L116.8593687778049,111.92468254357686L116.89147299999661,175.25293920953104L116.98778566657172,174.6202925484231L117.5977658882141,173.35967397227915L117.85459966574776,174.46655298032937L117.88670388793945,116.2674825851957L117.98301655451456,175.98166751786582L118.2077461098565,95.27656514466184L118.30405877643162,175.97480842191064L118.36826722081503,146.72346263793168L118.46457988739013,135.34075771406413L118.59299677615695,146.2537868705557L118.8819347758823,167.70553852100852L119.07456010903252,119.57453095561368L119.23508121999106,145.58752686519074L119.36349810875787,173.76227170691254L119.74874877505832,37.64094396190603L119.78085299725004,174.83816389734588L119.90926988601684,174.17716139504603L120.06979099697537,175.93583473511916L120.10189521916708,119.41101092548433L120.13399944135878,175.71318942640556L120.23031210793388,173.00037132464007L120.51925010765923,172.8092454892565L120.55135432985094,173.94934691973464L120.58345855204264,170.72398835666664L120.74397966300116,-60.873519239200505L120.9045007739597,175.7492484217937L121.00081344053481,172.29073943229247L121.16133455149333,175.36105810128373L121.32185566245184,175.14229465292544L121.54658521779379,118.57905016585732L121.93183588409424,105.55013320674448L122.41339921696982,67.93091210506236L122.79864988327026,119.92270320837474L123.11969210518731,175.28292482558302L123.24810899395413,123.53111868843962L123.44073432710435,175.07130460017547L123.66546388244629,114.47468475244523L123.98650610436333,95.46613784036686L124.01861032655505,113.72804910948798L124.62859054819744,135.10782367901436L124.66069477038914,135.2025071873975L124.94963277011448,47.24876621597059L125.01384121449787,73.39661367590588L125.81644676929051,168.62956170100426L125.91275943586561,175.36073458545297L126.00907210244073,132.27290603869005L126.33011432435778,176.11995224195215L126.90799032380846,122.76710581206703L127.00430299038356,135.38096003586236L127.22903254572552,174.77296087204417L127.32534521230062,130.90673906310735L127.38955365668403,173.6065592361138L127.58217898983425,175.2014214147713L127.99953387832642,176.27899047361976L128.32057610024347,99.99538847687677L128.41688876681857,175.62944250005432L128.51320143339368,176.25553405142708L128.77003521092732,16.770986832636027L129.05897321065265,45.66943675255334L129.54053654352822,175.38523773710062L129.9578914320204,174.20189527627238L131.11364343092177,147.90395954382677L131.14574765311346,134.2170519274507L131.53099831941392,175.73815156510804L131.75572787475588,174.63248380494275L131.78783209694757,174.83354090062232L131.81993631913926,79.45667464156259L132.0125616522895,154.605443464539L132.1409785410563,176.24549426582567L132.26939542982313,128.9676507667125L132.30149965201485,149.59058749053747L132.33360387420655,173.9370902348987L132.49412498516506,126.32457092732898L132.55833342954847,174.95255830402638L133.10410520680745,175.7144062777231L134.0030234281752,101.59422579656211L134.1635445391337,174.6982742018292L134.45248253885904,72.06434153466626L134.54879520543417,89.21094557383981L134.61300364981759,175.43365205421958L134.8377332051595,132.45986819401855L134.99825431611802,-559.2504429684559L135.3835049824185,-6.576599888155215L135.41560920461018,133.70134363143563L135.5119218711853,119.13080765125346L135.57613031556872,175.9049177956033L135.80085987091064,175.9566114392634L136.1861105372111,145.80954673193912L136.25031898159452,176.17897871883463L136.956611869812,175.30853251268542L137.05292453638714,175.70490400963672L138.01605120213827,88.25748657341683L138.27288497967191,11.783631187509854L139.36442853418987,130.00154077982666L139.52494964514838,9.41041266341108L139.87809608925713,112.74900153955628L140.16703408898246,134.74292814638682L140.3917636443244,60.31206847458816L140.45597208870782,175.4377770046668L140.55228475528293,132.3386705609023L140.61649319966634,113.38237664690564L140.77701431062488,146.39011245330835L140.80911853281657,119.88039135899953L141.0659523103502,175.76245909103426L141.41909875445896,128.05875553635315L141.54751564322578,175.97802759395447L141.86855786514283,143.72352192907942L141.99697475390965,119.66204470714456L142.12539164267645,176.08748620052538L142.3822254202101,85.00434190640954L142.54274653116863,129.8009774454456L143.0243098640442,74.21780002343348L143.24903941938612,115.15514451531271L143.47376897472805,128.86033382505275L143.92322808541192,157.56990455645598L143.95533230760364,175.0137809144813L143.98743652979533,128.32073776613788L144.01954075198705,130.43111970178325L144.21216608513726,175.6117415860014L144.27637452952067,134.0111330299336L144.5011040848626,131.90428718988915L144.59741675143772,106.30104591686404L144.95056319554647,102.67799558923389L145.33581386184693,93.3975087292888L145.62475186157226,97.79717636056398L145.9136898612976,107.81885628231771L146.10631519444786,125.33405280119746L146.36314897198147,175.61113328394774L146.61998274951512,175.21228103200798L146.71629541609022,175.18485124046097L146.90892074924045,137.48844137108938L146.94102497143214,175.19376696099684L147.29417141554092,152.78466011157047L147.3262756377326,175.70844068206156L147.71152630403307,139.05229217591057L148.12888119252526,174.37005231170687L148.16098541471692,148.22890062414638L148.1930896369086,97.0613467726198L148.22519385910036,175.46850787725808L148.6746529697842,175.0018480750898L149.44515430238513,175.54616519079923L149.54146696896024,122.97113404549327L149.60567541334365,176.4122309546945L149.66988385772706,88.85917657656L149.76619652430216,175.41689086877946L149.89461341306898,175.17020254912097L149.99092607964408,62.15276840479282L150.0230303018358,139.18164049620236L150.6009063012865,113.42708281008072L150.92194852320353,131.1419461141213L151.30719918950396,113.4745102638301L151.46772030046253,147.37843139694087L151.49982452265422,175.9637518604978L151.94928363333807,175.3664016335203L152.36663852183023,175.12113230077102L152.39874274402197,-11.34160077903016L152.46295118840533,175.52221315323106L152.49505541059708,150.13686020423347L152.59136807717218,143.3162934518009L152.6234722993639,174.81148035117923L152.6555765215556,111.74087413197594L152.8803060768975,176.37415830810968L152.94451452128092,133.39079216610048L153.49028629853993,95.35239738723521L153.55449474292334,174.02597353128618L153.58659896511503,94.77764605125003L153.71501585388185,114.44979760085585L153.81132852045695,176.0613093529943L154.54972563086613,142.88910884364418L154.87076785278322,166.956099184056L155.38443540785048,174.21038052133707L155.67337340757584,167.15514761394584L155.73758185195925,174.53264843468025L155.80179029634266,139.7409764594188L156.05862407387627,141.3633640175916L156.3475620736016,174.67015436403494L156.4438747401767,176.32015773947762L157.40700140592787,130.5623323170712L157.59962673907808,175.34502931744922L157.6959394056532,175.00761730339917L157.82435629442006,176.1814766961381L158.01698162757026,176.02395588226602L158.3380238494873,137.10578889008264L158.40223229387072,176.34295431627686L158.49854496044583,174.72987624338705L159.0443167377048,173.87004977811608L159.17273362647163,171.395272993029L159.46167162619696,175.55274246705466L159.7506096259223,130.47636379449045L159.94323495907256,175.96543981217306L160.10375607003107,93.26203486829536L160.2963814031813,174.85038267660815L160.81004895824856,120.30807170613684L160.9384658470154,34.18772115186039L161.0026742913988,133.83072623155056L161.29161229112412,126.08005031206267L161.45213340208267,176.4921309185392L161.64475873523287,174.75825252062737L161.8373840683831,125.2633783535498L162.06211362372505,176.27564423550078L163.2499698448181,146.90236112409718L163.37838673358493,105.23105661308887L163.50680362235175,116.11067085276113L164.05257539961073,175.594223607543L164.24520073276096,135.8260729915139L164.4378260659112,173.43811840329747L164.5341387324863,176.15107090504256L165.24043162070382,176.2192424311815L165.46516117604574,175.7516794051159L165.56147384262084,176.04286169914047L165.9146202867296,175.06232575861912L166.23566250864667,97.85838430320996L166.26776673083833,40.74972310918292L166.3640793974135,175.22931035817996L166.7172258415222,175.15062234264926L167.19878917439777,150.68492074255096L167.64824828508165,174.92888792135113L167.84087361823188,174.98224611411496L167.9050820626153,83.76812710338754L168.12981161795722,175.91424907659115L168.45085383987427,126.92029096742931L168.5471665064494,-67.58966437657273L168.6434791730245,174.37965231025055L168.6755833952162,174.97462297364052L168.80400028398302,175.13914156842526L169.12504250590007,176.25115422719878L169.54239739439222,175.44361808875922L169.57450161658394,124.59927797704177L170.1202733938429,176.16317143539572L170.47341983795164,133.00332996221823L170.762357837677,173.32104555582157L170.9228789486355,133.69167408440467L171.08340005959406,175.54710903958306L171.27602539274426,122.53514743352162L171.5649633924696,173.99744315964864L172.1107351697286,144.37976431536322L172.62440272479589,175.85187784485126L172.720715391371,122.5427628280745L173.23438294643825,175.38610528031666L173.4912167239719,-61.75599791047716L173.6196336127387,175.40927448538554L173.71594627931384,89.08076135324563L173.81225894588894,176.39697354928376L173.84436316808066,121.05164853410747L174.10119694561428,121.47214066602623L174.1654053899977,170.39261717260146L174.51855183410643,139.53328555873702L174.7753856116401,175.83092932957425L175.12853205574885,124.63294076335137L175.25694894451564,62.51717874607766L175.51378272204929,137.89463881676465L176.2521798324585,175.39335480368038L176.44480516560873,152.20762784889268L176.57322205437555,174.71400995909872L177.05478538725112,123.54608578659827L177.24741072040135,176.54884606186675L177.34372338697645,111.09325443966304L177.40793183135986,112.49877992601319L177.63266138670178,133.69913653820822L177.72897405327691,168.6832313786994L177.8573909420437,150.34835880219168L177.98580783081056,174.18379256313875L178.01791205300228,128.4752448396946L178.59578805245292,175.4114924558645L178.65999649683633,175.830750761361L178.78841338560315,128.7826030076601L178.9810387187534,175.38332713138186L179.23787249628703,136.30570045523427L179.55891471820408,124.5676825277576L180.00837382888793,175.75983264679752L180.10468649546306,175.6759094595288L180.2009991620382,174.76452754113467L181.22833427217273,136.00401691645084L181.38885538313124,175.95315923034508L181.42095960532296,174.24257240658227L181.54937649408976,175.7157026483419L181.67779338285658,175.854842143114L181.7098976050483,174.60490189668064L181.8062102716234,111.55795172195735L181.9667313825819,175.45280936633486L182.31987782669069,-783.0957050244724L182.57671160422433,105.03079388638753L182.70512849299112,8.994624777988975L182.76933693737453,173.92575218339982L182.96196227052477,175.56347007401095L183.21879604805838,97.66119621295206L183.25090027025013,101.36206173907794L183.44352560340033,62.81385215686578L183.53983826997546,111.55651196938607L183.9892973806593,175.7318739900947L184.21402693600123,131.03323688426076L184.92031982421875,84.20265814133109L185.14504937956067,147.93995072119947L185.33767471271094,175.31617477075355L185.46609160147773,122.2470597999718L185.49819582366945,44.203779182621474L185.9155507121616,174.28109551146787L186.36500982284545,118.81586573164873L186.46132248942058,176.07860599586394L186.5576351559957,176.00686483593174L186.6218436003791,118.91823055732152L186.6860520447625,141.99135982961968L187.19971959982976,79.47118819129219L187.26392804421317,116.59492345569402L187.32813648859658,175.7102404551791L187.3602407107883,175.15149334680896L187.39234493298,127.26381698570208L187.61707448832195,175.70258740226282L187.64917871051367,140.27011717228027L188.22705470996434,175.3811261360076L188.86913915379841,175.74734482036575L189.28649404229057,102.39623126459605L189.70384893078275,172.43532810048688L189.76805737516617,175.70070572014487L190.37803759680853,72.47394850428782L190.50645448557535,175.38619987944392L190.7311840409173,82.64691319622443L190.85960092968412,90.69163352775763L191.02012204064263,120.1059578689867L192.0153529285855,176.19728917099252L192.3363951505025,147.0052269625695L192.36849937269423,175.86599528133624L193.39583448282877,147.81855795678234L194.1663358154297,123.11637501916812L194.55158648173014,-29.81566196274889L194.61579492611355,132.471006499625L194.77631603707206,174.19553752273043L195.09735825898912,175.99786176776962L195.19367092556425,65.358828416282L195.22577514775594,173.67390689284983L195.48260892528958,81.08436502468203L195.546817369673,97.4445160878829L195.7073384806315,121.59234154736237L196.89519470172456,-136.80301103386864L197.02361159049138,118.77914940417145L197.15202847925823,110.84277968281071L197.37675803460016,-16.96013762282564L197.50517492336698,8.874951278547087L197.53727914555867,172.4646475672837L197.60148758994208,102.84549735266478L197.6335918121338,74.2875621004041L198.01884247843424,112.61306885631484L198.3077804781596,140.25214136041495L198.66092692226835,144.40127358591997L199.0140733663771,130.44778496964136L199.07828181076047,175.43925482761858L199.23880292171904,86.79923344528015L199.30301136610245,174.55145503783584L199.46353247706097,174.9663958160903L199.65615781021117,174.15945553678782L199.88088736555312,176.71265067221043L200.29824225404528,123.4388532260416L200.77980558692084,83.04502324055147L200.81190980911254,132.37186397732603L200.94032669787936,143.0132782737345L201.06874358664618,176.23667800621888L201.16505625322128,175.82244845189086L201.8392449192471,175.96840682974872L202.06397447458903,176.0819600623079L202.12818291897244,84.64550071792792L202.19239136335585,38.41886389882984L202.86658002938165,176.24119445531915L202.89868425157334,174.78870503446262L202.99499691814847,132.53103310682786L203.05920536253186,175.32314132076968L203.18762225129868,125.43857989263665L203.2197264734904,130.4675354215808L203.3802475844489,120.92622657201832L203.44445602883235,175.76061613852414L203.50866447321576,135.85420617866237L204.27916580581663,176.55204347940744L204.47179113896686,175.68460854147094L204.5359995833503,174.59800176382183L204.92125024965074,82.10774959046284L205.27439669375948,102.35683583709601L205.56333469348485,175.02709401117414L205.59543891567657,175.2103302134198L205.72385580444336,130.74787581510418L206.0448980263604,106.48637318832039L206.26962758170234,176.08561646690345L206.39804447046916,-189.45000558113315L206.6227740258111,175.8161071790331L206.94381624772814,175.17044761689493L207.00802469211155,175.30642759970002L207.16854580307006,174.8247688916526L207.23275424745347,175.6572921370312L207.32906691402857,46.4882076910053L207.39327535841198,175.51634850176023L207.74642180252076,174.48754508701606L208.58113157950507,-1518.2086020696515L208.8379653570387,175.50554870940715L208.93427802361384,173.9584656822998L208.99848646799725,175.91843830170671L209.03059069018894,175.38382006864614L209.25532024553087,174.94559158920342L209.3837371342977,176.17923697115597L209.4479455786811,132.47224057325752L209.5442582452562,175.16471365724976L210.15423846689862,175.8033406642316L210.37896802224054,45.90069371317941L210.53948913319906,97.33669285960468L210.86053135511608,170.51348057744224L211.24578202141657,108.22999265943258L212.0483875762092,87.91458286577927L213.30045224168566,143.54696501852436L213.6214944636027,34.176139845462785L214.0709535742866,176.12895242599453L214.2314746852451,122.69532386244146L214.71303801812064,174.46158965747713L215.32301823976306,125.96231230417266L215.54774779510498,146.35834296799908L215.64406046168008,175.0903023792677L215.868790017022,145.554837098476L216.09351957236396,116.358714379081L216.1898322389391,97.7132277106382L216.414561794281,175.7962186189601L216.73560401619804,59.91763955588294L216.79981246058145,175.49905152927693L216.89612512715658,173.11348650061336L216.92822934934827,41.18845210700465L216.96033357154,89.26440627645934L216.99243779373168,174.57669141512332L217.2171673490736,43.923148729056265L217.44189690441556,127.62022694365123L217.7308349041409,173.57129518652778L217.98766868167453,9.782649352006501L218.62975312550864,175.6707799289765L219.36815023591785,176.3829292458349L219.9139220131768,175.97255658362565L220.4596937904358,112.39425283457399L220.5560064570109,126.62142364796114L220.87704867892796,-70.71558343541255L220.90915290111965,175.68956279994683L220.97336134550306,91.87757828862027L221.39071623399522,137.58123421538164L222.22542601097953,125.41554385149607L223.09224001015556,175.38365361373576L223.25276112111408,115.48003813126184L223.3490737876892,176.4074066876152L223.60590756522282,173.95142513401163L223.79853289837308,61.49669478071519L224.15167934248183,175.82669832592427L224.44061734220716,175.85955767887936L224.66534689754909,176.17497687909838L224.85797223069935,117.06129781241202L224.98638911946614,112.95571942064316L225.05059756384955,123.56756077733189L225.08270178604127,175.36135953299765L226.0458284517924,85.28061618552829L226.17424534055922,175.7092114836614L226.20634956275092,133.5746295837056L226.46318334028456,176.33712448025136L227.20158045069377,144.1325039511563L227.26578889507718,175.5354888387708L227.29789311726887,176.05155287035421L227.65103956137762,138.0473659764283L227.74735222795275,175.18594852441467L228.19681133863662,175.02802698270642L228.32522822740344,175.81864784130863L228.38943667178683,173.624463192196L228.7746873380873,138.5988149434163L229.03152111562093,175.8885571731925L229.19204222657947,109.53619631363972L229.25625067096286,175.9388830024679L229.32045911534627,75.03434541029173L230.1551688923306,86.46038003059039L231.08619133589005,174.88064714583672L231.34302511342366,142.53740313219168L231.5356504465739,113.47437841835654L231.85669266849092,175.6535709633468L231.98510955725774,176.1943237190819L232.1135264460246,174.6576061358956L232.24194333479142,175.86495155960614L232.33825600136652,175.8140152033848L232.40246444574993,175.60509154752523L232.56298555670844,112.79470972833042L232.81981933424208,175.92768033978967L233.39769533369278,130.5799890628905L233.7187375556098,175.74404242086675L233.78294599999322,11.959903311842027L234.00767555533514,176.19478237652302L234.2645093328688,124.64651557330922L234.2966135550605,141.6730242075255L234.3929262216356,132.71158229832236L234.84238533231948,175.4035921102819L235.29184444300336,62.73284629790987L235.42026133177018,175.78830846737037L235.45236555396187,173.655532248427L235.48446977615356,175.0651652156991L235.90182466464572,67.10681460947853L236.09444999779595,175.17379286617287L236.25497110875446,121.01088718750134L236.28707533094618,174.29461774804312L236.35128377532956,175.81078861503306L236.44759644190472,173.9639362806115L236.51180488628813,118.13816417608814L236.60811755286323,113.6989376289257L236.96126399697198,171.65486288669598L237.7959737739563,175.45348490958003L238.37384977340696,88.31638458336602L238.85541310628255,111.22091250098379L238.95172577285766,175.81035171209504L238.98382999504938,136.85467863804774L239.17645532819958,176.28955656987094L239.49749755011663,171.7687348556875L239.9469566608005,115.77630545799138L240.39641577148436,48.70569034173377L240.52483266025118,131.77091758265374L240.62114532682628,93.3940543778815L240.65324954901803,123.0437176155981L241.52006354819403,143.00000670836585L241.7126888813443,174.04312596816914L241.8090015479194,133.7863101284173L242.09793954764473,175.4193326469498L242.29056488079496,120.39353921591805L242.45108599175347,108.84863799047571L242.48319021394516,73.57702047428893L242.51529443613688,93.1310332057651L242.5795028805203,96.90914435794093L242.86844088024563,125.54299623387806L242.96475354682076,96.40218796446084L243.02896199120417,64.49066288961512L243.54262954627143,132.78336952176687L243.60683799065484,176.54154532477685L243.70315065722994,174.55908279290185L243.86367176818848,135.31500038234924L243.9920886569553,175.76742636925067L244.50575621202256,175.7287520540876L244.53786043421428,118.81182071251988L244.66627732298107,131.63901937090327L244.95521532270644,132.6920902635111L245.59729976654052,175.85190100021256L245.982550432841,176.36303186859587L246.27148843256634,175.1253620683697L246.36780109914145,173.81763889507977L247.13830243174235,86.05905295670846L247.4914488758511,176.11995389002055L247.71617843119301,110.9278832990849L247.81249109776815,120.07249548779691L247.87669954215156,175.27117376813823L247.94090798653497,174.3119773471264L248.00511643091835,175.27958550935142L248.1977417640686,109.3565383975465L248.32615865283543,175.32893856624216L248.8398262079027,131.1187096678609L249.19297265201146,175.85890479657496L249.25718109639487,110.74453898355091L249.67453598488703,107.02581103266698L249.77084865146213,174.6719786109685L249.96347398461236,175.7608226414971L250.50924576187134,59.79055106700798L250.63766265063816,175.77507035779064L250.83028798378837,121.75118897390871L251.1192259835137,141.22934573062628L251.15133020570542,135.25211536527956L251.44026820543078,136.77457196522153L251.53658087200589,111.95877778303975L251.63289353858102,124.04633388238358L251.79341464953953,122.93690168673788L251.85762309392294,173.0193791569497L252.05024842707314,135.38842512657538L252.3391864267985,175.68662660125062L252.56391598214043,121.57449494406114L252.69233287090725,175.97437580395052L252.85285398186576,175.60320253150277L253.39862575912477,78.51935880092242L254.10491864734226,21.51119022684361L254.16912709172567,118.55253340421473L254.26543975830077,135.11096687510405L254.61858620240955,175.1319195678041L254.84331575775147,139.40235245585302L255.0680453130934,175.7373280253188L255.549608645969,176.2188908157842L256.0311719788445,174.12584878480448L256.0632762010363,176.16567559295575L256.2559015341865,174.95406430894815L256.5769437561035,175.7258755978716L256.73746486706204,175.66415757804978L256.8016733114454,175.3846645389043L256.89798597802053,176.1133796626917L257.25113242212933,175.34763277113154L257.44375775527953,171.97857450797463L257.76479997719656,101.29342298554207L257.7969041993883,120.04324688794213L257.8611126437717,176.32000076096065L258.27846753226385,175.5060029170636L258.5031970876058,175.6478205230174L258.5674055319892,116.99216331989555L258.59950975418093,131.04602589519618L259.43421953116524,114.81031058994222L259.65894908650716,175.9175958915341L260.3973461969164,176.17283142362984L260.6220757522583,175.4303427328332L260.7183884188334,175.82870311875317L260.91101375198366,175.18119681354753L262.13097419526844,137.32979171275338L262.54832908376056,148.57579661272337L262.5804333059523,-17.98557897799401L262.6446417503357,174.1251928535735L262.8372670834859,130.61485427991897L262.933579750061,-365.77389772004426L263.4472473051283,115.016580196419L263.51145574951175,123.17601136376925L263.76828952704534,124.59553883941157L264.0893317489624,175.60701509058106L264.8598330815633,150.583534210292L264.9882499703301,175.89690455733393L265.24508374786376,120.83492094466783L265.3735006366306,124.91521664842662L265.66243863635594,175.53071982318522L265.69454285854766,175.9351599335048L266.27241885799833,-158.74834203605405L266.56135685772364,131.17562472188774L266.7539821908739,175.71232995872478L267.42817085689967,175.88918871301087L267.5886919678582,128.60736455184065L267.71710885662503,140.96136453179452L267.78131730100847,90.48681422149002L268.1986721895006,31.9952996887464L268.262880633884,175.28149347816068L268.35919330045914,175.1907598953586L268.5197144114176,77.85679837954558L268.64813130018445,176.37874092715697L268.8728608555264,175.8568184243593L268.9691735221015,174.8868478384583L269.22600729963517,176.08092713542598L269.48284107716876,176.18457539438046L270.2533424097697,134.78761321428613L270.4780719651116,140.46489512728147L270.83121840922036,175.72982049684396L270.8633226314121,146.95394171026373L270.95963529798723,175.90695522018692L271.05594796456234,175.63372978524083L271.633823964013,72.6037477360992L271.7622408527798,119.40753020498232L271.8906577415466,175.96090408067232L271.95486618593003,175.44070380937302L272.01907463031347,175.6602707734892" fill="none"></path></g></g></g></g></g></g><g transform="translate(41, 176)" clip-path="url(#clip_1)"><clipPath id="clip_1"><rect width="288" height="23"></rect></clipPath><g><g><line x1="0" y1="0" x2="0" y2="5" style="visibility: inherit;" fill="rgb(0, 0, 0)" stroke="rgb(204, 204, 204)" stroke-width="1px"></line><line x1="32.10422219170464" y1="0" x2="32.10422219170464" y2="5" style="visibility: inherit;" fill="rgb(0, 0, 0)" stroke="rgb(204, 204, 204)" stroke-width="1px"></line><line x1="64.20844438340929" y1="0" x2="64.20844438340929" y2="5" style="visibility: inherit;" fill="rgb(0, 0, 0)" stroke="rgb(204, 204, 204)" stroke-width="1px"></line><line x1="96.31266657511392" y1="0" x2="96.31266657511392" y2="5" style="visibility: inherit;" fill="rgb(0, 0, 0)" stroke="rgb(204, 204, 204)" stroke-width="1px"></line><line x1="128.41688876681857" y1="0" x2="128.41688876681857" y2="5" style="visibility: inherit;" fill="rgb(0, 0, 0)" stroke="rgb(204, 204, 204)" stroke-width="1px"></line><line x1="160.52111095852322" y1="0" x2="160.52111095852322" y2="5" style="visibility: inherit;" fill="rgb(0, 0, 0)" stroke="rgb(204, 204, 204)" stroke-width="1px"></line><line x1="192.62533315022785" y1="0" x2="192.62533315022785" y2="5" style="visibility: inherit;" fill="rgb(0, 0, 0)" stroke="rgb(204, 204, 204)" stroke-width="1px"></line><line x1="224.72955534193252" y1="0" x2="224.72955534193252" y2="5" style="visibility: inherit;" fill="rgb(0, 0, 0)" stroke="rgb(204, 204, 204)" stroke-width="1px"></line><line x1="256.83377753363715" y1="0" x2="256.83377753363715" y2="5" style="visibility: inherit;" fill="rgb(0, 0, 0)" stroke="rgb(204, 204, 204)" stroke-width="1px"></line><line x1="288.9379997253418" y1="0" x2="288.9379997253418" y2="5" style="visibility: inherit;" fill="rgb(0, 0, 0)" stroke="rgb(204, 204, 204)" stroke-width="1px"></line></g><g transform="translate(0, 8)"><text style="text-anchor: middle; visibility: hidden; font-family: Roboto, sans-serif; font-size: 12px; font-weight: 200;" x="0" y="0" dx="0em" dy="0.95em" fill="rgb(33, 33, 33)" stroke="none" stroke-width="1px">-1k</text><text style="text-anchor: middle; visibility: inherit; font-family: Roboto, sans-serif; font-size: 12px; font-weight: 200;" x="32.10422219170464" y="0" dx="0em" dy="0.95em" fill="rgb(33, 33, 33)" stroke="none" stroke-width="1px">0</text><text style="text-anchor: middle; visibility: inherit; font-family: Roboto, sans-serif; font-size: 12px; font-weight: 200;" x="64.20844438340929" y="0" dx="0em" dy="0.95em" fill="rgb(33, 33, 33)" stroke="none" stroke-width="1px">1k</text><text style="text-anchor: middle; visibility: inherit; font-family: Roboto, sans-serif; font-size: 12px; font-weight: 200;" x="96.31266657511392" y="0" dx="0em" dy="0.95em" fill="rgb(33, 33, 33)" stroke="none" stroke-width="1px">2k</text><text style="text-anchor: middle; visibility: inherit; font-family: Roboto, sans-serif; font-size: 12px; font-weight: 200;" x="128.41688876681857" y="0" dx="0em" dy="0.95em" fill="rgb(33, 33, 33)" stroke="none" stroke-width="1px">3k</text><text style="text-anchor: middle; visibility: inherit; font-family: Roboto, sans-serif; font-size: 12px; font-weight: 200;" x="160.52111095852322" y="0" dx="0em" dy="0.95em" fill="rgb(33, 33, 33)" stroke="none" stroke-width="1px">4k</text><text style="text-anchor: middle; visibility: inherit; font-family: Roboto, sans-serif; font-size: 12px; font-weight: 200;" x="192.62533315022785" y="0" dx="0em" dy="0.95em" fill="rgb(33, 33, 33)" stroke="none" stroke-width="1px">5k</text><text style="text-anchor: middle; visibility: inherit; font-family: Roboto, sans-serif; font-size: 12px; font-weight: 200;" x="224.72955534193252" y="0" dx="0em" dy="0.95em" fill="rgb(33, 33, 33)" stroke="none" stroke-width="1px">6k</text><text style="text-anchor: middle; visibility: inherit; font-family: Roboto, sans-serif; font-size: 12px; font-weight: 200;" x="256.83377753363715" y="0" dx="0em" dy="0.95em" fill="rgb(33, 33, 33)" stroke="none" stroke-width="1px">7k</text><text style="text-anchor: middle; visibility: hidden; font-family: Roboto, sans-serif; font-size: 12px; font-weight: 200;" x="288.9379997253418" y="0" dx="0em" dy="0.95em" fill="rgb(33, 33, 33)" stroke="none" stroke-width="1px">8k</text></g><line x1="0" y1="0" x2="288.9379997253418" y2="0" fill="rgb(0, 0, 0)" stroke="rgb(204, 204, 204)" stroke-width="1px"></line></g></g></g></g></svg>