<svg viewBox="0 0 330 200" xmlns="http://www.w3.org/2000/svg"><g><g><g><g><g><line x1="41.149001121520996" y1="176.89999961853027" x2="36.149001121520996" y2="176.89999961853027" style="visibility: inherit;" fill="rgb(0, 0, 0)" stroke="rgb(204, 204, 204)" stroke-width="1px"></line><line x1="41.149001121520996" y1="162.15833298365277" x2="36.149001121520996" y2="162.15833298365277" style="visibility: inherit;" fill="rgb(0, 0, 0)" stroke="rgb(204, 204, 204)" stroke-width="1px"></line><line x1="41.149001121520996" y1="147.4166663487752" x2="36.149001121520996" y2="147.4166663487752" style="visibility: inherit;" fill="rgb(0, 0, 0)" stroke="rgb(204, 204, 204)" stroke-width="1px"></line><line x1="41.149001121520996" y1="132.6749997138977" x2="36.149001121520996" y2="132.6749997138977" style="visibility: inherit;" fill="rgb(0, 0, 0)" stroke="rgb(204, 204, 204)" stroke-width="1px"></line><line x1="41.149001121520996" y1="117.9333330790202" x2="36.149001121520996" y2="117.9333330790202" style="visibility: inherit;" fill="rgb(0, 0, 0)" stroke="rgb(204, 204, 204)" stroke-width="1px"></line><line x1="41.149001121520996" y1="103.19166644414267" x2="36.149001121520996" y2="103.19166644414267" style="visibility: inherit;" fill="rgb(0, 0, 0)" stroke="rgb(204, 204, 204)" stroke-width="1px"></line><line x1="41.149001121520996" y1="88.44999980926512" x2="36.149001121520996" y2="88.44999980926512" style="visibility: inherit;" fill="rgb(0, 0, 0)" stroke="rgb(204, 204, 204)" stroke-width="1px"></line><line x1="41.149001121520996" y1="73.7083331743876" x2="36.149001121520996" y2="73.7083331743876" style="visibility: inherit;" fill="rgb(0, 0, 0)" stroke="rgb(204, 204, 204)" stroke-width="1px"></line><line x1="41.149001121520996" y1="58.96666653951008" x2="36.149001121520996" y2="58.96666653951008" style="visibility: inherit;" fill="rgb(0, 0, 0)" stroke="rgb(204, 204, 204)" stroke-width="1px"></line><line x1="41.149001121520996" y1="44.22499990463255" x2="36.149001121520996" y2="44.22499990463255" style="visibility: inherit;" fill="rgb(0, 0, 0)" stroke="rgb(204, 204, 204)" stroke-width="1px"></line><line x1="41.149001121520996" y1="29.48333326975504" x2="36.149001121520996" y2="29.48333326975504" style="visibility: inherit;" fill="rgb(0, 0, 0)" stroke="rgb(204, 204, 204)" stroke-width="1px"></line><line x1="41.149001121520996" y1="14.74166663487751" x2="36.149001121520996" y2="14.74166663487751" style="visibility: inherit;" fill="rgb(0, 0, 0)" stroke="rgb(204, 204, 204)" stroke-width="1px"></line><line x1="41.149001121520996" y1="0" x2="36.149001121520996" y2="0" style="visibility: inherit;" fill="rgb(0, 0, 0)" stroke="rgb(204, 204, 204)" stroke-width="1px"></line></g><g transform="translate(31.149001121520996, 0)"><text style="text-anchor: end; visibility: hidden; font-family: Roboto, sans-serif; font-size: 12px; font-weight: 200;" x="0" y="176.89999961853027" dx="0em" dy="0.3em" fill="rgb(33, 33, 33)" stroke="none" stroke-width="1px">0.2</text><text style="text-anchor: end; visibility: inherit; font-family: Roboto, sans-serif; font-size: 12px; font-weight: 200;" x="0" y="162.15833298365277" dx="0em" dy="0.3em" fill="rgb(33, 33, 33)" stroke="none" stroke-width="1px">0.3</text><text style="text-anchor: end; visibility: hidden; font-family: Roboto, sans-serif; font-size: 12px; font-weight: 200;" x="0" y="147.4166663487752" dx="0em" dy="0.3em" fill="rgb(33, 33, 33)" stroke="none" stroke-width="1px">0.4</text><text style="text-anchor: end; visibility: inherit; font-family: Roboto, sans-serif; font-size: 12px; font-weight: 200;" x="0" y="132.6749997138977" dx="0em" dy="0.3em" fill="rgb(33, 33, 33)" stroke="none" stroke-width="1px">0.5</text><text style="text-anchor: end; visibility: hidden; font-family: Roboto, sans-serif; font-size: 12px; font-weight: 200;" x="0" y="117.9333330790202" dx="0em" dy="0.3em" fill="rgb(33, 33, 33)" stroke="none" stroke-width="1px">0.6</text><text style="text-anchor: end; visibility: inherit; font-family: Roboto, sans-serif; font-size: 12px; font-weight: 200;" x="0" y="103.19166644414267" dx="0em" dy="0.3em" fill="rgb(33, 33, 33)" stroke="none" stroke-width="1px">0.7</text><text style="text-anchor: end; visibility: hidden; font-family: Roboto, sans-serif; font-size: 12px; font-weight: 200;" x="0" y="88.44999980926512" dx="0em" dy="0.3em" fill="rgb(33, 33, 33)" stroke="none" stroke-width="1px">0.8</text><text style="text-anchor: end; visibility: inherit; font-family: Roboto, sans-serif; font-size: 12px; font-weight: 200;" x="0" y="73.7083331743876" dx="0em" dy="0.3em" fill="rgb(33, 33, 33)" stroke="none" stroke-width="1px">0.9</text><text style="text-anchor: end; visibility: hidden; font-family: Roboto, sans-serif; font-size: 12px; font-weight: 200;" x="0" y="58.96666653951008" dx="0em" dy="0.3em" fill="rgb(33, 33, 33)" stroke="none" stroke-width="1px">1</text><text style="text-anchor: end; visibility: inherit; font-family: Roboto, sans-serif; font-size: 12px; font-weight: 200;" x="0" y="44.22499990463255" dx="0em" dy="0.3em" fill="rgb(33, 33, 33)" stroke="none" stroke-width="1px">1.1</text><text style="text-anchor: end; visibility: hidden; font-family: Roboto, sans-serif; font-size: 12px; font-weight: 200;" x="0" y="29.48333326975504" dx="0em" dy="0.3em" fill="rgb(33, 33, 33)" stroke="none" stroke-width="1px">1.2</text><text style="text-anchor: end; visibility: inherit; font-family: Roboto, sans-serif; font-size: 12px; font-weight: 200;" x="0" y="14.74166663487751" dx="0em" dy="0.3em" fill="rgb(33, 33, 33)" stroke="none" stroke-width="1px">1.3</text><text style="text-anchor: end; visibility: hidden; font-family: Roboto, sans-serif; font-size: 12px; font-weight: 200;" x="0" y="0" dx="0em" dy="0.3em" fill="rgb(33, 33, 33)" stroke="none" stroke-width="1px">1.4</text></g><line x1="41.149001121520996" y1="0" x2="41.149001121520996" y2="176.89999961853027" fill="rgb(0, 0, 0)" stroke="rgb(204, 204, 204)" stroke-width="1px"></line></g></g><g transform="translate(41, 0)" clip-path="url(#clip_0)"><clipPath id="clip_0"><rect width="288" height="176"></rect></clipPath><g><g><g><line x1="0" y1="0" x2="0" y2="176.89999961853027" fill="rgb(0, 0, 0)" stroke="rgb(66, 66, 66)" stroke-width="1px" opacity="0.25"></line><line x1="32.09455543094211" y1="0" x2="32.09455543094211" y2="176.89999961853027" fill="rgb(0, 0, 0)" stroke="rgb(66, 66, 66)" stroke-width="1px" opacity="0.25"></line><line x1="64.18911086188422" y1="0" x2="64.18911086188422" y2="176.89999961853027" fill="rgb(0, 0, 0)" stroke="rgb(66, 66, 66)" stroke-width="1px" opacity="0.25"></line><line x1="96.28366629282633" y1="0" x2="96.28366629282633" y2="176.89999961853027" fill="rgb(0, 0, 0)" stroke="rgb(66, 66, 66)" stroke-width="1px" opacity="0.25"></line><line x1="128.37822172376843" y1="0" x2="128.37822172376843" y2="176.89999961853027" fill="rgb(0, 0, 0)" stroke="rgb(66, 66, 66)" stroke-width="1px" opacity="0.25"></line><line x1="160.47277715471057" y1="0" x2="160.47277715471057" y2="176.89999961853027" fill="rgb(0, 0, 0)" stroke="rgb(66, 66, 66)" stroke-width="1px" opacity="0.25"></line><line x1="192.56733258565265" y1="0" x2="192.56733258565265" y2="176.89999961853027" fill="rgb(0, 0, 0)" stroke="rgb(66, 66, 66)" stroke-width="1px" opacity="0.25"></line><line x1="224.6618880165948" y1="0" x2="224.6618880165948" y2="176.89999961853027" fill="rgb(0, 0, 0)" stroke="rgb(66, 66, 66)" stroke-width="1px" opacity="0.25"></line><line x1="256.75644344753687" y1="0" x2="256.75644344753687" y2="176.89999961853027" fill="rgb(0, 0, 0)" stroke="rgb(66, 66, 66)" stroke-width="1px" opacity="0.25"></line><line x1="288.850998878479" y1="0" x2="288.850998878479" y2="176.89999961853027" fill="rgb(0, 0, 0)" stroke="rgb(66, 66, 66)" stroke-width="1px" opacity="0.25"></line></g><g><line x1="0" y1="176.89999961853027" x2="288.850998878479" y2="176.89999961853027" fill="rgb(0, 0, 0)" stroke="rgb(66, 66, 66)" stroke-width="1px" opacity="0.25"></line><line x1="0" y1="162.15833298365277" x2="288.850998878479" y2="162.15833298365277" fill="rgb(0, 0, 0)" stroke="rgb(66, 66, 66)" stroke-width="1px" opacity="0.25"></line><line x1="0" y1="147.4166663487752" x2="288.850998878479" y2="147.4166663487752" fill="rgb(0, 0, 0)" stroke="rgb(66, 66, 66)" stroke-width="1px" opacity="0.25"></line><line x1="0" y1="132.6749997138977" x2="288.850998878479" y2="132.6749997138977" fill="rgb(0, 0, 0)" stroke="rgb(66, 66, 66)" stroke-width="1px" opacity="0.25"></line><line x1="0" y1="117.9333330790202" x2="288.850998878479" y2="117.9333330790202" fill="rgb(0, 0, 0)" stroke="rgb(66, 66, 66)" stroke-width="1px" opacity="0.25"></line><line x1="0" y1="103.19166644414267" x2="288.850998878479" y2="103.19166644414267" fill="rgb(0, 0, 0)" stroke="rgb(66, 66, 66)" stroke-width="1px" opacity="0.25"></line><line x1="0" y1="88.44999980926512" x2="288.850998878479" y2="88.44999980926512" fill="rgb(0, 0, 0)" stroke="rgb(66, 66, 66)" stroke-width="1px" opacity="0.25"></line><line x1="0" y1="73.7083331743876" x2="288.850998878479" y2="73.7083331743876" fill="rgb(0, 0, 0)" stroke="rgb(66, 66, 66)" stroke-width="1px" opacity="0.25"></line><line x1="0" y1="58.96666653951008" x2="288.850998878479" y2="58.96666653951008" fill="rgb(0, 0, 0)" stroke="rgb(66, 66, 66)" stroke-width="1px" opacity="0.25"></line><line x1="0" y1="44.22499990463255" x2="288.850998878479" y2="44.22499990463255" fill="rgb(0, 0, 0)" stroke="rgb(66, 66, 66)" stroke-width="1px" opacity="0.25"></line><line x1="0" y1="29.48333326975504" x2="288.850998878479" y2="29.48333326975504" fill="rgb(0, 0, 0)" stroke="rgb(66, 66, 66)" stroke-width="1px" opacity="0.25"></line><line x1="0" y1="14.74166663487751" x2="288.850998878479" y2="14.74166663487751" fill="rgb(0, 0, 0)" stroke="rgb(66, 66, 66)" stroke-width="1px" opacity="0.25"></line><line x1="0" y1="0" x2="288.850998878479" y2="0" fill="rgb(0, 0, 0)" stroke="rgb(66, 66, 66)" stroke-width="1px" opacity="0.25"></line></g></g></g><g><g><line x1="0" y1="206.38333288828534" x2="288.850998878479" y2="206.38333288828534" fill="rgb(0, 0, 0)" stroke="rgb(153, 153, 153)" stroke-width="1.5px"></line></g></g><g><g><line x1="32.09455543094211" y1="0" x2="32.09455543094211" y2="176.89999961853027" fill="rgb(0, 0, 0)" stroke="rgb(153, 153, 153)" stroke-width="1.5px"></line></g></g><g><g><g><g><g><path style="fill: none;" stroke="rgb(255, 112, 67)" stroke-width="2px" d="M43.809068163235985,177.35820081509468L43.84116271866693,176.10155071290632L43.87325727409787,175.50746238010868L44.258391939269174,175.86500512324622L44.51514838271671,176.34095636944994L44.643526604440474,175.12911771128634L44.707715715302356,174.77998773880987L45.02866126961178,174.90891827703308L45.09285038047367,175.24839343788508L45.445890490214026,174.49136271137314L45.670552378230624,173.63892288259447L46.11987615426382,174.00328286446646L46.15197070969475,174.08529593650147L46.21615982055664,173.0452998365619L46.44082170857323,173.2159750426848L46.922240040037366,173.41529268267013L47.05061826176114,173.47378631609246L47.211091038915846,172.8250560770093L47.33946926063962,172.09508980570922L47.371563816070555,172.1461466365494L47.53203659322527,172.1609119893703L47.56413114865621,171.64019660802816L47.75669848124186,171.4160685119988L48.49487325615353,171.88766982608078L48.559062367015414,171.45487707258332L48.59115692244635,171.52633267027605L48.6232514778773,171.668060507966L48.71953514417012,170.9540984187956L48.78372425503201,170.28095419431656L49.2330480310652,169.64716358356426L49.26514258649614,169.4628174092728L49.32933169735803,167.3163945089326L49.39352080821991,166.87386930571992L49.45770991908179,167.19272879571886L49.58608814080556,167.0455371693146L49.65027725166745,166.1878897656583L49.84284458425309,165.47771048780916L49.971222805976865,163.53383967770722L50.16379013856252,163.49724278348896L50.22797924942441,162.65258126424408L50.35635747114817,160.26567954280378L50.869870358043244,159.69701887365665L51.062437690628904,160.12632270063423L51.19081591235267,159.3513433010275L51.25500502321455,158.69084284665527L51.832707020971505,156.42183755065776L52.121558019849985,155.51436069687853L52.2820307970047,155.00831615576266L52.31412535243564,153.4675457527003L52.570881795883174,153.33047690345148L52.763449128468835,153.30792723841378L52.79554368389978,152.06623895490816L53.24486745993296,151.47064155862373L53.533718458811435,151.43070973142295L53.790474902258985,150.8157892641179L53.822569457689916,149.2133900906599L54.336082344584995,148.77178717266298L54.40027145544688,148.0576517006427L55.26682445208231,147.6864212217698L55.3310135629442,147.71837320543165L55.39520267380608,147.08306332534428L55.491486340098916,146.1875413035284L55.587770006391736,144.7188936394551L56.00499922699399,144.07607141758496L56.64689033561283,143.37796551518608L56.99993044535319,143.39752979206716L57.03202500078413,142.76524719486625L57.224592333369785,142.59594493761358L57.41715966595544,142.09265066935018L57.93067255285051,141.6134642304753L57.962767108281454,141.078842183465L58.02695621914334,141.25815313893978L58.412090884314644,140.6722691135813L58.82932010491689,140.5434741957534L59.086076548364424,139.78816547592072L59.18236021465726,139.60767045630675L59.63168399069045,138.9917976405647L59.79215676784515,137.4102811385183L59.92053498956892,136.88048552975758L60.08100776672363,136.24023161192707L60.562426098187764,136.15306980744006L60.91546620792813,135.6879924167356L61.0438444296519,135.22976471684603L61.974586537149214,134.6775340072873L62.038775648011104,133.17596739218388L62.35972120232052,133.1437228470125L62.58438309033712,132.64668999716477L63.03370686637031,132.5768785248336L64.18911086188422,132.60544638778862L64.28539452817705,132.1498109348443L64.34958363903893,131.75533928396237L64.7026237487793,131.67514519383462L64.92728563679589,131.37065078488024L65.05566385851965,131.09725269382795L65.11985296938154,130.85433293695831L65.40870396826003,130.86747900937198L66.01850052144793,130.61599008435772L66.46782429748112,129.9473005127983L66.49991885291206,129.47029008509983L66.56410796377394,129.41507643162706L66.69248618549771,129.12819414210418L66.98133718437619,128.73265053293665L67.3664718495475,128.27536954816907L67.49485007127126,127.19009597690119L67.55903918213315,126.87473792909161L67.65532284842597,125.69552272122674L67.71951195928786,124.38488222981508L67.78370107014973,124.10618893860199L68.10464662445916,123.90483546275146L68.23302484618293,121.95482412362037L68.45768673419953,121.63600263758639L68.5218758450614,121.224182006934L68.68234862221613,120.86550206603212L68.90701051023271,120.70733671830847L69.06748328738742,120.77277840903369L69.09957784281836,119.5936711946712L69.48471250798967,119.08823270135416L69.80565806229909,118.70590289232493L69.86984717316098,118.14153623871353L69.90194172859192,117.86196814161775L70.12660361660852,117.03203483391435L70.415454615487,117.03755456276185L70.44754917091794,116.7806019130591L70.83268383608925,116.46978959487562L71.08944027953677,115.94785833562116L71.21781850126055,115.09705687908988L71.44248038927714,114.80173151567682L72.05227694246504,114.58701749028326L72.11646605332693,114.35580776264575L72.27693883048164,114.58645400241188L72.30903338591258,114.25566103912473L72.37322249677446,114.23171063078289L72.46950616306728,114.06902616457575L72.59788438479106,113.82687665043234L72.79045171737671,113.60820273527514L72.91882993910049,113.41940068043698L73.07930271625519,113.27865973074212L73.27187004884084,113.05117389744878L73.52862649228837,112.74627189913784L73.78538293573591,112.10420022938393L74.04213937918345,111.9805677421449L74.33099037806194,111.85895575131427L74.55565226607852,110.2062096173258L74.65193593237134,110.33181055601035L74.68403048780229,110.13638707978511L74.97288148668076,109.93460501752821L75.2938270409902,110.07828904477259L75.77524537245432,110.27702269435375L75.9036235941781,110.21816202014325L76.25666370391846,110.01952813488721L76.28875825934941,109.79506113244521L76.41713648107316,109.24271908032722L77.60463503201802,109.29618673416672L78.27862069606782,109.13549498130766L78.31071525149876,108.8684654939727L78.88841724925572,108.73876878066838L78.92051180468664,108.52287343260134L79.01679547097947,108.22638138724922L79.43402469158173,108.2386045956595L79.4982138024436,108.12044703799513L79.85125391218398,107.71244706570548L79.9475375784768,107.72298337346763L80.07591580020056,107.58589267306262L80.3326722436481,107.29098878154763L80.5573341316647,107.32242788258561L80.58942868709565,107.0766756298828L80.68571235338847,106.9077814324966L80.7819960196813,105.690747104223L81.16713068485261,105.45615736680156L81.35969801743826,105.35703559228789L81.48807623916201,105.15784446745145L81.80902179347144,105.1297339392641L81.90530545976426,104.75593533079243L82.35462923579745,104.38544405964407L82.45091290209028,104.12662897244604L82.61138567924499,103.99463358286131L82.70766934553782,103.77558102604584L82.9965203444163,103.55843335330462L83.34956045415667,103.34316593213383L83.51003323131137,103.23609593691475L83.57422234217326,103.05931996970156L84.34449167251586,103.12721439671964L84.6012481159634,103.10123556663893L84.66543722682529,102.82233643034871L84.98638278113471,102.78887608995558L85.2110446691513,102.47885666153032L85.46780111259883,102.27502059613336L85.72455755604638,102.09868601832005L85.94921944406298,101.92004532031189L86.01340855492485,101.75517685693472L86.20597588751052,101.87457884481711L86.49482688638899,101.67720253610477L86.75158332983654,101.61867032461952L86.81577244069842,101.01445683599007L86.91205610699123,100.91528033104315L87.00833977328406,100.72505197411861L87.04043432871501,100.62854835673083L87.2650962167316,100.60497426488256L87.4255689938863,100.41813244412613L87.65023088190291,100.23277541851739L87.93908188078139,100.04888565071423L88.13164921336704,99.96464405035762L88.42050021224551,99.39175683260247L88.77354032198589,99.21346162655482L89.09448587629531,99.31311082334162L89.15867498715718,99.16865645033162L89.38333687517378,99.2120933286833L89.54380965232849,99.03697590685789L89.64009331862133,98.35176076027003L89.89684976206885,98.18152726537494L90.50664631525676,98.01259082225016L91.40529386732312,97.84493674690218L91.5336720890469,97.68567966592157L91.82252308792538,97.7492859778825L91.98299586508008,97.63923393989717L92.04718497594197,97.5295052363896L92.72117063999177,97.24205534889356L93.07421074973213,97.23569845884097L93.17049441602495,97.07507253573165L93.3630617486106,96.91563058583041L93.39515630404154,96.7573596455346L93.87657463550568,96.35509631634365L93.90866919093662,96.20014524742554L94.26170930067697,96.126346902846L94.39008752240075,95.97330580461815L94.55056029955546,95.82136881308209L94.61474941041735,95.60831660483478L94.90360040929582,95.46903200803257L95.0319786310196,95.3382374938528L95.06407318645054,95.19073748012364L95.12826229731242,95.04428310450564L95.16035685274336,94.89886335989179L95.22454596360524,95.0210491225705L95.57758607334561,94.89473026109621L95.6417751842075,94.75121687997982L95.89853162765503,94.1390293576479L95.93062618308598,94.18697421493114L96.0269098493788,94.04753928704821L97.15021928946177,93.79268781829683L98.56237972842322,93.66693807382731L98.8512307273017,93.7332385445187L99.17217628161112,93.63095013185837L99.52521639135149,93.52446933003435L99.62150005764433,93.40689758237582L99.81406739022997,93.15894855870654L99.97454016738467,93.02670303138032L100.00663472281562,92.96681030806101L100.1350129445394,93.09116864105953L100.16710749997034,92.96030993178057L100.39176938798693,92.830321515878L100.77690405315823,92.70119480453617L101.41879516177707,92.87421311001454L101.73974071608649,92.74564204806664L102.31744271384345,92.73252065757973L102.54210460186005,92.60519743653693L103.02352293332419,92.11195459621051L103.21609026590983,91.92696105314998L103.53703582021926,91.84526667417917L103.89007592995962,91.40530729701246L103.98635959625244,91.28465682346837L104.14683237340715,91.32882299531869L104.5640615940094,90.58197942157241L105.334330924352,90.66298082554917L106.10460025469463,90.54635796897644L106.457640364435,90.43047470802755L106.55392403072781,90.09951906293706L106.71439680788252,89.98588191651524L106.97115325133007,89.77786275055593L107.29209880563948,89.95192068399116L107.61304435994889,89.74517009882705L107.8377062479655,89.63400298842103L108.80054291089375,89.7484292961961L108.92892113261753,89.22298218756937L108.96101568804848,88.90322578758875L109.08939390977223,88.81718849996216L110.14851423899333,88.75017987289746L110.30898701614804,88.53941203415204L110.46945979330275,88.43451206353215L110.886689013905,88.42648230718282L111.14344545735253,88.2815674920524L111.23972912364536,88.17836994458389L111.8816202322642,88.16058494408789L112.13837667571174,88.10722692868904L112.29884945286645,88.06598345684228L112.36303856372834,87.96456571616989L112.45932223002116,88.01750406923068L112.52351134088303,87.8656317127739L112.55560589631398,87.76565687901522L112.90864600605435,87.68575669067395L112.97283511691624,87.58689020081272L113.0370242277781,87.49488165257979L113.26168611579472,86.70905796531031L113.32587522665659,86.62845495423213L113.58263167010412,86.25772694686987L114.44918466673957,86.16490780562394L114.4812792221705,86.07262592629499L114.83431933191088,86.0307748071728L114.86641388734182,85.93938519268391L115.18735944165124,85.87335083926648L115.315737663375,85.79570477435406L115.5403995513916,85.83880805060545L115.7650614394082,85.47770777961664L116.18229066001044,85.38923505388517L116.43904710345798,85.30126318770479L116.47114165888891,84.91998503677739L116.69580354690552,84.83397600388558L116.79208721319834,84.74844991055984L116.82418176862929,84.67872083286419L116.85627632406023,84.59409820750938L116.95255999035307,84.50994689380194L117.56235654354094,84.42626300693927L117.8191129869885,84.34304270469067L117.85120754241943,84.30835948204461L117.94749120871226,84.22589854797779L118.17215309672885,84.31322286637213L118.26843676302168,84.2311160534219L118.33262587388357,84.16732567653503L118.42890954017639,83.99097354095177L118.55728776190016,83.93416869552918L118.84613876077864,83.85400675026536L119.03870609336428,83.58537463098544L119.199178870519,83.59870978267182L119.32755709224277,83.52014539359345L119.71269175741408,83.4934696700548L119.74478631284502,83.41558184970616L119.87316453456879,83.33810992104233L120.0336373117235,83.26105060034065L120.06573186715444,83.10533251180372L120.09782642258538,83.02933762063213L120.1941100888782,82.95374437567536L120.48296108775668,82.87854963870633L120.51505564318762,82.80375030410194L120.54715019861857,82.72934329842084L120.70762297577328,82.80221861644316L120.868095752928,82.72813058742156L120.96437941922082,82.65442823278632L121.12485219637553,82.58110858544333L121.28532497353024,82.50816870865137L121.50998686154684,82.34472789223416L121.89512152671814,82.36350733113404L122.37653985818228,82.31431443577364L122.76167452335358,82.26537382715203L123.082620077663,82.19415153954552L123.21099829938677,81.94340635565537L123.40356563197243,81.87345591794394L123.62822751998901,81.99340350375721L123.94917307429843,81.9890224540632L123.98126762972937,81.99380782965623L124.59106418291728,81.94096524773329L124.62315873834822,81.8896768210822L124.9120097372267,82.21976710592887L124.97619884808857,82.17085633597158L125.77856273386215,82.10134632929935L125.87484640015495,82.03218256723196L125.97113006644778,81.88119967901063L126.29207562075722,81.8129654542211L126.86977761851418,81.82791463417782L126.96606128480698,81.67265826982725L127.1907231728236,81.6054434414062L127.28700683911642,81.36434564108559L127.3511959499783,81.29830227735214L127.54376328256394,81.23258172137577L127.9609925031662,81.16718164484229L128.28193805747563,81.12370770769498L128.37822172376843,81.05887847147238L128.47450539006127,80.99436316883843L128.7312618335088,80.96023658745918L129.0201128323873,80.91769749269072L129.5015311638514,80.85396128296452L129.91876038445366,80.79053087915734L131.07416437996758,80.64212188774867L131.10625893539853,80.59065113817756L131.49139360056984,80.52833828292546L131.71605548858642,80.46632168561817L131.74815004401736,80.40459926930824L131.7802445994483,79.79402072571874L131.97281193203398,79.75553293386248L132.10119015375773,79.69618385753876L132.2295683754815,79.4690845245417L132.26166293091245,79.33676341949462L132.2937574863434,79.27893135449574L132.4542302634981,79.2422572176485L132.51841937435998,79.18490430824909L133.06402681668598,79.12781802302331L133.96267436875237,79.2241818111458L134.12314714590707,79.16719236282385L134.41199814478557,79.1518630100803L134.5082818110784,79.10491017203731L134.57247092194027,79.04856247552833L134.79713280995688,78.91012566750426L134.95760558711157,78.87507289907707L135.34274025228288,78.82762605643507L135.37483480771382,78.79292732109367L135.47111847400666,78.77249035908007L135.53530758486852,78.7176628053488L135.75996947288513,78.6630835382348L136.14510413805644,78.83391267306553L136.20929324891833,78.77920500781119L136.91537346839905,78.72474349597464L137.01165713469186,78.67052650703373L137.97449379762014,78.53578976028156L138.23125024106767,78.50747233579658L139.3224651257197,78.29316472358425L139.4829379028744,78.33630889687925L139.8359780126148,78.28999270318639L140.12482901149326,78.30433298825037L140.34949089950985,78.42603655225432L140.41368001037173,78.37337146193393L140.50996367666457,78.33396246130543L140.57415278752646,78.20220191947354L140.73462556468115,77.75346713249382L140.7667201201121,77.79418774086207L141.02347656355963,77.74366291410928L141.37651667330002,77.71310521505207L141.50489489502377,77.6629667164757L141.82584044933319,77.53432273893353L141.95421867105696,77.54377200038373L142.0825968927807,77.49433450393566L142.33935333622827,76.97512380425898L142.49982611338297,76.98600934797943L142.9812444448471,76.95781186490046L143.2059063328637,76.7738471811619L143.43056822088028,76.7363806688266L143.8798919969135,76.74782393236221L143.91198655234444,76.70104693172595L143.9440811077754,76.68834705747817L143.9761756632063,76.56456801016743L144.16874299579197,76.51849825541599L144.23293210665386,76.3955632193989L144.45759399467042,76.27314703754118L144.55387766096328,76.1704495987131L144.90691777070364,76.04901155149736L145.29205243587495,76.0126891118118L145.58090343475342,76.00671435229948L145.8697544336319,75.97405154719712L146.06232176621756,75.70148893625507L146.3190782096651,75.65830494802825L146.57583465311262,75.6153003636906L146.67211831940546,75.57247408897432L146.86468565199112,75.46792172491305L146.89678020742204,75.42560756070785L147.2498203171624,75.23249578936142L147.28191487259335,75.19091535131075L147.66704953776465,75.17147902490399L148.0842787583669,75.13018303849816L148.11637331379785,75.01403743360898L148.14846786922877,74.67365748500606L148.18056242465974,74.63381502456947L148.6298862006929,74.59413460199812L149.40015553103555,74.554615250534L149.49643919732836,74.58303799195693L149.56062830819025,74.5436670255832L149.62481741905214,74.55139819602377L149.72110108534494,74.51222611022202L149.84947930706872,74.47321153133466L149.94576297336152,74.44654415179328L149.9778575287925,74.33403981178628L150.55555952654944,73.78002031578366L150.87650508085886,73.79363221818939L151.26163974603017,73.79059227086455L151.4221125231849,73.62080851015145L151.4542070786158,73.58441456939026L151.903530854649,73.5481647914062L152.32076007525126,73.5120583393471L152.35285463068223,73.49209560938317L152.41704374154406,73.45623381901859L152.44913829697504,73.3478284693367L152.54542196326784,72.71387436264335L152.57751651869881,72.68008268114681L152.60961107412973,72.5740563656657L152.83427296214631,72.54070557477765L152.8984620730082,72.54356319181521L153.44406951533423,72.54453633700032L153.50825862619612,72.51140198064522L153.54035318162707,72.48784368452489L153.66873140335085,72.46548853140663L153.76501506964365,72.43268866235428L154.50318984455532,72.41729144573473L154.82413539886477,72.3847018362339L155.33764828575983,72.35223738220691L155.6264992846383,72.31989738022946L155.6906883955002,72.28768113213629L155.75487750636208,71.90042951229758L156.0116339498096,71.88066220443937L156.30048494868808,71.84963701195711L156.39676861498089,71.81872970173112L157.35960527790917,71.64667136959399L157.5521726104948,71.61633583211102L157.64845627678767,71.58611494841969L157.77683449851145,71.55600808478168L157.96940183109706,71.5260146121179L158.2903473854065,71.50928619061094L158.3545364962684,71.47948638278119L158.4508201625612,71.44979822329454L158.9964276048872,71.42022110064512L159.12480582661098,71.39075440778217L159.41365682548945,71.36139754206921L159.70250782436796,71.2625785664809L159.8950751569536,71.2336035080152L160.05554793410832,71.22208157598426L160.248115266694,71.19328004609832L160.76162815358904,71.09538937758482L160.89000637531282,71.07376891964718L160.95419548617468,71.06057824707639L161.24304648505316,70.70495129370957L161.40351926220788,70.67754968092306L161.59608659479352,70.65024846409081L161.7886539273792,70.48576272498833L162.01331581539577,70.45897988976053L163.2008143663406,70.36383423909385L163.3291925880644,70.34772878302537L163.45757080978817,70.25309155449132L164.0031782521142,70.226987849381L164.19574558469984,69.92857522858434L164.3883129172855,69.90328843995921L164.4845965835783,69.87809290776396L165.19067680305906,69.85298815143356L165.41533869107565,69.82797369376885L165.51162235736845,69.80304906090734L165.86466246710881,69.77821378229407L166.18560802141826,69.48353149310395L166.21770257684918,69.49318911996127L166.31398624314204,69.46915703530905L166.66702635288237,69.44521053941342L167.14844468434652,69.35421081910916L167.5977684603797,69.33058686030648L167.79033579296535,69.3070466248287L167.85452490382724,69.23342792567973L168.07918679184385,69.2101674888992L168.40013234615324,68.98684952042146L168.4964160124461,68.98869121098647L168.5926996787389,68.96607104997143L168.62479423416983,68.94353027844343L168.7531724558936,68.92106849040965L169.07411801020305,68.89868528263884L169.49134723080527,68.8763802546377L169.52344178623625,68.86288221112551L170.06904922856225,68.8407127969386L170.4220893383026,68.83065932199544L170.71094033718109,68.8086167399285L170.87141311433578,68.81159014549188L171.03188589149053,68.78964434010963L171.22445322407614,68.80059536009826L171.51330422295464,68.7787277938677L172.05891166528068,68.69145396972975L172.57242455217573,68.66988186818483L172.66870821846854,68.6647143390539L173.18222110536362,68.64325381577301L173.43897754881118,68.23088413766726L173.56735577053496,68.21043320826513L173.66363943682776,68.2787533993308L173.75992310312057,68.25824629829476L173.79201765855154,68.25402150858746L174.04877410199907,68.24981106222647L174.11296321286093,68.2294410911268L174.46600332260132,68.22529456722215L174.72275976604885,68.20502677986788L175.07579987578924,68.12036292769174L175.20417809751297,68.11543916687711L175.46093454096052,67.96685917808152L176.1991093158722,67.94725024972406L176.39167664845786,67.94374718219936L176.52005487018164,67.9242345853837L177.00147320164575,67.77676743597836L177.1940405342314,67.7576626070995L177.29032420052422,67.52647715957892L177.3545133113861,67.44417229929937L177.5791751994027,67.43872267691937L177.67545886569553,67.42043624659165L177.80383708741928,67.41552715187585L177.93221530914306,67.3973329205096L177.96430986457403,67.39736799085468L178.54201186233095,67.37925462936352L178.60620097319284,67.36120091911324L178.73457919491662,67.35900653919703L178.9271465275023,67.34103744789064L179.1839029709498,67.27391228700282L179.50484852525923,67.14594390850738L179.95417230129243,67.1284907014083L180.05045596758524,67.11109446094932L180.14673963387807,67.0937549173435L181.1737654076682,66.95963137891525L181.33423818482294,66.94265262036645L181.36633274025388,66.92572895411746L181.49471096197763,66.90886012088846L181.6230891837014,66.89204586302223L181.65518373913235,66.87528592447161L181.7514674054252,66.87414992888016L181.91194018257988,66.85746501450903L182.26498029232025,66.87842926215023L182.5217367357678,66.87092798426066L182.65011495749155,66.92867899607612L182.71430406835344,66.91195317688381L182.9068714009391,66.89528084493801L183.1636278443866,66.72416242074048L183.19572239981758,66.64618772780037L183.38828973240322,66.65707339462031L183.48457339869606,66.69308697219918L183.93389717472925,66.67696228676567L184.15855906274584,66.53796161617647L184.86463928222656,66.54481971189927L185.08930117024315,66.40639466327099L185.28186850282881,66.39093540481916L185.41024672455256,66.38699957601249L185.44234127998354,66.26640444171697L185.8595705005858,66.25128491823554L186.30889427661896,66.17521107272579L186.4051779429118,66.16031233711868L186.50146160920463,66.14546023891451L186.5656507200665,66.17364505753372L186.62983983092838,66.19676104271771L187.14335271782343,66.2715026896335L187.20754182868532,66.27163837496047L187.2717309395472,66.25663612992251L187.30382549497818,66.24168045389096L187.3359200504091,66.10592564842439L187.56058193842568,66.09130988401849L187.59267649385666,65.53407294430473L188.1703784916136,65.52065598608786L188.81226960023244,65.5072803884325L189.2294988208347,65.32489222884303L189.64672804143694,65.3119430946085L189.71091715229883,65.29903371432961L190.32071370548672,65.29611086368254L190.44909192721047,65.28326026811041L190.6737538152271,65.27861137859804L190.80213203695087,65.28075681223723L190.96260481410556,65.29175749506413L191.95753603246476,65.27896836503292L192.27848158677418,65.28250599075679L192.31057614220515,65.2697616026524L193.3376019159953,65.27072529749064L194.1078712463379,65.2149858104519L194.4930059115092,65.2080506561317L194.55719502237108,65.20306212041791L194.7176677995258,65.1905416300792L195.0386133538352,65.17805885473437L195.13489702012805,64.88731986115731L195.16699157555897,64.8754690588149L195.42374801900652,64.81392532122955L195.4879371298684,64.88720232241756L195.6484099070231,64.86067786737797L196.83590845796795,64.86362210528266L196.96428667969172,64.91059789998688L197.0926649014155,64.91736733833486L197.31732678943212,64.91520878159267L197.44570501115587,64.95146312894326L197.4777995665868,64.93959053481053L197.5419886774487,64.9451072326781L197.57408323287964,64.97395721526068L197.95921789805095,64.90375814723221L198.24806889692942,64.74162834654048L198.6011090066698,64.61382182105132L198.95414911641015,64.64760274492885L199.018338227272,64.63640979663074L199.17881100442676,64.4468542880841L199.24300011528865,64.43607776908897L199.40347289244335,64.42533282604471L199.596040225029,64.41461932572902L199.8207021130456,64.40393713566681L200.23793133364782,64.4041150990415L200.71934966511196,64.41666904254518L200.7514442205429,64.35917768157839L200.87982244226666,64.175877345176L201.00820066399044,64.16571200881813L201.10448433028327,64.1555761526722L201.77846999433308,64.1454696537328L202.00313188234966,64.13539238967674L202.06732099321155,64.10161522275551L202.13151010407344,64.0842553058088L202.80549576812322,64.07432530597644L202.83759032355414,64.06442388495566L202.93387398984697,63.65484287862193L202.99806310070883,63.645771661682396L203.1264413224326,63.672832415410596L203.15853587786359,63.65617018417607L203.31900865501828,63.67562279470573L203.38319776588017,63.66654526635905L203.44738687674206,63.48714521951488L204.21765620708464,63.47844715292118L204.4102235396703,63.46977383810834L204.4744126505322,63.46112517389602L204.85954731570348,63.46308033882524L205.21258742544387,63.39793872941815L205.50143842432234,63.389451448376875L205.5335329797533,63.38098816971415L205.66191120147704,63.40135220302631L205.9828567557865,63.400596832273514L206.20751864380307,63.392135393210616L206.33589686552685,63.4119448519579L206.56055875354343,63.4034771324508L206.88150430785285,63.395033183685065L206.94569341871474,63.38661290991491L207.10616619586943,63.378216215907116L207.17035530673132,63.36984300693744L207.26663897302413,63.27762855205158L207.33082808388602,63.26946092251986L207.6838681936264,63.26131605408444L208.5183266348309,63.26955939401514L208.7750830782784,63.261428851854554L208.87136674457128,63.25332088524292L208.93555585543317,63.24523540432584L208.96765041086408,63.23717231972387L209.1923122988807,63.22913154252985L209.32069052060444,63.22111298430561L209.38487963146633,63.23287207860012L209.48116329775917,63.22486059608256L210.0909598509471,63.21687117215006L210.31562173896367,63.23783733987304L210.47609451611837,63.17461627796403L210.79704007042778,63.16674180404393L211.18217473559912,63.083312415925086L211.98453862137265,63.141522060796824L213.23622628317938,63.150706455094145L213.5571718374888,63.17163185865584L214.00649561352202,63.163797035067766L214.16696839067671,63.10109664790361L214.64838672214083,63.09340651782359L215.25818327532875,62.976152254818494L215.48284516334533,63.002485320840876L215.57912882963817,62.994997908678855L215.80379071765475,62.993897719789L216.02845260567136,62.99383800081256L216.1247362719642,62.99732476925315L216.34939815998078,62.98987238723533L216.67034371429017,63.023262510063205L216.73453282515206,63.01577487763574L216.83081649144492,63.008307381768674L216.86291104687584,63.106283898074665L216.8950056023068,63.15210345613184L216.92710015773773,63.144404019556674L217.1517620457543,63.2063611320949L217.37642393377092,63.28599366728947L217.6652749326494,63.278067872269354L217.92203137609695,63.28948810591772L218.5639224847158,63.2815691162169L219.30209725962746,63.27367120363391L219.84770470195346,63.26579428806975L220.3933121442795,62.93468059148428L220.4895958105723,62.81977216659883L220.81054136488174,62.842783067099354L220.84263592031266,62.835717576456176L220.90682503117455,62.78273140274479L221.3240542517768,62.78431789935929L222.15851269298128,62.80251955854293L223.02506568961672,62.795550364703686L223.18553846677142,62.850900587066214L223.28182213306428,62.843854996564204L223.53857857651178,62.83682790532997L223.73114590909745,62.88022204324008L224.0841860188378,62.87314054021461L224.3730370177163,62.8660775683711L224.5976989057329,62.85903305858604L224.79026623831857,62.818983655154454L224.91864446004232,62.78616454377473L224.9828335709042,62.792564767019755L225.01492812633515,62.78567525615369L225.9777647892634,62.800156209314906L226.10614301098718,62.79326406045648L226.1382375664181,62.62749420311657L226.39499400986566,62.62092296044005L227.13316878477733,62.56148771013221L227.19735789563921,62.55504518882634L227.22945245107013,62.54861930397359L227.5824925608105,62.55539887958039L227.67877622710336,62.54898250376589L228.12810000313652,62.54258264253058L228.2564782248603,62.536199235388956L228.32066733572216,62.52983222214969L228.7058020008935,62.53333438676701L228.962558444341,62.52698243479437L229.12303122149575,62.468180229128215L229.1872203323576,62.46195403100181L229.2514094432195,62.53251374881321L230.085867884424,62.53207173773036L231.01660999192134,62.52574668192051L231.27336643536884,62.532503534168676L231.4659337679545,62.68212493159318L231.78687932226393,62.67554893463134L231.9152575439877,62.668989626563125L232.04363576571146,62.662446947208565L232.17201398743524,62.65592083667598L232.26829765372807,62.649411235360056L232.33248676458996,62.64291808394015L232.49295954174465,62.68454079146442L232.7497159851922,62.6779956866445L233.32741798294916,62.69107177418371L233.64836353725858,62.6845251236702L233.71255264812046,62.22005393796166L233.93721453613705,62.21434387831982L234.1939709795846,62.0018180809774L234.22606553501552,61.789824806733456L234.32234920130836,61.73325130955105L234.77167297734155,61.72841024337277L235.22099675337475,61.74554255435315L235.34937497509853,61.74068725822647L235.38146953052944,61.735844064261116L235.41356408596036,61.73101292968019L235.83079330656264,61.73904347591302L236.02336063914828,61.73421394823906L236.183833416303,61.31881729291655L236.21592797173395,61.314725875152085L236.2801170825958,61.31064459200187L236.37640074888867,61.30657340789175L236.44058985975056,61.3211896897888L236.53687352604337,61.265972808749375L236.88991363578373,61.261988013715936L237.7243720769882,61.25801303832601L238.30207407474518,61.283129850591116L238.78349240620932,61.28674619691435L238.87977607250212,61.28273713833745L238.9118706279331,61.22782826455655L239.1044379605187,61.22392669289123L239.42538351482816,61.22003467682869L239.87470729086132,61.22885193673668L240.32403106689452,61.24378988986236L240.4524092886183,61.2652349655789L240.5486929549111,61.302392066771056L240.58078751034208,61.247726509658094L241.4473405069775,61.25646453358388L241.63990783956316,61.252536269964516L241.736191505856,61.19807356319948L242.02504250473447,61.194250940049386L242.21760983732014,61.157050415526754L242.37808261447483,60.95155939462768L242.41017716990575,61.18383757692034L242.44227172533672,61.21752126905356L242.5064608361986,60.8236307639718L242.79531183507706,60.856498244292546L242.8915955013699,60.85011058005901L242.95578461223178,60.88848642822126L243.46929749912687,60.89608058231307L243.53348660998876,60.8927986020696L243.62977027628156,60.889524499779796L243.79024305343628,60.908118905147354L243.91862127516004,60.90482337124375L244.43213416205512,60.90153572436632L244.46422871748607,60.84827888413599L244.59260693920982,60.79514924942029L244.8814579380883,60.80238498067099L245.52334904670715,60.79927973292998L245.90848371187846,60.796181880319864L246.19733471075696,60.79309139799981L246.29361837704977,60.79000826123969L247.06388770739235,60.812670693252336L247.41692781713272,60.80955878552335L247.64158970514933,60.81887114780949L247.73787337144216,60.766119460403786L247.80206248230405,60.76309224811005L247.86625159316594,60.760072189057134L247.9304407040278,60.75705925942672L248.12300803661347,60.812115147973934L248.25138625833725,60.8090189946276L248.7648991452323,60.75649872359368L249.11793925497267,60.7534999419151L249.18212836583456,60.78210155784692L249.5993575864368,60.83618969616211L249.69564125272964,60.340081967650185L249.88820858531528,60.33778706424767L250.43381602764129,60.340937664471625L250.56219424936506,60.33864440701218L250.7547615819507,60.287190293163796L251.04361258082918,60.2358562540849L251.07570713626015,60.317017318975545L251.36455813513862,60.326546286360994L251.46084180143143,60.336543457484865L251.5571254677243,60.3430381696323L251.71759824487899,60.12234346269088L251.78178735574087,60.120425201373486L251.9743546883265,60.06960545556701L252.263205687205,60.06777714358321L252.48786757522157,60.01711144872022L252.61624579694535,60.01537244088356L252.77671857410004,60.01363744924912L253.32232601642608,60.01690289411244L254.02840623590683,60.021232520046354L254.09259534676872,60.045633537138656L254.18887901306152,60.087979067462044L254.5419191228019,60.086129992747864L254.76658101081847,60.09643198751213L254.99124289883508,60.094571387655755L255.47266123029922,60.09271505284855L255.95407956176334,60.09086296936799L255.98617411719428,60.0890151235503L256.1787414497799,60.08717150178968L256.49968700408937,60.08533209053839L256.6601597812441,60.08349687630629L256.7243488921059,60.08166584566045L256.82063255839876,60.079838985225095L257.17367266813915,60.07801628168094L257.3662400007248,60.076197721765304L257.6871855550342,60.10034675385054L257.71928011046515,60.12725976417817L257.78346922132704,60.12536423961524L258.20069844192926,60.123473008493185L258.4253603299459,60.121586057184636L258.48954944080776,60.02357922310571L258.5216439962387,59.97382556642356L259.3561024374432,59.984186223554076L259.58076432545977,59.98253064662323L260.3189391003715,59.98087879925967L260.54360098838805,59.97923066969906L260.6398846546809,59.977586246226025L260.83245198726655,59.97594551717438L262.05204509364233,59.98327505780637L262.46927431424456,59.9935751798671L262.50136886967556,59.99191160681669L262.56555798053745,59.990251757799726L262.75812531312306,60.008678716888525L262.8544089794159,60.02441860100687L263.36792186631095,60.02940334724646L263.43211097717284,59.980071883370506L263.6888674206204,59.835678597981776L264.00981297492984,59.83427687953833L264.7800823052724,59.59524053096912L264.9084605269962,59.59422788057245L265.16521697044374,59.60033790753887L265.29359519216746,59.476233816512114L265.58244619104596,59.47541438985957L265.6145407464769,59.474596778089506L266.19224274423385,59.525041780324806L266.48109374311235,59.40053152331331L266.673661075698,59.39983552262585L267.3476467397478,59.39914105804055L267.5081195169025,59.36899416280933L267.63649773862625,59.38036519229794L267.70068684948814,59.415090331504054L268.11791607009036,59.42323818832671L268.18210518095225,59.422508400860885L268.27838884724514,59.421780215643984L268.4388616243998,59.4270550615499L268.5672398461236,59.42632049056562L268.7919017341402,59.42558752813573L268.88818540043303,59.42485616934807L269.14494184388053,59.42412640931031L269.4016982873281,59.423398243149975L270.1719676176707,59.53094638114093L270.3966295056873,59.538017977883584L270.74966961542765,59.53711013378568L270.7817641708586,59.547909199033775L270.8780478371514,59.54698672438684L270.97433150344426,59.546066254158085L271.5520335012012,59.56851645341375L271.680411722925,59.58241672567003L271.8087899446487,59.58144177109925L271.8729790555106,59.58046892775166L271.9371681663725,59.57949818926217" fill="none"></path></g></g></g></g><g opacity="0.2"><g><g><g><path style="fill: none;" stroke="rgb(255, 112, 67)" stroke-width="2px" d="M35.56076741748386,206.38333288828534L36.01009119351705,144.86636010163625L36.13846941524082,206.38333288828534L36.29894219239553,180.55593288423023L36.74826596842871,153.9767061385115L36.844549634721545,169.52916630109152L37.16549518903097,199.01249946101257L37.32596796618567,206.38333288828534L37.39015707704756,176.88525945969621L37.6469135204951,206.38333288828534L39.95772151152293,204.42269112414036L39.98981606695387,117.93332956433295L40.40704528755612,189.79895726504427L40.82427450815837,187.95624959468842L40.920558174451195,136.36041725128888L41.17731461789872,160.31562465429306L41.27359828419156,134.67986077382963L41.43407106134627,178.7279660317123L41.594543838500975,206.38333288828534L42.01177305910322,156.6302071169019L42.26852950255076,125.30416463911536L42.332718613412645,110.5624944895506L42.36481316884359,137.34810586507717L42.46109683513641,143.45115811537505L43.19927161004808,25.98956899005569L43.231366165479024,77.39374983310698L43.61650083065033,167.6864553357164L43.809068163235985,127.1321358849923L43.84116271866693,110.07602663244404L43.87325727409787,143.73124793271225L44.258391939269174,195.3270824727913L44.51514838271671,202.69791617464895L44.643526604440474,106.87708134551843L44.707715715302356,154.7875005448858L45.02866126961178,182.41338137242397L45.09285038047367,195.3270824727913L45.445890490214026,129.00432189600468L45.670552378230624,121.61875149508319L46.11987615426382,196.58012447943784L46.15197070969475,179.24392211453318L46.21615982055664,106.65595479953288L46.44082170857323,184.2708320572972L47.05061826176114,177.37173390684126L47.211091038915846,128.98957778314752L47.33946926063962,122.09048402605055L47.371563816070555,175.69118182274104L47.53203659322527,173.19984192230504L47.56413114865621,134.5177062859138L47.75669848124186,155.22975363685686L48.49487325615353,206.38333288828534L48.559062367015414,139.39719487022163L48.59115692244635,176.88525945969621L48.6232514778773,182.42812328860163L48.71953514417012,116.09062299231687L48.78372425503201,117.93332956433295L49.2330480310652,119.77603613634903L49.26514258649614,154.7875005448858L49.32933169735803,-5.528124988079071L49.39352080821991,130.83229314188162L49.45770991908179,193.45489097008007L49.58608814080556,154.7875005448858L49.65027725166745,93.9781265546878L49.84284458425309,105.03437477350235L49.971222805976865,-3.685427202781045L50.16379013856252,160.31562465429306L50.22797924942441,88.44999805192151L50.35635747114817,-51.59583322207134L50.869870358043244,108.70505259139537L51.062437690628904,199.01249946101257L51.19081591235267,88.44999805192151L51.25500502321455,97.66353969871997L51.832707020971505,-55.28124636610351L52.121558019849985,70.02291475832462L52.2820307970047,106.87708134551843L52.31412535243564,5.5281144440174135L52.570881795883174,140.04583039532105L52.763449128468835,151.1020830074946L52.79554368389978,29.4833262403806L53.24486745993296,92.13541119595368L53.533718458811435,147.41666547010342L53.790474902258985,88.44999805192151L53.822569457689916,-14.741666634877548L54.336082344584995,103.19166820148627L54.40027145544688,73.70832790235679L55.26682445208231,108.70505259139537L55.3310135629442,151.1020830074946L55.39520267380608,79.23645640512306L55.491486340098916,49.75312489271162L55.587770006391736,-14.741666634877548L56.00499922699399,73.70832790235679L56.64689033561283,66.33750161429245L56.99993044535319,145.57395889808734L57.03202500078413,71.8656213303407L57.224592333369785,123.46145806709927L57.41715966595544,84.76458490788934L57.93067255285051,86.60729147990543L57.962767108281454,79.23645640512306L58.02695621914334,162.15833122630914L58.412090884314644,71.8656213303407L58.82932010491689,125.30416463911536L59.086076548364424,49.75312489271162L59.18236021465726,117.93332956433295L59.63168399069045,64.49478625555832L59.79215676784515,-55.28124636610351L59.92053498956892,71.8656213303407L60.08100776672363,57.10922464135485L60.562426098187764,125.30416463911536L60.91546620792813,77.39374983310698L61.0438444296519,77.39374983310698L61.974586537149214,64.49478625555832L62.038775648011104,-58.96667708357175L62.35972120232052,128.98957778314752L62.58438309033712,68.18020818630853L63.03370686637031,123.46145806709927L64.18911086188422,136.36041725128888L64.28539452817705,71.8656213303407L64.34958363903893,79.22172107898392L64.7026237487793,120.92589241813022L64.92728563679589,90.2927046239376L65.05566385851965,93.9781265546878L65.11985296938154,97.66353969871997L65.40870396826003,132.6749997138977L66.01850052144793,95.82083312670389L66.46782429748112,36.85417010188101L66.49991885291206,62.65207968354225L66.56410796377394,121.63348682122233L66.69248618549771,88.44999805192151L66.98133718437619,72.30786563559374L67.3664718495475,62.65207968354225L67.49485007127126,-29.48333678444226L67.55903918213315,81.07916297713915L67.65532284842597,-46.55420772328374L67.71951195928786,-68.1802187303702L67.78370107014973,82.92186954915523L68.10464662445916,93.9781265546878L68.23302484618293,-169.52915927171705L68.45768673419953,73.70832790235679L68.5218758450614,58.96666653951008L68.68234862221613,66.33750161429245L68.90701051023271,96.52842752979598L69.06748328738742,130.83229314188162L69.09957784281836,-62.65209022760392L69.48471250798967,40.53958324591318L69.80565806229909,58.96666653951008L69.86984717316098,29.4833262403806L69.90194172859192,73.70832790235679L70.12660361660852,-14.741666634877548L70.415454615487,117.9185942381938L70.44754917091794,75.5510432610909L70.83268383608925,66.33750161429245L71.08944027953677,31.326041599114724L71.21781850126055,-23.55718752827646L71.44248038927714,66.42595750471747L72.05227694246504,79.23645640512306L72.11646605332693,76.09647878290812L72.27693883048164,152.94478957951068L72.30903338591258,58.96666653951008L72.37322249677446,110.20869728800454L72.46950616306728,86.60729147990543L72.59788438479106,72.75011872756481L72.79045171737671,76.3323406550328L72.91882993910049,81.07916297713915L73.07930271625519,89.05440123844943L73.27187004884084,73.70832790235679L73.52862649228837,59.76271683302719L73.78538293573591,0.000003514687199583181L74.04213937918345,90.2927046239376L74.33099037806194,90.4253752794981L74.55565226607852,-182.44285817540492L74.65193593237134,132.6749997138977L74.68403048780229,75.211981385684L74.97288148668076,73.70832790235679L75.2938270409902,135.99187154352666L75.77524537245432,146.28156208789744L75.9036235941781,99.50624627073606L76.25666370391846,73.70832790235679L76.28875825934941,68.5782377264261L76.41713648107316,7.370829802751536L77.60463503201802,119.20111238881748L78.27862069606782,79.23645640512306L78.31071525149876,58.96666653951008L78.88841724925572,84.39604359348613L78.92051180468664,67.82640219804446L79.01679547097947,52.09705222140946L79.43402469158173,110.5624944895506L79.4982138024436,85.56062641468843L79.85125391218398,29.4833262403806L79.9475375784768,109.75170008317633L80.07591580020056,81.07916297713915L80.3326722436481,50.03321031668981L80.5573341316647,113.45186612678367L80.58942868709565,58.96666653951008L80.68571235338847,73.70832790235679L80.7819960196813,-134.51770804325736L81.16713068485261,58.96666653951008L81.35969801743826,85.63433819225628L81.48807623916201,65.3645483266433L81.80902179347144,99.49150215787887L81.90530545976426,29.4833262403806L82.35462923579745,29.4833262403806L82.45091290209028,51.59582267800968L82.61138567924499,77.09891150955359L82.70766934553782,58.96666653951008L82.9965203444163,58.96666653951008L83.34956045415667,58.96666653951008L83.51003323131137,81.07916297713915L83.57422234217326,66.33750161429245L84.34449167251586,117.28470282595157L84.6012481159634,97.66353969871997L84.66543722682529,44.224996389945346L84.98638278113471,95.73238602299688L85.2110446691513,36.85417010188101L85.46780111259883,58.96666653951008L85.72455755604638,64.49478625555832L85.94921944406298,63.68399184918403L86.01340855492485,66.33750161429245L86.20597588751052,127.6186037420988L86.49482688638899,58.96666653951008L86.75158332983654,88.90699525674978L86.81577244069842,-30.67739904464088L86.91205610699123,79.22172107898392L87.00833977328406,58.96666653951008L87.04043432871501,79.36912706068357L87.2650962167316,95.39332414759L87.4255689938863,58.96666653951008L87.65023088190291,58.96666653951008L87.93908188078139,58.96666653951008L88.13164921336704,81.07916297713915L88.42050021224551,-29.48333678444226L88.77354032198589,58.96666653951008L89.09448587629531,121.8841015929222L89.15867498715718,66.33750161429245L89.38333687517378,109.11781745765211L89.54380965232849,58.96666653951008L89.64009331862133,-58.96667708357175L89.89684976206885,58.96666653951008L90.50664631525676,58.96666653951008L91.40529386732312,58.96666653951008L91.5336720890469,60.63247011739413L91.82252308792538,112.59685695527395L91.98299586508008,71.8656213303407L92.04718497594197,71.74769478763737L92.72117063999177,29.4833262403806L93.07421074973213,95.73237723627886L93.17049441602495,58.96666653951008L93.3630617486106,58.96666653951008L93.39515630404154,58.96666653951008L93.87657463550568,0.000003514687199583181L93.90866919093662,58.96666653951008L94.26170930067697,78.33721489504177L94.39008752240075,58.96666653951008L94.55056029955546,58.96666653951008L94.61474941041735,43.767999185117084L94.90360040929582,61.47275274948277L95.0319786310196,63.31545932149886L95.06407318645054,58.96666653951008L95.12826229731242,58.96666653951008L95.16035685274336,58.96666653951008L95.22454596360524,125.30416463911536L95.57758607334561,63.49236231563089L95.6417751842075,58.96666653951008L95.89853162765503,-58.96667708357175L95.93062618308598,106.21370170756182L96.0269098493788,58.96666653951008L97.15021928946177,29.4833262403806L98.56237972842322,61.84128527716795L98.8512307273017,110.5624944895506L99.17217628161112,67.59054032591978L99.52521639135149,66.33750161429245L99.62150005764433,63.30072399535971L99.81406739022997,29.4833262403806L99.97454016738467,58.96666653951008L100.00663472281562,77.49694104967116L100.1350129445394,125.30416463911536L100.16710749997034,58.96666653951008L100.39176938798693,58.96666653951008L100.77690405315823,58.96666653951008L101.41879516177707,138.20312382330496L101.73974071608649,58.96666653951008L102.31744271384345,89.27552778443496L102.54210460186005,58.96666653951008L103.02352293332419,-38.56421656239825L103.21609026590983,42.78031935804683L103.53703582021926,70.08187363631725L103.89007592995962,-26.122241402959833L103.98635959625244,58.96666653951008L104.14683237340715,103.19166820148627L104.5640615940094,-110.5625138203303L105.334330924352,112.5378805038452L106.10460025469463,58.96666653951008L106.457640364435,58.96666653951008L106.55392403072781,0.000003514687199583181L106.71439680788252,58.96666653951008L106.97115325133007,32.84442162186306L107.29209880563948,137.7166471794804L107.61304435994889,32.85916573472023L107.8377062479655,58.96666653951008L108.80054291089375,121.39761616237962L108.92892113261753,-56.490087886031446L108.96101568804848,0.000003514687199583181L109.08939390977223,64.83384813096522L110.14851423899333,70.02291475832462L110.30898701614804,29.4833262403806L110.46945979330275,58.96666653951008L110.886689013905,86.16504717465239L111.14344545735253,47.36498279887832L111.23972912364536,58.96666653951008L111.8816202322642,83.11352544286248L112.13837667571174,72.92703050841487L112.29884945286645,76.3028700027545L112.36303856372834,58.96666653951008L112.45932223002116,103.19166820148627L112.52351134088303,44.224996389945346L112.55560589631398,58.96666653951008L112.90864600605435,64.61271279826165L112.97283511691624,58.96666653951008L113.0370242277781,60.79463778538702L113.26168611579472,-141.8885343313217L113.32587522665659,63.123812214509634L113.58263167010412,-22.112510496377922L114.44918466673957,58.96666653951008L114.4812792221705,58.96666653951008L114.83431933191088,73.70832790235679L114.86641388734182,58.96666653951008L115.18735944165124,66.33750161429245L115.315737663375,62.77000622624556L115.5403995513916,98.65122831250827L115.7650614394082,-22.112510496377922L116.18229066001044,58.96666653951008L116.43904710345798,58.96666653951008L116.47114165888891,-29.48333678444226L116.69580354690552,58.96666653951008L116.79208721319834,58.96666653951008L116.82418176862929,63.61029764505225L116.85627632406023,58.96666653951008L116.95255999035307,58.96666653951008L117.56235654354094,58.96666653951008L117.8191129869885,58.96666653951008L117.85120754241943,73.70832790235679L117.94749120871226,58.96666653951008L118.17215309672885,111.12268291094301L118.26843676302168,58.96666653951008L118.33262587388357,64.49478625555832L118.42890954017639,29.4833262403806L118.55728776190016,66.33750161429245L118.84613876077864,58.96666653951008L119.03870609336428,0.000003514687199583181L119.199178870519,87.75713897496858L119.32755709224277,58.96666653951008L119.71269175741408,75.13827839483417L119.74478631284502,58.96666653951008L119.87316453456879,58.96666653951008L120.0336373117235,58.96666653951008L120.06573186715444,33.905839586655276L120.09782642258538,58.96666653951008L120.1941100888782,58.96666653951008L120.48296108775668,58.96666653951008L120.51505564318762,58.96666653951008L120.54715019861857,58.96666653951008L120.70762297577328,106.12526339057285L120.868095752928,58.96666653951008L120.96437941922082,58.96666653951008L121.12485219637553,58.96666653951008L121.28532497353024,58.96666653951008L121.50998686154684,29.4833262403806L121.89512152671814,88.44999805192151L122.37653985818228,66.33750161429245L122.76167452335358,66.33750161429245L123.082620077663,58.96666653951008L123.21099829938677,0.000003514687199583181L123.40356563197243,58.96666653951008L123.62822751998901,121.3533926105261L123.94917307429843,80.54847156817911L123.98126762972937,83.5705138609727L124.59106418291728,64.49478625555832L124.62315873834822,64.92230402139026L124.9120097372267,191.64166603373985L124.97619884808857,65.92473674803573L125.77856273386215,58.96666653951008L125.87484640015495,58.96666653951008L125.97113006644778,31.429232815678894L126.29207562075722,58.96666653951008L126.86977761851418,86.84315335203011L126.96606128480698,29.4833262403806L127.1907231728236,58.96666653951008L127.28700683911642,0.000003514687199583181L127.3511959499783,58.96666653951008L127.54376328256394,58.96666653951008L127.9609925031662,58.96666653951008L128.28193805747563,66.33750161429245L128.37822172376843,58.96666653951008L128.47450539006127,58.96666653951008L128.7312618335088,69.28583212951818L129.0201128323873,66.33750161429245L129.5015311638514,58.96666653951008L129.91876038445366,58.96666653951008L131.07416437996758,29.4833262403806L131.10625893539853,62.814238564817096L131.49139360056984,58.96666653951008L131.71605548858642,58.96666653951008L131.74815004401736,58.96666653951008L131.7802445994483,-132.67499268452326L131.97281193203398,66.33750161429245L132.10119015375773,58.96666653951008L132.2295683754815,0.000003514687199583181L132.26166293091245,32.947630411863294L132.2937574863434,58.96666653951008L132.4542302634981,66.33750161429245L132.51841937435998,58.96666653951008L133.06402681668598,58.96666653951008L133.96267436875237,113.31919547122317L134.12314714590707,58.96666653951008L134.41199814478557,73.70832790235679L134.5082818110784,62.40147369856039L134.57247092194027,58.96666653951008L134.79713280995688,29.4833262403806L134.95760558711157,66.33750161429245L135.34274025228288,61.8265499510288L135.37483480771382,66.33750161429245L135.47111847400666,71.42337702508766L135.53530758486852,58.96666653951008L135.75996947288513,58.96666653951008L136.14510413805644,140.5912747038563L136.20929324891833,58.96666653951008L136.91537346839905,58.96666653951008L137.01165713469186,58.96666653951008L137.97449379762014,29.4833262403806L138.23125024106767,68.18020818630853L139.3224651257197,0.000003514687199583181L139.4829379028744,94.1255413231055L139.8359780126148,61.31059386820792L140.12482901149326,83.5705138609727L140.34949089950985,123.1961079692602L140.41368001037173,58.96666653951008L140.50996367666457,63.78718306574822L140.57415278752646,29.4833262403806L140.73462556468115,-88.44999980926514L140.7667201201121,92.90198205047449L141.02347656355963,58.96666653951008L141.37651667330002,66.33750161429245L141.50489489502377,58.96666653951008L141.82584044933319,29.4833262403806L141.95421867105696,81.07916297713915L142.0825968927807,58.96666653951008L142.33935333622827,-117.93334010839459L142.49982611338297,81.07916297713915L142.9812444448471,66.33750161429245L143.2059063328637,7.370829802751536L143.43056822088028,62.57836790597438L143.8798919969135,81.07916297713915L143.91198655234444,58.96666653951008L143.9440811077754,71.8656213303407L143.9761756632063,29.4833262403806L144.16874299579197,58.96666653951008L144.23293210665386,29.4833262403806L144.45759399467042,29.4833262403806L144.55387766096328,36.85417010188101L144.90691777070364,29.4833262403806L145.29205243587495,62.0624118231535L145.58090343475342,73.70832790235679L145.8697544336319,63.389171099066715L146.06232176621756,-29.48333678444226L146.3190782096651,58.96666653951008L146.57583465311262,58.96666653951008L146.67211831940546,58.96666653951008L146.86468565199112,34.86403118801118L146.89678020742204,58.96666653951008L147.2498203171624,0.000003514687199583181L147.28191487259335,58.96666653951008L147.66704953776465,67.5757962130626L148.0842787583669,58.96666653951008L148.11637331379785,29.4833262403806L148.14846786922877,-58.96667708357175L148.18056242465974,58.96666653951008L148.6298862006929,58.96666653951008L149.40015553103555,58.96666653951008L149.49643919732836,85.81124118638832L149.56062830819025,58.96666653951008L149.62481741905214,77.61487637909252L149.72110108534494,58.96666653951008L149.84947930706872,58.96666653951008L149.94576297336152,63.831415404319756L149.9778575287925,29.4833262403806L150.55555952654944,-147.41668040752404L150.87650508085886,79.23645640512306L151.26163974603017,72.5732245201508L151.4221125231849,5.5281144440174135L151.4542070786158,58.96666653951008L151.903530854649,58.96666653951008L152.32076007525126,58.96666653951008L152.35285463068223,65.43826010421115L152.41704374154406,58.96666653951008L152.44913829697504,29.4833262403806L152.54542196326784,-184.18238231757482L152.57751651869881,58.96666653951008L152.60961107412973,29.4833262403806L152.83427296214631,58.96666653951008L152.8984620730082,73.70832790235679L153.44406951533423,72.94176583455402L153.50825862619612,58.96666653951008L153.54035318162707,62.84372679053146L153.66873140335085,63.30072399535971L153.76501506964365,58.96666653951008L154.50318984455532,66.08688684259255L154.82413539886477,58.96666653951008L155.33764828575983,58.96666653951008L155.6264992846383,58.96666653951008L155.6906883955002,58.96666653951008L155.75487750636208,-88.44999980926514L156.0116339498096,63.68399184918403L156.30048494868808,58.96666653951008L156.39676861498089,58.96666653951008L157.35960527790917,0.000003514687199583181L157.5521726104948,58.96666653951008L157.64845627678767,58.96666653951008L157.77683449851145,58.96666653951008L157.96940183109706,58.96666653951008L158.2903473854065,64.49478625555832L158.3545364962684,58.96666653951008L158.4508201625612,58.96666653951008L158.9964276048872,58.96666653951008L159.12480582661098,58.96666653951008L159.41365682548945,58.96666653951008L159.70250782436796,29.4833262403806L159.8950751569536,58.96666653951008L160.05554793410832,66.33750161429245L160.248115266694,58.96666653951008L160.76162815358904,29.4833262403806L160.89000637531282,61.870782289600335L160.95419548617468,65.43826010421115L161.24304648505316,-81.0791735212008L161.40351926220788,58.96666653951008L161.59608659479352,58.96666653951008L161.7886539273792,0.000003514687199583181L162.01331581539577,58.96666653951008L163.2008143663406,29.4833262403806L163.3291925880644,63.41865053806303L163.45757080978817,29.4833262403806L164.0031782521142,58.96666653951008L164.19574558469984,-58.96667708357175L164.3883129172855,58.96666653951008L164.4845965835783,58.96666653951008L165.19067680305906,58.96666653951008L165.41533869107565,58.96666653951008L165.51162235736845,58.96666653951008L165.86466246710881,58.96666653951008L166.18560802141826,-58.96667708357175L166.21770257684918,73.70832790235679L166.31398624314204,58.96666653951008L166.66702635288237,58.96666653951008L167.14844468434652,29.4833262403806L167.5977684603797,58.96666653951008L167.79033579296535,58.96666653951008L167.85452490382724,36.85417010188101L168.07918679184385,58.96666653951008L168.40013234615324,-29.48333678444226L168.4964160124461,69.8017969990571L168.5926996787389,58.96666653951008L168.62479423416983,58.96666653951008L168.7531724558936,58.96666653951008L169.07411801020305,58.96666653951008L169.49134723080527,58.96666653951008L169.52344178623625,62.85846211667061L170.06904922856225,58.96666653951008L170.4220893383026,64.34737148714065L170.71094033718109,58.96666653951008L170.87141311433578,70.14085008774597L171.03188589149053,58.96666653951008L171.22445322407614,73.70832790235679L171.51330422295464,58.96666653951008L172.05891166528068,29.4833262403806L172.57242455217573,58.96666653951008L172.66870821846854,66.33750161429245L173.18222110536362,58.96666653951008L173.43897754881118,-117.93334010839459L173.56735577053496,58.96666653951008L173.66363943682776,99.19667262104352L173.75992310312057,58.96666653951008L173.79201765855154,66.33750161429245L174.04877410199907,66.33750161429245L174.11296321286093,58.96666653951008L174.46600332260132,66.33750161429245L174.72275976604885,58.96666653951008L175.07579987578924,29.4833262403806L175.20417809751297,65.86576908332505L175.46093454096052,0.000003514687199583181L176.1991093158722,58.96666653951008L176.39167664845786,66.33750161429245L176.52005487018164,58.96666653951008L177.00147320164575,0.000003514687199583181L177.1940405342314,58.96666653951008L177.29032420052422,-38.97698142865498L177.3545133113861,29.4833262403806L177.5791751994027,64.92230402139026L177.67545886569553,58.96666653951008L177.80383708741928,65.14343056737579L177.93221530914306,58.96666653951008L177.96430986457403,67.41363733178774L178.54201186233095,58.96666653951008L178.60620097319284,58.96666653951008L178.73457919491662,66.33750161429245L178.9271465275023,58.96666653951008L179.1839029709498,35.95491980508169L179.50484852525923,7.370829802751536L179.95417230129243,58.96666653951008L180.05045596758524,58.96666653951008L180.14673963387807,58.96666653951008L181.1737654076682,4.024460960690198L181.33423818482294,58.96666653951008L181.36633274025388,58.96666653951008L181.49471096197763,58.96666653951008L181.6230891837014,58.96666653951008L181.65518373913235,58.96666653951008L181.7514674054252,66.33750161429245L181.91194018257988,58.96666653951008L182.26498029232025,76.80408197271822L182.5217367357678,63.31545932149886L182.65011495749155,94.33192375623383L182.71430406835344,58.96666653951008L182.9068714009391,58.96666653951008L183.1636278443866,-14.741666634877548L183.19572239981758,29.4833262403806L183.38828973240322,71.85088600420156L183.48457339869606,83.89482283680438L183.93389717472925,58.96666653951008L184.15855906274584,0.000003514687199583181L184.86463928222656,69.83127643805344L185.08930117024315,0.000003514687199583181L185.28186850282881,58.96666653951008L185.41024672455256,64.49478625555832L185.44234127998354,8.225847760979326L185.8595705005858,58.96666653951008L186.30889427661896,29.4833262403806L186.4051779429118,58.96666653951008L186.50146160920463,58.96666653951008L186.5656507200665,79.81137136593661L186.62983983092838,77.39374983310698L187.14335271782343,102.51354445067247L187.20754182868532,66.33750161429245L187.2717309395472,58.96666653951008L187.30382549497818,58.96666653951008L187.3359200504091,0.000003514687199583181L187.56058193842568,58.96666653951008L187.59267649385666,-206.3833258589109L188.1703784916136,58.96666653951008L188.81226960023244,58.96666653951008L189.2294988208347,-23.955208281675986L189.64672804143694,58.96666653951008L189.71091715229883,58.96666653951008L190.32071370548672,63.86089484331607L190.44909192721047,58.96666653951008L190.6737538152271,62.99113277223111L190.80213203695087,66.33750161429245L190.96260481410556,70.71577383527755L191.95753603246476,58.96666653951008L192.27848158677418,67.03035190452735L192.31057614220515,58.96666653951008L193.3376019159953,65.74783375390369L194.1078712463379,37.591252730687444L194.4930059115092,61.767591073036165L194.55719502237108,62.725791461110106L194.7176677995258,58.96666653951008L195.0386133538352,58.96666653951008L195.13489702012805,-79.92932602613767L195.16699157555897,58.96666653951008L195.42374801900652,34.09746033349038L195.4879371298684,101.49636761116983L195.6484099070231,51.59582267800968L196.83590845796795,66.33750161429245L196.96428667969172,88.44999805192151L197.0926649014155,68.31287884186904L197.31732678943212,63.831415404319756L197.44570501115587,83.17248432085512L197.4777995665868,58.96666653951008L197.5419886774487,67.72321098148028L197.57408323287964,79.51655061581928L197.95921789805095,29.4833262403806L198.24806889692942,-17.14457041500407L198.6011090066698,0.000003514687199583181L198.95414911641015,81.74254261509576L199.018338227272,58.96666653951008L199.17881100442676,-31.665078871711152L199.24300011528865,58.96666653951008L199.40347289244335,58.96666653951008L199.596040225029,58.96666653951008L199.8207021130456,58.96666653951008L200.23793133364782,64.49478625555832L200.71934966511196,70.81896505184173L200.7514442205429,35.01145474314689L200.87982244226666,-29.48333678444226L201.00820066399044,58.96666653951008L201.10448433028327,58.96666653951008L201.77846999433308,58.96666653951008L202.00313188234966,58.96666653951008L202.06732099321155,46.76056203891435L202.13151010407344,55.163318066056554L202.80549576812322,58.96666653951008L202.83759032355414,58.96666653951008L202.93387398984697,-147.41668040752404L202.99806310070883,58.96666653951008L203.1264413224326,77.64435581808884L203.15853587786359,55.0453827366352L203.31900865501828,73.73781612807113L203.38319776588017,58.96666653951008L203.44738687674206,-29.48333678444226L204.21765620708464,58.96666653951008L204.4102235396703,58.96666653951008L204.4744126505322,58.96666653951008L204.85954731570348,64.48005971613722L205.21258742544387,29.4833262403806L205.50143842432234,58.96666653951008L205.5335329797533,58.96666653951008L205.66191120147704,74.03265445162452L205.9828567557865,63.00588567180632L206.20751864380307,58.96666653951008L206.33589686552685,73.78203967992464L206.56055875354343,58.96666653951008L206.88150430785285,58.96666653951008L206.94569341871474,58.96666653951008L207.10616619586943,58.96666653951008L207.17035530673132,58.96666653951008L207.26663897302413,14.741656090815871L207.33082808388602,58.96666653951008L207.6838681936264,58.96666653951008L208.5183266348309,67.6200197649161L208.7750830782784,58.96666653951008L208.87136674457128,58.96666653951008L208.93555585543317,58.96666653951008L208.96765041086408,58.96666653951008L209.1923122988807,58.96666653951008L209.32069052060444,58.96666653951008L209.38487963146633,69.47746166307132L209.48116329775917,58.96666653951008L210.0909598509471,58.96666653951008L210.31562173896367,74.40118697930971L210.47609451611837,29.4833262403806L210.79704007042778,58.96666653951008L211.18217473559912,18.545022137705452L211.98453862137265,94.24347665252685L213.23622628317938,68.0622816436052L213.5571718374888,74.3717075403134L214.00649561352202,58.96666653951008L214.16696839067671,29.4833262403806L214.64838672214083,58.96666653951008L215.25818327532875,0.000003514687199583181L215.48284516334533,77.1578879609823L215.57912882963817,58.96666653951008L215.80379071765475,62.40147369856039L216.02845260567136,62.961653333234786L216.1247362719642,64.87807168281873L216.34939815998078,58.96666653951008L216.67034371429017,81.06441886428198L216.73453282515206,58.96666653951008L216.83081649144492,58.96666653951008L216.86291104687584,116.1790700960239L216.8950056023068,87.99300084709327L216.92710015773773,58.96666653951008L217.1517620457543,96.85275407906371L217.37642393377092,106.56749890910788L217.6652749326494,58.96666653951008L217.92203137609695,69.50695867550371L218.5639224847158,58.96666653951008L219.30209725962746,58.96666653951008L219.84770470195346,58.96666653951008L220.3933121442795,-117.93334010839459L220.4895958105723,0.000003514687199583181L220.81054136488174,75.43311671838757L220.84263592031266,58.96666653951008L220.90682503117455,33.743671918662386L221.3240542517768,63.65451241018772L222.15851269298128,72.79434227941832L223.02506568961672,58.96666653951008L223.18553846677142,93.28526747773486L223.28182213306428,58.96666653951008L223.53857857651178,58.96666653951008L223.73114590909745,86.79893858689465L224.0841860188378,58.96666653951008L224.3730370177163,58.96666653951008L224.5976989057329,58.96666653951008L224.79026623831857,40.67224511475565L224.91864446004232,44.62303471678095L224.9828335709042,66.33750161429245L225.01492812633515,58.96666653951008L225.9777647892634,70.8337091646989L226.10614301098718,58.96666653951008L226.1382375664181,-29.48333678444226L226.39499400986566,58.96666653951008L227.13316878477733,29.4833262403806L227.19735789563921,58.96666653951008L227.22945245107013,58.96666653951008L227.5824925608105,66.33750161429245L227.67877622710336,58.96666653951008L228.12810000313652,58.96666653951008L228.2564782248603,58.96666653951008L228.32066733572216,58.96666653951008L228.7058020008935,64.49478625555832L228.962558444341,58.96666653951008L229.12303122149575,29.4833262403806L229.1872203323576,58.96666653951008L229.2514094432195,102.17448257526559L230.085867884424,62.283547155857065L231.01660999192134,58.96666653951008L231.27336643536884,66.33750161429245L231.4659337679545,147.00390060384672L231.78687932226393,58.96666653951008L231.9152575439877,58.96666653951008L232.04363576571146,58.96666653951008L232.17201398743524,58.96666653951008L232.26829765372807,58.96666653951008L232.33248676458996,58.96666653951008L232.49295954174465,86.26823839121657L232.7497159851922,58.96666653951008L233.32741798294916,70.11137064874964L233.64836353725858,58.96666653951008L233.71255264812046,-201.75448279981606L233.93721453613705,58.96666653951008L234.1939709795846,-58.96667708357175L234.22606553501552,-58.96667708357175L234.32234920130836,29.4833262403806L234.77167297734155,58.96666653951008L235.22099675337475,71.52656824165183L235.34937497509853,58.96666653951008L235.38146953052944,58.96666653951008L235.41356408596036,58.96666653951008L235.83079330656264,66.33750161429245L236.02336063914828,58.96666653951008L236.183833416303,-176.90002070665355L236.21592797173395,58.96666653951008L236.2801170825958,58.96666653951008L236.37640074888867,58.96666653951008L236.44058985975056,69.72807643477122L236.53687352604337,29.4833262403806L236.88991363578373,58.96666653951008L237.7243720769882,58.96666653951008L238.30207407474518,75.77215223364037L238.78349240620932,63.374418199491494L238.87977607250212,58.96666653951008L238.9118706279331,29.4833262403806L239.1044379605187,58.96666653951008L239.42538351482816,58.96666653951008L239.87470729086132,66.33750161429245L240.32403106689452,69.90498821562129L240.4524092886183,73.70832790235679L240.5486929549111,82.87764599730173L240.58078751034208,29.4833262403806L241.4473405069775,66.33750161429245L241.63990783956316,58.96666653951008L241.736191505856,29.4833262403806L242.02504250473447,58.96666653951008L242.21760983732014,39.46343874169984L242.37808261447483,-58.96667708357175L242.41017716990575,196.83073266109926L242.44227172533672,80.90225998300711L242.5064608361986,-169.52915927171705L242.79531183507706,80.09148315006888L242.8915955013699,57.10922464135485L242.95578461223178,83.37886675398349L243.46929749912687,65.34981300050416L243.53348660998876,58.96666653951008L243.62977027628156,58.96666653951008L243.79024305343628,71.83614189134437L243.91862127516004,58.96666653951008L244.43213416205512,58.96666653951008L244.46422871748607,29.4833262403806L244.59260693920982,29.4833262403806L244.8814579380883,65.06971000308991L245.52334904670715,58.96666653951008L245.90848371187846,58.96666653951008L246.19733471075696,58.96666653951008L246.29361837704977,58.96666653951008L247.06388770739235,74.22428398517768L247.41692781713272,58.96666653951008L247.64158970514933,66.33750161429245L247.73787337144216,29.4833262403806L247.80206248230405,58.96666653951008L247.86625159316594,58.96666653951008L247.9304407040278,58.96666653951008L248.12300803661347,93.55061757557391L248.25138625833725,58.96666653951008L248.7648991452323,29.4833262403806L249.11793925497267,58.96666653951008L249.18212836583456,77.83599413836002L249.5993575864368,93.10836448360283L249.69564125272964,-235.8666661580404L249.88820858531528,58.96666653951008L250.43381602764129,62.22457070442835L250.56219424936506,58.96666653951008L250.7547615819507,29.4833262403806L251.04361258082918,29.4833262403806L251.07570713626015,108.97039390251638L251.36455813513862,66.04265450402102L251.46084180143143,66.33750161429245L251.5571254677243,64.24418027057646L251.71759824487899,-72.52901151235898L251.78178735574087,58.96666653951008L251.9743546883265,29.4833262403806L252.263205687205,58.96666653951008L252.48786757522157,29.4833262403806L252.61624579694535,58.96666653951008L252.77671857410004,58.96666653951008L253.32232601642608,61.98870883230367L254.02840623590683,62.6373443574031L254.09259534676872,74.79921651942729L254.18887901306152,85.70804996982415L254.5419191228019,58.96666653951008L254.76658101081847,66.33750161429245L254.99124289883508,58.96666653951008L255.47266123029922,58.96666653951008L255.95407956176334,58.96666653951008L255.98617411719428,58.96666653951008L256.1787414497799,58.96666653951008L256.49968700408937,58.96666653951008L256.6601597812441,58.96666653951008L256.7243488921059,58.96666653951008L256.82063255839876,58.96666653951008L257.17367266813915,58.96666653951008L257.3662400007248,58.96666653951008L257.6871855550342,74.84343128456275L257.71928011046515,76.56822010059355L257.78346922132704,58.96666653951008L258.20069844192926,58.96666653951008L258.4253603299459,58.96666653951008L258.48954944080776,0.000003514687199583181L258.5216439962387,29.4833262403806L259.3561024374432,66.33750161429245L259.58076432545977,58.96666653951008L260.3189391003715,58.96666653951008L260.54360098838805,58.96666653951008L260.6398846546809,58.96666653951008L260.83245198726655,58.96666653951008L262.05204509364233,64.49478625555832L262.46927431424456,66.33750161429245L262.50136886967556,58.96666653951008L262.56555798053745,58.96666653951008L262.75812531312306,71.37914468651613L262.8544089794159,69.7428205476284L263.36792186631095,63.10907688837049L263.43211097717284,29.4833262403806L263.6888674206204,-29.48333678444226L264.00981297492984,58.96666653951008L264.7800823052724,-88.44999980926514L264.9084605269962,58.96666653951008L265.16521697044374,63.389171099066715L265.29359519216746,-17.52784705554643L265.58244619104596,58.96666653951008L265.6145407464769,58.96666653951008L266.19224274423385,90.88237248432637L266.48109374311235,-18.043803138367355L266.673661075698,58.96666653951008L267.3476467397478,58.96666653951008L267.5081195169025,40.58381558448471L267.63649773862625,66.47017226985295L267.70068684948814,81.07916297713915L268.11791607009036,64.50952158169747L268.18210518095225,58.96666653951008L268.27838884724514,58.96666653951008L268.4388616243998,62.725791461110106L268.5672398461236,58.96666653951008L268.7919017341402,58.96666653951008L268.88818540043303,58.96666653951008L269.14494184388053,58.96666653951008L269.4016982873281,58.96666653951008L270.1719676176707,127.0289446684281L270.3966295056873,63.978830172737425L270.74966961542765,58.96666653951008L270.7817641708586,66.33750161429245L270.8780478371514,58.96666653951008L270.97433150344426,58.96666653951008L271.5520335012012,73.70832790235679L271.680411722925,68.34235828086535L271.8087899446487,58.96666653951008L271.8729790555106,58.96666653951008L271.9371681663725,58.96666653951008" fill="none"></path></g></g></g></g></g></g><g transform="translate(41, 176)" clip-path="url(#clip_1)"><clipPath id="clip_1"><rect width="288" height="23"></rect></clipPath><g><g><line x1="0" y1="0" x2="0" y2="5" style="visibility: inherit;" fill="rgb(0, 0, 0)" stroke="rgb(204, 204, 204)" stroke-width="1px"></line><line x1="32.09455543094211" y1="0" x2="32.09455543094211" y2="5" style="visibility: inherit;" fill="rgb(0, 0, 0)" stroke="rgb(204, 204, 204)" stroke-width="1px"></line><line x1="64.18911086188422" y1="0" x2="64.18911086188422" y2="5" style="visibility: inherit;" fill="rgb(0, 0, 0)" stroke="rgb(204, 204, 204)" stroke-width="1px"></line><line x1="96.28366629282633" y1="0" x2="96.28366629282633" y2="5" style="visibility: inherit;" fill="rgb(0, 0, 0)" stroke="rgb(204, 204, 204)" stroke-width="1px"></line><line x1="128.37822172376843" y1="0" x2="128.37822172376843" y2="5" style="visibility: inherit;" fill="rgb(0, 0, 0)" stroke="rgb(204, 204, 204)" stroke-width="1px"></line><line x1="160.47277715471057" y1="0" x2="160.47277715471057" y2="5" style="visibility: inherit;" fill="rgb(0, 0, 0)" stroke="rgb(204, 204, 204)" stroke-width="1px"></line><line x1="192.56733258565265" y1="0" x2="192.56733258565265" y2="5" style="visibility: inherit;" fill="rgb(0, 0, 0)" stroke="rgb(204, 204, 204)" stroke-width="1px"></line><line x1="224.6618880165948" y1="0" x2="224.6618880165948" y2="5" style="visibility: inherit;" fill="rgb(0, 0, 0)" stroke="rgb(204, 204, 204)" stroke-width="1px"></line><line x1="256.75644344753687" y1="0" x2="256.75644344753687" y2="5" style="visibility: inherit;" fill="rgb(0, 0, 0)" stroke="rgb(204, 204, 204)" stroke-width="1px"></line><line x1="288.850998878479" y1="0" x2="288.850998878479" y2="5" style="visibility: inherit;" fill="rgb(0, 0, 0)" stroke="rgb(204, 204, 204)" stroke-width="1px"></line></g><g transform="translate(0, 8)"><text style="text-anchor: middle; visibility: hidden; font-family: Roboto, sans-serif; font-size: 12px; font-weight: 200;" x="0" y="0" dx="0em" dy="0.95em" fill="rgb(33, 33, 33)" stroke="none" stroke-width="1px">-1k</text><text style="text-anchor: middle; visibility: inherit; font-family: Roboto, sans-serif; font-size: 12px; font-weight: 200;" x="32.09455543094211" y="0" dx="0em" dy="0.95em" fill="rgb(33, 33, 33)" stroke="none" stroke-width="1px">0</text><text style="text-anchor: middle; visibility: inherit; font-family: Roboto, sans-serif; font-size: 12px; font-weight: 200;" x="64.18911086188422" y="0" dx="0em" dy="0.95em" fill="rgb(33, 33, 33)" stroke="none" stroke-width="1px">1k</text><text style="text-anchor: middle; visibility: inherit; font-family: Roboto, sans-serif; font-size: 12px; font-weight: 200;" x="96.28366629282633" y="0" dx="0em" dy="0.95em" fill="rgb(33, 33, 33)" stroke="none" stroke-width="1px">2k</text><text style="text-anchor: middle; visibility: inherit; font-family: Roboto, sans-serif; font-size: 12px; font-weight: 200;" x="128.37822172376843" y="0" dx="0em" dy="0.95em" fill="rgb(33, 33, 33)" stroke="none" stroke-width="1px">3k</text><text style="text-anchor: middle; visibility: inherit; font-family: Roboto, sans-serif; font-size: 12px; font-weight: 200;" x="160.47277715471057" y="0" dx="0em" dy="0.95em" fill="rgb(33, 33, 33)" stroke="none" stroke-width="1px">4k</text><text style="text-anchor: middle; visibility: inherit; font-family: Roboto, sans-serif; font-size: 12px; font-weight: 200;" x="192.56733258565265" y="0" dx="0em" dy="0.95em" fill="rgb(33, 33, 33)" stroke="none" stroke-width="1px">5k</text><text style="text-anchor: middle; visibility: inherit; font-family: Roboto, sans-serif; font-size: 12px; font-weight: 200;" x="224.6618880165948" y="0" dx="0em" dy="0.95em" fill="rgb(33, 33, 33)" stroke="none" stroke-width="1px">6k</text><text style="text-anchor: middle; visibility: inherit; font-family: Roboto, sans-serif; font-size: 12px; font-weight: 200;" x="256.75644344753687" y="0" dx="0em" dy="0.95em" fill="rgb(33, 33, 33)" stroke="none" stroke-width="1px">7k</text><text style="text-anchor: middle; visibility: hidden; font-family: Roboto, sans-serif; font-size: 12px; font-weight: 200;" x="288.850998878479" y="0" dx="0em" dy="0.95em" fill="rgb(33, 33, 33)" stroke="none" stroke-width="1px">8k</text></g><line x1="0" y1="0" x2="288.850998878479" y2="0" fill="rgb(0, 0, 0)" stroke="rgb(204, 204, 204)" stroke-width="1px"></line></g></g></g></g></svg>