<svg viewBox="0 0 330 200" xmlns="http://www.w3.org/2000/svg"><g><g><g><g><g><line x1="72.29800224304199" y1="176.89999961853027" x2="67.29800224304199" y2="176.89999961853027" style="visibility: inherit;" fill="rgb(0, 0, 0)" stroke="rgb(204, 204, 204)" stroke-width="1px"></line><line x1="72.29800224304199" y1="162.15833298365274" x2="67.29800224304199" y2="162.15833298365274" style="visibility: inherit;" fill="rgb(0, 0, 0)" stroke="rgb(204, 204, 204)" stroke-width="1px"></line><line x1="72.29800224304199" y1="147.41666634877524" x2="67.29800224304199" y2="147.41666634877524" style="visibility: inherit;" fill="rgb(0, 0, 0)" stroke="rgb(204, 204, 204)" stroke-width="1px"></line><line x1="72.29800224304199" y1="132.6749997138977" x2="67.29800224304199" y2="132.6749997138977" style="visibility: inherit;" fill="rgb(0, 0, 0)" stroke="rgb(204, 204, 204)" stroke-width="1px"></line><line x1="72.29800224304199" y1="117.9333330790202" x2="67.29800224304199" y2="117.9333330790202" style="visibility: inherit;" fill="rgb(0, 0, 0)" stroke="rgb(204, 204, 204)" stroke-width="1px"></line><line x1="72.29800224304199" y1="103.19166644414267" x2="67.29800224304199" y2="103.19166644414267" style="visibility: inherit;" fill="rgb(0, 0, 0)" stroke="rgb(204, 204, 204)" stroke-width="1px"></line><line x1="72.29800224304199" y1="88.44999980926514" x2="67.29800224304199" y2="88.44999980926514" style="visibility: inherit;" fill="rgb(0, 0, 0)" stroke="rgb(204, 204, 204)" stroke-width="1px"></line><line x1="72.29800224304199" y1="73.70833317438763" x2="67.29800224304199" y2="73.70833317438763" style="visibility: inherit;" fill="rgb(0, 0, 0)" stroke="rgb(204, 204, 204)" stroke-width="1px"></line><line x1="72.29800224304199" y1="58.9666665395101" x2="67.29800224304199" y2="58.9666665395101" style="visibility: inherit;" fill="rgb(0, 0, 0)" stroke="rgb(204, 204, 204)" stroke-width="1px"></line><line x1="72.29800224304199" y1="44.22499990463257" x2="67.29800224304199" y2="44.22499990463257" style="visibility: inherit;" fill="rgb(0, 0, 0)" stroke="rgb(204, 204, 204)" stroke-width="1px"></line><line x1="72.29800224304199" y1="29.48333326975504" x2="67.29800224304199" y2="29.48333326975504" style="visibility: inherit;" fill="rgb(0, 0, 0)" stroke="rgb(204, 204, 204)" stroke-width="1px"></line><line x1="72.29800224304199" y1="14.74166663487751" x2="67.29800224304199" y2="14.74166663487751" style="visibility: inherit;" fill="rgb(0, 0, 0)" stroke="rgb(204, 204, 204)" stroke-width="1px"></line><line x1="72.29800224304199" y1="0" x2="67.29800224304199" y2="0" style="visibility: inherit;" fill="rgb(0, 0, 0)" stroke="rgb(204, 204, 204)" stroke-width="1px"></line></g><g transform="translate(62.29800224304199, 0)"><text style="text-anchor: end; visibility: hidden; font-family: Roboto, sans-serif; font-size: 12px; font-weight: 200;" x="0" y="176.89999961853027" dx="0em" dy="0.3em" fill="rgb(33, 33, 33)" stroke="none" stroke-width="1px">-5e-7</text><text style="text-anchor: end; visibility: inherit; font-family: Roboto, sans-serif; font-size: 12px; font-weight: 200;" x="0" y="162.15833298365274" dx="0em" dy="0.3em" fill="rgb(33, 33, 33)" stroke="none" stroke-width="1px">0</text><text style="text-anchor: end; visibility: hidden; font-family: Roboto, sans-serif; font-size: 12px; font-weight: 200;" x="0" y="147.41666634877524" dx="0em" dy="0.3em" fill="rgb(33, 33, 33)" stroke="none" stroke-width="1px">5e-7</text><text style="text-anchor: end; visibility: inherit; font-family: Roboto, sans-serif; font-size: 12px; font-weight: 200;" x="0" y="132.6749997138977" dx="0em" dy="0.3em" fill="rgb(33, 33, 33)" stroke="none" stroke-width="1px">1e-6</text><text style="text-anchor: end; visibility: hidden; font-family: Roboto, sans-serif; font-size: 12px; font-weight: 200;" x="0" y="117.9333330790202" dx="0em" dy="0.3em" fill="rgb(33, 33, 33)" stroke="none" stroke-width="1px">1.5e-6</text><text style="text-anchor: end; visibility: inherit; font-family: Roboto, sans-serif; font-size: 12px; font-weight: 200;" x="0" y="103.19166644414267" dx="0em" dy="0.3em" fill="rgb(33, 33, 33)" stroke="none" stroke-width="1px">2e-6</text><text style="text-anchor: end; visibility: hidden; font-family: Roboto, sans-serif; font-size: 12px; font-weight: 200;" x="0" y="88.44999980926514" dx="0em" dy="0.3em" fill="rgb(33, 33, 33)" stroke="none" stroke-width="1px">2.5e-6</text><text style="text-anchor: end; visibility: inherit; font-family: Roboto, sans-serif; font-size: 12px; font-weight: 200;" x="0" y="73.70833317438763" dx="0em" dy="0.3em" fill="rgb(33, 33, 33)" stroke="none" stroke-width="1px">3e-6</text><text style="text-anchor: end; visibility: hidden; font-family: Roboto, sans-serif; font-size: 12px; font-weight: 200;" x="0" y="58.9666665395101" dx="0em" dy="0.3em" fill="rgb(33, 33, 33)" stroke="none" stroke-width="1px">3.5e-6</text><text style="text-anchor: end; visibility: inherit; font-family: Roboto, sans-serif; font-size: 12px; font-weight: 200;" x="0" y="44.22499990463257" dx="0em" dy="0.3em" fill="rgb(33, 33, 33)" stroke="none" stroke-width="1px">4e-6</text><text style="text-anchor: end; visibility: hidden; font-family: Roboto, sans-serif; font-size: 12px; font-weight: 200;" x="0" y="29.48333326975504" dx="0em" dy="0.3em" fill="rgb(33, 33, 33)" stroke="none" stroke-width="1px">4.5e-6</text><text style="text-anchor: end; visibility: inherit; font-family: Roboto, sans-serif; font-size: 12px; font-weight: 200;" x="0" y="14.74166663487751" dx="0em" dy="0.3em" fill="rgb(33, 33, 33)" stroke="none" stroke-width="1px">5e-6</text><text style="text-anchor: end; visibility: hidden; font-family: Roboto, sans-serif; font-size: 12px; font-weight: 200;" x="0" y="0" dx="0em" dy="0.3em" fill="rgb(33, 33, 33)" stroke="none" stroke-width="1px">5.5e-6</text></g><line x1="72.29800224304199" y1="0" x2="72.29800224304199" y2="176.89999961853027" fill="rgb(0, 0, 0)" stroke="rgb(204, 204, 204)" stroke-width="1px"></line></g></g><g transform="translate(72, 0)" clip-path="url(#clip_0)"><clipPath id="clip_0"><rect width="257" height="176"></rect></clipPath><g><g><g><line x1="0" y1="0" x2="0" y2="176.89999961853027" fill="rgb(0, 0, 0)" stroke="rgb(66, 66, 66)" stroke-width="1px" opacity="0.25"></line><line x1="28.633555306328667" y1="0" x2="28.633555306328667" y2="176.89999961853027" fill="rgb(0, 0, 0)" stroke="rgb(66, 66, 66)" stroke-width="1px" opacity="0.25"></line><line x1="57.26711061265733" y1="0" x2="57.26711061265733" y2="176.89999961853027" fill="rgb(0, 0, 0)" stroke="rgb(66, 66, 66)" stroke-width="1px" opacity="0.25"></line><line x1="85.900665918986" y1="0" x2="85.900665918986" y2="176.89999961853027" fill="rgb(0, 0, 0)" stroke="rgb(66, 66, 66)" stroke-width="1px" opacity="0.25"></line><line x1="114.53422122531467" y1="0" x2="114.53422122531467" y2="176.89999961853027" fill="rgb(0, 0, 0)" stroke="rgb(66, 66, 66)" stroke-width="1px" opacity="0.25"></line><line x1="143.16777653164334" y1="0" x2="143.16777653164334" y2="176.89999961853027" fill="rgb(0, 0, 0)" stroke="rgb(66, 66, 66)" stroke-width="1px" opacity="0.25"></line><line x1="171.801331837972" y1="0" x2="171.801331837972" y2="176.89999961853027" fill="rgb(0, 0, 0)" stroke="rgb(66, 66, 66)" stroke-width="1px" opacity="0.25"></line><line x1="200.4348871443007" y1="0" x2="200.4348871443007" y2="176.89999961853027" fill="rgb(0, 0, 0)" stroke="rgb(66, 66, 66)" stroke-width="1px" opacity="0.25"></line><line x1="229.06844245062933" y1="0" x2="229.06844245062933" y2="176.89999961853027" fill="rgb(0, 0, 0)" stroke="rgb(66, 66, 66)" stroke-width="1px" opacity="0.25"></line><line x1="257.701997756958" y1="0" x2="257.701997756958" y2="176.89999961853027" fill="rgb(0, 0, 0)" stroke="rgb(66, 66, 66)" stroke-width="1px" opacity="0.25"></line></g><g><line x1="0" y1="176.89999961853027" x2="257.701997756958" y2="176.89999961853027" fill="rgb(0, 0, 0)" stroke="rgb(66, 66, 66)" stroke-width="1px" opacity="0.25"></line><line x1="0" y1="162.15833298365274" x2="257.701997756958" y2="162.15833298365274" fill="rgb(0, 0, 0)" stroke="rgb(66, 66, 66)" stroke-width="1px" opacity="0.25"></line><line x1="0" y1="147.41666634877524" x2="257.701997756958" y2="147.41666634877524" fill="rgb(0, 0, 0)" stroke="rgb(66, 66, 66)" stroke-width="1px" opacity="0.25"></line><line x1="0" y1="132.6749997138977" x2="257.701997756958" y2="132.6749997138977" fill="rgb(0, 0, 0)" stroke="rgb(66, 66, 66)" stroke-width="1px" opacity="0.25"></line><line x1="0" y1="117.9333330790202" x2="257.701997756958" y2="117.9333330790202" fill="rgb(0, 0, 0)" stroke="rgb(66, 66, 66)" stroke-width="1px" opacity="0.25"></line><line x1="0" y1="103.19166644414267" x2="257.701997756958" y2="103.19166644414267" fill="rgb(0, 0, 0)" stroke="rgb(66, 66, 66)" stroke-width="1px" opacity="0.25"></line><line x1="0" y1="88.44999980926514" x2="257.701997756958" y2="88.44999980926514" fill="rgb(0, 0, 0)" stroke="rgb(66, 66, 66)" stroke-width="1px" opacity="0.25"></line><line x1="0" y1="73.70833317438763" x2="257.701997756958" y2="73.70833317438763" fill="rgb(0, 0, 0)" stroke="rgb(66, 66, 66)" stroke-width="1px" opacity="0.25"></line><line x1="0" y1="58.9666665395101" x2="257.701997756958" y2="58.9666665395101" fill="rgb(0, 0, 0)" stroke="rgb(66, 66, 66)" stroke-width="1px" opacity="0.25"></line><line x1="0" y1="44.22499990463257" x2="257.701997756958" y2="44.22499990463257" fill="rgb(0, 0, 0)" stroke="rgb(66, 66, 66)" stroke-width="1px" opacity="0.25"></line><line x1="0" y1="29.48333326975504" x2="257.701997756958" y2="29.48333326975504" fill="rgb(0, 0, 0)" stroke="rgb(66, 66, 66)" stroke-width="1px" opacity="0.25"></line><line x1="0" y1="14.74166663487751" x2="257.701997756958" y2="14.74166663487751" fill="rgb(0, 0, 0)" stroke="rgb(66, 66, 66)" stroke-width="1px" opacity="0.25"></line><line x1="0" y1="0" x2="257.701997756958" y2="0" fill="rgb(0, 0, 0)" stroke="rgb(66, 66, 66)" stroke-width="1px" opacity="0.25"></line></g></g></g><g><g><line x1="0" y1="162.15833298365274" x2="257.701997756958" y2="162.15833298365274" fill="rgb(0, 0, 0)" stroke="rgb(153, 153, 153)" stroke-width="1.5px"></line></g></g><g><g><line x1="28.633555306328667" y1="0" x2="28.633555306328667" y2="176.89999961853027" fill="rgb(0, 0, 0)" stroke="rgb(153, 153, 153)" stroke-width="1.5px"></line></g></g><g><g><g><g><g><path style="fill: none;" stroke="rgb(255, 112, 67)" stroke-width="2px" d="M28.77672308286031,161.17292747250139L29.177592857148912,159.79266956508823L29.40666129959954,158.80650829929138L29.43529485490587,158.26408359715816L29.807531073888143,157.4251922718044L30.007965961032443,156.63542848831614L30.03659951633877,156.04307300358764L30.437469290627373,155.25270605714104L30.466102845933705,154.61599135973768L30.580637067159017,154.02743257957232L30.695171288384334,153.47386028125777L30.866972620222302,152.91346731364524L31.010140396753947,152.36303319635178L31.210575283898248,151.79205097424213L31.496910836961533,151.16489121941925L31.61144505818685,150.56648698875054L31.725979279412165,149.99174058130478L32.12684905370077,149.3262639377205L32.24138327492608,148.6889738613735L32.270016830232414,148.10546659949355L32.327283940845064,147.55857517747995L32.38455105145773,147.04329764113862L32.78542082574632,146.45154126320057L32.87132149166531,145.88418040885892L33.1576570447286,145.28242799830136L33.243557710647586,144.7039407933675L33.300824821260235,144.15351765159323L33.3580919318729,143.6281445464694L33.587160374323524,143.0838742403741L33.73032815085517,142.54256538108726L34.13119792514377,141.94583573541308L34.47480058881971,141.31134732979893L34.532067699432375,140.70317942921147L34.761136141883,140.08364766442068L35.21927302678426,139.40788597521683L35.648776356379194,138.68610730474893L35.67740991168552,137.99792474286195L36.049646130667796,137.27728846305658L36.078279685974124,136.58846224436866L36.42188234965007,135.87379645281493L36.50778301556905,135.1792858803675L36.73685145801968,134.47953745850253L36.82275212393867,133.79829945916035L36.96591990047031,133.1251507175091L37.10908767700195,132.45954115096168L37.481323895984225,131.76591610430557L37.71039233843486,131.06748861605178L37.767659449047514,130.38976131567594L37.79629300435384,129.73558212082094L37.88219367027283,129.09545820473483L38.54076544231839,128.3893213785766L38.56939899762472,127.70646187825669L38.913001661300655,127.00358353481553L39.08480299313863,126.30426022099569L39.113436548444966,125.62669193480012L39.14207010375129,124.96971159161897L39.48567276742723,124.29312531428964L39.714741209877864,123.61190993280812L39.82927543110318,122.94004015685124L39.88654254171583,122.28380722735864L40.17287809477912,121.61580884308405L40.23014520539178,120.96281202399213L40.54511431376139,120.2950626666025L40.74554920090569,119.62594515851025L41.1464189751943,118.93360126431554L41.17505253050062,118.25916052816467L41.232319641113286,117.59878023922795L41.43275452825758,116.93685483850858L41.86225785785251,116.24980562591189L41.976792079077825,115.57073914769167L42.11995985560947,114.89643841741356L42.234494076834785,114.22953364189887L42.263127632141114,113.57810995700265L42.40629540867276,112.93049157869993L42.43492896397908,112.29742457115447L42.60673029581706,111.66487496649326L43.26530206786262,110.98762858260083L43.32256917847527,110.32250552482394L43.3512027337816,109.67163614632692L43.37983628908793,109.03448470290674L43.46573695500692,108.40547843313213L43.523004065619574,107.78681787868996L43.923873839908175,107.14844842601357L43.952507395214504,106.5228418987407L44.00977450582716,105.90712936130896L44.06704161643982,105.30096330308808L44.12430872705248,104.70401235176594L44.23884294827779,104.11128322254986L44.29611005889045,103.52725572856792L44.46791139072842,102.94248283480958L44.58244561195373,102.36151194934091L44.754246943791706,101.77973251101949L44.81151405440437,101.20603690508925L44.92604827562968,100.63577371048856L45.38418516053094,100.04274712972855L45.55598649236891,99.44917237294568L45.67052071359423,98.85932211168347L45.72778782420688,98.27729856466227L46.24319181972079,97.6694244272887L46.50089381747775,97.05508755517623L46.6440615940094,96.44267317095374L46.67269514931573,95.84024551995172L46.901763591766354,95.23342417998346L47.07356492360433,94.62631671429327L47.10219847891066,94.02880728914309L47.50306825319926,93.41516137636772L47.76077025095621,92.79552484026534L47.98983869340685,92.1719800679262L48.018472248713174,91.55798004598279L48.47660913361444,90.92489700673741L48.53387624422709,90.29948227480034L49.30698223749796,89.63504996579944L49.364249348110626,88.97870246598741L49.421516458723275,88.33022529102395L49.50741712464227,87.6875981390471L49.59331779056125,87.05066717205055L49.965554009543524,86.40144313489886L50.5382251156701,85.75794671844756L50.85319422403971,85.12531329610037L50.88182777934605,84.50324014091403L51.05362911118401,83.89148859471617L51.225430443021985,83.28980976048535L51.68356732792324,82.6980353249207L51.71220088322957,82.1158255118303L51.769467993842234,81.54295898524084L52.11307065751817,80.9793048717859L52.485306876500445,80.4246763927438L52.71437531895108,79.87882080358786L52.80027598487006,79.34147721250243L53.20114575915867,78.81260201117007L53.344313535690304,78.29188609682147L53.45884775691562,77.77913181891425L53.602015533447265,77.27417769805508L54.031518863042194,76.77702396155637L54.346487971411804,76.28744856941731L54.46102219263713,75.80516050613737L55.291395296520655,75.33053688697134L55.34866240713332,74.86284840691292L55.6349979601966,74.40213500662178L55.835432847340904,73.9481845496296L56.236302621629505,73.50104062026024L57.26711061265733,73.06122600660531L57.353011278576325,72.62766443974661L57.410278389188974,72.2001960119485L57.7252474975586,71.77897685368465L57.925682384702895,71.36376220405839L58.04021660592821,70.95433669305588L58.097483716540864,70.55051912873742L58.355185714297825,70.15242925937532L58.899223265118074,69.76031172251699L59.30009303940667,69.37390320459721L59.328726594713,68.99262529585981L59.38599370532566,68.61641434709057L59.50052792655097,68.24524595465338L59.75822992430793,67.87921196157083L60.10183258798387,67.51833894384404L60.216366809209184,67.16222781028478L60.27363391982185,66.81071155913513L60.35953458574083,66.46374309462392L60.41680169635349,66.12119904075995L60.474068806966145,65.78299726096948L60.76040436002943,65.44937458166196L60.874938581254746,65.12001426727774L61.07537346839904,64.79496175025001L61.13264057901171,64.47393919008867L61.27580835554335,64.1569966316106L61.476243242687644,63.84414626567011L61.61941101921929,63.53523637632844L61.64804457452562,63.23003240517571L61.991647238201566,62.92893169803181L62.277982791264854,62.6317899392343L62.3352499018775,62.33819819487669L62.36388345718384,62.048052089167726L62.56431834432814,61.7615526190964L62.822020342085096,61.478730817028854L62.850653897391425,61.19917523603225L63.19425656106737,60.923321334170964L63.423325003518,60.650937330303655L63.537859224743315,60.381787305875406L63.73829411188761,60.11595729039408L64.28233166270786,59.853964265971804L64.33959877332052,59.59495346237131L64.48276654985216,59.3390200386991L64.51140010515849,59.08592406820504L64.56866721577114,58.83566732635719L64.65456788169013,58.58825238464293L64.76910210291545,58.34368235468423L64.94090343475342,58.102009902556L65.05543765597874,57.86309531571217L65.19860543251038,57.62694524341164L65.37040676434835,57.393567475633475L65.59947520679897,57.16302077913426L65.8285436492496,56.93526697425748L66.05761209170024,56.710268673806944L66.3153140894572,56.488040170760854L66.5157489766015,56.26844357584618L66.60164964252047,56.051237134455604L66.6302831978268,55.836282938880196L66.88798519558377,55.623958198004395L67.17432074864705,55.414282969599824L67.60382407824197,55.207492317264396L67.7183582994673,55.0029692465304L68.03332740783692,54.80105884855959L68.06196096314325,54.601188688499526L68.17649518436855,54.4034909625405L69.23593673070272,54.209769198990266L69.83724139213562,54.01913392285162L69.86587494744195,53.83039642570615L70.38127894295587,53.64452803785096L70.40991249826219,53.46049545848323L70.49581316418117,53.27839096844664L70.86804938316345,53.09878428290191L70.92531649377611,52.9209899964795L71.24028560214572,52.745524790842154L71.32618626806472,52.571879170012636L71.44072048929002,52.40008927043655L71.66978893174065,52.230373912833734L71.87022381888497,52.062648386725535L71.8988573741913,51.89652169268739L71.98475804011026,51.73209400334098L72.07065870602926,51.56934307951877L72.4142613697052,51.408799070446776L72.58606270154317,51.2500708321569L72.70059692276848,51.093012806078335L72.98693247583176,50.93797730554633L73.07283314175076,50.78450645942939L73.47370291603936,50.63327113040025L73.55960358195834,50.483557280773056L73.70277135848998,50.335472154794935L73.78867202440898,50.18886974174834L74.04637402216594,50.044112264454654L74.36134313053556,49.90131022672022L74.50451090706719,49.76006014566689L74.56177801767986,49.620151107117564L75.24898334503173,49.48299400028551L75.47805178748236,49.34753025270337L75.53531889809503,49.213346538944364L75.82165445115831,49.08095550974697L76.0220893383026,48.95014179534933L76.25115778075323,48.82095610246953L76.48022622320386,48.69338277916423L76.68066111034818,48.56733897453161L76.73792822096082,48.442472042018714L76.90972955279881,48.3190371335947L77.16743155055576,48.19722238948965L77.39649999300639,48.076945573529535L77.45376710361906,47.957783427688625L77.53966776953803,47.83979062105622L77.62556843545701,47.72295382263933L77.65420199076335,47.607124202801856L77.85463687790765,47.49269636844428L77.99780465443928,47.379520758062L78.19823954158359,47.26772068416888L78.45594153934056,47.15742027216093L78.62774287117853,47.048400899427925L78.88544486893548,46.940856893019955L79.2004139773051,46.83491534950952L79.48674953036839,46.73049567414115L79.54401664098103,46.62702627476381L79.74445152812534,46.52484576210276L79.88761930465698,46.42380226122576L79.97351997057598,46.32374428844731L80.2025884130266,46.22501193287227L80.74662596384685,46.12837398907227L81.54836551242404,46.03448087930492L81.66289973364935,45.941588073451136L81.92060173140632,45.850049513741624L82.06376950793795,45.75956255794314L82.12103661855062,45.66989806757119L82.72234127998352,45.582440989059954L83.03731038835313,45.49644717636338L83.12321105427212,45.41131203671021L83.2950123861101,45.32724954627739L83.32364594141642,45.243878593237746L83.75314927101135,45.162233405097126L83.78178282631768,45.08125813136837L84.09675193468729,45.00169294180833L84.21128615591262,44.92300342379824L84.35445393244424,44.84525614422593L84.41172104305691,44.768217547764365L84.66942304081387,44.692405374194436L84.7839572620392,44.617434691428535L84.81259081734552,44.54307236792245L84.86985792795817,44.469386868543104L84.8984914832645,44.396296608616964L84.95575859387715,44.32386999828701L85.27072770224677,44.25277301899404L85.32799481285943,44.182322779078746L85.55706325531007,44.112962274420326L85.5856968106164,44.044158285714104L85.67159747653537,43.97605473796663L86.67377191225687,43.91106484437105L87.93364834573534,43.84992651040274L88.19135034349229,43.789913794258624L88.47768589655558,43.731098697625356L88.7926550049252,43.673553788547736L88.8785556708442,43.61663687902222L89.05035700268216,43.560579984280764L89.19352477921379,43.505297100335085L89.22215833452013,43.450464668741674L89.33669255574544,43.39631561792074L89.36532611105177,43.34260683934053L89.56576099819607,43.2898079365437L89.90936366187202,43.238309395495556L90.48203476799858,43.188746134456835L90.76837032106188,43.14031185607683L91.28377431657579,43.09364813547093L91.48420920372008,43.047857242429764L91.91371253331504,43.00358550316172L92.08551386515299,42.9600914599859L92.37184941821629,42.91769713755192L92.68681852658591,42.87647921151251L92.77271919250488,42.835773179851735L92.91588696903653,42.795739066466126L93.2881231880188,42.75703093461734L93.97532851537068,42.72055944335962L94.66253384272258,42.68632991391107L94.97750295109219,42.65324477016912L95.06340361701118,42.62062194187168L95.20657139354283,42.58862638031432L95.43563983599346,42.55750693812256L95.72197538905674,42.52742801514419L96.00831094212002,42.49838452516725L96.20874582926433,42.4701161968246L97.06775248845418,42.44458712975898L97.1822867096795,42.41955987485147L97.21092026498583,42.39477285874906L97.32545448621114,42.37048118513112L98.27036181131999,42.349184669559975L98.41352958785163,42.32845241752004L98.55669736438327,42.30828044684167L98.92893358336555,42.28936102310311L99.15800202581617,42.27125316610132L99.24390269173517,42.25351607527464L99.81657379786172,42.23763270668767L100.04564224031238,42.22254613791396L100.188810016844,42.20798840831056L100.24607712745667,42.19369286147691L100.33197779337564,42.179744927460455L100.3892449039883,42.16605460532206L100.41787845929464,42.15253254813011L100.73284756766425,42.14004980690317L100.79011467827692,42.12781507266065L100.84738178888956,42.115826438857376L101.04781667603388,42.104517496987086L101.10508378664652,42.09344864177142L101.33415222909714,42.08314024053364L102.10725822236802,42.07525247315859L102.13589177767435,42.06749811379189L102.45086088604397,42.060753608298626L102.4794944413503,42.05413566502333L102.7658299944136,42.048433072436154L102.88036421563889,42.04311418404348L103.0807991027832,42.038439951583975L103.2812339899275,42.034406928753135L103.65347020890977,42.03153999528696L103.8825386513604,42.02939400966845L103.91117220666673,42.0273481860473L104.11160709381105,42.025929711466546L104.19750775973002,42.02478300724724L104.22614131503634,42.02373056037099L104.25477487034267,42.022771625638136L104.34067553626167,42.0220805547753L104.8847130870819,42.02305904700876L105.11378152953255,42.02473547032517L105.14241508483886,42.02649047721622L105.22831575075786,42.02849901783554L105.42875063790216,42.03111037051527L105.51465130382114,42.03397043290522L105.5719184144338,42.03698993286512L105.65781908035278,42.040255252924375L105.7723533015781,42.043852225399284L106.03005529933506,42.04821593769872L106.20185663117303,42.0530804860828L106.34502440770467,42.05835571933107L106.45955862892998,42.06395189940814L106.80316129260594,42.07056670003162L106.83179484791226,42.07723349949907L106.94632906913756,42.08421383920396L107.08949684566922,42.09159318039383L107.11813040097555,42.09902046114282L107.14676395628187,42.10649538243952L107.23266462220086,42.11419135032789L107.49036661995781,42.12262837442463L107.51900017526414,42.13110784971546L107.54763373057048,42.13962952317663L107.69080150710211,42.14853943956345L107.83396928363376,42.157835479864765L107.91986994955275,42.167342546593545L108.06303772608439,42.17723221540169L108.20620550261603,42.187502469896984L108.40664038976034,42.19832418334547L108.75024305343628,42.21012752828024L109.17974638303122,42.223169991886124L109.52334904670715,42.23718780340921L109.80968459977043,42.252003737719676L109.92421882099576,42.26709205057557L110.09602015283373,42.28262528323426L110.29645503997803,42.29868828568552L110.58279059304131,42.31553997806743L110.61142414834764,42.33239348642569L111.15546169916789,42.35081633187122L111.18409525447422,42.3692336774273L111.44179725223118,42.38834264507446L111.49906436284382,42.40753014337497L112.21490324550206,42.42880325636673L112.30080391142103,42.45023270746404L112.38670457734003,42.47181769163974L112.67304013040331,42.49416901326626L113.18844412591723,42.517984965253994L113.2743447918362,42.541946189265374L113.47477967898051,42.56640230586241L113.5606803448995,42.59100080818531L113.61794745551215,42.61565355621746L113.78974878735012,42.640709680852616L114.1619850063324,42.66677944276056L114.44832055939568,42.69359709946689L114.53422122531467,42.72054697304731L114.62012189123365,42.747628416466625L114.84919033368428,42.77527756864322L115.10689233144124,42.80357956910823L115.53639566103617,42.83305726942051L115.90863188001845,42.86353235084342L116.93943987104628,42.89702864891746L116.9680734263526,42.93045318308921L117.31167609002854,42.96477661654342L117.51211097717285,42.99955437531127L117.54074453247918,43.03425530701129L117.56937808778551,43.068880002936325L117.74117941962348,43.10386858790096L117.85571364084879,43.139043679495174L117.97024786207412,43.174404464346246L117.99888141738045,43.20968704420257L118.02751497268677,43.244892013223144L118.17068274921841,43.28036962645179L118.22794985983107,43.31585657050375L118.71472030003865,43.35266350179405L119.51645984861587,43.391753429121046L119.6596276251475,43.43110140450737L119.91732962290446,43.47105756897923L120.00323028882345,43.511092786366085L120.0604973994361,43.551119157401025L120.2609322865804,43.59157464495804L120.40410006311204,43.63228239593808L120.74770272678799,43.67385411065783L120.77633628209432,43.71532379929443L120.8622369480133,43.7568668761721L120.91950405862596,43.79839587936944L121.11993894577026,43.84034687986805L121.46354160944621,43.88315431051832L121.52080872005887,43.925942998215355L122.15074693679809,43.9704573713564L122.23664760271708,44.01503364804424L123.09565426190694,44.062031516899L123.32472270435757,44.1095195666576L124.29826358477274,44.15977824008869L124.44143136130438,44.21025253511398L124.756400469674,44.26146886742256L125.01410246743096,44.31324875364533L125.21453735457526,44.36541426093184L125.27180446518791,44.417524925320315L125.35770513110691,44.46966886989219L125.41497224171957,44.52175859304603L125.55814001825121,44.574056826574086L125.58677357355754,44.626213413132625L125.81584201600816,44.678839875271535L126.13081112437779,44.73219615827029L126.24534534560308,44.785668956787234L126.53168089866638,44.839780738650106L126.6462151198917,44.89400632035688L126.760749341117,44.94834532474544L126.98981778356763,45.00314512659719L127.13298556009929,45.05814320045525L127.56248888969421,45.11420752440679L127.7629237768385,45.17063926911275L127.9633586639828,45.227436970337145L128.36422843827143,45.285206884557184L128.39286199357775,45.34281725470555L128.42149554888408,45.40026911345099L128.4501291041904,45.45756350243004L128.62193043602838,45.51513331971855L128.67919754664103,45.572632243934805L128.87963243378533,45.63049183147365L128.96553309970432,45.688366048602155L129.28050220807395,45.746943599161156L129.6241048717499,45.80630799942314L129.88180686950685,45.866198121377366L130.1395088672638,45.92661191156221L130.31131019910177,45.9872893626032L130.5403786415524,46.04840128335755L130.76944708400302,46.109945935436095L130.855347749922,46.171492657513866L131.02714908176,46.23329865828977L131.0557826370663,46.29493494660008L131.37075174543594,46.357257550838995L131.39938530074224,46.41940917621463L131.7429879644182,46.48232977361248L132.11522418340047,46.546101863970755L132.1438577387068,46.60969838572816L132.17249129401313,46.67312040780043L132.20112484931946,46.736369024559544L132.60199462360805,46.80054995247545L133.28919995095995,46.86651050801337L133.37510061687894,46.93245881051216L133.4323677274916,46.99831020253478L133.48963483810425,47.064065356429126L133.57553550402324,47.12980962623049L133.69006972524855,47.19562781473616L133.77597039116753,47.261435265528654L133.80460394647386,47.327063460589855L134.3200079419878,47.393946807003225L134.60634349505105,47.46140616553355L134.949946158727,47.52960782164352L135.09311393525866,47.59795925605533L135.12174749056499,47.66612351221418L135.52261726485358,47.7351939722368L135.89485348383585,47.805083131947136L135.9234870391422,47.87478037500529L135.98075414975483,47.944370655875225L136.0093877050612,48.01377099693643L136.09528837098014,48.08314967602995L136.1239219262865,48.15234001893591L136.1525554815928,48.221343137455555L136.3529903687371,48.29065970113887L136.41025747934978,48.359872522873694L136.89702791955736,48.43022889525636L136.95429503017004,48.500478217564805L136.98292858547634,48.57053823970688L137.09746280670166,48.640658567882745L137.18336347262064,48.71075634947909L137.8419352446662,48.782485666583604L138.1282707977295,48.85476557339948L138.58640768263075,48.92808959012409L138.8441096803877,49.00187546769778L138.9013767910004,49.07554391420157L138.95864390161304,49.14909564804299L139.18771234406364,49.22302501220328L139.4454143418206,49.29741261811295L139.53131500773958,49.37176385951663L140.39032166692945,49.44829448904077L140.56212299876742,49.52502735645168L140.64802366468643,49.60171592260745L140.76255788591175,49.67844236108597L140.9343592177497,49.75537006538489L141.220694770813,49.83282474781309L141.27796188142565,49.91015179521334L141.36386254734464,49.987433403378134L141.85063298755222,50.06580878114987L141.96516720877753,50.1442165766857L142.22286920653448,50.223062638281284L142.48057120429144,50.302345051234994L142.65237253612943,50.38181890638594L142.79554031266107,50.46140252258452L142.96734164449904,50.5411763205064L143.4254785294003,50.62194662685966L143.54001275062564,50.702741453869116L143.59727986123826,50.78339976580627L143.85498185899522,50.86448526866294L143.9981496355269,50.94567478184319L144.16995096736483,51.02704812903361L144.34175229920282,51.108604563902404L144.54218718634712,51.1904233365263L145.60162873268126,51.274901473788795L145.71616295390658,51.359391546143456L145.83069717513192,51.44389362141943L146.3174676153395,51.52944304476013L146.48926894717746,51.6151598962211L146.66107027901543,51.70104346357637L146.74697094493442,51.78685506445207L147.37690916167367,51.874100263977724L147.57734404881796,51.96158538774512L147.66324471473692,52.04899336254821L147.97821382310656,52.13695578089379L148.26454937616984,52.225391172045164L148.29318293147617,52.313589244025955L148.37908359739518,52.40170839469688L148.69405270576476,52.490376753492775L149.1235560353597,52.57990494989401L149.5244258096483,52.670210370117296L149.69622714148628,52.76066433186937L149.75349425209893,52.85095422786475L149.95392913924323,52.9414703506782L150.2402646923065,53.032444905889506L150.32616535822552,53.12333209300775L150.41206602414448,53.21413242855522L150.4406995794508,53.3046915312606L150.55523380067612,53.39524268257719L150.84156935373943,53.486249328044956L151.21380557272167,53.5779404263258L151.24243912802802,53.66938876574415L151.7292095682356,53.76182540174283L152.0441786766052,53.85478468757527L152.30188067436217,53.94811072759781L152.4450484508938,54.041495775328364L152.58821622742548,54.13493959424944L152.76001755926342,54.22851815781739L153.0177195570204,54.3224591769958L153.50448999722798,54.41736850763132L153.96262688212926,54.51316476955639L154.0485275480482,54.60885929181603L154.5066644329495,54.70543476588049L154.73573287540012,54.80228306776746L154.85026709662543,54.89910166391698L154.93616776254441,54.99581555951829L155.0220684284634,55.09242532424041L155.05070198376973,55.18878154998788L155.27977042622035,55.2854095394148L155.337037536833,55.38185947792497L155.65200664520262,55.47880384291549L155.88107508765327,55.576016476947615L156.19604419602288,55.67371888983491L156.3105784172482,55.77138900702971L156.53964685969882,55.869323334994874L157.19821863174437,55.96862874007315L157.37001996358237,56.068043561649155L157.48455418480768,56.16741998972054L157.9140575144026,56.26756627426716L158.08585884624057,56.36781817367123L158.17175951215955,56.46795552322945L158.2290266227722,56.56790581449144L158.4294615099165,56.66803487214169L158.51536217583552,56.76805030437645L158.6298963970608,56.86802541857034L158.74443061828612,56.96796040919054L158.77306417359247,57.067637849522995L159.28846816910635,57.16828969082927L159.34573527971904,57.26875454682609L159.46026950094435,57.36917759325101L159.63207083278232,57.46970302451125L159.86113927523294,57.57047394655406L160.14747482829625,57.67163234216648L160.54834460258485,57.77346192562626L160.6342452685038,57.875173381916L160.72014593442282,57.97676727336408L161.63641970422532,58.080305334420565L161.77958748075696,58.18386120990408L161.80822103606332,58.28715181346773L161.9227552572886,58.390390347930754L162.03728947851394,58.493577013666325L162.06592303382027,58.59650076558511L162.15182369973925,58.69930351797844L162.2949914762709,58.80212625605501L162.6099605846405,58.90538912101826L162.83902902709116,59.00887965852723L162.95356324831644,59.112317429108046L163.0108303589291,59.215563300449L163.18263169076707,59.318896408398416L163.4117001332177,59.42245496387512L163.44033368852405,59.52575261464925L163.612135020362,59.629136562793526L163.698035686281,59.73239905224618L164.0989054605696,59.836298684488774L164.2993403477139,59.94035018463826L164.92927856445314,60.04558009600472L165.12971345159744,60.150955565023985L165.3015147834354,60.256407449139246L165.4160490046607,60.36179913086796L165.44468255996705,60.466926995930145L165.81691877894932,60.57260594776962L166.2177885532379,60.678899558759255L166.3036892191569,60.78506228749475L166.3895898850759,60.89109469273799L166.44685699568853,60.99693012899686L166.5041241063012,61.10256948445962L166.96226099120244,61.20895114844094L167.0195281018151,61.315135277292086L167.07679521242778,61.421122764412L167.1054287677341,61.526847878330145L167.13406232304044,61.6323118125391L167.33449721018474,61.73791430929762L167.36313076549106,61.84325668454771L167.878534761005,61.94946447335151L168.45120586713153,62.056662060085216L168.82344208611383,62.16438246928023L169.1956783050961,62.272621669197875L169.25294541570875,62.38065902075587L169.796982966529,62.489600721908324L169.9115171877543,62.59846818697967L170.1119520748986,62.70745562254002L170.22648629612394,62.8163685157906L170.36965407265558,62.925271488943025L171.25729428715175,63.0358312483957L171.54362984021503,63.14669296319467L171.5722633955214,63.25728170195345L172.4885371653239,63.36956377995716L173.1757424926758,63.48301681747185L173.51934515635173,63.59687851252665L173.5766122669644,63.710521280131395L173.71978004349603,63.824133152551525L174.0061155965593,63.9380248919244L174.0920162624783,64.05176018864108L174.12064981778462,64.1652157659494L174.34971826023525,64.27882567082703L174.40698537084793,64.39221859211618L174.55015314737955,64.5055801994869L175.60959469371372,64.62086866045486L175.72412891493903,64.73605656479391L175.83866313616434,64.85114417938449L176.03909802330864,64.9663135300444L176.15363224453398,65.08138242615696L176.18226579984028,65.19617010886631L176.23953291045294,65.31073806561035L176.2681664657593,65.42502702369275L176.61176912943523,65.53969868670256L176.86947112719218,65.65457026114983L177.1844402355618,65.76975895497294L177.49940934393143,65.88526179311778L177.55667645454406,66.00054336311548L177.69984423107573,66.11578193395316L177.7571113416884,66.23080044660367L177.90027911822003,66.34577649034392L178.07208045005797,66.4607686866714L178.2725153372023,66.57583507702098L178.64475155618456,66.69132475253487L179.07425488577948,66.8073495414406L179.1028884410858,66.92309448622935L179.21742266231112,67.03873425748634L179.33195688353644,67.15426911602441L179.41785754945542,67.26964174402548L180.01916221088834,67.38588476491523L180.21959709803264,67.50219106758762L180.2768642086453,67.61827526296868L180.33413131925795,67.73413824609281L180.93543598069087,67.85085635788155L180.96406953599717,67.96729493264934L181.04997020191618,68.08356771074605L181.1072373125288,68.19961910516818L181.22177153375412,68.31556216176975L181.25040508906048,68.43122921918632L181.39357286559212,68.54684499842918L181.45083997620478,68.66224212011977L181.50810708681743,68.77742145341679L182.1953124141693,68.89360310566742L182.36711374600728,69.00978492254464L182.42438085661993,69.12574656166896L182.76798352029587,69.24203711604056L183.0829526286655,69.35859848692591L183.34065462642246,69.47531911938555L183.3692881817288,69.59176389156289L183.4838224029541,69.70809631089904L183.77015795601739,69.82464020710835L183.97059284316168,69.94123210071093L184.08512706438702,70.05771037505774L184.28556195153132,70.1742355893201L184.57189750459457,70.29096645125126L184.62916461520726,70.40747626300963L184.77233239173887,70.5239248586095L184.82959950235156,70.64015355319326L184.9155001682705,70.75621598128323L184.97276727888317,70.87206001092368L185.2877363872528,70.98815927797162L186.03220882521737,71.1052917976118L186.26127726766796,71.22251318715493L186.34717793358698,71.33956409124436L186.40444504419963,71.4563935280297L186.43307859950596,71.57295085398374L186.63351348665026,71.68954537493707L186.74804770787557,71.80602264186734L186.80531481848823,71.92228070248288L186.8912154844072,72.03837140344402L187.43525303522748,72.15510751569961L187.63568792237177,72.27187612754457L187.7788556989034,72.38857573748122L188.06519125196667,72.50545680181135L188.40879391564263,72.62261650398722L189.12463279830087,72.74069338310893L190.24134145524766,72.86035268580106L190.52767700831095,72.98016854775541L190.92854678259957,73.10033033308963L191.0717145591312,73.22040388237443L191.5012178887261,73.34086440389724L192.04525543954637,73.46189427501538L192.24569032669066,73.58292385413073L192.33159099260965,73.70376553694588L192.53202587975395,73.82460622533817L192.73246076689827,73.94544502654534L192.81836143281726,74.06609619497486L193.01879631996155,74.18674476498106L193.30513187302483,74.30752742098485L193.3623989836375,74.42807641249644L193.44829964955647,74.54843824154887L193.4769332048628,74.66852235547795L193.50556676016916,74.78832981000322L193.53420031547546,74.90786166160419L193.73463520261976,75.02739105210087L193.93507008976405,75.1469170807898L194.192772087521,75.26652864563493L194.42184052997166,75.38617920127992L194.99451163609822,75.5063995395667L195.6530834081438,75.62731055962621L196.13985384835135,75.74863932341205L196.62662428855896,75.87037830490557L196.71252495447794,75.9919228715678L196.99886050754125,76.11357198698258L197.02749406284755,76.234941664023L197.0847611734602,76.35607537552796L197.4569973924425,76.47743835475687L198.20146983040704,76.59956757740889L198.9745758236779,76.72248658350787L199.11774360020954,76.84528602820379L199.20364426612855,76.9678846635318L199.43271270857915,77.09048543740377L199.60451404041714,77.21300656613253L199.91948314878675,77.33564776525147L200.1771851465437,77.458326588302L200.377620033688,77.58096213963995L200.549421365526,77.70351419456162L200.66395558675129,77.82590384880993L200.72122269736394,77.9480530677361L200.7498562526703,78.06992355877189L201.60886291186014,78.19264012989274L201.72339713308546,78.3151914497369L201.75203068839178,78.43746316999867L201.98109913084244,78.55972312264007L202.63967090288799,78.6825347753025L202.69693801350064,78.80510379870837L202.72557156880694,78.92739367808952L203.04054067717658,79.04977728476126L203.1264413430956,79.17195657474683L203.5273111173842,79.29433634942778L203.6418453386095,79.41654766951201L203.69911244922213,79.53851802183L204.0427151128981,79.66061056225142L204.2717835553487,79.78267821071493L204.41495133188036,79.90461247990245L204.47221844249302,80.02630637475696L204.52948555310567,80.14776069876153L205.27395799107023,80.26982246201925L206.10433109495375,80.39257683439448L206.33339953740438,80.515291857785L206.50520086924234,80.63789851813648L206.79153642230563,80.76053109817016L206.90607064353094,80.88298665266574L207.02060486475628,81.00526548004724L207.1351390859816,81.12736787702377L207.22103975190058,81.24926098605076L207.27830686251323,81.370912298023L207.42147463904487,81.49242155192292L207.6505430814955,81.6138870117476L208.16594707700943,81.73563134896986L208.4522826300727,81.8573906612814L208.50954974068534,81.97890784273172L208.70998462782967,82.10034272070469L208.9390530702803,82.22172602219983L208.96768662558662,82.34283667026119L209.05358729150558,82.46373844570928L209.4544570657942,82.58477466023452L209.8553268400828,82.705940242698L209.96986106130814,82.82692587280009L209.99849461661444,82.94764044904242L210.02712817192076,83.06808491524785L210.39936439090303,83.18862333112342L210.57116572274103,83.30904235478371L210.71433349927267,83.4293117949558L210.742967054579,83.54931278317108L210.80023416519163,83.66907594525208L210.88613483111064,83.78863163983135L210.9434019417233,83.90795089352248L211.02930260764228,84.02706389549125L211.3442717160119,84.14620505615048L212.08874415397642,84.26580141964574L212.60414814949036,84.38561171114821L213.03365147908528,84.50554460073063L213.11955214500426,84.62526557413695L213.14818570031062,84.74472023562302L213.31998703214856,84.8640464253457L213.60632258521187,84.9833521830017L214.00719235950046,85.10274216165428L214.40806213378906,85.22221133324085L214.52259635501437,85.34149383048398L214.60849702093336,85.46056382804473L214.63713057623968,85.57936976729387L215.41023656951057,85.69858087547452L215.58203790134854,85.81765381570378L215.66793856726753,85.93651296004293L215.92564056502448,86.05530856017576L216.09744189686248,86.17396485821692L216.24060967339412,86.29245692027561L216.26924322870042,86.41068681658622L216.29787678400677,86.52865542574885L216.35514389461943,86.6463880512528L216.61284589237636,86.76405524330164L216.69874655829537,86.88151122303269L216.75601366890803,86.99873250323716L217.21415055380928,87.11605261872577L217.27141766442193,87.2331379556403L217.35731833034092,87.35001267594149L217.50048610687256,87.46672393480786L217.61502032809787,87.58324852407712L218.07315721299912,87.69986167526464L218.10179076830548,87.81621875324709L218.21632498953076,87.93238853634715L218.47402698728771,88.04848341934552L219.0466980934143,88.16474350682819L219.39030075709027,88.28098687459082L219.64800275484723,88.39714627604329L219.7339034207662,88.51309328524083L220.42110874811806,88.6292660252989L220.7360778564877,88.74538779317771L220.936512743632,88.8613756040482L221.02241340955098,88.9771489130286L221.07968052016366,89.09268830361022L221.13694763077632,89.2079944663216L221.19421474138895,89.3230680871562L221.36601607322692,89.43798860904396L221.48055029445226,89.55271666257121L221.9386871793535,89.66748358573746L222.25365628772312,89.7821890897907L222.31092339833577,89.8966626601631L222.68315961731807,90.01110895718729L222.76906028323702,90.12534195907836L222.94086161507502,90.23941671964756L223.4276320552826,90.35352916067912L223.5421662765079,90.46744536056097L223.71396760834585,90.58120047617416L223.97166960610284,90.6948458113615L224.00030316140916,90.80824335202624L224.25800515916612,90.92152994405123L224.3439058250851,91.03460348485189L224.42980649100411,91.14746445626645L224.57297426753576,91.2601465687765L224.6302413781484,91.3726003227379L224.80204270998635,91.48489202893222L225.0597447077433,91.59706980745341L225.2601795948876,91.70910018494072L225.37471381611294,91.82093507366116L225.51788159264458,91.93259041242045L226.00465203285216,92.04425085189548L226.6345902495914,92.15598268385837L226.69185736020407,92.26748645227055L226.77775802612305,92.37877732872352L227.09272713449266,92.48997039265413L227.29316202163696,92.60100696603101L227.49359690878126,92.71188632375701L227.9231002383762,92.8227161756489L228.3526035679711,92.9334909561917L228.38123712327746,93.0440253137272L228.5530384551154,93.15438462012072L228.8393740081787,93.26461911707588L228.98254178471035,93.37466470036237L229.039808895323,93.48448427006737L229.125709561242,93.5940907788909L229.4406786696116,93.7035816898693L229.6124800014496,93.8128953166926L229.89881555451285,93.92207790751509L229.9274491098192,94.03102431857923L229.98471622043186,94.13974679541279L230.35695243941413,94.24837029430807L230.55738732655846,94.35682543701023L230.61465443717108,94.46505725641404L230.6432879924774,94.57305549191271L231.38776043044194,94.68108411662372L231.58819531758624,94.7889399465633L232.24676708963185,94.89677635733788L232.44720197677614,95.00443535179055L232.5331026426951,95.11187983506623L232.7049039745331,95.21913735533514L233.7929790761736,95.32647705999305L234.16521529515583,95.43367790523541L234.1938488504622,95.54064620789516L234.25111596107485,95.64739026692212L234.42291729291279,95.75394057697521L234.5088179588318,95.86027492670942L234.96695484373305,95.9664859345022L235.0242219543457,96.07247381408231L235.25329039679633,96.17827956286169L235.53962594985964,96.28391495500225L236.2268312772115,96.38946129657202L236.34136549843683,96.49479591099166L236.57043394088745,96.59994107893162L236.68496816211277,96.70487456091612L236.94267015986972,96.80962250060549L236.97130371517605,96.9141435407906L237.48670771068998,97.01852060354364L237.74440970844694,97.1227074015005L237.9162110402849,97.22668988235993L238.5175157017178,97.33052592697973L238.66068347824944,97.43415109443303L238.77521769947475,97.53756195982199L238.83248481008744,97.64075203479648L239.20472102906967,97.74375710921424L239.26198813968233,97.84654190360837L239.34788880560134,97.94910993312301L239.49105658213298,98.05146728049685L239.6055908033583,98.15361127255363L239.8060256905026,98.2555498082535L239.89192635642158,98.35727273217402L240.1209947988722,98.45879193503441L240.35006324132283,98.56010640546339L241.03726856867473,98.66124092470587L241.23770345581903,98.76216415394164L241.55267256418864,98.86287947258516L241.58130611949497,98.96337650642381L241.66720678541395,99.06365762804661L241.75310745133294,99.16372326271075L242.26851144684684,99.26358129208482L242.38304566807219,99.36322373313644L242.49757988929747,99.46265082987193L242.55484699991013,99.56186277413879L242.61211411052278,99.6608601128609" fill="none"></path></g></g></g></g><g opacity="0.2"><g><g><g><path style="fill: none;" stroke="rgb(255, 112, 67)" stroke-width="2px" d="M28.77672308286031,161.17292747250139L29.177592857148912,158.41379191558255L29.40666129959954,156.83714326533374L29.43529485490587,156.6400618698151L29.807531073888143,154.07800749892323L30.007965961032443,152.69844024419302L30.03659951633877,152.5013588486744L30.437469290627373,149.74222350124725L30.466102845933705,149.54514210572862L30.580637067159017,148.75681819958757L30.695171288384334,147.96849261751308L30.866972620222302,146.7860075962682L31.010140396753947,145.80060061867508L31.210575283898248,144.4210342019116L31.496910836961533,142.45022192265878L31.61144505818685,141.66189801651774L31.725979279412165,140.87357411037667L32.12684905370077,138.1144379249828L32.24138327492608,137.32611401884176L32.270016830232414,137.12903262332313L32.327283940845064,136.73486983228588L32.38455105145773,136.34070871718208L32.78542082574632,133.5815725317882L32.87132149166531,132.9903300211658L33.1576570447286,131.01951941784642L33.243557710647586,130.42827355535707L33.300824821260235,130.03411411618674L33.3580919318729,129.63995132514947L33.587160374323524,128.06330351286738L33.73032815085517,127.07789485934077L34.13119792514377,124.31876202581383L34.47480058881971,121.95378863145721L34.532067699432375,121.55962584041995L34.761136141883,119.98297802813785L35.21927302678426,116.82967905170672L35.648776356379194,113.87346314672767L35.67740991168552,113.6763800752756L36.049646130667796,111.1143269613338L36.078279685974124,110.91724724174864L36.42188234965007,108.55227384739203L36.50778301556905,107.96102798490269L36.73685145801968,106.38438017262058L36.82275212393867,105.79313766199816L36.96591990047031,104.80772900847155L37.10908767700195,103.8223270586788L37.481323895984225,101.26027394473702L37.71039233843486,99.68362278058798L37.767659449047514,99.28946334141764L37.79629300435384,99.09238026996557L37.88219367027283,98.50113775934314L38.54076544231839,93.968274042082L38.56939899762472,93.7711909706299L38.913001661300655,91.40621422440637L39.08480299313863,90.22372920316153L39.113436548444966,90.02664613170943L39.14207010375129,89.82956976399119L39.48567276742723,87.46459301776765L39.714741209877864,85.88794855735249L39.82927543110318,85.09962297527795L39.88654254171583,84.70545683237378L40.17287809477912,82.73464622905442L40.23014520539178,82.34048678988408L40.54511431376139,80.17259311511263L40.74554920090569,78.7930250224157L41.1464189751943,76.03388883702183L41.17505253050062,75.83680576556974L41.232319641113286,75.4426463263994L41.43275452825758,74.06307823370247L41.86225785785251,71.10686568059036L41.976792079077825,70.31854009851585L42.11995985560947,69.33313144498925L42.234494076834785,68.54480586291471L42.263127632141114,68.34772949519649L42.40629540867276,67.36232084166988L42.43492896397908,67.16523777021779L42.60673029581706,65.98275274897294L43.26530206786262,61.449889031711784L43.32256917847527,61.055729592541454L43.3512027337816,60.858646521089376L43.37983628908793,60.66156344963728L43.46573695500692,60.07032093901485L43.523004065619574,59.67616149984452L43.923873839908175,56.91702531445064L43.952507395214504,56.71994224299856L44.00977450582716,56.32578280382823L44.06704161643982,55.931616660924036L44.12430872705248,55.537457221753705L44.23884294827779,54.7491316396792L44.29611005889045,54.35496549677502L44.46791139072842,53.172480475530165L44.58244561195373,52.38415489345566L44.754246943791706,51.20166987221082L44.81151405440437,50.807510433040484L44.92604827562968,50.019184850965964L45.38418516053094,46.86588252266791L45.55598649236891,45.68339750142307L45.67052071359423,44.89507862308241L45.72778782420688,44.500912480178215L46.24319181972079,40.953457416443676L46.50089381747775,39.17972988457641L46.6440615940094,38.194321231049805L46.67269514931573,37.99723145586387L46.901763591766354,36.42059369918254L47.07356492360433,35.23809527046999L47.10219847891066,35.04101890275176L47.50306825319926,32.28188271735789L47.76077025095621,30.50815518549062L47.98983869340685,28.931504021341585L48.018472248713174,28.73442765362335L48.47660913361444,25.581125325325303L48.53387624422709,25.186959182421106L49.30698223749796,19.8657765868193L49.364249348110626,19.471610443915125L49.421516458723275,19.077444301010953L49.50741712464227,18.48620179038852L49.59331779056125,17.89495927976609L49.965554009543524,15.332912869558161L50.5382251156701,14.743989850847797L50.85319422403971,14.747971868754615L50.88182777934605,14.748427722656412L51.05362911118401,14.751524847695048L51.225430443021985,14.755185086377073L51.68356732792324,14.767801513482507L51.71220088322957,14.768726628753788L51.769467993842234,14.770617081699449L52.11307065751817,14.78335417601418L52.485306876500445,14.799764916478642L52.71437531895108,14.811214893894219L52.80027598487006,14.815773432912112L53.20114575915867,14.838968352032648L53.344313535690304,14.848004985262255L53.45884775691562,14.8555265746418L53.602015533447265,14.865300618594897L54.031518863042194,14.897009279704752L54.346487971411804,14.922550505672726L54.46102219263713,14.932324549625825L55.291395296520655,15.010838680475407L55.34866240713332,15.016751373730985L55.6349979601966,15.047280177683257L55.835432847340904,15.069603611403297L56.236302621629505,15.11658337822313L57.26711061265733,15.25182450491023L57.353011278576325,15.264025300516986L57.410278389188974,15.272244078216923L57.7252474975586,15.318566879119462L57.925682384702895,15.349055460668636L58.04021660592821,15.36683376283847L58.097483716540864,15.37581676619729L58.355185714297825,15.417017914438528L58.899223265118074,15.508255732135156L59.30009303940667,15.579167828798996L59.328726594713,15.584343111331082L59.38599370532566,15.594760713733768L59.50052792655097,15.615783623086948L59.75822992430793,15.664010284402854L60.10183258798387,15.730323619645683L60.216366809209184,15.752928610187416L60.27363391982185,15.764324957732189L60.35953458574083,15.781540146258633L60.41680169635349,15.793110790883489L60.474068806966145,15.804721657911443L60.76040436002943,15.86379496059644L60.874938581254746,15.88786136511743L61.07537346839904,15.930590964676458L61.13264057901171,15.942939242427903L61.27580835554335,15.974084789894368L61.476243242687644,16.018369655706557L61.61941101921929,16.050467133379694L61.64804457452562,16.056942940278663L61.991647238201566,16.135792257820725L62.277982791264854,16.20323182035035L62.3352499018775,16.216907437404068L62.36388345718384,16.22377206086632L62.56431834432814,16.272240056600822L62.822020342085096,16.335711008691312L62.850653897391425,16.342843781507572L63.19425656106737,16.429630319927877L63.423325003518,16.488743845015954L63.537859224743315,16.518682720389446L63.73829411188761,16.57166903273876L64.28233166270786,16.719379104386604L64.33959877332052,16.735253546143092L64.48276654985216,16.775221207355962L64.51140010515849,16.783265687975796L64.56866721577114,16.79938146415086L64.65456788169013,16.82370261055817L64.76910210291545,16.856322979471596L64.94090343475342,16.905742905412772L65.05543765597874,16.93899342530808L65.19860543251038,16.980918576805124L65.37040676434835,17.031732879387086L65.59947520679897,17.100365706541957L65.8285436492496,17.169990686306623L66.05761209170024,17.240607818681084L66.3153140894572,17.321240329427216L66.5157489766015,17.384831948727005L66.60164964252047,17.412317257511447L66.6302831978268,17.42151478035345L66.88798519558377,17.504936044381132L67.17432074864705,17.599110097504L67.60382407824197,17.74326719021143L67.7183582994673,17.782296328685312L68.03332740783692,17.890896817053076L68.06196096314325,17.900858565553985L68.17649518436855,17.940866449169953L69.23593673070272,18.32265749938729L69.83724139213562,18.548667182401534L69.86587494744195,18.55960767604451L70.38127894295587,18.75896331327171L70.40991249826219,18.77018536373638L70.49581316418117,18.803931959936584L70.86804938316345,18.951762698793726L70.92531649377611,18.974729690963354L71.24028560214572,19.102167671449237L71.32618626806472,19.137228199484007L71.44072048929002,19.184207966303838L71.66978893174065,19.278878095731603L71.87022381888497,19.36250047177478L71.8988573741913,19.374513562833727L71.98475804011026,19.410619873349077L72.07065870602926,19.446873666009136L72.4142613697052,19.59321617595163L72.58606270154317,19.6672119901864L72.70059692276848,19.716833028143068L72.98693247583176,19.8419381092492L73.07283314175076,19.879760575630126L73.47370291603936,20.058066488568755L73.55960358195834,20.096653180608545L73.70277135848998,20.161263767453523L73.78867202440898,20.20019905365352L74.04637402216594,20.317836175250893L74.36134313053556,20.463253569922102L74.50451090706719,20.52994231426053L74.56177801767986,20.556730434724578L75.24898334503173,20.88270619690797L75.47805178748236,20.993264175559887L75.53531889809503,21.021044448633706L75.82165445115831,21.160857521806427L76.0220893383026,21.25959011394721L76.25115778075323,21.373312254976252L76.48022622320386,21.487972918744305L76.68066111034818,21.58906522520021L76.73792822096082,21.618078985302418L76.90972955279881,21.705482267236917L77.16743155055576,21.83755923154689L77.39649999300639,21.95594717133546L77.45376710361906,21.98569834216114L77.53966776953803,22.030412246939733L77.62556843545701,22.075273633862995L77.65420199076335,22.090249775283592L77.85463687790765,22.19552521166183L77.99780465443928,22.271143329488275L78.19823954158359,22.377625437959466L78.45594153934056,22.515561465654233L78.62774287117853,22.60818025252392L78.88544486893548,22.74806036303515L79.2004139773051,22.92060106486289L79.48674953036839,23.078970073332037L79.54401664098103,23.110812809118872L79.74445152812534,23.222711534540768L79.88761930465698,23.30306248846521L79.97351997057598,23.351450039393512L80.2025884130266,23.481100252049846L80.74662596384685,23.792649578988325L81.54836551242404,24.26106627801359L81.66289973364935,24.328881249638794L81.92060173140632,24.482276087591327L82.06376950793795,24.567990028595663L82.12103661855062,24.602366775777746L82.72234127998352,24.96674152545314L83.03731038835313,25.160036987280073L83.12321105427212,25.213050114564783L83.2950123861101,25.31943837076209L83.32364594141642,25.337216672931923L83.75314927101135,25.60556713894189L83.78178282631768,25.62355996059493L84.09675193468729,25.82245974392033L84.21128615591262,25.895208663659027L84.35445393244424,25.986433073887948L84.41172104305691,26.023022053240485L84.66942304081387,26.188336129978083L84.7839572620392,26.262157647132767L84.81259081734552,26.280659952558388L84.86985792795817,26.31767797087733L84.8984914832645,26.336207091238343L84.95575859387715,26.373305554363487L85.27072770224677,26.578345957895355L85.32799481285943,26.61580642264839L85.55706325531007,26.76617117290078L85.5856968106164,26.785022072486605L85.67159747653537,26.841668623517926L86.67377191225687,27.511478894860744L87.93364834573534,28.376595748185412L88.19135034349229,28.556698261795816L88.47768589655558,28.75805161171027L88.7926550049252,28.98103120702437L88.8785556708442,29.04212903733201L89.05035700268216,29.164646477172088L89.19352477921379,29.267106345333385L89.22215833452013,29.28763317838165L89.33669255574544,29.369887992719455L89.36532611105177,29.39048186310623L89.56576099819607,29.53501436490926L89.90936366187202,29.784245781979433L90.48203476799858,30.20371181643299L90.76837032106188,30.41536210154083L91.28377431657579,30.79951286607331L91.48420920372008,30.949998283535017L91.91371253331504,31.274552854142232L92.08551386515299,31.40516840447295L92.37184941821629,31.623844202655437L92.68681852658591,31.865822179700054L92.77271919250488,31.93206847760439L92.91588696903653,32.0427471234656L93.2881231880188,32.331919386813254L93.97532851537068,32.871221367566946L94.66253384272258,33.417495231524505L94.97750295109219,33.670199182728894L95.06340361701118,33.73936830859176L95.20657139354283,33.85488705029258L95.43563983599346,34.04032573604747L95.72197538905674,34.27321344999167L96.00831094212002,34.50726761362575L96.20874582926433,34.67181746470446L97.06775248845418,35.3834992576735L97.1822867096795,35.479188354646425L97.21092026498583,35.50313409195814L97.32545448621114,35.599051115881956L98.27036181131999,36.39733174272353L98.41352958785163,36.5193799211941L98.55669736438327,36.641696249018686L98.92893358336555,36.96104872215842L99.15800202581617,37.15851390643994L99.24390269173517,37.232751055093324L99.81657379786172,37.730221736623875L100.04564224031238,37.93046226671924L100.188810016844,38.055956164388654L100.24607712745667,38.10623416826262L100.33197779337564,38.181731618879766L100.3892449039883,38.232130289963024L100.41787845929464,38.25733632923852L100.73284756766425,38.535366986927684L100.79011467827692,38.586060622300344L100.84738178888956,38.636807887543796L101.04781667603388,38.814724983919135L101.10508378664652,38.86565995371039L101.33415222909714,39.06981546437408L102.10725822236802,39.76394688212419L102.13589177767435,39.789809887316956L102.45086088604397,40.07493309541928L102.4794944413503,40.100916767821346L102.7658299944136,40.36135682788848L102.88036421563889,40.46581440873703L103.0807991027832,40.64902745485376L103.2812339899275,40.83276339221077L103.65347020890977,41.17532419193871L103.8825386513604,41.386987884514255L103.91117220666673,41.41349444815661L104.11160709381105,41.59932195047478L104.19750775973002,41.67910979075583L104.22614131503634,41.70573702160748L104.25477487034267,41.732364252459135L104.34067553626167,41.8123129823526L104.8847130870819,42.320750972461525L105.11378152953255,42.535927421574385L105.14241508483886,42.562863024183144L105.22831575075786,42.64375027681558L105.42875063790216,42.832822386317076L105.51465130382114,42.9140180107066L105.5719184144338,42.9681841802135L105.65781908035278,43.04951387928002L105.7723533015781,43.15810096018008L106.03005529933506,43.40298835771554L106.20185663117303,43.56669353832917L106.34502440770467,43.70338267152784L106.45955862892998,43.81290827516688L106.80316129260594,44.1424102013553L106.83179484791226,44.16993573254284L106.94632906913756,44.280118302099176L107.08949684566922,44.41806773726163L107.11813040097555,44.44568712072305L107.14676395628187,44.47331991165218L107.23266462220086,44.556258506842674L107.49036661995781,44.80559718365444L107.51900017526414,44.83335064179287L107.54763373057048,44.861117507399L107.69080150710211,45.000072502638936L107.83396928363376,45.13925542482978L107.91986994955275,45.222891208340656L108.06303772608439,45.36244953962708L108.20620550261603,45.50224920533209L108.40664038976034,45.698373642843656L108.75024305343628,46.03563849283021L109.17974638303122,46.4590865451906L109.52334904670715,46.79932785300649L109.80968459977043,47.083874539997716L109.92421882099576,47.19794527518697L110.09602015283373,47.36931952732485L110.29645503997803,47.56965390969412L110.58279059304131,47.85661394087131L110.61142414834764,47.885359551619516L111.15546169916789,48.43318868183023L111.18409525447422,48.462108589658534L111.44179725223118,48.72278998414427L111.49906436284382,48.78081750434867L112.21490324550206,49.50903070499148L112.30080391142103,49.59676917361846L112.38670457734003,49.68458808705166L112.67304013040331,49.97787644298311L113.18844412591723,50.5079004560886L113.2743447918362,50.59649700264837L113.47477967898051,50.8035217113998L113.5606803448995,50.89236629611203L113.61794745551215,50.95163400707866L113.78974878735012,51.12964495572789L114.1619850063324,51.51634313912332L114.44832055939568,51.81472633278069L114.53422122531467,51.90440218049029L114.62012189123365,51.99414506553838L114.84919033368428,52.2338102544048L115.10689233144124,52.50403776589274L115.53639566103617,52.95582920497034L115.90863188001845,53.34878867578154L116.93943987104628,54.44370282174564L116.9680734263526,54.47425844063331L117.31167609002854,54.841468869727194L117.51211097717285,55.05616265000288L117.54074453247918,55.08686575103523L117.56937808778551,55.11757555580145L117.74117941962348,55.30196845907576L117.85571364084879,55.42504230882538L117.97024786207412,55.54823682578429L117.99888141738045,55.579053890292116L118.02751497268677,55.60987765853376L118.17068274921841,55.76409705574985L118.22794985983107,55.82583174077322L118.71472030003865,56.351759772496436L119.51645984861587,57.222380391311866L119.6596276251475,57.37841650040124L119.91732962290446,57.659705172741454L120.00323028882345,57.75359096530876L120.0604973994361,57.81621724693417L120.2609322865804,58.03560364090476L120.40410006311204,58.192511235394626L120.74770272678799,58.5697638577956L120.77633628209432,58.60124459195457L120.8622369480133,58.69572031310066L120.91950405862596,58.75874211502322L121.11993894577026,58.97950947816686L121.46354160944621,59.35869947965046L121.52080872005887,59.421989430927006L122.15074693679809,60.11981460602838L122.23664760271708,60.21520873871193L123.09565426190694,61.17214663457816L123.32472270435757,61.42824267511059L124.29826358477274,62.52081721796109L124.44143136130438,62.68204872078412L124.756400469674,63.03724605881904L125.01410246743096,63.328369108717L125.21453735457526,63.55510279498703L125.27180446518791,63.61992790131519L125.35770513110691,63.7172124869444L125.41497224171957,63.782097926877206L125.55814001825121,63.944402027116205L125.58677357355754,63.97688161761879L125.81584201600816,64.2368859349857L126.13081112437779,64.59494576737453L126.24534534560308,64.72530657581893L126.53168089866638,65.05157059855786L126.6462151198917,65.18221966755785L126.760749341117,65.31294918136399L126.98981778356763,65.57464954339491L127.13298556009929,65.73837483521008L127.56248888969421,66.23029482511295L127.7629237768385,66.4602328961632L127.9633586639828,66.69040559789822L128.36422843827143,67.15144148595476L128.39286199357775,67.1844104490284L128.42149554888408,67.21737941210202L128.4501291041904,67.2503550789095L128.62193043602838,67.4483029320282L128.67919754664103,67.51432800671549L128.87963243378533,67.74553978719723L128.96553309970432,67.8447014183044L129.28050220807395,68.20863372154571L129.6241048717499,68.6062589911164L129.88180686950685,68.90489022292621L130.1395088672638,69.20386334516235L130.31131019910177,69.40336646453424L130.5403786415524,69.66961195811537L130.76944708400302,69.93611219358277L130.855347749922,70.03611849515502L131.02714908176,70.23623835804108L131.0557826370663,70.26960284141184L131.37075174543594,70.63690041904579L131.39938530074224,70.67031853228734L131.7429879644182,71.07159063307239L132.11522418340047,71.50691099808087L132.1438577387068,71.54042966733017L132.17249129401313,71.57394163284565L132.20112484931946,71.60746030209494L132.60199462360805,72.07713059935013L133.28919995095995,72.88388474577792L133.37510061687894,72.98486979249223L133.4323677274916,73.05220879901408L133.48963483810425,73.11956121300365L133.57553550402324,73.22062000079032L133.69006972524855,73.35540527357564L133.77597039116753,73.45653109870082L133.80460394647386,73.49024417623177L134.3200079419878,74.09765609290007L134.60634349505105,74.4355510938685L134.949946158727,74.8414286598084L135.09311393525866,75.010671124582L135.12174749056499,75.0445249805238L135.52261726485358,75.51883426160309L135.89485348383585,75.95975224437622L135.9234870391422,75.9936865451242L135.98075414975483,76.0615685540879L136.0093877050612,76.0955162623036L136.09528837098014,76.19736609068457L136.1239219262865,76.23132050263412L136.1525554815928,76.26527491458366L136.3529903687371,76.50305635423827L136.41025747934978,76.57101880800816L136.89702791955736,77.14909518534947L136.95429503017004,77.21715149139325L136.98292858547634,77.25117964441516L137.09746280670166,77.38733247890586L137.18336347262064,77.4894772715762L137.8419352446662,78.27324431463282L138.1282707977295,78.61438392278457L138.58640768263075,79.16065778674214L138.8441096803877,79.46816476216914L138.9013767910004,79.53652273623618L138.95864390161304,79.60488071030322L139.18771234406364,79.87841986631301L139.4454143418206,80.1862888433679L139.53131500773958,80.28894311981084L140.39032166692945,81.31635066590684L140.56212299876742,81.52200110921903L140.64802366468643,81.62484979394362L140.76255788591175,81.76200148477795L140.9343592177497,81.96777259529948L141.220694770813,82.31083617506614L141.27796188142565,82.37946900222104L141.36386254734464,82.48242494668722L141.85063298755222,83.06604531192235L141.96516720877753,83.2034182259737L142.22286920653448,83.51257431992781L142.48057120429144,83.82181756242193L142.65237253612943,84.02802441564369L142.79554031266107,84.19988804035259L142.96734164449904,84.40616193091284L143.4254785294003,84.95636418290641L143.54001275062564,85.09395161644098L143.59727986123826,85.16274533320826L143.85498185899522,85.47235728106413L143.9981496355269,85.64439520285313L144.16995096736483,85.85085009422734L144.34175229920282,86.05733180053694L144.54218718634712,86.29824388389943L145.60162873268126,87.5719801303086L145.71616295390658,87.70970163852016L145.83069717513192,87.84742985046557L146.3174676153395,88.43278648276781L146.48926894717746,88.63938215255287L146.66107027901543,88.8459778223379L146.74697094493442,88.94927565723043L147.37690916167367,89.70674395239404L147.57734404881796,89.94772977682885L147.66324471473692,90.05100750051984L147.97821382310656,90.42965449956158L148.26454937616984,90.77383760288119L148.29318293147617,90.8082545724664L148.37908359739518,90.9114987774881L148.69405270576476,91.29001170185286L149.1235560353597,91.80605172614754L149.5244258096483,92.28754070618002L149.69622714148628,92.49384141167567L149.75349425209893,92.56260160977371L149.95392913924323,92.80323213631449L150.2402646923065,93.14691245959537L150.32616535822552,93.2499957750047L150.41206602414448,93.35307238668017L150.4406995794508,93.38742902266071L150.55523380067612,93.52484215911518L150.84156935373943,93.86829455544517L151.21380557272167,94.31460904396742L151.24243912802802,94.34893216127873L151.7292095682356,94.9322240435552L152.0441786766052,95.30942973981924L152.30188067436217,95.61792216412216L152.4450484508938,95.7892494901231L152.58821622742548,95.96054329745478L152.76001755926342,96.16603285115458L153.0177195570204,96.47415657009579L153.50448999722798,97.05577922264366L153.96262688212926,97.6026966450508L154.0485275480482,97.70518332814748L154.5066644329495,98.25148400704043L154.73573287540012,98.5244332344714L154.85026709662543,98.66085421831612L154.93616776254441,98.76314649313115L155.0220684284634,98.8654253604785L155.05070198376973,98.89950714337118L155.27977042622035,99.17211448037581L155.337037536833,99.24024452749197L155.65200664520262,99.61478213768375L155.88107508765327,99.8869872506574L156.19604419602288,100.26100867334274L156.3105784172482,100.39694028461639L156.53964685969882,100.6686828399544L157.19821863174437,101.44895723767523L157.37001996358237,101.65226807787384L157.48455418480768,101.78775053897955L157.9140575144026,102.2953840810265L158.08585884624057,102.49825247479103L158.17175951215955,102.59963974553634L158.2290266227722,102.66722008647679L158.4294615099165,102.90364737189371L158.51536217583552,103.00492738289742L158.6298963970608,103.1399204714321L158.74443061828612,103.27486663382983L158.77306417359247,103.30859311882848L159.28846816910635,103.91513355009629L159.34573527971904,103.98245914915046L159.46026950094435,104.11707012485567L159.63207083278232,104.31888603240577L159.86113927523294,104.58777279712373L160.14747482829625,104.92357623313102L160.54834460258485,105.39308564077379L160.6342452685038,105.49360142611863L160.72014593442282,105.5940836927942L161.63641970422532,106.66376498454743L161.77958748075696,106.83054047526429L161.80822103606332,106.86388149556659L161.9227552572886,106.9972154099734L162.03728947851394,107.13048228704174L162.06592303382027,107.16378978867479L162.15182369973925,107.2636854786385L162.2949914762709,107.43009561586054L162.6099605846405,107.79583122350746L162.83902902709116,108.06150354784442L162.95356324831644,108.19423747807168L163.0108303589291,108.2605776282499L163.18263169076707,108.45949417090995L163.4117001332177,108.72447265879343L163.44033368852405,108.75757569654405L163.612135020362,108.95609671890693L163.698035686281,109.0552985724172L164.0989054605696,109.51769531844528L164.2993403477139,109.74855850476682L164.92927856445314,110.47263214975733L165.12971345159744,110.70253335027142L165.3015147834354,110.89940190224031L165.4160490046607,111.030553751279L165.44468255996705,111.06332830607099L165.81691877894932,111.48894836819872L166.2177885532379,111.94636088810942L166.3036892191569,112.0442488097851L166.3895898850759,112.14208645345693L166.44685699568853,112.20729032074759L166.5041241063012,112.2724707249698L166.96226099120244,112.79315978868935L167.0195281018151,112.85814913649683L167.07679521242778,112.92311837310278L167.1054287677341,112.95559461173845L167.13406232304044,112.98806749850716L167.33449721018474,113.2152168162759L167.36313076549106,113.2476461287746L167.878534761005,113.8304285272785L168.45120586713153,114.47585396674242L168.82344208611383,114.89417031084074L169.1956783050961,115.31150790979697L169.25294541570875,115.37562577220397L169.796982966529,115.98356728384641L169.9115171877543,116.11128346928705L170.1119520748986,116.33454797328977L170.22648629612394,116.46199600937642L170.36965407265558,116.6211661140406L171.25729428715175,117.60456029554534L171.54362984021503,117.92049051255471L171.5722633955214,117.95204833965293L172.4885371653239,118.95845643946423L173.1757424926758,119.70880201741235L173.51934515635173,120.08250836460675L173.5766122669644,120.14469555166501L173.71978004349603,120.30004452803477L174.0061155965593,120.61021958953404L174.0920162624783,120.70313669256004L174.12064981778462,120.73409453547872L174.34971826023525,120.98150253694172L174.40698537084793,121.04328414810205L174.55015314737955,121.19761415692663L175.60959469371372,122.33403782288909L175.72412891493903,122.45629716897595L175.83866313616434,122.57843249598658L176.03909802330864,122.79188608550002L176.15363224453398,122.91369628141895L176.18226579984028,122.94413123309731L176.23953291045294,123.00497432151866L176.2681664657593,123.03538581012856L176.61176912943523,123.39972368926779L176.86947112719218,123.672260637067L177.1844402355618,124.00451109413385L177.49940934393143,124.33582638032865L177.55667645454406,124.39596222482885L177.69984423107573,124.54616943733576L177.7571113416884,124.60619467022744L177.90027911822003,124.7561236777796L178.07208045005797,124.93578039308896L178.2725153372023,125.14501398214394L178.64475155618456,125.53254678040369L179.07425488577948,125.97800319099315L179.1028884410858,126.00763369460955L179.21742266231112,126.12607861613584L179.33195688353644,126.24439281485205L179.41785754945542,126.33304299128262L180.01916221088834,126.95148925386778L180.21959709803264,127.15681456608827L180.2768642086453,127.21540519993606L180.33413131925795,127.27396231511462L180.93543598069087,127.88673721886279L180.96406953599717,127.91582136817041L181.04997020191618,128.00302688995635L181.1072373125288,128.06112144749923L181.22177153375412,128.17720330284345L181.25040508906048,128.20620365547796L181.39357286559212,128.35107134397347L181.45083997620478,128.40895473390012L181.50810708681743,128.46680460515748L182.1953124141693,129.1582746405692L182.36711374600728,129.33034272916052L182.42438085661993,129.38762948677453L182.76798352029587,129.73058915866656L183.0829526286655,130.04383117840212L183.34065462642246,130.2993037716865L183.3692881817288,130.3276438065368L183.4838224029541,130.44091344553098L183.77015795601739,130.72344566050035L183.97059284316168,130.9206695103633L184.08512706438702,131.0331648680978L184.28556195153132,131.2296714184388L184.57189750459457,131.50960593654136L184.62916461520726,131.56547820631303L184.77233239173887,131.70499966706328L184.82959950235156,131.76074121402488L184.9155001682705,131.84428314526187L184.97276727888317,131.89993083994955L185.2877363872528,132.20531273174618L186.03220882521737,132.92251504954058L186.26127726766796,133.14187798044267L186.34717793358698,133.22397860890194L186.40444504419963,133.2786643177822L186.43307859950596,133.30599208882114L186.63351348665026,133.49701163300605L186.74804770787557,133.6059473080663L186.80531481848823,133.66035816385872L186.8912154844072,133.7418990305415L187.43525303522748,134.25625138983946L187.63568792237177,134.44484250643725L187.7788556989034,134.57924901826007L188.06519125196667,134.8473061959141L188.40879391564263,135.1676374141959L189.12463279830087,135.8302679865855L190.24134145524766,136.8510354843032L190.52767700831095,137.11019680713846L190.92854678259957,137.47123644922357L191.0717145591312,137.5996716101196L191.5012178887261,137.9833665207503L192.04525543954637,138.4658861998622L192.24569032669066,138.64266366148306L192.33159099260965,138.71826334404142L192.53202587975395,138.89427490406993L192.73246076689827,139.06974681352352L192.81836143281726,139.1447833824385L193.01879631996155,139.31948101063244L193.30513187302483,139.56810741572264L193.3623989836375,139.61769828687702L193.44829964955647,139.69200079693542L193.4769332048628,139.71674763044217L193.50556676016916,139.74148105648123L193.53420031547546,139.76620442691953L193.73463520261976,139.93895126856316L193.93507008976405,140.1111484040311L194.192772087521,140.3317314144939L194.42184052997166,140.5270363205423L194.99451163609822,141.012110122251L195.6530834081438,141.56426818859526L196.13985384835135,141.96844970987112L196.62662428855896,142.36925422522015L196.71252495447794,142.43963169910947L196.99886050754125,142.67345961172612L197.02749406284755,142.6967768739894L197.0847611734602,142.74337620391324L197.4569973924425,143.04511796822936L198.20146983040704,143.64255137706215L198.9745758236779,144.25434250786785L199.11774360020954,144.36666524445576L199.20364426612855,144.43391375057067L199.43271270857915,144.61270233234646L199.60451404041714,144.74627925710536L199.91948314878675,144.99002199208593L200.1771851465437,145.18833687463294L200.377620033688,145.34188925033098L200.549421365526,145.47302098816812L200.66395558675129,145.5601929912848L200.72122269736394,145.60370357583733L200.7498562526703,145.6254404328455L201.60886291186014,146.27172730210913L201.72339713308546,146.35704404688286L201.75203068839178,146.37834180932387L201.98109913084244,146.54826637901672L202.63967090288799,147.03227093517637L202.69693801350064,147.07403854892792L202.72557156880694,147.09490392053561L203.04054067717658,147.32357498588826L203.1264413430956,147.38566999660608L203.5273111173842,147.6739137928155L203.6418453386095,147.75580492959196L203.69911244922213,147.79667256707418L204.0427151128981,148.0407890352169L204.2717835553487,148.2024948272098L204.41495133188036,148.3031363075643L204.47221844249302,148.34330172892578L204.52948555310567,148.38341519634986L205.27395799107023,148.90011218656184L206.10433109495375,149.46590397162325L206.33339953740438,149.62001862299792L206.50520086924234,149.73504296432733L206.79153642230563,149.9256812336495L206.90607064353094,150.0015616350628L207.02060486475628,150.0772266790262L207.1351390859816,150.15267636553966L207.22103975190058,150.2091218045555L207.27830686251323,150.24668533921647L207.42147463904487,150.34035745026733L207.6505430814955,150.4895297738612L208.16594707700943,150.82199726431145L208.4522826300727,151.00479719282967L208.50954974068534,151.04119343983402L208.70998462782967,151.16815042741618L208.9390530702803,151.3124223215658L208.96768662558662,151.33039419405054L209.05358729150558,151.3842293666986L209.4544570657942,151.63382110946318L209.8553268400828,151.88071040951954L209.96986106130814,151.95075185874964L209.99849461661444,151.9682276549295L210.02712817192076,151.98569004364165L210.39936439090303,152.21143241526863L210.57116572274103,152.31482913023544L210.71433349927267,152.40060927061157L210.742967054579,152.41772390313025L210.80023416519163,152.45191043186435L210.88613483111064,152.50308506014073L210.9434019417233,152.53713164843072L211.02930260764228,152.58809762299103L211.3442717160119,152.77389160663995L212.08874415397642,153.20628076402258L212.60414814949036,153.5000350294566L213.03365147908528,153.74131833208102L213.11955214500426,153.78919053346962L213.14818570031062,153.80511944306363L213.31998703214856,153.90039290853787L213.60632258521187,154.05803958968468L214.00719235950046,154.27633830283813L214.40806213378906,154.4918214477746L214.52259635501437,154.55286983804513L214.60849702093336,154.5985038302946L214.63713057623968,154.6136869494978L215.41023656951057,155.0181508655621L215.58203790134854,155.10659574014352L215.66793856726753,155.1506220932191L215.92564056502448,155.2819143016853L216.09744189686248,155.3687863127122L216.24060967339412,155.44077812950923L216.26924322870042,155.45513249961525L216.29787678400677,155.46947220530348L216.35514389461943,155.49810804240988L216.61284589237636,155.6262448871496L216.69874655829537,155.6686933488703L216.75601366890803,155.6969190012618L217.21415055380928,155.9206087733806L217.27141766442193,155.9483052497813L217.35731833034092,155.98973935277385L217.50048610687256,156.0585016457887L217.61502032809787,156.1132455933568L218.07315721299912,156.32985789846362L218.10179076830548,156.34327039396373L218.21632498953076,156.39677205585275L218.47402698728771,156.51628329004453L219.0466980934143,156.7775525181922L219.39030075709027,156.93145265008368L219.64800275484723,157.04546598455184L219.7339034207662,157.08320088340935L220.42110874811806,157.38022196214507L220.7360778564877,157.51346328122813L220.936512743632,157.5973039476048L221.02241340955098,157.63300929103923L221.07968052016366,157.65673715700083L221.13694763077632,157.68040510834112L221.19421474138895,157.70401230709342L221.36601607322692,157.77447148273902L221.48055029445226,157.8211412018683L221.9386871793535,158.00539793554879L222.25365628772312,158.1298209117357L222.31092339833577,158.15224573943019L222.68315961731807,158.2965226613802L222.76906028323702,158.32945182103407L222.94086161507502,158.3948978607101L223.4276320552826,158.57734332930102L223.5421662765079,158.6196296444592L223.71396760834585,158.68259907346106L223.97166960610284,158.77601853754243L224.00030316140916,158.786321966978L224.25800515916612,158.87836025239463L224.3439058250851,158.90876294235386L224.42980649100411,158.93902736780242L224.57297426753576,158.98916061292357L224.6302413781484,159.00910610655205L224.80204270998635,159.06857283461736L225.0597447077433,159.15673280051016L225.2601795948876,159.22443757951018L225.37471381611294,159.2627862889983L225.51788159264458,159.31037441966504L226.00465203285216,159.4692807743006L226.6345902495914,159.6682742004082L226.69185736020407,159.68599174999002L226.77775802612305,159.7124515969871L227.09272713449266,159.80827309270356L227.29316202163696,159.86826941574301L227.49359690878126,159.9275021415986L227.9231002383762,160.05185472858008L228.3526035679711,160.17269162614068L228.38123712327746,160.18062214328506L228.5530384551154,160.2278771821761L228.8393740081787,160.30538240108126L228.98254178471035,160.34354696738023L229.039808895323,160.35870306215634L229.125709561242,160.38131936524894L229.4406786696116,160.4630369381662L229.6124800014496,160.5068087588472L229.89881555451285,160.5785037259297L229.9274491098192,160.58558663972542L229.98471622043186,160.59970533168828L230.35695243941413,160.68994094117434L230.55738732655846,160.7374260019331L230.61465443717108,160.75085117168004L230.6432879924774,160.75754013636626L231.38776043044194,160.9259096492976L231.58819531758624,160.96941415859135L232.24676708963185,161.10689496085936L232.44720197677614,161.14707284697593L232.5331026426951,161.16405392854685L232.7049039745331,161.19758778594314L233.7929790761736,161.3966858007734L234.16521529515583,161.45952419272766L234.1938488504622,161.46424639712276L234.25111596107485,161.47364304180928L234.42291729291279,161.50145044405605L234.5088179588318,161.51513894484825L234.96695484373305,161.58572004465327L235.0242219543457,161.59425546903174L235.25329039679633,161.62775858352362L235.53962594985964,161.66820016729594L236.2268312772115,161.75873922548453L236.34136549843683,161.7729334653855L236.57043394088745,161.80055384393242L236.68496816211277,161.81397987783254L236.94267015986972,161.8432517840609L236.97130371517605,161.84642414280012L237.48670771068998,161.90078702499716L237.74440970844694,161.92602113615814L237.9162110402849,161.94212236575447L238.5175157017178,161.99392900425144L238.66068347824944,162.00522088091262L238.77521769947475,162.0139654434567L238.83248481008744,162.0182414174742L239.20472102906967,162.0444696583227L239.26198813968233,162.04826389312237L239.34788880560134,162.0538347810576L239.49105658213298,162.06279833442298L239.6055908033583,162.06968001181752L239.8060256905026,162.08110439851473L239.89192635642158,162.08575954593147L240.1209947988722,162.09746618339156L240.35006324132283,162.1081442035958L241.03726856867473,162.13400515969806L241.23770345581903,162.13980338375217L241.55267256418864,162.14732280456548L241.58130611949497,162.14790989273163L241.66720678541395,162.14957465930542L241.75310745133294,162.15109467367301L242.26851144684684,162.15717483813953L242.38304566807219,162.15781825159183L242.49757988929747,162.15820430052244L242.55484699991013,162.15830081286379L242.61211411052278,162.15833298365274" fill="none"></path></g></g></g></g></g></g><g transform="translate(72, 176)" clip-path="url(#clip_1)"><clipPath id="clip_1"><rect width="257" height="23"></rect></clipPath><g><g><line x1="0" y1="0" x2="0" y2="5" style="visibility: inherit;" fill="rgb(0, 0, 0)" stroke="rgb(204, 204, 204)" stroke-width="1px"></line><line x1="28.633555306328667" y1="0" x2="28.633555306328667" y2="5" style="visibility: inherit;" fill="rgb(0, 0, 0)" stroke="rgb(204, 204, 204)" stroke-width="1px"></line><line x1="57.26711061265733" y1="0" x2="57.26711061265733" y2="5" style="visibility: inherit;" fill="rgb(0, 0, 0)" stroke="rgb(204, 204, 204)" stroke-width="1px"></line><line x1="85.900665918986" y1="0" x2="85.900665918986" y2="5" style="visibility: inherit;" fill="rgb(0, 0, 0)" stroke="rgb(204, 204, 204)" stroke-width="1px"></line><line x1="114.53422122531467" y1="0" x2="114.53422122531467" y2="5" style="visibility: inherit;" fill="rgb(0, 0, 0)" stroke="rgb(204, 204, 204)" stroke-width="1px"></line><line x1="143.16777653164334" y1="0" x2="143.16777653164334" y2="5" style="visibility: inherit;" fill="rgb(0, 0, 0)" stroke="rgb(204, 204, 204)" stroke-width="1px"></line><line x1="171.801331837972" y1="0" x2="171.801331837972" y2="5" style="visibility: inherit;" fill="rgb(0, 0, 0)" stroke="rgb(204, 204, 204)" stroke-width="1px"></line><line x1="200.4348871443007" y1="0" x2="200.4348871443007" y2="5" style="visibility: inherit;" fill="rgb(0, 0, 0)" stroke="rgb(204, 204, 204)" stroke-width="1px"></line><line x1="229.06844245062933" y1="0" x2="229.06844245062933" y2="5" style="visibility: inherit;" fill="rgb(0, 0, 0)" stroke="rgb(204, 204, 204)" stroke-width="1px"></line><line x1="257.701997756958" y1="0" x2="257.701997756958" y2="5" style="visibility: inherit;" fill="rgb(0, 0, 0)" stroke="rgb(204, 204, 204)" stroke-width="1px"></line></g><g transform="translate(0, 8)"><text style="text-anchor: middle; visibility: hidden; font-family: Roboto, sans-serif; font-size: 12px; font-weight: 200;" x="0" y="0" dx="0em" dy="0.95em" fill="rgb(33, 33, 33)" stroke="none" stroke-width="1px">-1k</text><text style="text-anchor: middle; visibility: inherit; font-family: Roboto, sans-serif; font-size: 12px; font-weight: 200;" x="28.633555306328667" y="0" dx="0em" dy="0.95em" fill="rgb(33, 33, 33)" stroke="none" stroke-width="1px">0</text><text style="text-anchor: middle; visibility: inherit; font-family: Roboto, sans-serif; font-size: 12px; font-weight: 200;" x="57.26711061265733" y="0" dx="0em" dy="0.95em" fill="rgb(33, 33, 33)" stroke="none" stroke-width="1px">1k</text><text style="text-anchor: middle; visibility: inherit; font-family: Roboto, sans-serif; font-size: 12px; font-weight: 200;" x="85.900665918986" y="0" dx="0em" dy="0.95em" fill="rgb(33, 33, 33)" stroke="none" stroke-width="1px">2k</text><text style="text-anchor: middle; visibility: inherit; font-family: Roboto, sans-serif; font-size: 12px; font-weight: 200;" x="114.53422122531467" y="0" dx="0em" dy="0.95em" fill="rgb(33, 33, 33)" stroke="none" stroke-width="1px">3k</text><text style="text-anchor: middle; visibility: inherit; font-family: Roboto, sans-serif; font-size: 12px; font-weight: 200;" x="143.16777653164334" y="0" dx="0em" dy="0.95em" fill="rgb(33, 33, 33)" stroke="none" stroke-width="1px">4k</text><text style="text-anchor: middle; visibility: inherit; font-family: Roboto, sans-serif; font-size: 12px; font-weight: 200;" x="171.801331837972" y="0" dx="0em" dy="0.95em" fill="rgb(33, 33, 33)" stroke="none" stroke-width="1px">5k</text><text style="text-anchor: middle; visibility: inherit; font-family: Roboto, sans-serif; font-size: 12px; font-weight: 200;" x="200.4348871443007" y="0" dx="0em" dy="0.95em" fill="rgb(33, 33, 33)" stroke="none" stroke-width="1px">6k</text><text style="text-anchor: middle; visibility: inherit; font-family: Roboto, sans-serif; font-size: 12px; font-weight: 200;" x="229.06844245062933" y="0" dx="0em" dy="0.95em" fill="rgb(33, 33, 33)" stroke="none" stroke-width="1px">7k</text><text style="text-anchor: middle; visibility: hidden; font-family: Roboto, sans-serif; font-size: 12px; font-weight: 200;" x="257.701997756958" y="0" dx="0em" dy="0.95em" fill="rgb(33, 33, 33)" stroke="none" stroke-width="1px">8k</text></g><line x1="0" y1="0" x2="257.701997756958" y2="0" fill="rgb(0, 0, 0)" stroke="rgb(204, 204, 204)" stroke-width="1px"></line></g></g></g></g></svg>